<svg xmlns="http://www.w3.org/2000/svg" width="217.805" height="208.543" viewBox="0 0 217.805 208.543">
  <g id="Grupo_10668" data-name="Grupo 10668" transform="translate(-834.138 -11438.021)">
    <g id="Grupo_10635" data-name="Grupo 10635" transform="translate(1039.448 11566.98)">
      <path id="Trazado_10869" data-name="Trazado 10869" d="M482.126,895.66q.144-.558.281-1.122C482.317,894.913,482.221,895.286,482.126,895.66Z" transform="translate(-482.126 -894.538)" fill="#afe6ff"/>
    </g>
    <g id="Grupo_10636" data-name="Grupo 10636" transform="translate(869.257 11438.021)">
      <path id="Trazado_10870" data-name="Trazado 10870" d="M151.207,591.389c-40.126,0-64.842,22.631-64.91,22.67-1.548,7.148-4.242,17.521-4.242,25.134,0,57.587,48.563,104.26,106.151,104.26,24.541,0,47.089-11.427,64.9-25.614a102.087,102.087,0,0,0,2.372-22.179A104.271,104.271,0,0,0,151.207,591.389Z" transform="translate(-82.055 -591.389)" fill="#66baed"/>
    </g>
    <g id="Grupo_10637" data-name="Grupo 10637" transform="translate(834.138 11460.69)">
      <path id="Trazado_10871" data-name="Trazado 10871" d="M205.671,748.46A104.3,104.3,0,0,1,38.861,644.68l-.007.006A104.274,104.274,0,1,0,204.81,752.092c.095-.373.19-.747.281-1.122.043-.178.436-1.849.58-2.51Z" transform="translate(0.5 -644.68)" fill="#4aa5dc"/>
    </g>
    <g id="Grupo_10651" data-name="Grupo 10651" transform="translate(867.046 11449.844)">
      <g id="Grupo_10643" data-name="Grupo 10643">
        <g id="Grupo_10639" data-name="Grupo 10639" transform="translate(4.593)">
          <path id="Trazado_10872" data-name="Trazado 10872" d="M267.959,711.629a92.1,92.1,0,0,1-22.974,60.994c-16.943,19.284-41.788,26.61-69.474,26.61-51.058,0-87.856-38.184-87.856-89.241,0-38.84,19.358-70.446,53.3-84.134a92.5,92.5,0,0,1,127.009,85.772Z" transform="translate(-87.654 -619.181)" fill="#f1d333"/>
        </g>
        <g id="Grupo_10640" data-name="Grupo 10640" transform="translate(127.148 22.184)">
          <path id="Trazado_10873" data-name="Trazado 10873" d="M385.763,684.778a5.3,5.3,0,0,1-2.881-.85c-1.418-.914-2.886-1.788-4.364-2.6a5.328,5.328,0,1,1,5.117-9.346c1.7.931,3.389,1.935,5.019,2.986a5.329,5.329,0,0,1-2.891,9.807Z" transform="translate(-375.748 -671.329)" fill="#f9ef63"/>
        </g>
        <g id="Grupo_10641" data-name="Grupo 10641" transform="translate(69.642 11.144)">
          <path id="Trazado_10874" data-name="Trazado 10874" d="M286.943,659.762a5.314,5.314,0,0,1-1.652-.263,71.165,71.165,0,0,0-38.175-1.586,5.328,5.328,0,1,1-2.441-10.372,81.821,81.821,0,0,1,43.919,1.827,5.329,5.329,0,0,1-1.65,10.4Z" transform="translate(-240.566 -645.378)" fill="#f9ef63"/>
        </g>
        <g id="Grupo_10642" data-name="Grupo 10642" transform="translate(0 6.682)">
          <path id="Trazado_10875" data-name="Trazado 10875" d="M204.219,788.327a92.444,92.444,0,0,1-69.47-153.439A92.456,92.456,0,1,0,238.777,781.644,92.168,92.168,0,0,1,204.219,788.327Z" transform="translate(-76.858 -634.888)" fill="#eab14d"/>
        </g>
      </g>
      <g id="Grupo_10645" data-name="Grupo 10645" transform="translate(82.446 60.372)">
        <g id="Grupo_10644" data-name="Grupo 10644">
          <ellipse id="Elipse_118" data-name="Elipse 118" cx="10.135" cy="10.135" rx="10.135" ry="10.135" fill="#783c28"/>
        </g>
      </g>
      <g id="Grupo_10647" data-name="Grupo 10647" transform="translate(128.541 60.372)">
        <g id="Grupo_10646" data-name="Grupo 10646">
          <ellipse id="Elipse_119" data-name="Elipse 119" cx="10.135" cy="10.135" rx="10.135" ry="10.135" fill="#783c28"/>
        </g>
      </g>
      <g id="Grupo_10648" data-name="Grupo 10648" transform="translate(78.896 111.684)">
        <path id="Trazado_10876" data-name="Trazado 10876" d="M266.588,905.413a4.263,4.263,0,0,1-2.361-7.814c1.731-1.148,42.694-27.919,69.836-9.331a4.262,4.262,0,0,1-4.816,7.034c-6.347-4.347-18.117-8.09-38.154-1.242a108.244,108.244,0,0,0-22.15,10.642,4.245,4.245,0,0,1-2.354.711Z" transform="translate(-262.321 -881.719)" fill="#783c28"/>
      </g>
      <g id="Grupo_10649" data-name="Grupo 10649" transform="translate(60.834 38.11)">
        <path id="Trazado_10877" data-name="Trazado 10877" d="M223.061,724.359a3.2,3.2,0,0,1-1.209-6.157l22.525-9.2a3.2,3.2,0,0,1,2.417,5.919l-22.525,9.2a3.181,3.181,0,0,1-1.207.238Z" transform="translate(-219.863 -708.767)" fill="#eab14d"/>
      </g>
      <g id="Grupo_10650" data-name="Grupo 10650" transform="translate(140.545 38.11)">
        <path id="Trazado_10878" data-name="Trazado 10878" d="M432.962,724.359a3.184,3.184,0,0,1-1.207-.238l-22.526-9.2A3.2,3.2,0,1,1,411.647,709l22.525,9.2a3.2,3.2,0,0,1-1.21,6.157Z" transform="translate(-407.24 -708.766)" fill="#eab14d"/>
      </g>
    </g>
  </g>
</svg>
