<svg xmlns="http://www.w3.org/2000/svg" width="217.805" height="209.123" viewBox="0 0 217.805 209.123">
  <g id="Grupo_10667" data-name="Grupo 10667" transform="translate(-1079.811 -11184.554)">
    <path id="Trazado_10879" data-name="Trazado 10879" d="M1103.976,628.678c.1-.373.19-.749.283-1.125C1104.167,627.93,1104.072,628.3,1103.976,628.678Z" transform="translate(181.715 10686.319)" fill="#afe6ff"/>
    <path id="Trazado_10880" data-name="Trazado 10880" d="M772.137,323.56c-40.238,0-65.022,22.7-65.091,22.733-1.553,7.168-4.254,17.57-4.254,25.2,0,57.747,48.7,104.55,106.446,104.55,24.609,0,47.22-11.459,65.082-25.685a102.322,102.322,0,0,0,2.379-22.24A104.562,104.562,0,0,0,772.137,323.56Z" transform="translate(412.235 10860.994)" fill="#66baed"/>
    <path id="Trazado_10881" data-name="Trazado 10881" d="M826.752,481.068A104.59,104.59,0,0,1,659.478,377l-.007.006a104.564,104.564,0,1,0,166.417,107.7c.1-.374.191-.749.283-1.125.043-.179.438-1.855.581-2.518Z" transform="translate(459.802 10830.287)" fill="#4aa5dc"/>
    <g id="Grupo_10665" data-name="Grupo 10665" transform="translate(1112.065 11196.34)">
      <g id="Grupo_10658" data-name="Grupo 10658">
        <g id="Grupo_10654" data-name="Grupo 10654" transform="translate(3.124)">
          <path id="Trazado_10882" data-name="Trazado 10882" d="M885.6,444.042a92.42,92.42,0,0,1-23.056,61.209c-17,19.352-41.935,25.805-69.72,25.805-51.239,0-89.652-35.776-89.652-87.014,0-38.977,20.911-72.339,54.969-86.075A92.831,92.831,0,0,1,885.6,444.042Z" transform="translate(-703.172 -351.267)" fill="#f1d333"/>
        </g>
        <g id="Grupo_10655" data-name="Grupo 10655" transform="translate(126.758 21.883)">
          <path id="Trazado_10883" data-name="Trazado 10883" d="M1006.413,417.583a5.323,5.323,0,0,1-2.91-.865,71.548,71.548,0,0,0-6.76-3.887,5.347,5.347,0,1,1,4.815-9.548,82.2,82.2,0,0,1,7.774,4.471,5.347,5.347,0,0,1-2.92,9.829Z" transform="translate(-993.803 -402.709)" fill="#f9ef63"/>
        </g>
        <g id="Grupo_10656" data-name="Grupo 10656" transform="translate(69.888 11.184)">
          <path id="Trazado_10884" data-name="Trazado 10884" d="M906.658,391.992a5.34,5.34,0,0,1-1.658-.265,71.416,71.416,0,0,0-38.31-1.591,5.347,5.347,0,0,1-2.45-10.409,82.107,82.107,0,0,1,44.074,1.833,5.347,5.347,0,0,1-1.656,10.431Z" transform="translate(-860.117 -377.558)" fill="#f9ef63"/>
        </g>
        <g id="Grupo_10657" data-name="Grupo 10657" transform="translate(0 6.706)">
          <path id="Trazado_10885" data-name="Trazado 10885" d="M823.639,521.011A92.771,92.771,0,0,1,753.924,367.03,92.783,92.783,0,1,0,858.32,514.3,92.5,92.5,0,0,1,823.639,521.011Z" transform="translate(-695.829 -367.03)" fill="#eab14d"/>
        </g>
      </g>
      <g id="Grupo_10659" data-name="Grupo 10659" transform="translate(63.613 115.231)">
        <path id="Trazado_10886" data-name="Trazado 10886" d="M845.365,622.142a50.448,50.448,0,0,0,14.579,28.587L908.98,663.38a50.634,50.634,0,0,0,36.43-41.238Z" transform="translate(-845.365 -622.142)" fill="#a55a3c"/>
      </g>
      <g id="Grupo_10660" data-name="Grupo 10660" transform="translate(120.619 115.231)">
        <path id="Trazado_10887" data-name="Trazado 10887" d="M997.582,622.142a50.494,50.494,0,0,1-16.049,29.978,6.446,6.446,0,0,0,4.348,11.261h.1a50.633,50.633,0,0,0,36.43-41.238Z" transform="translate(-979.37 -622.142)" fill="#783c28"/>
      </g>
      <g id="Grupo_10662" data-name="Grupo 10662" transform="translate(81.246 52.753)">
        <g id="Grupo_10661" data-name="Grupo 10661">
          <ellipse id="Elipse_120" data-name="Elipse 120" cx="10.171" cy="10.171" rx="10.171" ry="10.171" fill="#783c28"/>
        </g>
      </g>
      <g id="Grupo_10663" data-name="Grupo 10663" transform="translate(127.503 52.753)">
        <ellipse id="Elipse_121" data-name="Elipse 121" cx="10.171" cy="10.171" rx="10.171" ry="10.171" fill="#783c28"/>
      </g>
      <path id="Trazado_10888" data-name="Trazado 10888" d="M943.826,606.714h0a6.329,6.329,0,0,0-4.781-2.178h-87.6a6.333,6.333,0,0,0-6.265,7.217c0,.013,0,.025.006.038a7.833,7.833,0,0,0,7.768,6.722h84.58a7.849,7.849,0,0,0,7.77-6.734l0-.026A6.323,6.323,0,0,0,943.826,606.714Z" transform="translate(-781.611 -496.795)" fill="#fff"/>
      <g id="Grupo_10664" data-name="Grupo 10664" transform="translate(78.193 133.029)">
        <path id="Trazado_10889" data-name="Trazado 10889" d="M879.64,674.768a50.636,50.636,0,0,0,49.033,12.65,27.5,27.5,0,0,0-49.033-12.65Z" transform="translate(-879.64 -663.981)" fill="#dd6938"/>
      </g>
    </g>
  </g>
</svg>
