<?xml version="1.0" encoding="utf-8"?>
<!-- Generator: Adobe Illustrator 25.0.1, SVG Export Plug-In . SVG Version: 6.00 Build 0)  -->
<svg version="1.1" id="Capa_1" xmlns="http://www.w3.org/2000/svg" xmlns:xlink="http://www.w3.org/1999/xlink" x="0px" y="0px"
	 viewBox="0 0 371.2 371.3" style="enable-background:new 0 0 371.2 371.3;" xml:space="preserve">
<style type="text/css">
	.st0{fill:#DBA53B;}
	.st1{fill:#FFFFFF;}
	.st2{fill:#F1BB44;}
	.st3{fill:#D1D6DE;}
	.st4{fill:#B9BFCC;}
	.st5{fill:#CC9A37;}
	.st6{fill:#7DBD29;}
	.st7{fill:#9E82EC;}
	.st8{fill:#4591C2;}
	.st9{fill:#346D92;}
</style>
<g id="Capa_2_1_">
	<g id="Capa_1-2">
		<path class="st0" d="M32,371.3c-17.7,0-32-14.3-32-32V108.9c0-10.6,8.6-19.2,19.2-19.2c0,0,0,0,0,0h79c6.8,0,13.3,2.7,18.1,7.5
			l17,17c4.8,4.8,11.3,7.5,18.1,7.5h21.4v217.6l-102.4,32H32z"/>
		<path class="st1" d="M166.4,166.5V50.2c0-3.4,1.3-6.7,3.8-9.1l37.3-37.3c2.4-2.4,5.6-3.8,9-3.8h141.9c7,0,12.8,5.7,12.8,12.7
			c0,0,0,0.1,0,0.1v243.3c0,7-5.7,12.8-12.7,12.8c0,0-0.1,0-0.1,0H320L166.4,166.5z"/>
		<path class="st2" d="M320,185.7v153.6c0,17.7-14.3,32-32,32H32c8.5,0,16.7-3.3,22.7-9.3c6-6,9.4-14.2,9.3-22.7V185.7
			c0-10.6,8.6-19.2,19.2-19.2h217.6C311.4,166.5,320,175.1,320,185.7C320,185.7,320,185.7,320,185.7z"/>
		<path class="st1" d="M96,192.1h115.2c3.5,0,6.4,2.9,6.4,6.4v51.2c0,3.5-2.9,6.4-6.4,6.4H96c-3.5,0-6.4-2.9-6.4-6.4v-51.2
			C89.6,195,92.5,192.1,96,192.1z"/>
		<path class="st3" d="M211.2,1.3v37.3c0,3.5-2.9,6.4-6.4,6.4h-37.2c0.6-1.4,1.5-2.7,2.6-3.8l37.3-37.3
			C208.5,2.8,209.8,1.9,211.2,1.3z"/>
		<path class="st2" d="M352,134.5c0-10.6-8.6-19.2-19.2-19.2l0,0c-2.3,0-4.4-1.2-5.5-3.2c-1.1-2-1.1-4.4,0-6.4
			c1.1-2,3.2-3.2,5.5-3.2c2.3,0,4.4,1.2,5.5,3.2c1.8,2.9,5.6,3.9,8.6,2.2c3-1.7,4.1-5.6,2.4-8.6c-2.3-3.9-5.9-6.8-10.2-8.3v-1.3
			c0-3.5-2.9-6.4-6.4-6.4c-3.5,0-6.4,2.9-6.4,6.4v1.2c-10,3.5-15.2,14.5-11.7,24.4c2.7,7.6,9.9,12.8,18.1,12.8
			c2.3,0,4.4,1.2,5.5,3.2c1.1,2,1.1,4.4,0,6.4c-1.1,2-3.2,3.2-5.5,3.2c-2.3,0-4.4-1.2-5.5-3.2c-1.8-2.9-5.6-3.9-8.6-2.2
			c-3,1.7-4.1,5.6-2.4,8.6c2.3,3.9,5.9,6.8,10.2,8.3v1.3c0,3.5,2.9,6.4,6.4,6.4s6.4-2.9,6.4-6.4c0,0,0,0,0,0v-1.2
			C346.9,149.8,352,142.6,352,134.5z"/>
		<path class="st4" d="M128,230.5h-6.4c-3.5,0-6.4-2.9-6.4-6.4c0-3.5,2.9-6.4,6.4-6.4h6.4c3.5,0,6.4,2.9,6.4,6.4
			C134.4,227.6,131.5,230.5,128,230.5z"/>
		<path class="st4" d="M185.6,230.5h-32c-3.5,0-6.4-2.9-6.4-6.4c0-3.5,2.9-6.4,6.4-6.4l0,0h32c3.5,0,6.4,2.9,6.4,6.4
			C192,227.6,189.1,230.5,185.6,230.5z"/>
		<path class="st5" d="M166.4,288.1H96c-3.5,0-6.4-2.9-6.4-6.4c0-3.5,2.9-6.4,6.4-6.4h70.4c3.5,0,6.4,2.9,6.4,6.4
			S170,288.1,166.4,288.1C166.4,288.1,166.4,288.1,166.4,288.1z"/>
		<path class="st5" d="M134.4,313.7H96c-3.5,0-6.4-2.9-6.4-6.4c0-3.5,2.9-6.4,6.4-6.4c0,0,0,0,0,0h38.4c3.5,0,6.4,2.9,6.4,6.4
			S138,313.7,134.4,313.7C134.4,313.7,134.4,313.7,134.4,313.7z"/>
		<path class="st6" d="M217.6,147.3c-3.5,0-6.4-2.9-6.4-6.4v-32c0-3.5,2.9-6.4,6.4-6.4c3.5,0,6.4,2.9,6.4,6.4v32
			C224,144.4,221.1,147.3,217.6,147.3L217.6,147.3z"/>
		<path class="st7" d="M243.2,147.3c-3.5,0-6.4-2.9-6.4-6.4V96.1c0-3.5,2.9-6.4,6.4-6.4c3.5,0,6.4,2.9,6.4,6.4v44.8
			C249.6,144.4,246.7,147.3,243.2,147.3L243.2,147.3z"/>
		<path class="st2" d="M268.8,147.3c-3.5,0-6.4-2.9-6.4-6.4v-32c0-3.5,2.9-6.4,6.4-6.4c3.5,0,6.4,2.9,6.4,6.4c0,0,0,0,0,0v32
			C275.2,144.4,272.3,147.3,268.8,147.3z"/>
		<path class="st8" d="M345.6,25.7h-19.2c-3.5,0-6.4,2.9-6.4,6.4c0,3.5,2.9,6.4,6.4,6.4c0,0,0,0,0,0h3.8l-16.6,16.6l-14.7-14.7
			c-2.5-2.5-6.6-2.5-9.1,0l-14.6,14.7l-14.7-14.7c-2.5-2.5-6.6-2.5-9.1,0L225.8,66c-1.2,1.2-1.9,2.9-2,4.6c0,3.6,2.9,6.5,6.5,6.5
			c0,0,0,0,0,0c1.7,0,3.4-0.7,4.5-2L256,54l14.7,14.7c2.5,2.5,6.6,2.5,9.1,0L294.5,54l14.7,14.7c2.5,2.5,6.5,2.5,9,0c0,0,0,0,0,0
			l21.1-21.1v3.8c0,3.5,2.9,6.4,6.4,6.4c3.5,0,6.4-2.9,6.4-6.4V32.1C352,28.6,349.1,25.8,345.6,25.7z"/>
		<path class="st9" d="M281.6,147.3H192c-3.5,0-6.4-2.9-6.4-6.4V83.3c0-3.5,2.9-6.4,6.4-6.4c3.5,0,6.4,2.9,6.4,6.4v51.2h83.2
			c3.5,0,6.4,2.9,6.4,6.4C288,144.4,285.1,147.3,281.6,147.3z"/>
	</g>
</g>
</svg>
