<svg xmlns="http://www.w3.org/2000/svg" width="490" height="512" viewBox="0 0 490 512">
  <g id="Grupo_10686" data-name="Grupo 10686" transform="translate(-11)">
    <path id="Trazado_10890" data-name="Trazado 10890" d="M256,22C120.69,22,11,131.69,11,267q0,10.1.816,20l2.99,1H497.069l3.115-1q.8-9.9.816-20C501,131.69,391.31,22,256,22Z" fill="#66baed"/>
    <g id="Grupo_10685" data-name="Grupo 10685">
      <g id="Grupo_10670" data-name="Grupo 10670">
        <path id="Trazado_10891" data-name="Trazado 10891" d="M212.289,129.125a4,4,0,0,1,4-4h74.5V58.877a4.8,4.8,0,0,0-4.8-4.8H156.914c.054,1.011.086,2.028.086,3.052a56.126,56.126,0,0,1-78,51.69V288H212.289Z" fill="#ea9b58"/>
        <g id="Grupo_10669" data-name="Grupo 10669">
          <path id="Trazado_10892" data-name="Trazado 10892" d="M102.764,171.387a3,3,0,0,0-3.783,0L79,187.62V287h31.209V177.435Z" fill="#d88a55"/>
        </g>
        <path id="Trazado_10893" data-name="Trazado 10893" d="M156.914,54.076c.054,1.011.086,2.028.086,3.052a55.836,55.836,0,0,1-3.659,19.907v29.613a4.8,4.8,0,0,0,4.8,4.8H211.65a4.8,4.8,0,0,0,4.8-4.8V54.076Z" fill="#f6a96c"/>
      </g>
      <g id="Grupo_10672" data-name="Grupo 10672">
        <g id="Grupo_10671" data-name="Grupo 10671">
          <path id="Trazado_10894" data-name="Trazado 10894" d="M183.143,317.492A10.224,10.224,0,0,0,193.356,327.7H212.29V287H183.144v30.492Z" fill="#4fc123"/>
          <path id="Trazado_10895" data-name="Trazado 10895" d="M423.908,444.026H288.893c.033.411.063.822.063,1.241v1.128a15.622,15.622,0,0,1-15.6,15.6H229.478a15.454,15.454,0,0,1-5.4-.988l-.169-.063H177.161a32,32,0,0,1-31.961-31.96V287H11.816C21.994,412.954,127.425,512,256,512a244.119,244.119,0,0,0,168.291-66.974Z" fill="#4fc123"/>
        </g>
        <path id="Trazado_10896" data-name="Trazado 10896" d="M476.174,287v85.648l1-.187A243.519,243.519,0,0,0,500.184,287Z" fill="#4fc123"/>
      </g>
      <path id="Trazado_10897" data-name="Trazado 10897" d="M472.174,124.126H216.289a5,5,0,0,0-5,5V327.7h12.625l.169-.063a15.426,15.426,0,0,1,5.4-.988h43.874a15.622,15.622,0,0,1,15.6,15.6v1.128a15.622,15.622,0,0,1-15.6,15.6v2a15.622,15.622,0,0,1,15.6,15.6v1.128A15.5,15.5,0,0,1,287.627,384h182l2.38-1c1.8-3.331,3.528-6.7,5.17-10.124V129.126a5,5,0,0,0-5-5Z" fill="#fe646f"/>
      <g id="Grupo_10675" data-name="Grupo 10675">
        <g id="Grupo_10673" data-name="Grupo 10673">
          <path id="Trazado_10898" data-name="Trazado 10898" d="M299.812,125.125V89.568a44.594,44.594,0,0,1,89.189,0v35.558h15V89.568a59.594,59.594,0,0,0-119.189,0v35.558h15Z" fill="#fd4755"/>
          <path id="Trazado_10899" data-name="Trazado 10899" d="M223.735,326.7a16.416,16.416,0,0,1,5.743-1.051H257V129.126a5,5,0,0,1,5-5H216.289a5,5,0,0,0-5,5V326.7h12.446Z" fill="#fd4755"/>
          <path id="Trazado_10900" data-name="Trazado 10900" d="M288.018,383a15.616,15.616,0,0,1-14.666,10.327v2a15.622,15.622,0,0,1,15.6,15.6v1.128a15.622,15.622,0,0,1-15.6,15.6v2a15.616,15.616,0,0,1,15.592,15.363H424.307A245.933,245.933,0,0,0,471.843,383Z" fill="#fd4755"/>
        </g>
        <g id="Grupo_10674" data-name="Grupo 10674">
          <path id="Trazado_10901" data-name="Trazado 10901" d="M344.232,266.908a59.663,59.663,0,0,1-59.6-59.594V166a7.5,7.5,0,0,1,15,0v41.314a44.594,44.594,0,0,0,89.189,0V166a7.5,7.5,0,1,1,15,0v41.314A59.661,59.661,0,0,1,344.232,266.908Z" fill="#fff"/>
        </g>
      </g>
      <g id="Grupo_10678" data-name="Grupo 10678">
        <path id="Trazado_10902" data-name="Trazado 10902" d="M145.2,428.988V349.654H118.624V439h28.191a31.823,31.823,0,0,1-1.615-10.011Z" fill="#fed2a4"/>
        <g id="Grupo_10676" data-name="Grupo 10676">
          <path id="Trazado_10903" data-name="Trazado 10903" d="M115.018,328.631h-96.2A245.167,245.167,0,0,0,105.1,460.021h9.917a4.606,4.606,0,0,0,4.606-4.606V333.238A4.607,4.607,0,0,0,115.018,328.631Z" fill="#0182fc"/>
        </g>
        <path id="Trazado_10904" data-name="Trazado 10904" d="M115.018,328.631h-96.2A243.145,243.145,0,0,0,29.287,360h85.731a4.606,4.606,0,0,1,4.606,4.606V333.237A4.606,4.606,0,0,0,115.018,328.631Z" fill="#0172fb"/>
        <path id="Trazado_10905" data-name="Trazado 10905" d="M213.873,446.4v-1.128a15.622,15.622,0,0,1,15.6-15.6v-2a15.622,15.622,0,0,1-15.6-15.6v-1.128a15.622,15.622,0,0,1,15.6-15.6v-2a15.622,15.622,0,0,1-15.6-15.6V376.6a15.622,15.622,0,0,1,15.6-15.6v-2a15.622,15.622,0,0,1-15.6-15.6V342.26a15.611,15.611,0,0,1,14.6-15.553H193.355a9.212,9.212,0,0,1-9.212-9.212V284.512a24.461,24.461,0,0,0-24.461-24.461h-8.474a7.007,7.007,0,0,0-7.007,7.007V428.992a32.961,32.961,0,0,0,32.961,32.961h51.307A15.619,15.619,0,0,1,213.873,446.4Z" fill="#fed2a4"/>
        <path id="Trazado_10906" data-name="Trazado 10906" d="M159.5,428.988V267.055a7,7,0,0,1,4.651-6.593,24.569,24.569,0,0,0-4.47-.415h-8.474a7.007,7.007,0,0,0-7.007,7.007V428.988a32.961,32.961,0,0,0,32.961,32.961h15.3A32.961,32.961,0,0,1,159.5,428.988Z" fill="#ffbd86"/>
        <path id="Trazado_10907" data-name="Trazado 10907" d="M289.956,343.386v-1.128a16.653,16.653,0,0,0-16.6-16.6H229.478a16.653,16.653,0,0,0-16.6,16.6v1.128a16.653,16.653,0,0,0,16.6,16.6,16.653,16.653,0,0,0-16.6,16.6v1.128a16.653,16.653,0,0,0,16.6,16.6,16.653,16.653,0,0,0-16.6,16.6v1.128a16.653,16.653,0,0,0,16.6,16.6,16.653,16.653,0,0,0-16.6,16.6v1.128a16.653,16.653,0,0,0,16.6,16.6h43.874a16.653,16.653,0,0,0,16.6-16.6v-1.128a16.653,16.653,0,0,0-16.6-16.6,16.653,16.653,0,0,0,16.6-16.6V410.93a16.653,16.653,0,0,0-16.6-16.6,16.653,16.653,0,0,0,16.6-16.6v-1.128a16.653,16.653,0,0,0-16.6-16.6A16.653,16.653,0,0,0,289.956,343.386Z" fill="#ffbd86"/>
        <g id="Grupo_10677" data-name="Grupo 10677">
          <path id="Trazado_10908" data-name="Trazado 10908" d="M283.4,349.337H239.522a16.653,16.653,0,0,1-16.6-16.6v-1.128a16.452,16.452,0,0,1,.736-4.87,16.651,16.651,0,0,0-10.78,15.523v1.128a16.653,16.653,0,0,0,16.6,16.6h43.874a16.668,16.668,0,0,0,15.868-11.734A16.426,16.426,0,0,1,283.4,349.337Z" fill="#f6a96c"/>
          <path id="Trazado_10909" data-name="Trazado 10909" d="M283.4,384H239.522a16.653,16.653,0,0,1-16.6-16.6v-1.128a16.431,16.431,0,0,1,.868-5.245A16.652,16.652,0,0,0,212.874,376.6v1.128a16.653,16.653,0,0,0,16.6,16.6h43.874a16.658,16.658,0,0,0,15.736-11.359A16.44,16.44,0,0,1,283.4,384Z" fill="#f6a96c"/>
          <path id="Trazado_10910" data-name="Trazado 10910" d="M283.4,418.337H239.522a16.653,16.653,0,0,1-16.6-16.6v-1.128a16.431,16.431,0,0,1,.868-5.245,16.652,16.652,0,0,0-10.912,15.572v1.128a16.653,16.653,0,0,0,16.6,16.6h43.874A16.658,16.658,0,0,0,289.088,417.3,16.44,16.44,0,0,1,283.4,418.337Z" fill="#f6a96c"/>
          <path id="Trazado_10911" data-name="Trazado 10911" d="M283.4,452.337H239.522a16.653,16.653,0,0,1-16.6-16.6v-1.128a16.481,16.481,0,0,1,.733-4.859,16.652,16.652,0,0,0-10.777,15.522V446.4a16.653,16.653,0,0,0,16.6,16.6h43.874a16.668,16.668,0,0,0,15.871-11.745A16.439,16.439,0,0,1,283.4,452.337Z" fill="#f6a96c"/>
        </g>
      </g>
      <g id="Grupo_10684" data-name="Grupo 10684">
        <path id="Trazado_10912" data-name="Trazado 10912" d="M100.872,113.256a55.8,55.8,0,0,1-32.091-10.119v86.482a3,3,0,0,0,4.892,2.328L98.98,171.386a3,3,0,0,1,3.783,0l25.308,20.561a3,3,0,0,0,4.892-2.328V103.137A55.8,55.8,0,0,1,100.872,113.256Z" fill="#fd4755"/>
        <path id="Trazado_10913" data-name="Trazado 10913" d="M68.781,104.393V189.62a3,3,0,0,0,4.892,2.328L98.98,171.387a2.965,2.965,0,0,1,.838-.475V114.23A56.851,56.851,0,0,1,68.781,104.393Z" fill="#fb2b3a"/>
        <g id="Grupo_10683" data-name="Grupo 10683">
          <g id="Grupo_10679" data-name="Grupo 10679">
            <circle id="Elipse_122" data-name="Elipse 122" cx="57.128" cy="57.128" r="57.128" transform="translate(43.744 0)" fill="#fac600"/>
          </g>
          <g id="Grupo_10680" data-name="Grupo 10680">
            <circle id="Elipse_123" data-name="Elipse 123" cx="37.178" cy="37.178" r="37.178" transform="translate(63.694 19.95)" fill="#e8b800"/>
          </g>
          <path id="Trazado_10914" data-name="Trazado 10914" d="M84.387,57.128A37.186,37.186,0,0,1,111.219,21.42a37.179,37.179,0,1,0,0,71.417A37.188,37.188,0,0,1,84.387,57.128Z" fill="#d7aa02"/>
          <g id="Grupo_10682" data-name="Grupo 10682">
            <g id="Grupo_10681" data-name="Grupo 10681">
              <path id="Trazado_10915" data-name="Trazado 10915" d="M102.911,36.724l5.244,10.625a2.276,2.276,0,0,0,1.712,1.244l11.725,1.7a2.274,2.274,0,0,1,1.26,3.879l-8.484,8.27a2.272,2.272,0,0,0-.654,2.013l2,11.678a2.274,2.274,0,0,1-3.3,2.4L101.93,73.02a2.277,2.277,0,0,0-2.117,0L89.326,78.533a2.275,2.275,0,0,1-3.3-2.4l2-11.678a2.272,2.272,0,0,0-.654-2.013l-8.484-8.27a2.274,2.274,0,0,1,1.26-3.879l11.725-1.7a2.274,2.274,0,0,0,1.712-1.244l5.244-10.625A2.275,2.275,0,0,1,102.911,36.724Z" fill="#fac600"/>
            </g>
          </g>
        </g>
      </g>
    </g>
  </g>
</svg>
