<svg id="Grupo_10712" data-name="Grupo 10712" xmlns="http://www.w3.org/2000/svg" width="219.081" height="209.667" viewBox="0 0 219.081 209.667">
  <path id="Trazado_11018" data-name="Trazado 11018" d="M56.833,97A104.837,104.837,0,0,0-27.424,264.215l1.678.428H139.412l1.678-.428A104.837,104.837,0,0,0,56.833,97Zm0,0" transform="translate(48 -97.001)" fill="#66baed"/>
  <rect id="Rect치ngulo_6174" data-name="Rect치ngulo 6174" width="36.799" height="18.827" transform="translate(86.434 133.93)" fill="#9182b0"/>
  <rect id="Rect치ngulo_6175" data-name="Rect치ngulo 6175" width="12.837" height="18.827" transform="translate(86.434 133.93)" fill="#7a6d98"/>
  <path id="Trazado_11019" data-name="Trazado 11019" d="M149.185,379.314v-6.755A8.557,8.557,0,0,0,140.627,364H49.058a8.557,8.557,0,0,0-8.558,8.558v6.755Zm0,0" transform="translate(9.991 -211.671)" fill="#a79bc6"/>
  <path id="Trazado_11020" data-name="Trazado 11020" d="M70.452,364H49.058a8.557,8.557,0,0,0-8.558,8.558v6.755H61.895v-6.755A8.557,8.557,0,0,1,70.452,364Zm0,0" transform="translate(9.991 -211.671)" fill="#9182b0"/>
  <path id="Trazado_11021" data-name="Trazado 11021" d="M16.748,418l-2.307.428a104.807,104.807,0,0,0,138.419,0L150.553,418Zm0,0" transform="translate(21.183 -234.863)" fill="#f6a96c"/>
  <path id="Trazado_11022" data-name="Trazado 11022" d="M-11.934,390.091A105.4,105.4,0,0,0,3.112,406.442H141.534a105.4,105.4,0,0,0,15.046-16.351Zm0,0" transform="translate(32.51 -222.877)" fill="#d88a55"/>
  <path id="Trazado_11023" data-name="Trazado 11023" d="M31.134,395.749q-2.942-2.721-5.672-5.658h-37.4A105.4,105.4,0,0,0,3.112,406.442H141.534a105.435,105.435,0,0,0,9.037-8.986H35.5a6.427,6.427,0,0,1-4.363-1.707Zm0,0" transform="translate(32.51 -222.877)" fill="#c57a44"/>
  <path id="Trazado_11024" data-name="Trazado 11024" d="M152.942,236.828H-20.693a4.475,4.475,0,0,1-4.475-4.475V111.973a2.239,2.239,0,0,1,2.238-2.238h178.11a2.239,2.239,0,0,1,2.238,2.238v120.38a4.475,4.475,0,0,1-4.475,4.475Zm0,0" transform="translate(38.194 -102.47)" fill="#a79bc6"/>
  <path id="Trazado_11025" data-name="Trazado 11025" d="M-7.261,232.353V218.928h-6.72a2.236,2.236,0,0,1-2.235-2.238V120.923a2.237,2.237,0,0,1,2.235-2.238h6.72v-6.713a2.239,2.239,0,0,1,2.238-2.238H-22.93a2.239,2.239,0,0,0-2.238,2.238v120.38a4.475,4.475,0,0,0,4.475,4.475H-2.786a4.476,4.476,0,0,1-4.475-4.475Zm0,0" transform="translate(38.194 -102.47)" fill="#9182b0"/>
  <path id="Trazado_11026" data-name="Trazado 11026" d="M-9.477,223.428V127.661a2.237,2.237,0,0,1,2.235-2.238h160.21a2.239,2.239,0,0,1,2.238,2.238v95.767a2.239,2.239,0,0,1-2.238,2.238H-7.242a2.237,2.237,0,0,1-2.235-2.238Zm0,0" transform="translate(31.455 -109.208)" fill="#fff"/>
  <path id="Trazado_11027" data-name="Trazado 11027" d="M8.395,223.428V127.661a2.238,2.238,0,0,1,2.238-2.238H-7.242a2.237,2.237,0,0,0-2.235,2.238v95.767a2.237,2.237,0,0,0,2.235,2.238H10.632a2.238,2.238,0,0,1-2.238-2.238Zm0,0" transform="translate(31.455 -109.208)" fill="#f3f0ff"/>
  <path id="Trazado_11028" data-name="Trazado 11028" d="M31.731,171.893H20.1a4.473,4.473,0,0,1-4.475-4.473V155.785A4.475,4.475,0,0,1,20.1,151.31H31.731a4.475,4.475,0,0,1,4.475,4.475V167.42a4.473,4.473,0,0,1-4.475,4.473Zm0,0" transform="translate(20.676 -120.325)" fill="#26a6fe"/>
  <path id="Trazado_11029" data-name="Trazado 11029" d="M32.85,203.872H19.873a3.209,3.209,0,0,1,0-6.418H32.85a3.209,3.209,0,0,1,0,6.418Zm0,0" transform="translate(20.228 -140.143)" fill="#a79bc6"/>
  <path id="Trazado_11030" data-name="Trazado 11030" d="M83.5,171.893H71.866a4.473,4.473,0,0,1-4.475-4.473V155.785a4.474,4.474,0,0,1,4.475-4.475H83.5a4.475,4.475,0,0,1,4.475,4.475V167.42a4.473,4.473,0,0,1-4.475,4.473Zm0,0" transform="translate(-1.558 -120.325)" fill="#fe646f"/>
  <path id="Trazado_11031" data-name="Trazado 11031" d="M84.62,203.872H71.643a3.209,3.209,0,1,1,0-6.418H84.62a3.209,3.209,0,1,1,0,6.418Zm0,0" transform="translate(-2.006 -140.143)" fill="#a79bc6"/>
  <path id="Trazado_11032" data-name="Trazado 11032" d="M135.27,171.893H123.635a4.473,4.473,0,0,1-4.475-4.473V155.785a4.475,4.475,0,0,1,4.475-4.475H135.27a4.475,4.475,0,0,1,4.475,4.475V167.42a4.473,4.473,0,0,1-4.475,4.473Zm0,0" transform="translate(-23.791 -120.325)" fill="#4fc123"/>
  <path id="Trazado_11033" data-name="Trazado 11033" d="M136.389,203.872H123.412a3.209,3.209,0,0,1,0-6.418h12.977a3.209,3.209,0,0,1,0,6.418Zm0,0" transform="translate(-24.239 -140.143)" fill="#a79bc6"/>
  <path id="Trazado_11034" data-name="Trazado 11034" d="M31.731,247.2H20.1a4.475,4.475,0,0,1-4.475-4.475V231.085A4.475,4.475,0,0,1,20.1,226.61H31.731a4.475,4.475,0,0,1,4.475,4.475v11.636a4.475,4.475,0,0,1-4.475,4.475Zm0,0" transform="translate(20.676 -152.665)" fill="#ffbd86"/>
  <path id="Trazado_11035" data-name="Trazado 11035" d="M32.85,279.173H19.873a3.209,3.209,0,1,1,0-6.418H32.85a3.209,3.209,0,1,1,0,6.418Zm0,0" transform="translate(20.228 -172.483)" fill="#a79bc6"/>
  <path id="Trazado_11036" data-name="Trazado 11036" d="M83.5,247.2H71.866a4.474,4.474,0,0,1-4.475-4.475V231.085a4.475,4.475,0,0,1,4.475-4.475H83.5a4.475,4.475,0,0,1,4.475,4.475v11.636A4.475,4.475,0,0,1,83.5,247.2Zm0,0" transform="translate(-1.558 -152.665)" fill="#26a6fe"/>
  <path id="Trazado_11037" data-name="Trazado 11037" d="M84.62,279.173H71.643a3.209,3.209,0,1,1,0-6.418H84.62a3.209,3.209,0,1,1,0,6.418Zm0,0" transform="translate(-2.006 -172.483)" fill="#a79bc6"/>
  <path id="Trazado_11038" data-name="Trazado 11038" d="M135.27,247.2H123.635a4.475,4.475,0,0,1-4.475-4.475V231.085a4.475,4.475,0,0,1,4.475-4.475H135.27a4.475,4.475,0,0,1,4.475,4.475v11.636a4.475,4.475,0,0,1-4.475,4.475Zm0,0" transform="translate(-23.791 -152.665)" fill="#fac600"/>
  <path id="Trazado_11039" data-name="Trazado 11039" d="M24.252,167.42V155.785a4.475,4.475,0,0,1,4.475-4.475H20.1a4.475,4.475,0,0,0-4.475,4.475V167.42a4.473,4.473,0,0,0,4.475,4.473h8.631a4.473,4.473,0,0,1-4.475-4.473Zm0,0" transform="translate(20.676 -120.325)" fill="#0593fc"/>
  <path id="Trazado_11040" data-name="Trazado 11040" d="M24.252,242.721V231.085a4.475,4.475,0,0,1,4.475-4.475H20.1a4.475,4.475,0,0,0-4.475,4.475v11.636a4.473,4.473,0,0,0,4.475,4.473h8.631a4.472,4.472,0,0,1-4.475-4.473Zm0,0" transform="translate(20.676 -152.665)" fill="#f6a96c"/>
  <path id="Trazado_11041" data-name="Trazado 11041" d="M136.389,279.173H123.412a3.209,3.209,0,1,1,0-6.418h12.977a3.209,3.209,0,1,1,0,6.418Zm0,0" transform="translate(-24.239 -172.483)" fill="#a79bc6"/>
  <path id="Trazado_11042" data-name="Trazado 11042" d="M235.491,240.849a16.123,16.123,0,0,1,22.928-14.624l2.529-12.38H178.2l7.664,37.52a4.476,4.476,0,0,0,4.386,3.579h53.54a16.138,16.138,0,0,1-8.3-14.1Zm0,0" transform="translate(-49.149 -147.183)" fill="#fd4755"/>
  <path id="Trazado_11043" data-name="Trazado 11043" d="M202.136,251.367l-7.666-37.518H178.2l7.664,37.518a4.476,4.476,0,0,0,4.386,3.579H206.52a4.474,4.474,0,0,1-4.384-3.579Zm0,0" transform="translate(-49.149 -147.185)" fill="#fb2b3a"/>
  <path id="Trazado_11044" data-name="Trazado 11044" d="M295.474,230.472v-1.964a2.237,2.237,0,0,0-2.238-2.237H291a2.239,2.239,0,0,0-2.238,2.237v5.311a16.092,16.092,0,0,1,6.712-3.347Zm0,0" transform="translate(-96.632 -152.52)" fill="#fe646f"/>
  <path id="Trazado_11045" data-name="Trazado 11045" d="M271.276,226.271h-2.238a2.236,2.236,0,0,0-2.238,2.237v16.111a2.238,2.238,0,0,0,2.238,2.238h2.238a2.239,2.239,0,0,0,2.237-2.238V228.508a2.237,2.237,0,0,0-2.237-2.237Zm0,0" transform="translate(-87.2 -152.52)" fill="#fe646f"/>
  <path id="Trazado_11046" data-name="Trazado 11046" d="M247.074,246.857h2.238a2.238,2.238,0,0,0,2.238-2.238V228.508a2.237,2.237,0,0,0-2.238-2.237h-2.238a2.239,2.239,0,0,0-2.238,2.237v16.111a2.239,2.239,0,0,0,2.238,2.238Zm0,0" transform="translate(-77.766 -152.52)" fill="#fe646f"/>
  <path id="Trazado_11047" data-name="Trazado 11047" d="M225.113,246.857h2.238a2.239,2.239,0,0,0,2.238-2.238V228.508a2.239,2.239,0,0,0-2.238-2.237h-2.238a2.237,2.237,0,0,0-2.238,2.237v16.111a2.238,2.238,0,0,0,2.238,2.238Zm0,0" transform="translate(-68.335 -152.52)" fill="#fe646f"/>
  <path id="Trazado_11048" data-name="Trazado 11048" d="M203.148,246.857h2.238a2.238,2.238,0,0,0,2.238-2.238V228.508a2.237,2.237,0,0,0-2.238-2.237h-2.238a2.239,2.239,0,0,0-2.238,2.237v16.111a2.239,2.239,0,0,0,2.238,2.238Zm0,0" transform="translate(-58.901 -152.52)" fill="#fe646f"/>
  <path id="Trazado_11049" data-name="Trazado 11049" d="M209.694,169.823l14.466-25.056a2.235,2.235,0,0,0-.82-3.055l-6.768-3.909a2.24,2.24,0,0,0-3.058.818l-18.014,31.2Zm0,0" transform="translate(-56.578 -114.395)" fill="#fd4755"/>
  <path id="Trazado_11050" data-name="Trazado 11050" d="M216.572,137.8a2.238,2.238,0,0,0-3.058.818l-18.014,31.2h6.561l17.492-30.3Zm0,0" transform="translate(-56.578 -114.395)" fill="#fb2b3a"/>
  <path id="Trazado_11051" data-name="Trazado 11051" d="M269.946,169.823h14.192l-18.014-31.2a2.237,2.237,0,0,0-3.055-.818l-6.77,3.907a2.238,2.238,0,0,0-.818,3.057Zm0,0" transform="translate(-82.209 -114.395)" fill="#fd4755"/>
  <path id="Trazado_11052" data-name="Trazado 11052" d="M261.9,141.708l4.508-2.6-.281-.486a2.235,2.235,0,0,0-3.055-.818l-6.77,3.907a2.237,2.237,0,0,0-.818,3.057l14.466,25.056h5.6l-14.468-25.056a2.24,2.24,0,0,1,.82-3.057Zm0,0" transform="translate(-82.209 -114.395)" fill="#fb2b3a"/>
  <path id="Trazado_11053" data-name="Trazado 11053" d="M167.676,205.493h92.835a2.236,2.236,0,0,0,2.238-2.238v-7.615a2.238,2.238,0,0,0-2.238-2.238H167.676a2.237,2.237,0,0,0-2.235,2.238v7.615a2.236,2.236,0,0,0,2.235,2.238Zm0,0" transform="translate(-43.668 -138.404)" fill="#fe646f"/>
  <path id="Trazado_11054" data-name="Trazado 11054" d="M183.412,203.256v-7.615a2.237,2.237,0,0,1,2.235-2.238H167.676a2.237,2.237,0,0,0-2.235,2.238v7.615a2.236,2.236,0,0,0,2.235,2.238h17.971a2.236,2.236,0,0,1-2.235-2.238Zm0,0" transform="translate(-43.668 -138.404)" fill="#fd4755"/>
  <path id="Trazado_11055" data-name="Trazado 11055" d="M310.982,248.712a16.557,16.557,0,1,1-16.558-16.559,16.556,16.556,0,0,1,16.558,16.559Zm0,0" transform="translate(-91.953 -155.046)" fill="#4fc123"/>
  <path id="Trazado_11056" data-name="Trazado 11056" d="M291.183,248.712a16.557,16.557,0,0,1,9.9-15.161,16.557,16.557,0,1,0,0,30.32,16.556,16.556,0,0,1-9.9-15.159Zm0,0" transform="translate(-91.953 -155.046)" fill="#47a920"/>
  <path id="Trazado_11057" data-name="Trazado 11057" d="M306.495,249.4h-4.97v-4.97a3.209,3.209,0,1,0-6.418,0v4.97h-4.968a3.209,3.209,0,0,0,0,6.418h4.968v4.968a3.209,3.209,0,0,0,6.418,0v-4.968h4.97a3.209,3.209,0,0,0,0-6.418Zm0,0" transform="translate(-95.845 -158.938)" fill="#fff"/>
  <path id="Trazado_11058" data-name="Trazado 11058" d="M271.918,314.71a3.209,3.209,0,1,1-3.209-3.209,3.21,3.21,0,0,1,3.209,3.209Zm0,0" transform="translate(-86.641 -189.124)" fill="#fff"/>
  <path id="Trazado_11059" data-name="Trazado 11059" d="M251.668,314.71a3.209,3.209,0,1,1-3.209-3.209,3.21,3.21,0,0,1,3.209,3.209Zm0,0" transform="translate(-77.944 -189.124)" fill="#fff"/>
  <path id="Trazado_11060" data-name="Trazado 11060" d="M76.022,167.42V155.785A4.474,4.474,0,0,1,80.5,151.31H71.866a4.474,4.474,0,0,0-4.475,4.475V167.42a4.473,4.473,0,0,0,4.475,4.473H80.5a4.473,4.473,0,0,1-4.475-4.473Zm0,0" transform="translate(-1.558 -120.325)" fill="#fd4755"/>
  <path id="Trazado_11061" data-name="Trazado 11061" d="M76.022,242.721V231.085A4.475,4.475,0,0,1,80.5,226.61H71.866a4.475,4.475,0,0,0-4.475,4.475v11.636a4.473,4.473,0,0,0,4.475,4.473H80.5a4.472,4.472,0,0,1-4.475-4.473Zm0,0" transform="translate(-1.558 -152.665)" fill="#0593fc"/>
  <path id="Trazado_11062" data-name="Trazado 11062" d="M127.791,167.42V155.785a4.475,4.475,0,0,1,4.475-4.475h-8.631a4.475,4.475,0,0,0-4.475,4.475V167.42a4.473,4.473,0,0,0,4.475,4.473h8.631a4.473,4.473,0,0,1-4.475-4.473Zm0,0" transform="translate(-23.791 -120.325)" fill="#47a920"/>
  <path id="Trazado_11063" data-name="Trazado 11063" d="M127.791,242.721V231.085a4.475,4.475,0,0,1,4.475-4.475h-8.631a4.475,4.475,0,0,0-4.475,4.475v11.636a4.473,4.473,0,0,0,4.475,4.473h8.631a4.472,4.472,0,0,1-4.475-4.473Zm0,0" transform="translate(-23.791 -152.665)" fill="#e8b800"/>
</svg>
