<svg xmlns="http://www.w3.org/2000/svg" width="465.414" height="411.684" viewBox="0 0 465.414 411.684">
  <g id="Grupo_10618" data-name="Grupo 10618" transform="translate(-315.667 -559.428)">
    <g id="Grupo_10246" data-name="Grupo 10246">
      <g id="Grupo_10169" data-name="Grupo 10169">
        <g id="Grupo_10165" data-name="Grupo 10165">
          <g id="Grupo_10164" data-name="Grupo 10164">
            <rect id="Rectángulo_6116" data-name="Rectángulo 6116" width="173.59" height="155.304" transform="translate(340.188 617.081)" fill="#fafafa"/>
          </g>
        </g>
        <g id="Grupo_10168" data-name="Grupo 10168">
          <g id="Grupo_10167" data-name="Grupo 10167">
            <g id="Grupo_10166" data-name="Grupo 10166">
              <path id="Trazado_10705" data-name="Trazado 10705" d="M513.778,772.385s-.029-.995-.044-2.882c-.01-1.906-.025-4.692-.045-8.322-.024-7.291-.058-17.949-.1-31.525-.049-27.135-.119-65.909-.2-112.575l.394.394-173.575.07h-.015l.463-.464c-.02,56.5-.039,109.669-.055,155.3l-.408-.408,125.553.206,35.412.107,9.374.049,2.418.023c.544.007.833.023.833.023s-.257.016-.787.023l-2.373.024-9.3.047-35.32.108-125.815.206h-.409v-.409c-.016-45.635-.035-98.8-.056-155.3v-.464h.48l173.575.07h.394v.394c-.084,46.769-.154,85.629-.2,112.824-.044,13.538-.078,24.166-.1,31.437-.02,3.6-.035,6.358-.045,8.246C513.807,771.448,513.778,772.385,513.778,772.385Z" fill="#e0e0e0"/>
            </g>
          </g>
        </g>
      </g>
      <g id="Grupo_10172" data-name="Grupo 10172">
        <g id="Grupo_10171" data-name="Grupo 10171">
          <g id="Grupo_10170" data-name="Grupo 10170">
            <path id="Trazado_10706" data-name="Trazado 10706" d="M406.748,644.675c0,.257-9.137.465-20.4.465s-20.408-.208-20.408-.465,9.135-.463,20.408-.463S406.748,644.42,406.748,644.675Z" fill="#e0e0e0"/>
          </g>
        </g>
      </g>
      <g id="Grupo_10175" data-name="Grupo 10175">
        <g id="Grupo_10174" data-name="Grupo 10174">
          <g id="Grupo_10173" data-name="Grupo 10173">
            <path id="Trazado_10707" data-name="Trazado 10707" d="M480.3,656.336c0,.257-25.1.464-56.059.464s-56.064-.207-56.064-.464,25.1-.463,56.064-.463S480.3,656.08,480.3,656.336Z" fill="#e0e0e0"/>
          </g>
        </g>
      </g>
      <g id="Grupo_10177" data-name="Grupo 10177">
        <g id="Grupo_10176" data-name="Grupo 10176">
          <rect id="Rectángulo_6117" data-name="Rectángulo 6117" width="7.314" height="7.313" transform="translate(366.234 676.089)" fill="#e0e0e0"/>
        </g>
      </g>
      <g id="Grupo_10179" data-name="Grupo 10179">
        <g id="Grupo_10178" data-name="Grupo 10178">
          <rect id="Rectángulo_6118" data-name="Rectángulo 6118" width="7.313" height="7.313" transform="translate(384.236 676.089)" fill="#e0e0e0"/>
        </g>
      </g>
      <g id="Grupo_10181" data-name="Grupo 10181">
        <g id="Grupo_10180" data-name="Grupo 10180">
          <rect id="Rectángulo_6119" data-name="Rectángulo 6119" width="7.313" height="7.313" transform="translate(402.571 675.757)" fill="#e0e0e0"/>
        </g>
      </g>
      <g id="Grupo_10183" data-name="Grupo 10183">
        <g id="Grupo_10182" data-name="Grupo 10182">
          <rect id="Rectángulo_6120" data-name="Rectángulo 6120" width="7.313" height="7.313" transform="translate(420.241 676.089)" fill="#e0e0e0"/>
        </g>
      </g>
      <g id="Grupo_10185" data-name="Grupo 10185">
        <g id="Grupo_10184" data-name="Grupo 10184">
          <rect id="Rectángulo_6121" data-name="Rectángulo 6121" width="7.313" height="7.313" transform="translate(438.243 676.089)" fill="#e0e0e0"/>
        </g>
      </g>
      <g id="Grupo_10187" data-name="Grupo 10187">
        <g id="Grupo_10186" data-name="Grupo 10186">
          <rect id="Rectángulo_6122" data-name="Rectángulo 6122" width="7.313" height="7.313" transform="translate(456.245 676.089)" fill="#e0e0e0"/>
        </g>
      </g>
      <g id="Grupo_10189" data-name="Grupo 10189">
        <g id="Grupo_10188" data-name="Grupo 10188">
          <rect id="Rectángulo_6123" data-name="Rectángulo 6123" width="7.313" height="7.313" transform="translate(474.247 676.089)" fill="#ebebeb"/>
        </g>
      </g>
      <g id="Grupo_10191" data-name="Grupo 10191">
        <g id="Grupo_10190" data-name="Grupo 10190">
          <rect id="Rectángulo_6124" data-name="Rectángulo 6124" width="7.314" height="7.313" transform="translate(366.234 691.637)" fill="#ebebeb"/>
        </g>
      </g>
      <g id="Grupo_10193" data-name="Grupo 10193">
        <g id="Grupo_10192" data-name="Grupo 10192">
          <rect id="Rectángulo_6125" data-name="Rectángulo 6125" width="7.313" height="7.313" transform="translate(384.236 691.637)" fill="#e0e0e0"/>
        </g>
      </g>
      <g id="Grupo_10195" data-name="Grupo 10195">
        <g id="Grupo_10194" data-name="Grupo 10194">
          <rect id="Rectángulo_6126" data-name="Rectángulo 6126" width="7.314" height="7.313" transform="translate(402.238 691.637)" fill="#ebebeb"/>
        </g>
      </g>
      <g id="Grupo_10197" data-name="Grupo 10197">
        <g id="Grupo_10196" data-name="Grupo 10196">
          <rect id="Rectángulo_6127" data-name="Rectángulo 6127" width="7.313" height="7.313" transform="translate(420.241 691.637)" fill="#e0e0e0"/>
        </g>
      </g>
      <g id="Grupo_10199" data-name="Grupo 10199">
        <g id="Grupo_10198" data-name="Grupo 10198">
          <rect id="Rectángulo_6128" data-name="Rectángulo 6128" width="7.313" height="7.313" transform="translate(438.243 691.637)" fill="#e0e0e0"/>
        </g>
      </g>
      <g id="Grupo_10201" data-name="Grupo 10201">
        <g id="Grupo_10200" data-name="Grupo 10200">
          <rect id="Rectángulo_6129" data-name="Rectángulo 6129" width="7.313" height="7.313" transform="translate(456.577 691.305)" fill="#e0e0e0"/>
        </g>
      </g>
      <g id="Grupo_10203" data-name="Grupo 10203">
        <g id="Grupo_10202" data-name="Grupo 10202">
          <rect id="Rectángulo_6130" data-name="Rectángulo 6130" width="7.313" height="7.313" transform="translate(474.247 691.637)" fill="#e0e0e0"/>
        </g>
      </g>
      <g id="Grupo_10205" data-name="Grupo 10205">
        <g id="Grupo_10204" data-name="Grupo 10204">
          <rect id="Rectángulo_6131" data-name="Rectángulo 6131" width="7.314" height="7.313" transform="translate(366.234 707.184)" fill="#e0e0e0"/>
        </g>
      </g>
      <g id="Grupo_10207" data-name="Grupo 10207">
        <g id="Grupo_10206" data-name="Grupo 10206">
          <rect id="Rectángulo_6132" data-name="Rectángulo 6132" width="7.313" height="7.313" transform="translate(384.568 706.852)" fill="#e0e0e0"/>
        </g>
      </g>
      <g id="Grupo_10209" data-name="Grupo 10209">
        <g id="Grupo_10208" data-name="Grupo 10208">
          <rect id="Rectángulo_6133" data-name="Rectángulo 6133" width="7.314" height="7.313" transform="translate(402.238 707.184)" fill="#e0e0e0"/>
        </g>
      </g>
      <g id="Grupo_10211" data-name="Grupo 10211">
        <g id="Grupo_10210" data-name="Grupo 10210">
          <rect id="Rectángulo_6134" data-name="Rectángulo 6134" width="7.313" height="7.313" transform="translate(420.241 707.184)" fill="#ebebeb"/>
        </g>
      </g>
      <g id="Grupo_10213" data-name="Grupo 10213">
        <g id="Grupo_10212" data-name="Grupo 10212">
          <rect id="Rectángulo_6135" data-name="Rectángulo 6135" width="7.313" height="7.313" transform="translate(438.243 707.184)" fill="#e0e0e0"/>
        </g>
      </g>
      <g id="Grupo_10215" data-name="Grupo 10215">
        <g id="Grupo_10214" data-name="Grupo 10214">
          <rect id="Rectángulo_6136" data-name="Rectángulo 6136" width="7.313" height="7.313" transform="translate(456.245 707.184)" fill="#e0e0e0"/>
        </g>
      </g>
      <g id="Grupo_10217" data-name="Grupo 10217">
        <g id="Grupo_10216" data-name="Grupo 10216">
          <rect id="Rectángulo_6137" data-name="Rectángulo 6137" width="7.313" height="7.313" transform="translate(474.247 707.184)" fill="#e0e0e0"/>
        </g>
      </g>
      <g id="Grupo_10219" data-name="Grupo 10219">
        <g id="Grupo_10218" data-name="Grupo 10218">
          <rect id="Rectángulo_6138" data-name="Rectángulo 6138" width="7.314" height="7.314" transform="translate(366.234 722.732)" fill="#e0e0e0"/>
        </g>
      </g>
      <g id="Grupo_10221" data-name="Grupo 10221">
        <g id="Grupo_10220" data-name="Grupo 10220">
          <rect id="Rectángulo_6139" data-name="Rectángulo 6139" width="7.313" height="7.314" transform="translate(384.236 722.732)" fill="#e0e0e0"/>
        </g>
      </g>
      <g id="Grupo_10223" data-name="Grupo 10223">
        <g id="Grupo_10222" data-name="Grupo 10222">
          <rect id="Rectángulo_6140" data-name="Rectángulo 6140" width="7.314" height="7.314" transform="translate(402.238 722.732)" fill="#e0e0e0"/>
        </g>
      </g>
      <g id="Grupo_10225" data-name="Grupo 10225">
        <g id="Grupo_10224" data-name="Grupo 10224">
          <rect id="Rectángulo_6141" data-name="Rectángulo 6141" width="7.313" height="7.313" transform="translate(420.573 722.4)" fill="#e0e0e0"/>
        </g>
      </g>
      <g id="Grupo_10227" data-name="Grupo 10227">
        <g id="Grupo_10226" data-name="Grupo 10226">
          <rect id="Rectángulo_6142" data-name="Rectángulo 6142" width="7.313" height="7.314" transform="translate(438.243 722.732)" fill="#e0e0e0"/>
        </g>
      </g>
      <g id="Grupo_10229" data-name="Grupo 10229">
        <g id="Grupo_10228" data-name="Grupo 10228">
          <rect id="Rectángulo_6143" data-name="Rectángulo 6143" width="7.313" height="7.314" transform="translate(456.245 722.732)" fill="#ebebeb"/>
        </g>
      </g>
      <g id="Grupo_10231" data-name="Grupo 10231">
        <g id="Grupo_10230" data-name="Grupo 10230">
          <rect id="Rectángulo_6144" data-name="Rectángulo 6144" width="7.313" height="7.314" transform="translate(474.247 722.732)" fill="#e0e0e0"/>
        </g>
      </g>
      <g id="Grupo_10233" data-name="Grupo 10233">
        <g id="Grupo_10232" data-name="Grupo 10232">
          <rect id="Rectángulo_6145" data-name="Rectángulo 6145" width="7.314" height="7.313" transform="translate(366.234 738.28)" fill="#e0e0e0"/>
        </g>
      </g>
      <g id="Grupo_10235" data-name="Grupo 10235">
        <g id="Grupo_10234" data-name="Grupo 10234">
          <rect id="Rectángulo_6146" data-name="Rectángulo 6146" width="7.313" height="7.313" transform="translate(384.236 738.28)" fill="#ebebeb"/>
        </g>
      </g>
      <g id="Grupo_10237" data-name="Grupo 10237">
        <g id="Grupo_10236" data-name="Grupo 10236">
          <rect id="Rectángulo_6147" data-name="Rectángulo 6147" width="7.314" height="7.313" transform="translate(402.238 738.28)" fill="#e0e0e0"/>
        </g>
      </g>
      <g id="Grupo_10239" data-name="Grupo 10239">
        <g id="Grupo_10238" data-name="Grupo 10238">
          <rect id="Rectángulo_6148" data-name="Rectángulo 6148" width="7.313" height="7.313" transform="translate(420.241 738.28)" fill="#e0e0e0"/>
        </g>
      </g>
      <g id="Grupo_10241" data-name="Grupo 10241">
        <g id="Grupo_10240" data-name="Grupo 10240">
          <rect id="Rectángulo_6149" data-name="Rectángulo 6149" width="7.313" height="7.313" transform="translate(438.243 738.28)" fill="#e0e0e0"/>
        </g>
      </g>
      <g id="Grupo_10243" data-name="Grupo 10243">
        <g id="Grupo_10242" data-name="Grupo 10242">
          <rect id="Rectángulo_6150" data-name="Rectángulo 6150" width="7.313" height="7.313" transform="translate(456.577 737.948)" fill="#e0e0e0"/>
        </g>
      </g>
      <g id="Grupo_10245" data-name="Grupo 10245">
        <g id="Grupo_10244" data-name="Grupo 10244">
          <rect id="Rectángulo_6151" data-name="Rectángulo 6151" width="7.313" height="7.313" transform="translate(474.247 738.28)" fill="#e0e0e0"/>
        </g>
      </g>
    </g>
    <g id="Grupo_10348" data-name="Grupo 10348">
      <g id="Grupo_10251" data-name="Grupo 10251">
        <g id="Grupo_10250" data-name="Grupo 10250">
          <g id="Grupo_10249" data-name="Grupo 10249">
            <g id="Grupo_10248" data-name="Grupo 10248">
              <g id="Grupo_10247" data-name="Grupo 10247">
                <rect id="Rectángulo_6152" data-name="Rectángulo 6152" width="11.156" height="55.509" transform="translate(698.643 580.186) rotate(-0.307)" fill="#e0e0e0"/>
              </g>
            </g>
          </g>
        </g>
      </g>
      <g id="Grupo_10268" data-name="Grupo 10268">
        <g id="Grupo_10256" data-name="Grupo 10256">
          <g id="Grupo_10255" data-name="Grupo 10255">
            <g id="Grupo_10254" data-name="Grupo 10254">
              <g id="Grupo_10253" data-name="Grupo 10253">
                <g id="Grupo_10252" data-name="Grupo 10252">
                  <rect id="Rectángulo_6153" data-name="Rectángulo 6153" width="28.889" height="30.645" transform="translate(602 580.426) rotate(-0.306)" fill="#ebebeb"/>
                </g>
              </g>
            </g>
          </g>
        </g>
        <g id="Grupo_10261" data-name="Grupo 10261">
          <g id="Grupo_10260" data-name="Grupo 10260">
            <g id="Grupo_10259" data-name="Grupo 10259">
              <g id="Grupo_10258" data-name="Grupo 10258">
                <g id="Grupo_10257" data-name="Grupo 10257">
                  <rect id="Rectángulo_6154" data-name="Rectángulo 6154" width="28.889" height="30.645" transform="matrix(1, -0.005, 0.005, 1, 630.751, 580.272)" fill="#f5f5f5"/>
                </g>
              </g>
            </g>
          </g>
        </g>
        <g id="Grupo_10267" data-name="Grupo 10267">
          <g id="Grupo_10266" data-name="Grupo 10266">
            <g id="Grupo_10265" data-name="Grupo 10265">
              <g id="Grupo_10264" data-name="Grupo 10264">
                <g id="Grupo_10263" data-name="Grupo 10263">
                  <g id="Grupo_10262" data-name="Grupo 10262">
                    <path id="Trazado_10708" data-name="Trazado 10708" d="M602.045,588.889c19.2.159,38.444.047,57.64-.265a.307.307,0,0,0,0-.614c-19.2-.106-38.445-.011-57.639.353a.263.263,0,0,0,0,.526Z" fill="#e0e0e0"/>
                  </g>
                </g>
              </g>
            </g>
          </g>
        </g>
      </g>
      <g id="Grupo_10285" data-name="Grupo 10285">
        <g id="Grupo_10273" data-name="Grupo 10273">
          <g id="Grupo_10272" data-name="Grupo 10272">
            <g id="Grupo_10271" data-name="Grupo 10271">
              <g id="Grupo_10270" data-name="Grupo 10270">
                <g id="Grupo_10269" data-name="Grupo 10269">
                  <rect id="Rectángulo_6155" data-name="Rectángulo 6155" width="52.486" height="24.973" transform="translate(583.989 610.686) rotate(-0.307)" fill="#ebebeb"/>
                </g>
              </g>
            </g>
          </g>
        </g>
        <g id="Grupo_10278" data-name="Grupo 10278">
          <g id="Grupo_10277" data-name="Grupo 10277">
            <g id="Grupo_10276" data-name="Grupo 10276">
              <g id="Grupo_10275" data-name="Grupo 10275">
                <g id="Grupo_10274" data-name="Grupo 10274">
                  <rect id="Rectángulo_6156" data-name="Rectángulo 6156" width="52.486" height="24.973" transform="translate(636.226 610.406) rotate(-0.307)" fill="#f5f5f5"/>
                </g>
              </g>
            </g>
          </g>
        </g>
        <g id="Grupo_10284" data-name="Grupo 10284">
          <g id="Grupo_10283" data-name="Grupo 10283">
            <g id="Grupo_10282" data-name="Grupo 10282">
              <g id="Grupo_10281" data-name="Grupo 10281">
                <g id="Grupo_10280" data-name="Grupo 10280">
                  <g id="Grupo_10279" data-name="Grupo 10279">
                    <path id="Trazado_10709" data-name="Trazado 10709" d="M584.026,617.631c34.867.4,69.857.041,104.722-.517a.307.307,0,0,0,0-.614c-34.869-.184-69.861-.163-104.722.6a.263.263,0,0,0,0,.526Z" fill="#e0e0e0"/>
                  </g>
                </g>
              </g>
            </g>
          </g>
        </g>
      </g>
      <g id="Grupo_10298" data-name="Grupo 10298">
        <g id="Grupo_10289" data-name="Grupo 10289">
          <g id="Grupo_10288" data-name="Grupo 10288">
            <g id="Grupo_10287" data-name="Grupo 10287">
              <g id="Grupo_10286" data-name="Grupo 10286">
                <rect id="Rectángulo_6157" data-name="Rectángulo 6157" width="203.346" height="8.947" transform="translate(564.398 635.659)" fill="#e0e0e0"/>
              </g>
            </g>
          </g>
        </g>
        <g id="Grupo_10293" data-name="Grupo 10293">
          <g id="Grupo_10292" data-name="Grupo 10292">
            <g id="Grupo_10291" data-name="Grupo 10291">
              <g id="Grupo_10290" data-name="Grupo 10290">
                <rect id="Rectángulo_6158" data-name="Rectángulo 6158" width="8.255" height="30.528" transform="translate(597.69 639.961)" fill="#e0e0e0"/>
              </g>
            </g>
          </g>
        </g>
        <g id="Grupo_10297" data-name="Grupo 10297">
          <g id="Grupo_10296" data-name="Grupo 10296">
            <g id="Grupo_10295" data-name="Grupo 10295">
              <g id="Grupo_10294" data-name="Grupo 10294">
                <rect id="Rectángulo_6159" data-name="Rectángulo 6159" width="8.255" height="30.528" transform="translate(720.917 639.961)" fill="#e0e0e0"/>
              </g>
            </g>
          </g>
        </g>
      </g>
      <g id="Grupo_10303" data-name="Grupo 10303">
        <g id="Grupo_10302" data-name="Grupo 10302">
          <g id="Grupo_10301" data-name="Grupo 10301">
            <g id="Grupo_10300" data-name="Grupo 10300">
              <g id="Grupo_10299" data-name="Grupo 10299">
                <rect id="Rectángulo_6160" data-name="Rectángulo 6160" width="11.156" height="76.345" transform="translate(709.529 559.487) rotate(-0.307)" fill="#ebebeb"/>
              </g>
            </g>
          </g>
        </g>
      </g>
      <g id="Grupo_10334" data-name="Grupo 10334">
        <g id="Grupo_10308" data-name="Grupo 10308">
          <g id="Grupo_10307" data-name="Grupo 10307">
            <g id="Grupo_10306" data-name="Grupo 10306">
              <g id="Grupo_10305" data-name="Grupo 10305">
                <g id="Grupo_10304" data-name="Grupo 10304">
                  <rect id="Rectángulo_6161" data-name="Rectángulo 6161" width="17.334" height="61.869" transform="translate(720.781 573.732) rotate(-0.308)" fill="#f5f5f5"/>
                </g>
              </g>
            </g>
          </g>
        </g>
        <g id="Grupo_10313" data-name="Grupo 10313">
          <g id="Grupo_10312" data-name="Grupo 10312">
            <g id="Grupo_10311" data-name="Grupo 10311">
              <g id="Grupo_10310" data-name="Grupo 10310">
                <g id="Grupo_10309" data-name="Grupo 10309">
                  <path id="Trazado_10710" data-name="Trazado 10710" d="M738,585.558c0,.166-3.88.3-8.666.3s-8.668-.135-8.668-.3,3.88-.3,8.668-.3S738,585.392,738,585.558Z" fill="#e0e0e0"/>
                </g>
              </g>
            </g>
          </g>
        </g>
        <g id="Grupo_10318" data-name="Grupo 10318">
          <g id="Grupo_10317" data-name="Grupo 10317">
            <g id="Grupo_10316" data-name="Grupo 10316">
              <g id="Grupo_10315" data-name="Grupo 10315">
                <g id="Grupo_10314" data-name="Grupo 10314">
                  <path id="Trazado_10711" data-name="Trazado 10711" d="M738,582.959c0,.166-3.88.3-8.666.3s-8.668-.134-8.668-.3,3.88-.3,8.668-.3S738,582.793,738,582.959Z" fill="#e0e0e0"/>
                </g>
              </g>
            </g>
          </g>
        </g>
        <g id="Grupo_10323" data-name="Grupo 10323">
          <g id="Grupo_10322" data-name="Grupo 10322">
            <g id="Grupo_10321" data-name="Grupo 10321">
              <g id="Grupo_10320" data-name="Grupo 10320">
                <g id="Grupo_10319" data-name="Grupo 10319">
                  <path id="Trazado_10712" data-name="Trazado 10712" d="M738,626.2c0,.165-3.88.3-8.666.3s-8.668-.135-8.668-.3,3.88-.3,8.668-.3S738,626.033,738,626.2Z" fill="#e0e0e0"/>
                </g>
              </g>
            </g>
          </g>
        </g>
        <g id="Grupo_10328" data-name="Grupo 10328">
          <g id="Grupo_10327" data-name="Grupo 10327">
            <g id="Grupo_10326" data-name="Grupo 10326">
              <g id="Grupo_10325" data-name="Grupo 10325">
                <g id="Grupo_10324" data-name="Grupo 10324">
                  <path id="Trazado_10713" data-name="Trazado 10713" d="M738,623.6c0,.165-3.88.3-8.666.3s-8.668-.135-8.668-.3,3.88-.3,8.668-.3S738,623.434,738,623.6Z" fill="#e0e0e0"/>
                </g>
              </g>
            </g>
          </g>
        </g>
        <g id="Grupo_10333" data-name="Grupo 10333">
          <g id="Grupo_10332" data-name="Grupo 10332">
            <g id="Grupo_10331" data-name="Grupo 10331">
              <g id="Grupo_10330" data-name="Grupo 10330">
                <g id="Grupo_10329" data-name="Grupo 10329">
                  <path id="Trazado_10714" data-name="Trazado 10714" d="M729.61,617.929c-.166,0-.3-6.242-.3-13.94s.134-13.941.3-13.941.3,6.24.3,13.941S729.776,617.929,729.61,617.929Z" fill="#e0e0e0"/>
                </g>
              </g>
            </g>
          </g>
        </g>
      </g>
      <g id="Grupo_10339" data-name="Grupo 10339">
        <g id="Grupo_10338" data-name="Grupo 10338">
          <g id="Grupo_10337" data-name="Grupo 10337">
            <g id="Grupo_10336" data-name="Grupo 10336">
              <g id="Grupo_10335" data-name="Grupo 10335">
                <rect id="Rectángulo_6162" data-name="Rectángulo 6162" width="18.868" height="46.698" transform="translate(738.186 588.832)" fill="#ebebeb"/>
              </g>
            </g>
          </g>
        </g>
      </g>
      <g id="Grupo_10343" data-name="Grupo 10343">
        <g id="Grupo_10342" data-name="Grupo 10342">
          <g id="Grupo_10341" data-name="Grupo 10341">
            <g id="Grupo_10340" data-name="Grupo 10340">
              <path id="Trazado_10715" data-name="Trazado 10715" d="M718.149,572.462a3.206,3.206,0,1,1-3.206-3.207A3.206,3.206,0,0,1,718.149,572.462Z" fill="#e0e0e0"/>
            </g>
          </g>
        </g>
      </g>
      <g id="Grupo_10347" data-name="Grupo 10347">
        <g id="Grupo_10346" data-name="Grupo 10346">
          <g id="Grupo_10345" data-name="Grupo 10345">
            <g id="Grupo_10344" data-name="Grupo 10344">
              <rect id="Rectángulo_6163" data-name="Rectángulo 6163" width="1.982" height="45.416" transform="translate(713.952 581.28)" fill="#e0e0e0"/>
            </g>
          </g>
        </g>
      </g>
    </g>
    <g id="Grupo_10395" data-name="Grupo 10395">
      <g id="Grupo_10370" data-name="Grupo 10370">
        <g id="Grupo_10351" data-name="Grupo 10351">
          <g id="Grupo_10350" data-name="Grupo 10350">
            <g id="Grupo_10349" data-name="Grupo 10349">
              <path id="Trazado_10716" data-name="Trazado 10716" d="M373.3,871.074c5.234-2.7,11.4-3.051,17.206-2.091,3.121.516,6.375,1.45,8.5,3.794s2.527,6.471.088,8.486c-1.452,1.2-3.476,1.381-5.359,1.359-4.548-.053-9.6-.854-13.228,1.883-2.074,1.561-3.453,4.157-5.932,4.925-2.425.751-5.161-.68-6.447-2.869a10.011,10.011,0,0,1-.729-7.391A11.283,11.283,0,0,1,373.3,871.074Z" fill="#8fc4e8"/>
            </g>
          </g>
        </g>
        <g id="Grupo_10354" data-name="Grupo 10354">
          <g id="Grupo_10353" data-name="Grupo 10353">
            <g id="Grupo_10352" data-name="Grupo 10352">
              <path id="Trazado_10717" data-name="Trazado 10717" d="M361.31,847.928c3.2,4.571,9.419,3.058,12.3.268s4.1-6.833,5.212-10.689c2.535-8.809,5.091-18.051,3.206-27.023a15.008,15.008,0,0,0-3.451-7.346,7.845,7.845,0,0,0-7.433-2.474c-3.135.829-5.084,3.9-6.493,6.822a64.422,64.422,0,0,0-6.366,27.644c-.015,4.453.51,9.122,3.022,12.8" fill="#8fc4e8"/>
            </g>
          </g>
        </g>
        <g id="Grupo_10357" data-name="Grupo 10357">
          <g id="Grupo_10356" data-name="Grupo 10356">
            <g id="Grupo_10355" data-name="Grupo 10355">
              <path id="Trazado_10718" data-name="Trazado 10718" d="M352.522,854.486c3.475-4.123,4.134-10.138,2.588-15.3s-5.039-9.561-9.064-13.149a48.8,48.8,0,0,0-16.232-9.577,17.3,17.3,0,0,0-7.3-1.24,7.663,7.663,0,0,0-6.126,3.706c-1.708,3.258-.07,7.21,1.7,10.433a123.7,123.7,0,0,0,10.661,16.235c3.2,4.12,6.856,8.183,11.726,10.045s9.929,1.643,12.51-1.734" fill="#8fc4e8"/>
            </g>
          </g>
        </g>
        <g id="Grupo_10361" data-name="Grupo 10361">
          <g id="Grupo_10360" data-name="Grupo 10360">
            <g id="Grupo_10359" data-name="Grupo 10359">
              <g id="Grupo_10358" data-name="Grupo 10358">
                <path id="Trazado_10719" data-name="Trazado 10719" d="M361.093,916.873a9.987,9.987,0,0,0,.29-2.077c.147-1.511.331-3.409.551-5.668a82.051,82.051,0,0,1,1.275-8.313A64.177,64.177,0,0,1,366.231,891a36.185,36.185,0,0,1,5.01-8.878,18.694,18.694,0,0,1,6.335-5.266,17.687,17.687,0,0,1,5.334-1.661,9.944,9.944,0,0,0,2.068-.3,9.7,9.7,0,0,0-2.1-.032,16.155,16.155,0,0,0-5.563,1.447,18.685,18.685,0,0,0-6.682,5.312,35.344,35.344,0,0,0-5.193,9.057,60.031,60.031,0,0,0-3,9.973,70.381,70.381,0,0,0-1.105,8.418c-.18,2.407-.248,4.356-.281,5.7A9.754,9.754,0,0,0,361.093,916.873Z" fill="#282b38"/>
              </g>
            </g>
          </g>
        </g>
        <g id="Grupo_10365" data-name="Grupo 10365">
          <g id="Grupo_10364" data-name="Grupo 10364">
            <g id="Grupo_10363" data-name="Grupo 10363">
              <g id="Grupo_10362" data-name="Grupo 10362">
                <path id="Trazado_10720" data-name="Trazado 10720" d="M361.484,912.512a4.121,4.121,0,0,0,.055-.964c0-.724,0-1.636-.007-2.756-.007-2.391-.005-5.852.123-10.126.211-8.547.947-17.746,2.369-30.714,1.346-12.2,3.153-26.387,5.059-35.614.409-2.1.821-3.987,1.208-5.64.37-1.658.686-3.087.99-4.243.262-1.088.475-1.975.644-2.678a4.172,4.172,0,0,0,.169-.951,4.035,4.035,0,0,0-.335.9l-.8,2.641c-.355,1.145-.719,2.565-1.134,4.216-.433,1.646-.887,3.53-1.335,5.626a313.046,313.046,0,0,0-5.319,33.046c-1.424,12.995-2.065,24.828-2.122,33.4-.051,4.284.04,7.752.149,10.146.069,1.119.124,2.03.169,2.754A4.047,4.047,0,0,0,361.484,912.512Z" fill="#282b38"/>
              </g>
            </g>
          </g>
        </g>
        <g id="Grupo_10369" data-name="Grupo 10369">
          <g id="Grupo_10368" data-name="Grupo 10368">
            <g id="Grupo_10367" data-name="Grupo 10367">
              <g id="Grupo_10366" data-name="Grupo 10366">
                <path id="Trazado_10721" data-name="Trazado 10721" d="M361.541,889.689a18.423,18.423,0,0,0-.02-2.878c-.106-1.85-.361-4.524-.882-7.8a102.782,102.782,0,0,0-2.536-11.363,93.2,93.2,0,0,0-4.752-13.446A71.622,71.622,0,0,0,339.4,832.475a35.6,35.6,0,0,0-3.283-3.052c-.5-.425-.949-.85-1.4-1.187q-.684-.471-1.274-.878a18.406,18.406,0,0,0-2.423-1.551c-.138.187,3.433,2.289,7.943,7.087a75.456,75.456,0,0,1,13.606,21.649,106.312,106.312,0,0,1,4.779,13.322,115.607,115.607,0,0,1,2.7,11.25c.594,3.243.939,5.89,1.146,7.723A18.477,18.477,0,0,0,361.541,889.689Z" fill="#282b38"/>
              </g>
            </g>
          </g>
        </g>
      </g>
      <g id="Grupo_10373" data-name="Grupo 10373">
        <g id="Grupo_10372" data-name="Grupo 10372">
          <g id="Grupo_10371" data-name="Grupo 10371">
            <path id="Trazado_10722" data-name="Trazado 10722" d="M339.482,929.948l2.287,31.33h40.249l2.287-31.33Z" fill="#282b38"/>
          </g>
        </g>
      </g>
      <g id="Grupo_10376" data-name="Grupo 10376">
        <g id="Grupo_10375" data-name="Grupo 10375">
          <g id="Grupo_10374" data-name="Grupo 10374">
            <rect id="Rectángulo_6164" data-name="Rectángulo 6164" width="53.513" height="12.349" transform="translate(335.594 917.599)" fill="#282b38"/>
          </g>
        </g>
      </g>
      <g id="Grupo_10379" data-name="Grupo 10379">
        <g id="Grupo_10378" data-name="Grupo 10378">
          <g id="Grupo_10377" data-name="Grupo 10377">
            <path id="Trazado_10723" data-name="Trazado 10723" d="M335.594,960.08V963.5h52.629V960.08Z" fill="#455464"/>
          </g>
        </g>
      </g>
      <g id="Grupo_10382" data-name="Grupo 10382">
        <g id="Grupo_10381" data-name="Grupo 10381">
          <g id="Grupo_10380" data-name="Grupo 10380">
            <path id="Trazado_10724" data-name="Trazado 10724" d="M340.573,969.528l-2.465-6.025h48.2l-2.875,6.025Z" fill="#455464"/>
          </g>
        </g>
      </g>
      <g id="Grupo_10386" data-name="Grupo 10386">
        <g id="Grupo_10385" data-name="Grupo 10385">
          <g id="Grupo_10384" data-name="Grupo 10384">
            <g id="Grupo_10383" data-name="Grupo 10383">
              <path id="Trazado_10725" data-name="Trazado 10725" d="M383.557,940.188a1.244,1.244,0,0,1-.187.288l-.6.8-2.344,3-.105.133-.1-.139-5.761-7.967h.332c-1.714,2.426-3.622,5.129-5.672,8.03l-.178.252-.2-.237-6.726-8,.388-.005-.37.465-6.014,7.54-.2.251-.185-.262c-2.041-2.889-3.949-5.588-5.674-8.028l.33.015-6.988,7.962-.124.142-.1-.159-2.188-3.677c-.229-.4-.414-.721-.561-.978a.2.2,0,1,1,.063-.039l.621.942,2.3,3.609-.219-.018,6.876-8.059.174-.2.157.219c1.74,2.429,3.665,5.116,5.724,7.992l-.385-.01,6-7.551.37-.465.191-.24.2.235,6.708,8.018-.377.015,5.728-7.99.168-.234.164.234,5.638,8.053-.2-.006,2.439-2.924.653-.756A1.324,1.324,0,0,1,383.557,940.188Z" fill="#e0e0e0"/>
            </g>
          </g>
        </g>
      </g>
      <g id="Grupo_10390" data-name="Grupo 10390">
        <g id="Grupo_10389" data-name="Grupo 10389">
          <g id="Grupo_10388" data-name="Grupo 10388">
            <g id="Grupo_10387" data-name="Grupo 10387">
              <path id="Trazado_10726" data-name="Trazado 10726" d="M384.865,929.741c0,.139-10.085.251-22.523.251s-22.525-.112-22.525-.251,10.083-.25,22.525-.25S384.865,929.6,384.865,929.741Z" fill="#455464"/>
            </g>
          </g>
        </g>
      </g>
      <g id="Grupo_10394" data-name="Grupo 10394">
        <g id="Grupo_10393" data-name="Grupo 10393">
          <g id="Grupo_10392" data-name="Grupo 10392">
            <g id="Grupo_10391" data-name="Grupo 10391">
              <path id="Trazado_10727" data-name="Trazado 10727" d="M386.9,963.841c0,.138-10.96.25-24.478.25s-24.48-.112-24.48-.25,10.958-.251,24.48-.251S386.9,963.7,386.9,963.841Z" fill="#282b38"/>
            </g>
          </g>
        </g>
      </g>
    </g>
    <g id="Grupo_10397" data-name="Grupo 10397">
      <path id="Rectángulo_6165" data-name="Rectángulo 6165" d="M15.126,0h93.526a15.126,15.126,0,0,1,15.126,15.126V132.744a0,0,0,0,1,0,0H0a0,0,0,0,1,0,0V15.126A15.126,15.126,0,0,1,15.126,0Z" transform="translate(647.009 837.352)" fill="#455464"/>
      <g id="Grupo_10396" data-name="Grupo 10396">
        <path id="Trazado_10728" data-name="Trazado 10728" d="M760.38,838.029c.144,0,.26,29.552.26,66s-.116,66-.26,66-.26-29.545-.26-66S760.236,838.029,760.38,838.029Z" fill="#282b38"/>
      </g>
    </g>
    <g id="Grupo_10587" data-name="Grupo 10587">
      <g id="Grupo_10399" data-name="Grupo 10399">
        <path id="Trazado_10729" data-name="Trazado 10729" d="M699.4,693.243a104.972,104.972,0,0,1,18.814,55.336c.582,13.3-1.209,27.474,5.1,39.2,9.055,16.816,28.649,16.245,34.648,34.377,2.609,7.886-2.2,25.243-3.5,33.447-1.474,9.326,4.23,17.157,2.757,26.482-1.351,8.549-7.748,14.65-15.433,18.631-6.836,3.541-13.157,3.635-20.27.69-13.553-5.61-24.833-11.533-34.49-22.574-13.556-15.5-17.651-36.964-19.968-57.427a504.017,504.017,0,0,1,3.069-135.753" fill="#282b38"/>
        <g id="Grupo_10398" data-name="Grupo 10398">
          <path id="Trazado_10730" data-name="Trazado 10730" d="M728.385,903.309s.147-.046.437-.109.726-.136,1.281-.3a21.168,21.168,0,0,0,4.683-1.871,20.792,20.792,0,0,0,6.185-4.96,13,13,0,0,0,2.418-4.289,23.44,23.44,0,0,0,.845-5.495,53.9,53.9,0,0,0-1.295-12.742c-.872-4.537-2.055-9.381-2.34-14.623a30.138,30.138,0,0,1,.566-8.018,52.323,52.323,0,0,1,2.542-7.979c1.018-2.647,2.089-5.322,2.865-8.124a20.837,20.837,0,0,0,.693-8.7,19.67,19.67,0,0,0-3.245-8.083,37.562,37.562,0,0,0-5.67-6.425c-4.132-3.856-8.6-7.04-12.423-10.617a70.305,70.305,0,0,1-16.179-22.337,68.4,68.4,0,0,1-3.725-9.972c-.48-1.494-.754-2.932-1.1-4.229-.257-1.315-.493-2.519-.705-3.6-.318-2.184-.55-3.88-.613-5.041-.044-.56-.077-1-.1-1.316-.02-.3-.017-.45-.017-.45s.032.151.07.446c.037.318.088.753.153,1.31.1,1.156.361,2.844.709,5.016q.337,1.618.747,3.584c.356,1.289.642,2.718,1.134,4.2a69.423,69.423,0,0,0,3.78,9.9,70.508,70.508,0,0,0,16.169,22.139c3.8,3.54,8.278,6.717,12.446,10.6a37.949,37.949,0,0,1,5.753,6.509,20.171,20.171,0,0,1,3.33,8.3,21.324,21.324,0,0,1-.708,8.91c-.789,2.843-1.87,5.532-2.888,8.172a52.036,52.036,0,0,0-2.533,7.9,29.725,29.725,0,0,0-.573,7.891c.267,5.182,1.428,10.014,2.285,14.565A53.882,53.882,0,0,1,744.6,886.3a23.621,23.621,0,0,1-.9,5.579,13.264,13.264,0,0,1-2.509,4.372,20.759,20.759,0,0,1-6.315,4.953A20.133,20.133,0,0,1,730.128,903,11.936,11.936,0,0,1,728.385,903.309Z" fill="#455464"/>
        </g>
      </g>
      <g id="Grupo_10433" data-name="Grupo 10433">
        <g id="Grupo_10420" data-name="Grupo 10420">
          <g id="Grupo_10418" data-name="Grupo 10418">
            <path id="Trazado_10731" data-name="Trazado 10731" d="M542.2,939.042l47.988-22.793s18.689-90.745,22.223-97.559,18.306-12.7,18.306-12.7l-2.475,122.88-4.383,28.345-67.679,6.411Z" fill="#8fc4e8"/>
            <g id="Grupo_10416" data-name="Grupo 10416">
              <g id="Grupo_10400" data-name="Grupo 10400">
                <path id="Trazado_10732" data-name="Trazado 10732" d="M501.242,960.539c-.264-.01-1.6.826-.481,2.932s9.243,9.075,11.635,6.648-1.261-5.389-1.261-5.389Z" fill="#ffc69e"/>
              </g>
              <g id="Grupo_10403" data-name="Grupo 10403">
                <g id="Grupo_10402" data-name="Grupo 10402">
                  <g id="Grupo_10401" data-name="Grupo 10401">
                    <path id="Trazado_10733" data-name="Trazado 10733" d="M511.48,964.825s9.812,1.237,13.592,2.673c4.1,1.56,9.1.5,12.463-1.782a35.482,35.482,0,0,0,5.324-4.338l12.519-.2a15.026,15.026,0,0,0,2.442-15.512,16.764,16.764,0,0,0-2.868-4.885c-1.487-1.609-3.835-2.912-7.893-3.613l-14.873,3.211s-23.043-1.646-27.138.29c0,0-5.148,3.054-6.742,4.335-.6.482-2.425,6.346,1.323,9.394,0,0-3.263,2.595-1.5,4.922l.847,1.033s-2.194,2.84-1.068,4.075,10.986,7.015,14.512,5.638.609-4.645-.944-5.243" fill="#ffc69e"/>
                  </g>
                </g>
              </g>
              <g id="Grupo_10405" data-name="Grupo 10405">
                <g id="Grupo_10404" data-name="Grupo 10404">
                  <path id="Trazado_10734" data-name="Trazado 10734" d="M502.1,949.333a9.169,9.169,0,0,1,1.22.435c.777.3,1.9.717,3.319,1.167.707.225,1.487.454,2.331.677s1.758.41,2.711.719a5.811,5.811,0,0,1,2.7,1.63,3.334,3.334,0,0,1,.722,3.291,2.6,2.6,0,0,1-1.217,1.308,4.572,4.572,0,0,1-1.639.456,13.593,13.593,0,0,1-3.127-.165,27.626,27.626,0,0,1-5.085-1.325c-1.409-.5-2.52-.969-3.286-1.3a7.593,7.593,0,0,1-1.171-.555,8.074,8.074,0,0,1,1.23.407c.783.281,1.909.71,3.321,1.17a29.442,29.442,0,0,0,5.045,1.225,13.556,13.556,0,0,0,3.03.14,4.218,4.218,0,0,0,1.491-.417,2.2,2.2,0,0,0,1.029-1.1,2.954,2.954,0,0,0-.65-2.878,5.507,5.507,0,0,0-2.514-1.53c-.918-.309-1.837-.5-2.682-.749s-1.626-.486-2.332-.73c-1.412-.489-2.528-.952-3.289-1.294A6.833,6.833,0,0,1,502.1,949.333Z" fill="#eba36f"/>
                </g>
              </g>
              <g id="Grupo_10407" data-name="Grupo 10407">
                <g id="Grupo_10406" data-name="Grupo 10406">
                  <path id="Trazado_10735" data-name="Trazado 10735" d="M502.978,942.239a8.886,8.886,0,0,1,1.212.44c.773.3,1.892.727,3.3,1.2s3.09.975,4.991,1.431a6.85,6.85,0,0,1,2.91,1.177,2.482,2.482,0,0,1,.854,1.506,3.14,3.14,0,0,1-.254,1.75,4.214,4.214,0,0,1-2.568,2.186,6.794,6.794,0,0,1-3.128.248,30.128,30.128,0,0,1-5.03-1.456l-3.316-1.161a7.737,7.737,0,0,1-1.2-.479,7.748,7.748,0,0,1,1.248.327l3.357,1.038a32.633,32.633,0,0,0,4.987,1.357,6.477,6.477,0,0,0,2.95-.254,3.83,3.83,0,0,0,2.323-1.972,2.316,2.316,0,0,0-.489-2.787,6.587,6.587,0,0,0-2.736-1.113,51.744,51.744,0,0,1-5-1.525c-1.4-.5-2.506-.978-3.263-1.321A7.067,7.067,0,0,1,502.978,942.239Z" fill="#eba36f"/>
                </g>
              </g>
              <g id="Grupo_10409" data-name="Grupo 10409">
                <g id="Grupo_10408" data-name="Grupo 10408">
                  <path id="Trazado_10736" data-name="Trazado 10736" d="M507.707,944.265a72.589,72.589,0,0,0-.945-3.93,4.886,4.886,0,0,1,.945,3.93Z" fill="#eba36f"/>
                </g>
              </g>
              <g id="Grupo_10413" data-name="Grupo 10413">
                <g id="Grupo_10410" data-name="Grupo 10410">
                  <path id="Trazado_10737" data-name="Trazado 10737" d="M542.335,944.56l-8.748-3.371s-24.291-11.337-24.7-10.723-1.728.547-1.44,3.509,14.444,8.932,14.892,9.958-.3,6.214,4.929,9.93,9,3.8,9,3.8" fill="#ffc69e"/>
                </g>
                <g id="Grupo_10412" data-name="Grupo 10412">
                  <g id="Grupo_10411" data-name="Grupo 10411">
                    <path id="Trazado_10738" data-name="Trazado 10738" d="M536.267,957.659a.654.654,0,0,1-.207.007c-.137-.007-.341-.021-.6-.06a13.542,13.542,0,0,1-2.272-.545,22.013,22.013,0,0,1-7.418-4.269,10.527,10.527,0,0,1-2.982-5.114,23.724,23.724,0,0,1-.517-3.266,1.837,1.837,0,0,0-.086-.376.725.725,0,0,0-.229-.234,8.157,8.157,0,0,0-.71-.459c-.5-.293-1.015-.573-1.541-.855-2.107-1.123-4.349-2.258-6.611-3.557-1.131-.65-2.268-1.34-3.373-2.127a12.832,12.832,0,0,1-1.583-1.321,4.391,4.391,0,0,1-.667-.844,1.854,1.854,0,0,1-.2-.546,4.338,4.338,0,0,1-.052-.538,3.855,3.855,0,0,1,.375-2.113,2.51,2.51,0,0,1,.772-.774,1.506,1.506,0,0,0,.335-.289c.027-.025-.02.008.084-.084a.263.263,0,0,1,.172-.054.8.8,0,0,1,.171.013c.093.018.181.038.265.062,1.316.406,2.52.935,3.729,1.432,2.4,1.012,4.694,2.034,6.876,3.014,4.361,1.965,8.268,3.778,11.543,5.314.82.376,1.6.768,2.336,1.082l2.14.842,3.424,1.357,2.159.873.557.236a.813.813,0,0,1,.185.094.764.764,0,0,1-.2-.055l-.572-.2-2.188-.8c-.958-.359-2.115-.793-3.453-1.293l-2.154-.814c-.761-.312-1.529-.69-2.356-1.059l-11.575-5.232c-2.185-.97-4.48-1.985-6.878-2.989-1.2-.491-2.426-1.024-3.68-1.409-.078-.022-.154-.039-.226-.053a.592.592,0,0,0-.079-.008c-.005-.014,0,.03-.013-.033s.005-.064-.016-.1a.086.086,0,0,0-.028-.029c.275.187.069.061.128.107l-.025.031a1.849,1.849,0,0,1-.422.376,2.094,2.094,0,0,0-.659.652,3.477,3.477,0,0,0-.318,1.884,1.808,1.808,0,0,0,.2.9,3.987,3.987,0,0,0,.6.758,12.5,12.5,0,0,0,1.529,1.276c1.083.775,2.211,1.462,3.334,2.11,2.248,1.3,4.482,2.438,6.59,3.572.526.286,1.046.57,1.551.871a8.369,8.369,0,0,1,.743.487,1.009,1.009,0,0,1,.343.388,2.126,2.126,0,0,1,.106.454,23.846,23.846,0,0,0,.49,3.24,10.277,10.277,0,0,0,2.854,4.989,20.19,20.19,0,0,0,3.937,2.8,20.952,20.952,0,0,0,3.331,1.525,15.659,15.659,0,0,0,2.234.615c.26.051.461.079.595.1A.971.971,0,0,1,536.267,957.659Z" fill="#eba36f"/>
                  </g>
                </g>
              </g>
              <g id="Grupo_10415" data-name="Grupo 10415">
                <g id="Grupo_10414" data-name="Grupo 10414">
                  <path id="Trazado_10739" data-name="Trazado 10739" d="M509.478,958.8a3.032,3.032,0,0,1,.929.27A9.185,9.185,0,0,1,512.7,960.4a8.26,8.26,0,0,1,1.323,1.285,2.781,2.781,0,0,1,.706,2.045,2.265,2.265,0,0,1-1.619,1.749,4.367,4.367,0,0,1-2.545-.08,46.877,46.877,0,0,1-8.054-3.233,25.69,25.69,0,0,1-2.264-1.34,3.979,3.979,0,0,1-.772-.581,4.8,4.8,0,0,1,.855.445c.538.3,1.322.733,2.313,1.218a56.056,56.056,0,0,0,8.031,3.1,4.031,4.031,0,0,0,2.31.095,1.894,1.894,0,0,0,1.372-1.424,2.472,2.472,0,0,0-.6-1.784,8.374,8.374,0,0,0-1.237-1.266A13.754,13.754,0,0,0,509.478,958.8Z" fill="#eba36f"/>
                </g>
              </g>
            </g>
            <g id="Grupo_10417" data-name="Grupo 10417" opacity="0.3">
              <path id="Trazado_10740" data-name="Trazado 10740" d="M623.515,957.24c-7.86-26.508-14.792-60.654-22.652-87.163-2.873,24.475.723,56.784,5.229,81.012.528,2.839.769,5.622,2.972,7.489l14.451-1.338"/>
            </g>
          </g>
          <g id="Grupo_10419" data-name="Grupo 10419">
            <path id="Trazado_10741" data-name="Trazado 10741" d="M610.643,939.042c-.106.025-.437-1.73-1.5-4.377a30.761,30.761,0,0,0-2.255-4.46,30.869,30.869,0,0,0-8.276-8.914,30.744,30.744,0,0,0-4.28-2.579c-2.561-1.259-4.286-1.719-4.254-1.823a5.836,5.836,0,0,1,1.218.288,11.681,11.681,0,0,1,1.394.461,18.86,18.86,0,0,1,1.8.742,27.921,27.921,0,0,1,4.4,2.521,29.428,29.428,0,0,1,8.408,9.056,28.034,28.034,0,0,1,2.187,4.574,18.755,18.755,0,0,1,.606,1.851,11.329,11.329,0,0,1,.357,1.424A5.725,5.725,0,0,1,610.643,939.042Z" fill="#282b38"/>
          </g>
        </g>
        <path id="Trazado_10742" data-name="Trazado 10742" d="M625.632,804.749s-25.139,56.151-25.139,66.46,18.835,81.937,18.835,81.937c-.178,2.842-.911,17.118-.911,17.118l105.589.362h0l1.608-22.7-8.242-21.63,8.235-61.145s5.541-35.5,6.034-45.431c.617-12.423-41.465-26.823-40.318-28.542l-7.267-9.727-41.634,33.8L634.2,791.5l-9.856,9.316Z" fill="#8fc4e8"/>
        <path id="Trazado_10743" data-name="Trazado 10743" d="M694.778,819.686c-11.427,19.337-32.344,54.576-32.344,54.576L624.954,917s-2.452,21.717,2.452,28.373,13.31,11.209,13.31,11.209,9.9,0,22.462-10.509,47.244-53.942,47.244-53.942l11.909-14.362s14.2-34.883,11.546-52.636c-1.022-6.845-3.935-9.693-7.825-12.832C716.282,804.413,701.164,808.878,694.778,819.686Z" fill="#8fc4e8"/>
        <g id="Grupo_10421" data-name="Grupo 10421">
          <path id="Trazado_10744" data-name="Trazado 10744" d="M726.733,865.642a2.692,2.692,0,0,1-.173.4c-.136.278-.32.655-.555,1.138-.5,1-1.26,2.452-2.3,4.293-2.068,3.691-5.282,8.905-9.489,15.19-2.1,3.141-4.46,6.548-7.042,10.167-2.558,3.642-5.534,7.351-7.955,11.711-2.485,4.319-4.62,9.121-7.274,13.886a87.1,87.1,0,0,1-9.524,13.909,55.688,55.688,0,0,1-12.626,11.16,39.719,39.719,0,0,1-14.617,5.661,32.872,32.872,0,0,1-14.164-.6,27.033,27.033,0,0,1-5.989-2.429,27.328,27.328,0,0,1-4.934-3.341,23,23,0,0,1-6.184-8.093,26.147,26.147,0,0,1-2.015-7.442,33.36,33.36,0,0,1-.17-4.871c.031-.537.055-.956.073-1.265a2.648,2.648,0,0,1,.042-.43,2.6,2.6,0,0,1,.011.433c-.005.308-.012.728-.021,1.264a36.767,36.767,0,0,0,.267,4.844,26.332,26.332,0,0,0,2.078,7.346,22.844,22.844,0,0,0,6.155,7.933,27.134,27.134,0,0,0,4.889,3.269,26.757,26.757,0,0,0,5.912,2.366,32.536,32.536,0,0,0,13.97.543,39.354,39.354,0,0,0,14.425-5.619,55.416,55.416,0,0,0,12.5-11.066,87.115,87.115,0,0,0,9.476-13.821c2.646-4.734,4.791-9.535,7.3-13.876,2.453-4.387,5.459-8.107,8.021-11.723,2.6-3.605,4.965-7,7.088-10.122,4.242-6.252,7.5-11.43,9.618-15.085,1.068-1.822,1.858-3.26,2.385-4.24l.6-1.114A2.632,2.632,0,0,1,726.733,865.642Z" fill="#282b38"/>
        </g>
        <g id="Grupo_10422" data-name="Grupo 10422">
          <path id="Trazado_10745" data-name="Trazado 10745" d="M623.078,915.067c.044.075-.533.4-1.222,1.169a6.057,6.057,0,0,0-.681,7.367c.537.88,1.045,1.307.987,1.372-.03.047-.639-.285-1.293-1.167a5.915,5.915,0,0,1,.724-7.829A3,3,0,0,1,623.078,915.067Z" fill="#282b38"/>
        </g>
        <g id="Grupo_10423" data-name="Grupo 10423">
          <path id="Trazado_10746" data-name="Trazado 10746" d="M629.971,926.413a2.61,2.61,0,0,1,.587.135c.189.049.419.127.7.191l.97.178a13.877,13.877,0,0,0,6.181-.575,22.786,22.786,0,0,0,7.957-4.677,60.486,60.486,0,0,0,7.458-8.655,52.245,52.245,0,0,1,7.684-8.589c1.359-1.142,2.7-2.154,3.8-3.241a10.739,10.739,0,0,0,2.5-3.446,6.27,6.27,0,0,0-.576-5.9,4.522,4.522,0,0,0-1.807-1.35,2.355,2.355,0,0,1,.582.167,3.9,3.9,0,0,1,1.383,1.056,6.423,6.423,0,0,1,.762,6.161,10.991,10.991,0,0,1-2.541,3.619c-1.124,1.126-2.462,2.159-3.8,3.3a53.624,53.624,0,0,0-7.582,8.541,58.606,58.606,0,0,1-7.555,8.7,22.684,22.684,0,0,1-8.165,4.668,13.518,13.518,0,0,1-6.323.423l-.975-.228c-.277-.08-.505-.176-.691-.241A2.537,2.537,0,0,1,629.971,926.413Z" fill="#282b38"/>
        </g>
        <g id="Grupo_10424" data-name="Grupo 10424">
          <path id="Trazado_10747" data-name="Trazado 10747" d="M699.863,813.748a3.969,3.969,0,0,1-.42.6l-1.28,1.666c-1.14,1.423-2.711,3.544-4.623,6.182a202.6,202.6,0,0,0-13.336,21.67c-4.714,8.762-8.62,16.89-11.606,22.694-1.485,2.905-2.706,5.247-3.586,6.846l-1.018,1.839a3.811,3.811,0,0,1-.386.624,3.836,3.836,0,0,1,.293-.673l.931-1.883c.838-1.686,2.005-4.036,3.437-6.919,2.9-5.842,6.753-14,11.476-22.775a183.333,183.333,0,0,1,13.5-21.639c1.955-2.617,3.572-4.707,4.763-6.093l1.357-1.606A3.788,3.788,0,0,1,699.863,813.748Z" fill="#282b38"/>
        </g>
        <g id="Grupo_10425" data-name="Grupo 10425" opacity="0.3">
          <path id="Trazado_10748" data-name="Trazado 10748" d="M621.835,924.682c4.876,2.643,10.227,2.362,15.669,1.294A24.312,24.312,0,0,0,651.5,917.6a24.363,24.363,0,0,1-6.447,12.78c-3.466,3.384-8.484,5.353-13.249,4.48s-9.574-5.351-9.968-10.18"/>
        </g>
        <g id="Grupo_10426" data-name="Grupo 10426" opacity="0.3">
          <path id="Trazado_10749" data-name="Trazado 10749" d="M667.939,895.825a21.5,21.5,0,0,1,2.969,16.119c4.13-6.323,5.1-14.326,3.988-21.8s-4.145-14.513-7.525-21.266c0,0-3.729,6.295-3.763,6.99-.181,3.635,1.158,10.48,1.86,14.05a7.833,7.833,0,0,1,2.273,7.059"/>
        </g>
        <g id="Grupo_10427" data-name="Grupo 10427" opacity="0.3">
          <path id="Trazado_10750" data-name="Trazado 10750" d="M638.36,950.843c9.937,7.746,24.684,8.112,35.558,1.747,10.472-6.131,16.918-17.166,22.9-27.722,9.264-16.341,20.568-36.547,27.186-54.126,0,0-18.552,25.312-24.143,36.221a180.389,180.389,0,0,1-12.652,21.309A54.587,54.587,0,0,1,639.324,951.6"/>
        </g>
        <g id="Grupo_10428" data-name="Grupo 10428">
          <path id="Trazado_10751" data-name="Trazado 10751" d="M618.417,970.264a1.131,1.131,0,0,1-.017-.313c.005-.244.01-.544.017-.912.031-.85.073-2.01.126-3.465.139-3.042.335-7.308.57-12.438l.009.071c-1.8-6-3.9-13.274-6.07-21.135-2.882-10.418-5.314-19.9-6.95-26.79-.816-3.446-1.453-6.241-1.852-8.181q-.285-1.4-.455-2.235a4.426,4.426,0,0,1-.124-.786,4.6,4.6,0,0,1,.226.764q.207.829.55,2.212l2.012,8.138c1.727,6.866,4.214,16.325,7.1,26.74,2.171,7.857,4.24,15.14,5.981,21.15l.011.037,0,.035c-.311,5.128-.57,9.391-.754,12.432-.1,1.452-.184,2.611-.243,3.459-.033.366-.059.664-.081.907A1.115,1.115,0,0,1,618.417,970.264Z" fill="#282b38"/>
        </g>
        <g id="Grupo_10429" data-name="Grupo 10429">
          <path id="Trazado_10752" data-name="Trazado 10752" d="M724.052,811.7c-.031.08-1.08-.292-2.815-.722a32.415,32.415,0,0,0-13.83-.413c-1.757.325-2.827.634-2.853.552a2.343,2.343,0,0,1,.722-.317,18.357,18.357,0,0,1,2.056-.6,27.441,27.441,0,0,1,14,.419,18.737,18.737,0,0,1,2.017.717C723.815,811.537,724.065,811.663,724.052,811.7Z" fill="#282b38"/>
        </g>
        <g id="Grupo_10430" data-name="Grupo 10430">
          <path id="Trazado_10753" data-name="Trazado 10753" d="M690.6,793.26a2.42,2.42,0,0,1-.266.518l-.851,1.434c-.752,1.238-1.865,3.013-3.275,5.184-2.829,4.335-6.876,10.241-11.663,16.528-3.851,5.068-7.582,9.615-10.638,13.178l-.214.25-.136-.3c-1.451-3.184-2.654-5.821-3.526-7.733l-.944-2.15a4.169,4.169,0,0,1-.294-.773,4.186,4.186,0,0,1,.407.72q.4.809,1.047,2.1l3.69,7.657-.35-.046c3-3.6,6.7-8.162,10.544-13.222,4.779-6.277,8.866-12.138,11.77-16.417,1.411-2.1,2.566-3.828,3.411-5.089.379-.561.688-1.017.933-1.381A2.46,2.46,0,0,1,690.6,793.26Z" fill="#282b38"/>
        </g>
        <g id="Grupo_10431" data-name="Grupo 10431">
          <path id="Trazado_10754" data-name="Trazado 10754" d="M714.912,954.506c-.143-.016.316-5.206,1.024-11.592s1.4-11.552,1.541-11.536-.315,5.205-1.024,11.593S715.055,954.522,714.912,954.506Z" fill="#282b38"/>
        </g>
        <g id="Grupo_10432" data-name="Grupo 10432">
          <path id="Trazado_10755" data-name="Trazado 10755" d="M642.536,953.146a148.7,148.7,0,0,1,1.865,17.48,148.175,148.175,0,0,1-1.865-17.48Z" fill="#282b38"/>
        </g>
        <path id="Trazado_10756" data-name="Trazado 10756" d="M695.946,838.93a1.278,1.278,0,0,0-1.939-.77l-.067.056a1.213,1.213,0,1,0,2.006.714Z" fill="#fff"/>
        <path id="Trazado_10757" data-name="Trazado 10757" d="M685.519,813.516a1.277,1.277,0,0,0-1.939-.77l-.067.055a1.213,1.213,0,1,0,2.006.715Z" fill="#fff"/>
        <path id="Trazado_10758" data-name="Trazado 10758" d="M661.59,833.98a1.278,1.278,0,0,0-1.939-.77l-.067.056a1.213,1.213,0,1,0,2.006.714Z" fill="#fff"/>
        <path id="Trazado_10759" data-name="Trazado 10759" d="M635.722,823.7a1.277,1.277,0,0,0-1.939-.77l-.067.055a1.213,1.213,0,1,0,2.006.715Z" fill="#fff"/>
        <path id="Trazado_10760" data-name="Trazado 10760" d="M631.145,813.574a1.276,1.276,0,0,0-1.938-.77l-.068.055a1.213,1.213,0,1,0,2.006.715Z" fill="#fff"/>
        <path id="Trazado_10761" data-name="Trazado 10761" d="M633.132,801.868a1.277,1.277,0,0,0-1.938-.77l-.068.056a1.213,1.213,0,1,0,2.006.714Z" fill="#fff"/>
        <path id="Trazado_10762" data-name="Trazado 10762" d="M618.807,817.968a1.278,1.278,0,0,0-1.939-.77l-.067.056a1.213,1.213,0,1,0,2.006.714Z" fill="#fff"/>
        <path id="Trazado_10763" data-name="Trazado 10763" d="M651.991,822.611a1.277,1.277,0,0,0-1.938-.77l-.067.056a1.213,1.213,0,1,0,2.005.714Z" fill="#fff"/>
        <path id="Trazado_10764" data-name="Trazado 10764" d="M623.9,843.477a1.278,1.278,0,0,0-1.939-.77l-.067.056a1.213,1.213,0,1,0,2.006.714Z" fill="#fff"/>
        <path id="Trazado_10765" data-name="Trazado 10765" d="M598.178,903.5a1.278,1.278,0,0,0-1.939-.77l-.067.056a1.213,1.213,0,1,0,2.006.714Z" fill="#fff"/>
        <path id="Trazado_10766" data-name="Trazado 10766" d="M607.354,868.882a1.278,1.278,0,0,0-1.939-.77l-.067.056a1.213,1.213,0,1,0,2.006.714Z" fill="#fff"/>
        <path id="Trazado_10767" data-name="Trazado 10767" d="M674.992,808.1a1.277,1.277,0,0,0-1.938-.77l-.068.056a1.213,1.213,0,1,0,2.006.714Z" fill="#fff"/>
        <path id="Trazado_10768" data-name="Trazado 10768" d="M707.273,877.025a1.278,1.278,0,0,0-1.939-.77l-.067.056a1.213,1.213,0,1,0,2.006.714Z" fill="#fff"/>
        <path id="Trazado_10769" data-name="Trazado 10769" d="M719.851,817.708a1.277,1.277,0,0,0-1.939-.77l-.067.056a1.213,1.213,0,1,0,2.006.714Z" fill="#fff"/>
        <path id="Trazado_10770" data-name="Trazado 10770" d="M714.912,856.554a1.277,1.277,0,0,0-1.938-.771l-.068.056a1.213,1.213,0,1,0,2.006.715Z" fill="#fff"/>
        <path id="Trazado_10771" data-name="Trazado 10771" d="M686.706,884.6a1.278,1.278,0,0,0-1.939-.771l-.067.056a1.213,1.213,0,1,0,2.006.715Z" fill="#fff"/>
        <path id="Trazado_10772" data-name="Trazado 10772" d="M687.893,861.254a1.277,1.277,0,0,0-1.939-.77l-.067.055a1.213,1.213,0,1,0,2.006.715Z" fill="#fff"/>
        <path id="Trazado_10773" data-name="Trazado 10773" d="M704.911,817.91a1.278,1.278,0,0,0-1.939-.77l-.067.056a1.213,1.213,0,1,0,2.006.714Z" fill="#fff"/>
        <path id="Trazado_10774" data-name="Trazado 10774" d="M682,795.288a1.278,1.278,0,0,0-1.939-.771l-.067.056a1.213,1.213,0,1,0,2.006.715Z" fill="#fff"/>
        <path id="Trazado_10775" data-name="Trazado 10775" d="M681.171,831.756a1.278,1.278,0,0,0-1.939-.77l-.067.056a1.213,1.213,0,1,0,2.006.714Z" fill="#fff"/>
        <path id="Trazado_10776" data-name="Trazado 10776" d="M651.924,943.006a1.277,1.277,0,0,0-1.938-.77l-.068.056a1.213,1.213,0,1,0,2.006.714Z" fill="#fff"/>
        <path id="Trazado_10777" data-name="Trazado 10777" d="M618.376,924.712a1.276,1.276,0,0,0-1.938-.77l-.067.056a1.213,1.213,0,1,0,2.005.714Z" fill="#fff"/>
        <path id="Trazado_10778" data-name="Trazado 10778" d="M591.25,933.678a1.278,1.278,0,0,0-1.939-.77l-.067.056a1.213,1.213,0,1,0,2.006.714Z" fill="#fff"/>
        <path id="Trazado_10779" data-name="Trazado 10779" d="M588.347,949.128a1.277,1.277,0,0,0-1.939-.77l-.067.056a1.213,1.213,0,1,0,2.006.714Z" fill="#fff"/>
        <path id="Trazado_10780" data-name="Trazado 10780" d="M613.78,954.3a1.278,1.278,0,0,0-1.939-.771l-.067.056a1.213,1.213,0,1,0,2.006.715Z" fill="#fff"/>
        <path id="Trazado_10781" data-name="Trazado 10781" d="M605.275,919.705a1.277,1.277,0,0,0-1.938-.77l-.068.056a1.213,1.213,0,1,0,2.006.714Z" fill="#fff"/>
        <path id="Trazado_10782" data-name="Trazado 10782" d="M636.479,928.5a1.278,1.278,0,0,0-1.939-.771l-.067.056a1.213,1.213,0,1,0,2.006.715Z" fill="#fff"/>
        <path id="Trazado_10783" data-name="Trazado 10783" d="M710.652,919.647a1.277,1.277,0,0,0-1.939-.77l-.067.056a1.213,1.213,0,1,0,2.006.714Z" fill="#fff"/>
        <path id="Trazado_10784" data-name="Trazado 10784" d="M664.758,963.623a1.278,1.278,0,0,0-1.939-.77l-.067.056a1.213,1.213,0,1,0,2.006.714Z" fill="#fff"/>
        <path id="Trazado_10785" data-name="Trazado 10785" d="M684.332,939.144a1.278,1.278,0,0,0-1.939-.771l-.067.056a1.213,1.213,0,1,0,2.006.715Z" fill="#fff"/>
        <path id="Trazado_10786" data-name="Trazado 10786" d="M695.958,959.053a1.278,1.278,0,0,0-1.939-.77l-.067.056a1.213,1.213,0,1,0,2.006.714Z" fill="#fff"/>
        <path id="Trazado_10787" data-name="Trazado 10787" d="M663.608,854.791a1.278,1.278,0,0,0-1.939-.77l-.067.056a1.213,1.213,0,1,0,2.006.714Z" fill="#fff"/>
        <path id="Trazado_10788" data-name="Trazado 10788" d="M689.932,905.617a1.278,1.278,0,0,0-1.939-.77l-.067.056a1.213,1.213,0,1,0,2.006.714Z" fill="#fff"/>
        <path id="Trazado_10789" data-name="Trazado 10789" d="M681.4,924.869a1.277,1.277,0,0,0-1.938-.77l-.067.056a1.213,1.213,0,1,0,2.005.714Z" fill="#fff"/>
        <path id="Trazado_10790" data-name="Trazado 10790" d="M709.465,940.332a1.277,1.277,0,0,0-1.939-.77l-.067.056a1.213,1.213,0,1,0,2.006.714Z" fill="#fff"/>
        <path id="Trazado_10791" data-name="Trazado 10791" d="M632.657,962.656a1.277,1.277,0,0,0-1.939-.77l-.067.056a1.213,1.213,0,1,0,2.006.714Z" fill="#fff"/>
        <path id="Trazado_10792" data-name="Trazado 10792" d="M568.654,956.816a1.277,1.277,0,0,0-1.939-.77l-.067.055a1.213,1.213,0,1,0,2.006.715Z" fill="#fff"/>
        <path id="Trazado_10793" data-name="Trazado 10793" d="M625.016,946.3a1.277,1.277,0,0,0-1.938-.771l-.067.056a1.213,1.213,0,1,0,2.005.715Z" fill="#fff"/>
        <path id="Trazado_10794" data-name="Trazado 10794" d="M571.028,934.866a1.278,1.278,0,0,0-1.939-.77l-.067.056a1.213,1.213,0,1,0,2.006.714Z" fill="#fff"/>
        <path id="Trazado_10795" data-name="Trazado 10795" d="M661.234,898.57a1.278,1.278,0,0,0-1.939-.77l-.067.056a1.213,1.213,0,1,0,2.006.714Z" fill="#fff"/>
        <path id="Trazado_10796" data-name="Trazado 10796" d="M642.356,843.477a1.278,1.278,0,0,0-1.939-.77l-.067.056a1.213,1.213,0,1,0,2.006.714Z" fill="#fff"/>
        <path id="Trazado_10797" data-name="Trazado 10797" d="M637.639,891.254a1.276,1.276,0,0,0-1.938-.77l-.068.056a1.213,1.213,0,1,0,2.006.714Z" fill="#fff"/>
        <path id="Trazado_10798" data-name="Trazado 10798" d="M629.958,875.67a1.276,1.276,0,0,0-1.938-.77l-.068.055a1.213,1.213,0,1,0,2.006.715Z" fill="#fff"/>
        <path id="Trazado_10799" data-name="Trazado 10799" d="M663.925,924.654a1.277,1.277,0,0,0-1.939-.77l-.067.056a1.213,1.213,0,1,0,2.006.714Z" fill="#fff"/>
        <path id="Trazado_10800" data-name="Trazado 10800" d="M639.982,915.042a1.278,1.278,0,0,0-1.939-.77l-.067.056a1.213,1.213,0,1,0,2.006.714Z" fill="#fff"/>
        <path id="Trazado_10801" data-name="Trazado 10801" d="M650.231,862.287a1.278,1.278,0,0,0-1.939-.77l-.067.056a1.213,1.213,0,1,0,2.006.714Z" fill="#fff"/>
        <path id="Trazado_10802" data-name="Trazado 10802" d="M613.78,899.642a1.278,1.278,0,0,0-1.939-.77l-.067.056a1.213,1.213,0,1,0,2.006.714Z" fill="#fff"/>
        <path id="Trazado_10803" data-name="Trazado 10803" d="M670.042,882.5a1.276,1.276,0,0,0-1.938-.77l-.067.055a1.213,1.213,0,1,0,2.005.715Z" fill="#fff"/>
        <path id="Trazado_10804" data-name="Trazado 10804" d="M722.225,837.742a1.278,1.278,0,0,0-1.939-.77l-.067.056a1.213,1.213,0,1,0,2.006.714Z" fill="#fff"/>
        <path id="Trazado_10805" data-name="Trazado 10805" d="M701.037,803.853a1.277,1.277,0,0,0-1.938-.77l-.068.056a1.213,1.213,0,1,0,2.006.714Z" fill="#fff"/>
        <path id="Trazado_10806" data-name="Trazado 10806" d="M659.973,808.1a1.278,1.278,0,0,0-1.939-.77l-.067.056a1.213,1.213,0,1,0,2.006.714Z" fill="#fff"/>
      </g>
      <g id="Grupo_10581" data-name="Grupo 10581">
        <g id="Grupo_10567" data-name="Grupo 10567">
          <g id="Grupo_10566" data-name="Grupo 10566">
            <g id="Grupo_10435" data-name="Grupo 10435">
              <g id="Grupo_10434" data-name="Grupo 10434">
                <path id="Trazado_10807" data-name="Trazado 10807" d="M618.089,686.45c-7.877,5.012-11.02,15.514-9.518,21.72.757,3.129,2.177,6.276,1.557,9.434-.536,2.729-2.5,4.913-3.966,7.274a21.919,21.919,0,0,0,27.392,31.659" fill="#282b38"/>
              </g>
            </g>
            <g id="Grupo_10542" data-name="Grupo 10542">
              <g id="Grupo_10438" data-name="Grupo 10438">
                <g id="Grupo_10437" data-name="Grupo 10437">
                  <g id="Grupo_10436" data-name="Grupo 10436">
                    <path id="Trazado_10808" data-name="Trazado 10808" d="M613.428,727.437c-19.16-42.14,26.414-63.311,51.283-56.287,23.371,6.6,33.339,18.232,37.184,33.863s3.663,32.574-2.465,47.467c-3.022,7.344-8.464,14.8-16.352,15.722" fill="#282b38"/>
                  </g>
                </g>
              </g>
              <g id="Grupo_10541" data-name="Grupo 10541">
                <g id="Grupo_10540" data-name="Grupo 10540">
                  <g id="Grupo_10539" data-name="Grupo 10539">
                    <g id="Grupo_10538" data-name="Grupo 10538">
                      <g id="Grupo_10519" data-name="Grupo 10519">
                        <g id="Grupo_10518" data-name="Grupo 10518">
                          <g id="Grupo_10517" data-name="Grupo 10517">
                            <g id="Grupo_10447" data-name="Grupo 10447">
                              <g id="Grupo_10446" data-name="Grupo 10446">
                                <g id="Grupo_10445" data-name="Grupo 10445">
                                  <g id="Grupo_10444" data-name="Grupo 10444">
                                    <g id="Grupo_10443" data-name="Grupo 10443">
                                      <g id="Grupo_10442" data-name="Grupo 10442">
                                        <g id="Grupo_10441" data-name="Grupo 10441">
                                          <g id="Grupo_10440" data-name="Grupo 10440">
                                            <g id="Grupo_10439" data-name="Grupo 10439">
                                              <path id="Trazado_10809" data-name="Trazado 10809" d="M635.876,830.349c-.331-20.134-.565-47.791-.572-47.676,0,0-17.307-2.873-20.892-25.453-1.784-11.23-1.219-29.642-.271-44.692.854-13.546,9.829-30.166,23.326-28.738l42.148,10.652a7.942,7.942,0,0,1,7.1,8.056h0l-2.746,87.177" fill="#ffc69e"/>
                                            </g>
                                          </g>
                                        </g>
                                      </g>
                                    </g>
                                  </g>
                                </g>
                              </g>
                            </g>
                            <g id="Grupo_10461" data-name="Grupo 10461">
                              <g id="Grupo_10460" data-name="Grupo 10460">
                                <g id="Grupo_10459" data-name="Grupo 10459">
                                  <g id="Grupo_10458" data-name="Grupo 10458">
                                    <g id="Grupo_10457" data-name="Grupo 10457">
                                      <g id="Grupo_10456" data-name="Grupo 10456">
                                        <g id="Grupo_10455" data-name="Grupo 10455">
                                          <g id="Grupo_10454" data-name="Grupo 10454">
                                            <g id="Grupo_10453" data-name="Grupo 10453">
                                              <g id="Grupo_10452" data-name="Grupo 10452">
                                                <g id="Grupo_10451" data-name="Grupo 10451">
                                                  <g id="Grupo_10450" data-name="Grupo 10450">
                                                    <g id="Grupo_10449" data-name="Grupo 10449">
                                                      <g id="Grupo_10448" data-name="Grupo 10448">
                                                        <path id="Trazado_10810" data-name="Trazado 10810" d="M621.677,726.317a2.878,2.878,0,0,0,2.741,2.937,2.754,2.754,0,0,0,3-2.56,2.88,2.88,0,0,0-2.739-2.938A2.754,2.754,0,0,0,621.677,726.317Z" fill="#282b38"/>
                                                      </g>
                                                    </g>
                                                  </g>
                                                </g>
                                              </g>
                                            </g>
                                          </g>
                                        </g>
                                      </g>
                                    </g>
                                  </g>
                                </g>
                              </g>
                            </g>
                            <g id="Grupo_10475" data-name="Grupo 10475">
                              <g id="Grupo_10474" data-name="Grupo 10474">
                                <g id="Grupo_10473" data-name="Grupo 10473">
                                  <g id="Grupo_10472" data-name="Grupo 10472">
                                    <g id="Grupo_10471" data-name="Grupo 10471">
                                      <g id="Grupo_10470" data-name="Grupo 10470">
                                        <g id="Grupo_10469" data-name="Grupo 10469">
                                          <g id="Grupo_10468" data-name="Grupo 10468">
                                            <g id="Grupo_10467" data-name="Grupo 10467">
                                              <g id="Grupo_10466" data-name="Grupo 10466">
                                                <g id="Grupo_10465" data-name="Grupo 10465">
                                                  <g id="Grupo_10464" data-name="Grupo 10464">
                                                    <g id="Grupo_10463" data-name="Grupo 10463">
                                                      <g id="Grupo_10462" data-name="Grupo 10462">
                                                        <path id="Trazado_10811" data-name="Trazado 10811" d="M651.6,726.317a2.878,2.878,0,0,0,2.741,2.937,2.753,2.753,0,0,0,3-2.56,2.88,2.88,0,0,0-2.738-2.938A2.754,2.754,0,0,0,651.6,726.317Z" fill="#282b38"/>
                                                      </g>
                                                    </g>
                                                  </g>
                                                </g>
                                              </g>
                                            </g>
                                          </g>
                                        </g>
                                      </g>
                                    </g>
                                  </g>
                                </g>
                              </g>
                            </g>
                            <g id="Grupo_10486" data-name="Grupo 10486">
                              <g id="Grupo_10485" data-name="Grupo 10485">
                                <g id="Grupo_10484" data-name="Grupo 10484">
                                  <g id="Grupo_10483" data-name="Grupo 10483">
                                    <g id="Grupo_10482" data-name="Grupo 10482">
                                      <g id="Grupo_10481" data-name="Grupo 10481">
                                        <g id="Grupo_10480" data-name="Grupo 10480">
                                          <g id="Grupo_10479" data-name="Grupo 10479">
                                            <g id="Grupo_10478" data-name="Grupo 10478">
                                              <g id="Grupo_10477" data-name="Grupo 10477">
                                                <g id="Grupo_10476" data-name="Grupo 10476">
                                                  <path id="Trazado_10812" data-name="Trazado 10812" d="M618.56,721.057c.346.389,2.593-1.161,5.707-1.048,3.112.067,5.345,1.745,5.7,1.375.171-.164-.172-.857-1.143-1.615a7.952,7.952,0,0,0-4.544-1.568,7.634,7.634,0,0,0-4.558,1.306C618.736,720.21,618.388,720.882,618.56,721.057Z" fill="#282b38"/>
                                                </g>
                                              </g>
                                            </g>
                                          </g>
                                        </g>
                                      </g>
                                    </g>
                                  </g>
                                </g>
                              </g>
                            </g>
                            <g id="Grupo_10497" data-name="Grupo 10497">
                              <g id="Grupo_10496" data-name="Grupo 10496">
                                <g id="Grupo_10495" data-name="Grupo 10495">
                                  <g id="Grupo_10494" data-name="Grupo 10494">
                                    <g id="Grupo_10493" data-name="Grupo 10493">
                                      <g id="Grupo_10492" data-name="Grupo 10492">
                                        <g id="Grupo_10491" data-name="Grupo 10491">
                                          <g id="Grupo_10490" data-name="Grupo 10490">
                                            <g id="Grupo_10489" data-name="Grupo 10489">
                                              <g id="Grupo_10488" data-name="Grupo 10488">
                                                <g id="Grupo_10487" data-name="Grupo 10487">
                                                  <path id="Trazado_10813" data-name="Trazado 10813" d="M648.133,721.8c.362.376,2.551-1.257,5.665-1.262,3.112-.051,5.407,1.542,5.743,1.159.165-.17-.2-.85-1.2-1.57a7.946,7.946,0,0,0-4.6-1.4,7.635,7.635,0,0,0-4.506,1.477C648.28,720.949,647.957,721.633,648.133,721.8Z" fill="#282b38"/>
                                                </g>
                                              </g>
                                            </g>
                                          </g>
                                        </g>
                                      </g>
                                    </g>
                                  </g>
                                </g>
                              </g>
                            </g>
                            <g id="Grupo_10507" data-name="Grupo 10507">
                              <g id="Grupo_10506" data-name="Grupo 10506">
                                <g id="Grupo_10505" data-name="Grupo 10505">
                                  <g id="Grupo_10504" data-name="Grupo 10504">
                                    <g id="Grupo_10503" data-name="Grupo 10503">
                                      <g id="Grupo_10502" data-name="Grupo 10502">
                                        <g id="Grupo_10501" data-name="Grupo 10501">
                                          <g id="Grupo_10500" data-name="Grupo 10500">
                                            <g id="Grupo_10499" data-name="Grupo 10499">
                                              <g id="Grupo_10498" data-name="Grupo 10498">
                                                <path id="Trazado_10814" data-name="Trazado 10814" d="M637.457,745.8c.014-.177-1.923-.512-5.062-.914-.8-.082-1.549-.24-1.683-.783a4.052,4.052,0,0,1,.532-2.358q1.122-2.889,2.353-6.059c3.268-8.627,5.633-15.721,5.285-15.849s-3.281,6.759-6.548,15.386q-1.18,3.191-2.255,6.095a4.6,4.6,0,0,0-.412,3.123,2,2,0,0,0,1.308,1.164,5.452,5.452,0,0,0,1.352.188C635.485,745.961,637.445,745.975,637.457,745.8Z" fill="#282b38"/>
                                              </g>
                                            </g>
                                          </g>
                                        </g>
                                      </g>
                                    </g>
                                  </g>
                                </g>
                              </g>
                            </g>
                            <g id="Grupo_10516" data-name="Grupo 10516">
                              <g id="Grupo_10515" data-name="Grupo 10515">
                                <g id="Grupo_10514" data-name="Grupo 10514">
                                  <g id="Grupo_10513" data-name="Grupo 10513">
                                    <g id="Grupo_10512" data-name="Grupo 10512">
                                      <g id="Grupo_10511" data-name="Grupo 10511">
                                        <g id="Grupo_10510" data-name="Grupo 10510">
                                          <g id="Grupo_10509" data-name="Grupo 10509">
                                            <g id="Grupo_10508" data-name="Grupo 10508">
                                              <path id="Trazado_10815" data-name="Trazado 10815" d="M635.3,782.673a57.438,57.438,0,0,0,30.24-8.066s-7.641,15.708-30.24,13.6Z" fill="#eba36f"/>
                                            </g>
                                          </g>
                                        </g>
                                      </g>
                                    </g>
                                  </g>
                                </g>
                              </g>
                            </g>
                          </g>
                        </g>
                      </g>
                      <g id="Grupo_10528" data-name="Grupo 10528">
                        <g id="Grupo_10527" data-name="Grupo 10527">
                          <g id="Grupo_10526" data-name="Grupo 10526">
                            <g id="Grupo_10525" data-name="Grupo 10525">
                              <g id="Grupo_10524" data-name="Grupo 10524">
                                <g id="Grupo_10523" data-name="Grupo 10523">
                                  <g id="Grupo_10522" data-name="Grupo 10522">
                                    <g id="Grupo_10521" data-name="Grupo 10521">
                                      <g id="Grupo_10520" data-name="Grupo 10520">
                                        <path id="Trazado_10816" data-name="Trazado 10816" d="M647.364,717.37c.307.847,3.419.445,7.074.886,3.666.368,6.614,1.438,7.1.678.217-.364-.3-1.161-1.489-1.981a12.395,12.395,0,0,0-10.8-1.192C647.908,716.3,647.232,716.968,647.364,717.37Z" fill="#282b38"/>
                                      </g>
                                    </g>
                                  </g>
                                </g>
                              </g>
                            </g>
                          </g>
                        </g>
                      </g>
                      <g id="Grupo_10537" data-name="Grupo 10537">
                        <g id="Grupo_10536" data-name="Grupo 10536">
                          <g id="Grupo_10535" data-name="Grupo 10535">
                            <g id="Grupo_10534" data-name="Grupo 10534">
                              <g id="Grupo_10533" data-name="Grupo 10533">
                                <g id="Grupo_10532" data-name="Grupo 10532">
                                  <g id="Grupo_10531" data-name="Grupo 10531">
                                    <g id="Grupo_10530" data-name="Grupo 10530">
                                      <g id="Grupo_10529" data-name="Grupo 10529">
                                        <path id="Trazado_10817" data-name="Trazado 10817" d="M619.28,713.226c.549.707,2.7-.027,5.277-.062,2.58-.125,4.767.476,5.271-.265.22-.359-.124-1.068-1.08-1.738a7.637,7.637,0,0,0-8.5.263C619.339,712.152,619.039,712.88,619.28,713.226Z" fill="#282b38"/>
                                      </g>
                                    </g>
                                  </g>
                                </g>
                              </g>
                            </g>
                          </g>
                        </g>
                      </g>
                    </g>
                  </g>
                </g>
              </g>
            </g>
            <g id="Grupo_10560" data-name="Grupo 10560">
              <g id="Grupo_10550" data-name="Grupo 10550">
                <g id="Grupo_10549" data-name="Grupo 10549">
                  <g id="Grupo_10548" data-name="Grupo 10548">
                    <g id="Grupo_10547" data-name="Grupo 10547">
                      <g id="Grupo_10546" data-name="Grupo 10546">
                        <g id="Grupo_10545" data-name="Grupo 10545">
                          <g id="Grupo_10544" data-name="Grupo 10544">
                            <g id="Grupo_10543" data-name="Grupo 10543">
                              <path id="Trazado_10818" data-name="Trazado 10818" d="M682.848,732.223c.331-.159,12.086-5.359,12.224,8.16s-13.463,10.869-13.49,10.481S682.848,732.223,682.848,732.223Z" fill="#ffc69e"/>
                            </g>
                          </g>
                        </g>
                      </g>
                    </g>
                  </g>
                </g>
              </g>
              <g id="Grupo_10559" data-name="Grupo 10559">
                <g id="Grupo_10558" data-name="Grupo 10558">
                  <g id="Grupo_10557" data-name="Grupo 10557">
                    <g id="Grupo_10556" data-name="Grupo 10556">
                      <g id="Grupo_10555" data-name="Grupo 10555">
                        <g id="Grupo_10554" data-name="Grupo 10554">
                          <g id="Grupo_10553" data-name="Grupo 10553">
                            <g id="Grupo_10552" data-name="Grupo 10552">
                              <g id="Grupo_10551" data-name="Grupo 10551">
                                <path id="Trazado_10819" data-name="Trazado 10819" d="M685.659,745.7c.059-.045.238.162.637.34a2.353,2.353,0,0,0,1.761.019c1.423-.539,2.6-2.819,2.643-5.256a7.77,7.77,0,0,0-.694-3.365,2.719,2.719,0,0,0-1.79-1.79,1.2,1.2,0,0,0-1.383.66c-.177.38-.088.649-.16.672-.037.035-.292-.223-.189-.782a1.5,1.5,0,0,1,.523-.853,1.78,1.78,0,0,1,1.3-.357,3.308,3.308,0,0,1,2.481,2.071,7.981,7.981,0,0,1,.855,3.759c-.059,2.725-1.427,5.289-3.376,5.873a2.517,2.517,0,0,1-2.157-.336C685.687,746.027,685.613,745.725,685.659,745.7Z" fill="#eba36f"/>
                              </g>
                            </g>
                          </g>
                        </g>
                      </g>
                    </g>
                  </g>
                </g>
              </g>
            </g>
            <g id="Grupo_10562" data-name="Grupo 10562">
              <g id="Grupo_10561" data-name="Grupo 10561">
                <path id="Trazado_10820" data-name="Trazado 10820" d="M632.966,677.121c-7.521,3.887-10.617,19.275-7.505,27.147s11.5,11.719,19.768,13.531,16.378,2.026,24.534-.243c.567,5.485,3.855,11.116,9.176,12.563,7.045,1.916,14.146-4.536,15.714-11.667s-.781-14.475-3.1-21.4" fill="#282b38"/>
              </g>
            </g>
            <g id="Grupo_10565" data-name="Grupo 10565">
              <g id="Grupo_10564" data-name="Grupo 10564">
                <g id="Grupo_10563" data-name="Grupo 10563">
                  <path id="Trazado_10821" data-name="Trazado 10821" d="M692.614,726.175c.032.042-.338.393-1.042.985a36.615,36.615,0,0,1-3.119,2.353,19.067,19.067,0,0,1-5.256,2.543,11.375,11.375,0,0,1-7.174-.105,11.127,11.127,0,0,1-5.429-4.694,15.047,15.047,0,0,1-1.946-5.519,19.964,19.964,0,0,1-.213-3.915,4.41,4.41,0,0,1,.177-1.426c.148,0-.013,2.055.579,5.244a15.41,15.41,0,0,0,2.013,5.236,10.677,10.677,0,0,0,5.1,4.344,10.934,10.934,0,0,0,6.705.142,20.077,20.077,0,0,0,5.152-2.316C690.917,727.319,692.534,726.064,692.614,726.175Z" fill="#282b38"/>
                </g>
              </g>
            </g>
          </g>
        </g>
        <g id="Grupo_10573" data-name="Grupo 10573">
          <g id="Grupo_10569" data-name="Grupo 10569">
            <g id="Grupo_10568" data-name="Grupo 10568">
              <path id="Trazado_10822" data-name="Trazado 10822" d="M638.378,754.48a12.945,12.945,0,0,0,1.679,3.292,4.378,4.378,0,0,0,3.109,1.805,3.925,3.925,0,0,0,3.319-1.81,6.269,6.269,0,0,0,.925-3.774c-.053-1.19-.6-2.611-1.781-2.751a2.985,2.985,0,0,0-1.436.318l-6.217,2.522" fill="#eba36f"/>
            </g>
          </g>
          <g id="Grupo_10572" data-name="Grupo 10572">
            <g id="Grupo_10571" data-name="Grupo 10571">
              <g id="Grupo_10570" data-name="Grupo 10570">
                <path id="Trazado_10823" data-name="Trazado 10823" d="M640.861,759.595c.031-.195,1.4.359,3.315-.41a4.74,4.74,0,0,0,2.507-2.277,4.991,4.991,0,0,0,.081-4.067,4.42,4.42,0,0,0-.542-.929c-.246-.259-.2-.247-.469-.208-.253.069-.662.261-1,.391s-.687.28-1.021.416c-1.331.538-2.535,1.009-3.553,1.389-2.036.761-3.325,1.161-3.385,1.02s1.12-.8,3.077-1.742c.978-.472,2.15-1.017,3.459-1.607l1.007-.451a11.078,11.078,0,0,1,1.135-.467,1.451,1.451,0,0,1,.922.026,1.713,1.713,0,0,1,.686.542,5.337,5.337,0,0,1,.7,1.179,5.827,5.827,0,0,1-.19,4.974,5.317,5.317,0,0,1-3.155,2.551,5.014,5.014,0,0,1-2.694.105C641.126,759.867,640.836,759.656,640.861,759.595Z" fill="#282b38"/>
              </g>
            </g>
          </g>
        </g>
        <path id="Trazado_10824" data-name="Trazado 10824" d="M698.008,722.97c-1.386-.1-12.55,1.348-11.671,22.1.822,19.385,14.421,15.116,18.761,7.818C709.209,745.977,711.584,723.923,698.008,722.97Z" fill="#455464"/>
        <g id="Grupo_10574" data-name="Grupo 10574">
          <path id="Trazado_10825" data-name="Trazado 10825" d="M704.911,725.422a2.634,2.634,0,0,1-.052-.546c-.017-.4-.039-.928-.066-1.581-.04-1.433-.1-3.429-.165-5.911-.1-5.1-.245-12.179-.409-20.356l.251.247-5.756.008.258-.266c.042,1.545.086,3.175.131,4.83.193,7.788.373,15.042.524,21.113l0,.178-.172.041a10.476,10.476,0,0,0-5.93,3.817A13.983,13.983,0,0,0,691.161,732a20.9,20.9,0,0,0-.61,3.545c-.037.414-.057.732-.067.947a1.464,1.464,0,0,1-.032.326,1.075,1.075,0,0,1-.036-.327c-.012-.215-.013-.536,0-.954a18.355,18.355,0,0,1,.5-3.6,13.959,13.959,0,0,1,2.329-5.159,10.8,10.8,0,0,1,6.112-4.029l-.168.219c-.174-6.071-.383-13.324-.606-21.111-.044-1.655-.087-3.285-.128-4.83l-.007-.266h.266l5.756.008h.248l0,.246c.09,8.179.168,15.26.224,20.359.008,2.483.014,4.48.019,5.914-.007.653-.013,1.177-.017,1.581A2.56,2.56,0,0,1,704.911,725.422Z" fill="#455464"/>
        </g>
        <path id="Trazado_10826" data-name="Trazado 10826" d="M698.006,697.024s-5.838-13.666-19.753-20.409a82.6,82.6,0,0,0-16.668-6.18s8.117-1.928,21.253,3.917c5.969,2.655,11.982,6.113,15.958,11.3,2.526,3.292,5.679,9.726,5.674,11.376Z" fill="#455464"/>
        <g id="Grupo_10575" data-name="Grupo 10575">
          <path id="Trazado_10827" data-name="Trazado 10827" d="M661.986,862.49a2.245,2.245,0,0,1,.249-.273c.166-.179.431-.427.755-.778a37.58,37.58,0,0,0,2.7-3.2,52.33,52.33,0,0,0,3.647-5.6c1.3-2.271,2.658-4.945,4.132-7.934,2.95-5.978,6.363-13.224,9.894-21.525,1.769-4.15,3.57-8.561,5.362-13.205l1.345-3.525a20.426,20.426,0,0,1,1.607-3.545,7.311,7.311,0,0,1,2.9-2.76,4.064,4.064,0,0,1,2.034-.517,2.068,2.068,0,0,1,1.062.385,2.29,2.29,0,0,1,.674.9l.033.067-.017.078a3.522,3.522,0,0,1-.538,1.334,2.081,2.081,0,0,1-1.248.817,4.445,4.445,0,0,1-2.79-.512,4.39,4.39,0,0,1-2.47-4.845,3.915,3.915,0,0,1,1.624-2.442,4.552,4.552,0,0,1,2.842-.809,3.136,3.136,0,0,1,2.624,1.446,1.51,1.51,0,0,1-.1,1.63,2.9,2.9,0,0,1-1.267.927,4.177,4.177,0,0,1-4.793-1.359,3.539,3.539,0,0,1-.649-2.522,4.313,4.313,0,0,1,1.039-2.356,3.6,3.6,0,0,1,2.251-1.245,2.9,2.9,0,0,1,2.432.835,1.807,1.807,0,0,1,.479,1.277,1.732,1.732,0,0,1-.577,1.233,2.829,2.829,0,0,1-2.445.659,3.092,3.092,0,0,1-1.947-1.565,6.491,6.491,0,0,1-.732-2.307,8.215,8.215,0,0,1,.531-4.665,3.493,3.493,0,0,1,1.7-1.684,3.166,3.166,0,0,1,2.375.076,2.25,2.25,0,0,1,1.465,1.85,2.058,2.058,0,0,1-1.268,1.954,2.545,2.545,0,0,1-2.3-.034,3.127,3.127,0,0,1-1.421-1.755,4.355,4.355,0,0,1-.136-2.188,9.742,9.742,0,0,1,.462-2.076,3.8,3.8,0,0,1,1.213-1.767,4.846,4.846,0,0,1,1.883-.935,2.081,2.081,0,0,1,1.1-.013,2.366,2.366,0,0,1,.915.584,2.653,2.653,0,0,1,.589.886,1.463,1.463,0,0,1,.034,1.1,1.8,1.8,0,0,1-1.788.989,3.3,3.3,0,0,1-1.878-.63,5.1,5.1,0,0,1-2.008-3.147,5.322,5.322,0,0,1,.42-3.562,4.147,4.147,0,0,1,1.123-1.375,3.738,3.738,0,0,1,1.6-.688,2.608,2.608,0,0,1,1.7.239,1.785,1.785,0,0,1,.919,1.418,2.5,2.5,0,0,1-1.885,2.4,2.75,2.75,0,0,1-2.719-1.021,4.389,4.389,0,0,1-1.026-2.559c-.085-1.821.631-3.352.979-4.788.407-1.437.779-2.752,1.115-3.936.671-2.346,1.2-4.175,1.558-5.442.179-.6.318-1.072.418-1.411.1-.317.159-.476.159-.476s-.028.169-.108.491c-.088.342-.211.816-.368,1.426-.341,1.272-.833,3.11-1.464,5.466q-.483,1.782-1.07,3.947c-.342,1.45-1.029,2.991-.929,4.7a4.1,4.1,0,0,0,.971,2.375,2.435,2.435,0,0,0,2.4.906,2.174,2.174,0,0,0,1.621-2.053,1.428,1.428,0,0,0-.745-1.131,2.25,2.25,0,0,0-1.463-.189,3.351,3.351,0,0,0-1.432.626,3.748,3.748,0,0,0-1.008,1.251,4.928,4.928,0,0,0-.371,3.3,4.7,4.7,0,0,0,1.852,2.889,2.882,2.882,0,0,0,1.644.55,1.382,1.382,0,0,0,1.384-.723,1.55,1.55,0,0,0-.531-1.523,1.937,1.937,0,0,0-.738-.472,1.65,1.65,0,0,0-.867.024,3.781,3.781,0,0,0-2.767,2.426,9.35,9.35,0,0,0-.432,1.977,3.869,3.869,0,0,0,.119,1.975,2.653,2.653,0,0,0,1.205,1.493,2.068,2.068,0,0,0,1.869.017,1.577,1.577,0,0,0,.99-1.493,1.774,1.774,0,0,0-1.176-1.428,2.685,2.685,0,0,0-2-.067,3.024,3.024,0,0,0-1.444,1.451,7.74,7.74,0,0,0-.474,4.368,5.97,5.97,0,0,0,.672,2.125,2.6,2.6,0,0,0,1.611,1.32,2.33,2.33,0,0,0,1.988-.532,1.246,1.246,0,0,0,.068-1.794,2.4,2.4,0,0,0-1.992-.666,3.1,3.1,0,0,0-1.918,1.073,3.446,3.446,0,0,0-.361,4.229,3.666,3.666,0,0,0,4.178,1.185,2.424,2.424,0,0,0,1.04-.748.977.977,0,0,0,.066-1.084,2.635,2.635,0,0,0-2.195-1.17,3.749,3.749,0,0,0-3.927,2.835,3.874,3.874,0,0,0,2.187,4.281,3.97,3.97,0,0,0,2.452.476,1.966,1.966,0,0,0,1.4-1.748l.015.146a1.493,1.493,0,0,0-1.3-.978,3.585,3.585,0,0,0-1.771.461,6.812,6.812,0,0,0-2.711,2.574,19.954,19.954,0,0,0-1.572,3.456l-1.354,3.526c-1.8,4.645-3.62,9.057-5.405,13.2-3.563,8.3-7.015,15.536-10.006,21.5-1.495,2.981-2.873,5.65-4.2,7.916a50.511,50.511,0,0,1-3.728,5.577A26.75,26.75,0,0,1,661.986,862.49Z" fill="#fff"/>
        </g>
        <g id="Grupo_10576" data-name="Grupo 10576">
          <path id="Trazado_10828" data-name="Trazado 10828" d="M710.125,713.237a12.987,12.987,0,0,0-.91-3.7,14.529,14.529,0,0,0-7.178-7.19,19.265,19.265,0,0,0-6.919-1.692,32.659,32.659,0,0,0-8.206.627c-5.733,1.054-11.752,3.529-18.492,4.545a37.548,37.548,0,0,1-9.9-.011,39.9,39.9,0,0,1-8.9-2.413,39.292,39.292,0,0,1-12.96-8.561,34.872,34.872,0,0,1-6.28-8.4,11.262,11.262,0,0,1-.736-1.475l-.486-1.106c-.116-.277-.211-.5-.288-.684a.872.872,0,0,1-.081-.239.981.981,0,0,1,.13.219c.09.176.2.394.335.661l.529,1.082a11.817,11.817,0,0,0,.775,1.444,36.189,36.189,0,0,0,6.36,8.234,39.027,39.027,0,0,0,21.674,10.731,37.345,37.345,0,0,0,9.756,0c6.651-1,12.68-3.458,18.478-4.5a32.7,32.7,0,0,1,8.325-.586,19.47,19.47,0,0,1,7.049,1.791,14.557,14.557,0,0,1,7.206,7.444,10.827,10.827,0,0,1,.7,2.778l.033.744A.925.925,0,0,1,710.125,713.237Z" fill="#455464"/>
        </g>
        <g id="Grupo_10577" data-name="Grupo 10577">
          <path id="Trazado_10829" data-name="Trazado 10829" d="M695.034,691.687a3.832,3.832,0,0,1-.717.127c-.472.064-1.167.167-2.057.322-1.783.3-4.335.864-7.476,1.646a79.109,79.109,0,0,1-11.182,2.166,56.26,56.26,0,0,1-13.946-.3,59.042,59.042,0,0,1-13.472-3.623,57.61,57.61,0,0,1-10.113-5.25c-1.342-.911-2.548-1.753-3.56-2.551-.993-.823-1.884-1.487-2.542-2.113l-1.521-1.43a3.852,3.852,0,0,1-.505-.524,3.772,3.772,0,0,1,.577.447l1.582,1.354c.675.6,1.581,1.238,2.585,2.035,1.023.771,2.238,1.587,3.584,2.472a60.327,60.327,0,0,0,23.46,8.668,57.071,57.071,0,0,0,13.822.34,83.5,83.5,0,0,0,11.146-2.046c3.153-.736,5.731-1.253,7.53-1.488.9-.125,1.6-.2,2.076-.226A3.752,3.752,0,0,1,695.034,691.687Z" fill="#455464"/>
        </g>
        <g id="Grupo_10578" data-name="Grupo 10578">
          <path id="Trazado_10830" data-name="Trazado 10830" d="M696.522,758.688a1.17,1.17,0,0,1-.392-.114,6.215,6.215,0,0,1-1.037-.536,9.1,9.1,0,0,1-2.926-3.122,15,15,0,0,1-1.8-6.087,44.356,44.356,0,0,1-.009-7.756,47.185,47.185,0,0,1,1.285-7.647,21.975,21.975,0,0,1,2.232-5.938,9.151,9.151,0,0,1,2.944-3.1,6.03,6.03,0,0,1,1.042-.526,1.135,1.135,0,0,1,.393-.109c.02.045-.511.232-1.323.8a9.536,9.536,0,0,0-2.738,3.122,22.72,22.72,0,0,0-2.085,5.866,50.08,50.08,0,0,0-1.231,7.575,46.724,46.724,0,0,0-.032,7.666,15.112,15.112,0,0,0,1.638,5.952,9.471,9.471,0,0,0,2.72,3.136C696.011,758.453,696.544,758.64,696.522,758.688Z" fill="#282b38"/>
        </g>
        <g id="Grupo_10580" data-name="Grupo 10580">
          <rect id="Rectángulo_6166" data-name="Rectángulo 6166" width="16.156" height="6.089" rx="2.852" transform="translate(638.496 758.148) rotate(-11.103)" fill="#455464"/>
          <path id="Trazado_10831" data-name="Trazado 10831" d="M653.508,757.126l47.446-14.885a2.237,2.237,0,0,1,2.8,1.452h0a2.237,2.237,0,0,1-1.547,2.843L653.69,759.643Z" fill="#455464"/>
          <g id="Grupo_10579" data-name="Grupo 10579">
            <path id="Trazado_10832" data-name="Trazado 10832" d="M688.577,750.583a10.17,10.17,0,0,1,1.572-.553l4.338-1.322c1.82-.562,4.055-1.154,6.419-1.93a4.308,4.308,0,0,0,1.554-.956,2.381,2.381,0,0,0,.668-1.65,1.436,1.436,0,0,0-.98-1.359,3.656,3.656,0,0,0-1.983.06L685.94,747.45l-4.333,1.339a10.189,10.189,0,0,1-1.611.423,10.176,10.176,0,0,1,1.547-.616l4.281-1.5c3.633-1.233,8.614-2.939,14.213-4.731a4.114,4.114,0,0,1,2.283-.045,1.956,1.956,0,0,1,1.318,1.836,2.868,2.868,0,0,1-.823,2.011,4.758,4.758,0,0,1-1.737,1.055c-2.452.777-4.639,1.313-6.49,1.837l-4.384,1.162A10.312,10.312,0,0,1,688.577,750.583Z" fill="#282b38"/>
          </g>
        </g>
        <path id="Trazado_10833" data-name="Trazado 10833" d="M610.995,714.24c1.625,5.7-4.171,10.592-6.211,16.159-1.973,5.383-.293,11.415,2.135,16.608s5.626,10.12,6.87,15.716c3.066,13.8-9.411,28.665-7.034,42.6.865,5.076,2.909,10.373,4.681,15.207a20.1,20.1,0,0,1,0,14.133c-2.7,7.982-7.275,11.745-10.5,19.528-1.649,3.979-1.519,8.437-1.436,12.744s.052,8.8-1.865,12.656-6.3,6.841-10.464,5.723A15.338,15.338,0,0,0,605.5,888.8c5.471-2.917,8.531-8.841,11.15-14.461,12.682-27.212,19.389-29.51,19.042-59.53-.023-1.932-.384-32-.384-32a29.678,29.678,0,0,1-7.486-3.155c-14.165-9.776-14.681-27.2-14.569-40.7" fill="#282b38"/>
      </g>
      <g id="Grupo_10586" data-name="Grupo 10586">
        <path id="Trazado_10834" data-name="Trazado 10834" d="M639.34,805.323v11.33s-8.715,44.445-11.33,69.137S624.954,917,624.954,917s6.252,9.753,19.324-6.8,15.4-19.172,20.625-19.463c0,0-6.391-69.427-6.1-72.042a10.507,10.507,0,0,1,2.324-4.938Z" fill="#ffc69e"/>
        <g id="Grupo_10585" data-name="Grupo 10585">
          <path id="Trazado_10835" data-name="Trazado 10835" d="M656.479,779.76s-14.234,18.882-15.4,21.5-1.743,4.066-1.743,4.066l21.787,8.425,21.206-23.24,7.843-20.625-2.324-24.4s-4.648-.291-5.519,3.776a30.782,30.782,0,0,0-.581,7.844l-6.509-5.229-10.485-3.2s-2.469,4.067,1.6,6.1,5.229,2.033,5.229,2.033l3.659,6.391-1.6,7.16-7.415-6.953a4.249,4.249,0,0,0-5.406-.337l-4.791,3.483-4.492-2.006-8.714,7.658-3.486,3.2s2.324,4.357,6.971,2.324l4.648-2.034Z" fill="#ffc69e"/>
          <g id="Grupo_10582" data-name="Grupo 10582">
            <path id="Trazado_10836" data-name="Trazado 10836" d="M639.34,809.147a5.772,5.772,0,0,1-.006-.6c.014-.4.048-.995.143-1.773a21.3,21.3,0,0,1,.545-2.847,12.713,12.713,0,0,1,1.529-3.658c3.255-5.005,8.387-11.965,14.782-20.613l.037.256-5.527-4.056.2.022-2.873,1.263a19.262,19.262,0,0,1-3.061,1.193,4.969,4.969,0,0,1-3.4-.386,6.275,6.275,0,0,1-2.556-2.438l-.085-.141.13-.122c3.747-3.516,7.912-7.075,12.192-10.871l.128-.114.149.088,3.869,2.285-.256.006,4.527-2.98c.783-.5,1.5-1.014,2.35-1.517a2.82,2.82,0,0,1,2.912.255l8.818,7.45-.415.139c.48-2.153,1-4.484,1.525-6.837l.028.184c-1.157-2.02-2.4-4.2-3.66-6.39l.225.131a7.837,7.837,0,0,1-1.8-.486c-.574-.211-1.142-.452-1.71-.705s-1.132-.526-1.7-.8c-.282-.14-.566-.324-.849-.486a5.118,5.118,0,0,1-.753-.659,3.7,3.7,0,0,1-1.008-2.669,5.9,5.9,0,0,1,.773-2.72l.1-.175.2.062,10.484,3.2.048.015.038.031,6.507,5.231-.413.218a30.9,30.9,0,0,1,.553-7.734,4.69,4.69,0,0,1,2.119-3.216,6.723,6.723,0,0,1,3.7-.934l.209,0,.02.218c.817,8.674,1.587,16.847,2.3,24.4l.005.052-.018.047c-2.907,7.6-5.543,14.5-7.881,20.611l-.012.032-.023.025L666,808.554c-1.933,2.087-3.434,3.709-4.466,4.824l-1.168,1.242c-.265.278-.41.411-.41.411s.12-.156.372-.445l1.131-1.277,4.4-4.888L682.2,790.387l-.035.057c2.315-6.122,4.926-13.025,7.806-20.639l-.013.1c-.728-7.555-1.515-15.726-2.35-24.4l.229.222a6.26,6.26,0,0,0-3.4.863,4.182,4.182,0,0,0-1.894,2.9,30.476,30.476,0,0,0-.536,7.593l.03.575-.444-.357-6.511-5.226.087.045-10.486-3.193.3-.114a5.388,5.388,0,0,0-.7,2.458,3.169,3.169,0,0,0,.869,2.307,4.6,4.6,0,0,0,.666.584c.264.148.508.31.786.449.559.275,1.117.546,1.678.8a14.533,14.533,0,0,0,3.3,1.146l.166.026.06.1,3.657,6.392.05.087-.022.1c-.526,2.353-1.048,4.684-1.529,6.837l-.093.413-.323-.274-8.783-7.437a2.323,2.323,0,0,0-2.4-.213c-.745.442-1.539,1-2.3,1.484l-4.533,2.972-.126.083-.13-.077c-1.34-.8-2.667-1.583-3.864-2.292l.278-.026c-4.284,3.785-8.458,7.334-12.21,10.835l.045-.263a5.878,5.878,0,0,0,2.362,2.262,4.549,4.549,0,0,0,3.122.361A19.131,19.131,0,0,0,648,776.766l2.878-1.253.1-.045.091.067,5.511,4.078.147.109-.109.147c-6.429,8.616-11.61,15.549-14.9,20.5a12.709,12.709,0,0,0-1.551,3.592,22.2,22.2,0,0,0-.59,2.821c-.111.772-.162,1.364-.193,1.762S639.34,809.147,639.34,809.147Z" fill="#eba36f"/>
          </g>
          <g id="Grupo_10583" data-name="Grupo 10583">
            <path id="Trazado_10837" data-name="Trazado 10837" d="M666.3,784.133c-.1-.017.281-1.541.441-4.016a9.067,9.067,0,0,0-.688-4.2,11.091,11.091,0,0,0-3.469-3.9,86.329,86.329,0,0,0-8.064-5.491l-2.554-1.5a4.617,4.617,0,0,1-.919-.59,4.238,4.238,0,0,1,1.014.411c.636.3,1.543.756,2.643,1.364a66.039,66.039,0,0,1,8.2,5.4,11.209,11.209,0,0,1,3.587,4.11,9.1,9.1,0,0,1,.617,4.419,19.7,19.7,0,0,1-.492,2.945A4.249,4.249,0,0,1,666.3,784.133Z" fill="#eba36f"/>
          </g>
          <g id="Grupo_10584" data-name="Grupo 10584">
            <path id="Trazado_10838" data-name="Trazado 10838" d="M681.547,775.069a20.143,20.143,0,0,1,.369-2.614,39.894,39.894,0,0,0-.107-12.611,20.161,20.161,0,0,1-.414-2.607,10,10,0,0,1,.776,2.537,31.1,31.1,0,0,1,.108,12.745A10.052,10.052,0,0,1,681.547,775.069Z" fill="#eba36f"/>
          </g>
        </g>
      </g>
    </g>
    <g id="Grupo_10605" data-name="Grupo 10605">
      <g id="Grupo_10591" data-name="Grupo 10591">
        <g id="Grupo_10590" data-name="Grupo 10590">
          <g id="Grupo_10589" data-name="Grupo 10589">
            <path id="Trazado_10839" data-name="Trazado 10839" d="M584.439,700.975,574.015,682.6a49.221,49.221,0,1,0-11.789,13.114l-.017.022Z" fill="#fff"/>
            <g id="Grupo_10588" data-name="Grupo 10588">
              <path id="Trazado_10840" data-name="Trazado 10840" d="M584.439,700.975l-22.259-5.109-.2-.045.122-.16.017-.022.182.182a50.355,50.355,0,0,1-10.1,6.087,49.322,49.322,0,0,1-13.472,3.843,44.251,44.251,0,0,1-7.778.391c-1.338-.076-2.7-.109-4.073-.224l-4.151-.628a49.567,49.567,0,0,1-30.692-19.709,48.977,48.977,0,0,1-8.3-18.975,50.078,50.078,0,0,1,.581-21.848,48.459,48.459,0,0,1,10.527-20.2l2.006-2.207c.659-.742,1.446-1.354,2.16-2.035.748-.643,1.423-1.373,2.227-1.941l2.357-1.763a20.719,20.719,0,0,1,2.44-1.614l2.492-1.513,2.608-1.267a22.968,22.968,0,0,1,2.634-1.171,50.129,50.129,0,0,1,22.015-3.384,48.466,48.466,0,0,1,20.208,5.971,49.841,49.841,0,0,1,23.319,28.687,53.087,53.087,0,0,1,2.138,15.977,48.849,48.849,0,0,1-2.4,13.8,49.852,49.852,0,0,1-4.923,10.574l0-.127,10.315,18.433c-.444-.773-3.778-6.569-10.532-18.309l-.037-.064.039-.064A49.851,49.851,0,0,0,578.753,672a48.74,48.74,0,0,0,2.334-13.712,52.85,52.85,0,0,0-2.167-15.847,49.466,49.466,0,0,0-23.161-28.388,48.017,48.017,0,0,0-20.013-5.889,49.657,49.657,0,0,0-21.787,3.363,22.482,22.482,0,0,0-2.6,1.16l-2.581,1.253-2.465,1.5a20.288,20.288,0,0,0-2.414,1.6l-2.332,1.744c-.8.562-1.463,1.285-2.2,1.922-.707.674-1.486,1.279-2.138,2.013l-1.984,2.184a48,48,0,0,0-10.421,19.984,49.627,49.627,0,0,0-.589,21.624,48.539,48.539,0,0,0,8.2,18.794,49.184,49.184,0,0,0,30.38,19.585l4.115.633c1.362.118,2.713.153,4.041.233a44.03,44.03,0,0,0,7.72-.365,49.154,49.154,0,0,0,13.391-3.768,50.3,50.3,0,0,0,10.075-6.005l.786-.6-.6.782-.017.022-.073-.2Z" fill="#282b38"/>
            </g>
          </g>
        </g>
      </g>
      <g id="Grupo_10604" data-name="Grupo 10604">
        <g id="Grupo_10595" data-name="Grupo 10595">
          <g id="Grupo_10594" data-name="Grupo 10594">
            <g id="Grupo_10593" data-name="Grupo 10593">
              <g id="Grupo_10592" data-name="Grupo 10592">
                <path id="Trazado_10841" data-name="Trazado 10841" d="M521.5,656.87a3.99,3.99,0,1,1-3.989-3.99A3.989,3.989,0,0,1,521.5,656.87Z" fill="#282b38"/>
              </g>
            </g>
          </g>
        </g>
        <g id="Grupo_10599" data-name="Grupo 10599">
          <g id="Grupo_10598" data-name="Grupo 10598">
            <g id="Grupo_10597" data-name="Grupo 10597">
              <g id="Grupo_10596" data-name="Grupo 10596">
                <path id="Trazado_10842" data-name="Trazado 10842" d="M537.47,656.87a3.989,3.989,0,1,1-3.989-3.99A3.989,3.989,0,0,1,537.47,656.87Z" fill="#282b38"/>
              </g>
            </g>
          </g>
        </g>
        <g id="Grupo_10603" data-name="Grupo 10603">
          <g id="Grupo_10602" data-name="Grupo 10602">
            <g id="Grupo_10601" data-name="Grupo 10601">
              <g id="Grupo_10600" data-name="Grupo 10600">
                <path id="Trazado_10843" data-name="Trazado 10843" d="M553.4,654.875a3.99,3.99,0,1,1-5.45-1.46A3.99,3.99,0,0,1,553.4,654.875Z" fill="#282b38"/>
              </g>
            </g>
          </g>
        </g>
      </g>
    </g>
    <g id="Grupo_10606" data-name="Grupo 10606">
      <path id="Trazado_10844" data-name="Trazado 10844" d="M781.081,970.383c0,.143-101.659.26-227.033.26-125.418,0-227.055-.117-227.055-.26s101.637-.261,227.055-.261C679.422,970.122,781.081,970.239,781.081,970.383Z" fill="#282b38"/>
    </g>
    <g id="Grupo_10610" data-name="Grupo 10610">
      <g id="Grupo_10607" data-name="Grupo 10607">
        <path id="Trazado_10845" data-name="Trazado 10845" d="M652.592,970.626a26.836,26.836,0,0,1,21.388-12.079c14.606-.5,21.909,12.079,21.909,12.079Z" fill="#455464"/>
      </g>
      <g id="Grupo_10609" data-name="Grupo 10609">
        <g id="Grupo_10608" data-name="Grupo 10608">
          <path id="Trazado_10846" data-name="Trazado 10846" d="M680.583,970.264a18.266,18.266,0,0,1-.428-2.18,14.029,14.029,0,0,0-5.789-8.521,18.622,18.622,0,0,1-1.869-1.2,5.065,5.065,0,0,1,2.108.819A12.4,12.4,0,0,1,680.6,968,5.077,5.077,0,0,1,680.583,970.264Z" fill="#282b38"/>
        </g>
      </g>
    </g>
    <g id="Grupo_10611" data-name="Grupo 10611">
      <path id="Trazado_10847" data-name="Trazado 10847" d="M643.55,970.1l0-.092a5.608,5.608,0,0,0-5.607-5.516H513.6a5.609,5.609,0,0,0-5.609,5.608H643.55Z" fill="#455464"/>
    </g>
    <g id="Grupo_10617" data-name="Grupo 10617">
      <path id="Trazado_10848" data-name="Trazado 10848" d="M405.51,752.285c0,2.616,1.96,158.78,1.96,158.78l115.985,27.906h9.593l-6.1-218.017h-8.72Z" fill="#282b38"/>
      <path id="Trazado_10849" data-name="Trazado 10849" d="M430.039,904.528l-35.947,65.886h32.856c-5.876-.587,52.028,0,52.028,0l-52.028-13.8,16.268-36.952-1.388-15.138Z" fill="#282b38"/>
      <path id="Trazado_10850" data-name="Trazado 10850" d="M430.841,916.688l-3.893-122.794,35.318-3.387,4.354,131.113-12.617.64Z" fill="#282b38"/>
      <g id="Grupo_10612" data-name="Grupo 10612">
        <path id="Trazado_10851" data-name="Trazado 10851" d="M471.557,926.485s-.015-.193-.022-.571c-.005-.393-.012-.952-.021-1.684-.01-1.5-.023-3.688-.041-6.524-.017-5.708-.042-14-.073-24.424-.023-20.872-.055-50.244-.092-84.3l.249.249-41.674.011.26-.26v5.667c-.015,33.213-.03,64.128-.042,89.884v.055l-.027.049-26.067,47.793-7.3,13.311c-.842,1.521-1.489,2.69-1.934,3.492s-.682,1.186-.682,1.186.2-.42.623-1.218,1.059-1.988,1.877-3.523c1.665-3.093,4.1-7.611,7.194-13.369l25.9-47.88-.026.1c-.012-25.756-.027-56.671-.043-89.884,0-1.941,0-3.874,0-5.667v-.26h.26l41.674.011h.249v.249c-.037,34.061-.07,63.433-.093,84.3-.03,10.421-.055,18.716-.072,24.424-.018,2.836-.032,5.027-.041,6.524-.009.732-.016,1.291-.021,1.684C471.572,926.292,471.557,926.485,471.557,926.485Z" fill="#455464"/>
      </g>
      <g id="Grupo_10613" data-name="Grupo 10613">
        <path id="Trazado_10852" data-name="Trazado 10852" d="M443.216,919.666c.132.058-4.87,11.623-11.171,25.827s-11.517,25.676-11.648,25.618,4.869-11.621,11.172-25.829S443.085,919.608,443.216,919.666Z" fill="#455464"/>
      </g>
      <g id="Grupo_10614" data-name="Grupo 10614">
        <path id="Trazado_10853" data-name="Trazado 10853" d="M523.455,938.971s-.018-.19-.029-.561q-.012-.586-.033-1.648c-.017-1.47-.043-3.6-.076-6.338-.041-5.5-.165-13.466-.359-23.3-.374-19.677-1.262-46.852-2.352-76.862s-1.92-57.2-2.2-76.887c-.147-9.841-.215-17.8-.194-23.309.01-2.736.017-4.868.022-6.338q.012-1.062.019-1.648c.007-.371.024-.561.024-.561s.019.19.029.561c.008.391.019.939.033,1.648.017,1.47.043,3.6.076,6.336.041,5.5.165,13.466.359,23.3.374,19.678,1.262,46.855,2.352,76.875s1.92,57.192,2.2,76.875c.147,9.84.215,17.806.194,23.31-.01,2.736-.017,4.868-.022,6.339q-.012,1.062-.019,1.648C523.472,938.781,523.455,938.971,523.455,938.971Z" fill="#455464"/>
      </g>
      <g id="Grupo_10615" data-name="Grupo 10615">
        <path id="Trazado_10854" data-name="Trazado 10854" d="M465.23,808.07c.144,0,.261,26.117.261,58.327s-.117,58.333-.261,58.333-.26-26.112-.26-58.333S465.086,808.07,465.23,808.07Z" fill="#455464"/>
      </g>
      <g id="Grupo_10616" data-name="Grupo 10616">
        <path id="Trazado_10855" data-name="Trazado 10855" d="M402.733,960.13a5.215,5.215,0,0,1-.5-.7l-.573-.867a9.644,9.644,0,0,1-.72-1.222,30.629,30.629,0,0,1-3.172-8.45,41.6,41.6,0,0,1-.619-13.368,53.225,53.225,0,0,1,4.334-15.8,32.769,32.769,0,0,1,4.534-7.212,18.867,18.867,0,0,1,1.325-1.561c.459-.5.9-1,1.363-1.475.963-.91,1.867-1.843,2.859-2.632a46.358,46.358,0,0,1,5.809-4.211c.986-.541,1.915-1.108,2.853-1.566.951-.43,1.828-.923,2.73-1.246a31.369,31.369,0,0,1,8.72-2.323,18.152,18.152,0,0,1,2.452-.15,5.217,5.217,0,0,1,.856.01,5.2,5.2,0,0,1-.852.1,22.556,22.556,0,0,0-2.43.246,32.866,32.866,0,0,0-8.6,2.461c-.889.331-1.753.83-2.69,1.265-.924.463-1.839,1.033-2.811,1.576a46.907,46.907,0,0,0-5.723,4.208c-.977.785-1.866,1.713-2.815,2.615-.455.471-.889.971-1.342,1.462a18.942,18.942,0,0,0-1.3,1.546,32.568,32.568,0,0,0-4.458,7.11,53.643,53.643,0,0,0-4.33,15.64,42.067,42.067,0,0,0,.5,13.237,32.027,32.027,0,0,0,2.991,8.432,10.277,10.277,0,0,0,.674,1.238c.2.341.378.636.528.89A5.26,5.26,0,0,1,402.733,960.13Z" fill="#455464"/>
      </g>
    </g>
  </g>
</svg>
