<svg xmlns="http://www.w3.org/2000/svg" width="276.107" height="276.179" viewBox="0 0 276.107 276.179">
  <g id="Grupo_9324" data-name="Grupo 9324" transform="translate(112 -24.001)">
    <path id="Trazado_10196" data-name="Trazado 10196" d="M164.107,162.187a138.29,138.29,0,0,1-4.772,36.109q-1.394,5.155-3.167,10.141-1.994,5.613-4.452,10.988a138.106,138.106,0,0,1-251.324,0q-2.453-5.377-4.452-10.988-1.777-4.987-3.167-10.141a138.068,138.068,0,1,1,271.334-36.109Zm0,0" transform="translate(0 -0.061)" fill="#66baed"/>
    <path id="Trazado_10197" data-name="Trazado 10197" d="M288.27,292.788V310.07A138.594,138.594,0,0,1,221.125,377.9a137.69,137.69,0,0,1-36.558,11.235.464.464,0,0,1-.091.013V292.788a39.134,39.134,0,0,1,35.944-39.008c1.06-.091,2.124-.131,3.2-.131h25.492a39.087,39.087,0,0,1,39.156,39.139Zm0,0" transform="translate(-136.554 -105.773)" fill="#bfd5de"/>
    <path id="Trazado_10198" data-name="Trazado 10198" d="M305.34,292.788V310.07A138.594,138.594,0,0,1,238.2,377.9a136.607,136.607,0,0,1-16.656,6.508V292.788a39.148,39.148,0,0,1,39.152-39.139h5.5a39.144,39.144,0,0,1,39.15,39.139Zm0,0" transform="translate(-153.624 -105.773)" fill="#dde8ed"/>
    <path id="Trazado_10199" data-name="Trazado 10199" d="M187.47,162.52A12.982,12.982,0,1,1,176.562,149.7,12.987,12.987,0,0,1,187.47,162.52Zm0,0" transform="translate(-125.967 -57.818)" fill="#d3a489"/>
    <path id="Trazado_10200" data-name="Trazado 10200" d="M282.219,279.829l-10.508,16.854L261.2,279.829" transform="translate(-171.893 -117.832)" fill="#f74f4f"/>
    <path id="Trazado_10201" data-name="Trazado 10201" d="M282.746,354.947l-14.138,17.845-14.143-17.845,14.145-52Zm0,0" transform="translate(-168.79 -128.479)" fill="#f74f4f"/>
    <path id="Trazado_10202" data-name="Trazado 10202" d="M198.866,162.662a12.987,12.987,0,0,1-10.908,12.822,48.541,48.541,0,0,1,0-25.643,12.989,12.989,0,0,1,10.908,12.821Zm0,0" transform="translate(-137.363 -57.96)" fill="#bf8e75"/>
    <path id="Trazado_10203" data-name="Trazado 10203" d="M186.253,169.647a4.642,4.642,0,1,1-4.642-4.642,4.641,4.641,0,0,1,4.642,4.642Zm0,0" transform="translate(-133.096 -64.945)" fill="#bf8e75"/>
    <path id="Trazado_10204" data-name="Trazado 10204" d="M261.05,264.917l-17.624,9.8-5.361-24.938,10.951-6.45" transform="translate(-161.236 -101.018)" fill="#bfd5de"/>
    <path id="Trazado_10205" data-name="Trazado 10205" d="M280.676,264.917l17.626,9.8,5.36-24.938-10.951-6.45" transform="translate(-180.862 -101.018)" fill="#bfd5de"/>
    <path id="Trazado_10206" data-name="Trazado 10206" d="M351.707,162.52A12.982,12.982,0,1,0,362.616,149.7a12.989,12.989,0,0,0-10.909,12.821Zm0,0" transform="translate(-213.578 -57.818)" fill="#d3a489"/>
    <path id="Trazado_10207" data-name="Trazado 10207" d="M351.707,162.662a12.989,12.989,0,0,0,10.909,12.822,48.556,48.556,0,0,0,0-25.643,12.989,12.989,0,0,0-10.909,12.821Zm0,0" transform="translate(-213.578 -57.96)" fill="#bf8e75"/>
    <path id="Trazado_10208" data-name="Trazado 10208" d="M376.468,169.647a4.642,4.642,0,1,1-4.642-4.642,4.643,4.643,0,0,1,4.642,4.642Zm0,0" transform="translate(-220.707 -64.945)" fill="#bf8e75"/>
    <path id="Trazado_10209" data-name="Trazado 10209" d="M287.743,119.48a48.33,48.33,0,0,1-40.57,47.7,47.734,47.734,0,0,1-7.758.624A48.325,48.325,0,0,1,191.09,119.48c0-12.63,4.387-31.587,12.316-40.2,8.833-9.587,21.947-8.131,36.01-8.131a48.306,48.306,0,0,1,48.328,48.328Zm0,0" transform="translate(-139.6 -21.681)" fill="#bf8e75"/>
    <path id="Trazado_10210" data-name="Trazado 10210" d="M282.722,225.689V242.83a13.967,13.967,0,0,1-27.933,0V225.689Zm0,0" transform="translate(-168.939 -92.895)" fill="#bf8e75"/>
    <path id="Trazado_10211" data-name="Trazado 10211" d="M289.874,255.454v1.085a13.968,13.968,0,0,1-9.836,13.342,13.961,13.961,0,0,1-9.722-11.523c.932.057,1.871.086,2.813.086a48.248,48.248,0,0,0,16.745-2.99Zm0,0" transform="translate(-176.09 -106.605)" fill="#d3a489"/>
    <path id="Trazado_10212" data-name="Trazado 10212" d="M300.989,120.08a48.33,48.33,0,0,1-40.57,47.7,48.331,48.331,0,0,1,0-95.406,48.34,48.34,0,0,1,40.332,42.885c.158,1.584.238,3.194.238,4.819Zm0,0" transform="translate(-152.845 -22.281)" fill="#d3a489"/>
    <path id="Trazado_10213" data-name="Trazado 10213" d="M269.669,198.9a24.428,24.428,0,0,1-11.781-3.043,2.15,2.15,0,1,1,2.071-3.768,20.062,20.062,0,0,0,19.421,0,2.15,2.15,0,1,1,2.071,3.768,24.427,24.427,0,0,1-11.782,3.043Zm0,0" transform="translate(-169.853 -77.296)" fill="#bf8e75"/>
    <path id="Trazado_10214" data-name="Trazado 10214" d="M252.239,150.918a5.483,5.483,0,1,1-5.483-5.483,5.482,5.482,0,0,1,5.483,5.483Zm0,0" transform="translate(-162.713 -55.931)" fill="#3d4159"/>
    <path id="Trazado_10215" data-name="Trazado 10215" d="M310.727,150.918a5.483,5.483,0,1,1-5.483-5.483,5.482,5.482,0,0,1,5.483,5.483Zm0,0" transform="translate(-189.653 -55.931)" fill="#3d4159"/>
    <path id="Trazado_10216" data-name="Trazado 10216" d="M255.519,151.8a2.349,2.349,0,1,1-2.349-2.35,2.349,2.349,0,0,1,2.349,2.35Zm0,0" transform="translate(-167.111 -57.779)" fill="#fff"/>
    <path id="Trazado_10217" data-name="Trazado 10217" d="M314.5,151.8a2.349,2.349,0,1,1-2.35-2.35,2.349,2.349,0,0,1,2.35,2.35Zm0,0" transform="translate(-194.279 -57.779)" fill="#fff"/>
    <path id="Trazado_10218" data-name="Trazado 10218" d="M279.462,177.147H268.5a2.364,2.364,0,1,1,0-4.728h10.963a2.364,2.364,0,1,1,0,4.728Zm0,0" transform="translate(-174.164 -68.36)" fill="#bf8e75"/>
    <rect id="Rect치ngulo_6096" data-name="Rect치ngulo 6096" width="21.069" height="6.45" transform="translate(115.729 185.732)" fill="#bfd5de"/>
    <path id="Trazado_10219" data-name="Trazado 10219" d="M275.441,45.561A29.291,29.291,0,0,1,302.578,73.32l.139,2.794h8.42l4.539,30.163,10.985-3.4L325.185,73.32a29.291,29.291,0,0,0-29.364-27.835Zm0,0" transform="translate(-178.451 -9.895)" fill="#2a2f4f"/>
    <path id="Trazado_10220" data-name="Trazado 10220" d="M329.887,24a29.852,29.852,0,0,1-42.215,42.218Zm0,0" transform="translate(-184.084)" fill="#3d4159"/>
    <path id="Trazado_10221" data-name="Trazado 10221" d="M243.134,76.114H206.5l-4.539,30.163-10.984-3.4,1.473-29.556a29.293,29.293,0,0,1,29.367-27.835l52.912.2,7,12.591" transform="translate(-139.546 -9.895)" fill="#3d4159"/>
    <path id="Trazado_10222" data-name="Trazado 10222" d="M242.188,45.561A29.291,29.291,0,0,0,215.05,73.32l-.139,2.794h-8.42l-4.539,30.163-10.984-3.4,1.475-29.556a29.291,29.291,0,0,1,29.364-27.835Zm0,0" transform="translate(-139.544 -9.895)" fill="#2a2f4f"/>
    <path id="Trazado_10223" data-name="Trazado 10223" d="M162.947,365.81A138.483,138.483,0,0,1,97.4,441.61a137.5,137.5,0,0,1-44.4,14.539,138.317,138.317,0,0,1-20.161,1.464c-1.256,0-2.514-.017-3.763-.051A137.579,137.579,0,0,1-57,424.391q-2.787-2.393-5.442-4.926a136.213,136.213,0,0,1-10.424-11.1q-1.912-2.266-3.719-4.614a137.649,137.649,0,0,1-20.7-37.94Zm0,0" transform="translate(-6.779 -157.433)" fill="#a35418"/>
    <path id="Trazado_10224" data-name="Trazado 10224" d="M163.41,347.009q-1.394,5.155-3.167,10.141-1.994,5.613-4.452,10.988H-95.533q-2.453-5.377-4.452-10.988-1.777-4.987-3.167-10.141Zm0,0" transform="translate(-4.075 -148.774)" fill="#cc7a3b"/>
    <path id="Trazado_10225" data-name="Trazado 10225" d="M61.711,335.923v21.77a17.739,17.739,0,0,1-35.477,0v-21.77Zm0,0" transform="translate(-63.669 -143.668)" fill="#eab599"/>
    <rect id="Rect치ngulo_6097" data-name="Rect치ngulo 6097" width="47.708" height="14.273" transform="translate(-42.692 205.48)" fill="#2ba1cf"/>
    <path id="Trazado_10226" data-name="Trazado 10226" d="M70.793,373.724v1.38A17.737,17.737,0,0,1,58.3,392.047a17.732,17.732,0,0,1-12.348-14.634q1.776.111,3.574.11a61.259,61.259,0,0,0,21.267-3.8Zm0,0" transform="translate(-72.751 -161.078)" fill="#f6caae"/>
    <path id="Trazado_10227" data-name="Trazado 10227" d="M68.887,153.134v74.983l-97.939,10.019-35.73,3.652V153.134a66.444,66.444,0,0,1,3.774-22.185A66.923,66.923,0,0,1-8.969,87.217a67.573,67.573,0,0,1,9.393-.9c.383-.011.761-.017,1.138-.017.165-.006.323-.006.484-.006A67.154,67.154,0,0,1,12.46,87.1a66.851,66.851,0,0,1,56.427,66.029Zm0,0" transform="translate(-21.749 -28.693)" fill="#3d4159"/>
    <path id="Trazado_10228" data-name="Trazado 10228" d="M-37.29,156.069c0,24.613,1.241,64.576,8.238,82.073l-35.73,3.652V153.14a66.444,66.444,0,0,1,3.774-22.185A66.922,66.922,0,0,1,.425,86.327c.383-.011.761-.017,1.138-.017-20.551.512-38.852,33.477-38.852,69.759Zm0,0" transform="translate(-21.749 -28.699)" fill="#2a2f4f"/>
    <path id="Trazado_10229" data-name="Trazado 10229" d="M70.667,421.147v10.558A152.211,152.211,0,0,1,5.811,446.114a153.969,153.969,0,0,1-18.279-1.081A138.617,138.617,0,0,1-58.91,406.339a49.8,49.8,0,0,1,34.592-33.222c.771-.2,1.549-.4,2.343-.571a50.881,50.881,0,0,1,6.475-.953c1.34-.112,2.693-.162,4.063-.162H20.94a50.133,50.133,0,0,1,10.548,1.114c.191.04.4.086.581.131.575.129,1.144.27,1.707.428a.107.107,0,0,1,.046.006,49.79,49.79,0,0,1,36.845,48.037Zm0,0" transform="translate(-24.453 -160.022)" fill="#2ba1cf"/>
    <path id="Trazado_10230" data-name="Trazado 10230" d="M87.39,421.147v37.59A138.3,138.3,0,0,1-22.6,426.98v-5.832a49.729,49.729,0,0,1,36.836-48.031c.771-.2,1.549-.4,2.343-.571a50.881,50.881,0,0,1,6.475-.953c1.34-.112,2.693-.162,4.062-.162H37.663a50.133,50.133,0,0,1,10.548,1.114c.191.04.4.086.581.131.575.129,1.144.27,1.707.428a.107.107,0,0,1,.046.006A49.79,49.79,0,0,1,87.39,421.147Zm0,0" transform="translate(-41.176 -160.022)" fill="#66baed"/>
    <path id="Trazado_10231" data-name="Trazado 10231" d="M44.685,86.31s-12.362,15.259-12.362,46.442c0,0-8.932-22.358,1.831-45.53a67.573,67.573,0,0,1,9.393-.9c.383-.011.761-.017,1.138-.017Zm0,0" transform="translate(-64.872 -28.699)" fill="#2a2f4f"/>
    <path id="Trazado_10232" data-name="Trazado 10232" d="M239.1,450.427v30.156a135.938,135.938,0,0,1-16.854,7.529q-5.816,2.146-11.878,3.769V450.427Zm0,0" transform="translate(-148.477 -196.407)" fill="#66baed"/>
    <path id="Trazado_10233" data-name="Trazado 10233" d="M222.241,450.427v37.685q-5.816,2.146-11.878,3.769V450.427Zm0,0" transform="translate(-148.477 -196.407)" fill="#2ba1cf"/>
    <path id="Trazado_10234" data-name="Trazado 10234" d="M265.815,427.936a8.306,8.306,0,0,1-8.306,8.306H210.363v-8.306a8.306,8.306,0,0,1,8.3-8.306h38.842a8.269,8.269,0,0,1,5.872,2.434,8.393,8.393,0,0,1,1.842,2.8,8.211,8.211,0,0,1,.592,3.076Zm0,0" transform="translate(-148.477 -182.222)" fill="#eab599"/>
    <path id="Trazado_10235" data-name="Trazado 10235" d="M265.223,424.86a8.3,8.3,0,0,1-7.714,5.228H210.363v-2.152a8.306,8.306,0,0,1,8.3-8.306h38.842a8.269,8.269,0,0,1,5.872,2.434,8.393,8.393,0,0,1,1.842,2.8Zm0,0" transform="translate(-148.477 -182.222)" fill="#f6caae"/>
    <path id="Trazado_10236" data-name="Trazado 10236" d="M58.819,455.322v31.2A137.58,137.58,0,0,1-27.249,453.35q-2.787-2.393-5.442-4.926A26.638,26.638,0,0,1-6.957,428.685H32.181a26.635,26.635,0,0,1,26.638,26.637Zm0,0" transform="translate(-36.529 -186.393)" fill="#854f89"/>
    <path id="Trazado_10237" data-name="Trazado 10237" d="M33.4,455.322v29.763A137.5,137.5,0,0,1-36.15,453.35q-2.787-2.393-5.442-4.926a136.211,136.211,0,0,1-10.424-11.1,26.563,26.563,0,0,1,19.632-8.639H6.761A26.634,26.634,0,0,1,33.4,455.322Zm0,0" transform="translate(-27.628 -186.393)" fill="#713775"/>
  </g>
</svg>
