<svg xmlns="http://www.w3.org/2000/svg" width="227.02" height="276.363" viewBox="0 0 227.02 276.363">
  <g id="Grupo_10709" data-name="Grupo 10709" transform="translate(-63.994 -32)">
    <g id="Grupo_10687" data-name="Grupo 10687" transform="translate(93.608 32)">
      <path id="Trazado_10916" data-name="Trazado 10916" d="M269.922,51.74V278.753a19.8,19.8,0,0,1-19.74,19.74H131.74A19.8,19.8,0,0,1,112,278.753V51.74A19.8,19.8,0,0,1,131.74,32H250.182A19.8,19.8,0,0,1,269.922,51.74Z" transform="translate(-112 -32)" fill="#0a5078"/>
    </g>
    <g id="Grupo_10688" data-name="Grupo 10688" transform="translate(123.218 278.753)">
      <path id="Trazado_10917" data-name="Trazado 10917" d="M288.312,432a19.8,19.8,0,0,1-19.74,19.74H179.74L160,432Z" transform="translate(-160 -432)" fill="#00325a"/>
    </g>
    <g id="Grupo_10689" data-name="Grupo 10689" transform="translate(192.304 81.351)">
      <path id="Trazado_10918" data-name="Trazado 10918" d="M331.218,112.982v96.727a41.742,41.742,0,0,1-4.886.74,48.86,48.86,0,0,1-30.745-7.057,4.171,4.171,0,0,0-5.182.543l-2.468,2.418a8.218,8.218,0,0,1-12.535-1.036,8.58,8.58,0,0,1,1.234-10.906l2.122-2.122a4.171,4.171,0,0,0,.543-5.182,48.859,48.859,0,0,1-7.057-30.745,49.5,49.5,0,0,1,42.787-43.971,50.506,50.506,0,0,1,16.187.592Z" transform="translate(-271.992 -112)" fill="#00325a"/>
    </g>
    <g id="Grupo_10690" data-name="Grupo 10690" transform="translate(93.608 81.362)">
      <path id="Trazado_10919" data-name="Trazado 10919" d="M176.452,194.423a8.58,8.58,0,0,1,1.234,10.906,8.218,8.218,0,0,1-12.535,1.036l-2.468-2.418a4.171,4.171,0,0,0-5.182-.543,48.86,48.86,0,0,1-30.745,7.057,49.745,49.745,0,0,1-14.756-3.9V116.1a49.376,49.376,0,0,1,68.844,40.27,48.86,48.86,0,0,1-7.057,30.745,4.171,4.171,0,0,0,.543,5.182Z" transform="translate(-112 -112.019)" fill="#00325a"/>
    </g>
    <g id="Grupo_10691" data-name="Grupo 10691" transform="translate(103.478 51.74)">
      <path id="Trazado_10920" data-name="Trazado 10920" d="M266.182,241.662v44.416a4.95,4.95,0,0,1-4.935,4.935H132.935A4.95,4.95,0,0,1,128,286.078V68.935A4.95,4.95,0,0,1,132.935,64h20.629a4.878,4.878,0,0,1,3.455,1.431l7.008,7.008a4.886,4.886,0,0,0,3.455,1.431H226.7a4.869,4.869,0,0,0,3.455-1.431l7.008-7.008A4.878,4.878,0,0,1,240.618,64H261.2a4.937,4.937,0,0,1,4.935,4.935Z" transform="translate(-128 -64)" fill="#9ccff2"/>
    </g>
    <g id="Grupo_10692" data-name="Grupo 10692" transform="translate(117.42 253.232)">
      <path id="Trazado_10921" data-name="Trazado 10921" d="M173.227,393.5l22.652,22.652H156.4l-2.912-2.912a9.829,9.829,0,0,1,0-13.917l5.823-5.823A9.873,9.873,0,0,1,173.227,393.5Z" transform="translate(-150.6 -390.629)" fill="#d2d2d2"/>
    </g>
    <g id="Grupo_10693" data-name="Grupo 10693" transform="translate(117.423 180.052)">
      <path id="Trazado_10922" data-name="Trazado 10922" d="M314.323,331.221v69.091H195.881l-42.392-42.392a9.838,9.838,0,0,1,0-13.917l5.823-5.823a9.868,9.868,0,0,1,13.917,0l22.652,22.652V281.87a9.9,9.9,0,0,1,9.87-9.87h9.87a9.9,9.9,0,0,1,9.87,9.87v49.351a9.9,9.9,0,0,1,9.87-9.87h9.87a9.9,9.9,0,0,1,9.87,9.87,9.9,9.9,0,0,1,9.87-9.87h9.87a9.9,9.9,0,0,1,9.87,9.87,9.9,9.9,0,0,1,9.87-9.87h9.87A9.9,9.9,0,0,1,314.323,331.221Z" transform="translate(-150.606 -272)" fill="#f2c8a0"/>
    </g>
    <g id="Grupo_10694" data-name="Grupo 10694" transform="translate(103.478 81.358)">
      <path id="Trazado_10923" data-name="Trazado 10923" d="M182.582,194.42a8.58,8.58,0,0,1,1.234,10.906,8.218,8.218,0,0,1-12.535,1.036l-2.468-2.418a4.171,4.171,0,0,0-5.182-.543,48.86,48.86,0,0,1-30.745,7.057c-1.678-.2-3.257-.444-4.886-.79V113.041a49.274,49.274,0,0,1,51.917,74.075,4.171,4.171,0,0,0,.543,5.182Z" transform="translate(-128 -112.013)" fill="#74bcf2"/>
    </g>
    <g id="Grupo_10695" data-name="Grupo 10695" transform="translate(192.304 81.346)">
      <path id="Trazado_10924" data-name="Trazado 10924" d="M321.3,111.992v98.7a48.536,48.536,0,0,1-25.712-7.3,4.171,4.171,0,0,0-5.182.543l-2.468,2.418a8.218,8.218,0,0,1-12.535-1.036,8.58,8.58,0,0,1,1.234-10.906l2.122-2.122a4.171,4.171,0,0,0,.543-5.182,48.859,48.859,0,0,1-7.057-30.745,49.5,49.5,0,0,1,42.787-43.971,54.105,54.105,0,0,1,6.268-.395Z" transform="translate(-271.992 -111.992)" fill="#74bcf2"/>
    </g>
    <g id="Grupo_10696" data-name="Grupo 10696" transform="translate(128.45 243.359)">
      <path id="Trazado_10925" data-name="Trazado 10925" d="M202.729,400.149v9.87l-34.249-34.2a9.767,9.767,0,0,1,11.6,1.678Z" transform="translate(-168.48 -374.625)" fill="#d1aa81"/>
    </g>
    <g id="Grupo_10697" data-name="Grupo 10697" transform="translate(63.994 71.481)">
      <path id="Trazado_10926" data-name="Trazado 10926" d="M119.64,96.39A49.3,49.3,0,0,1,155.4,171.112a4.176,4.176,0,0,0,.518,5.177l2.152,2.152a8.532,8.532,0,0,1,1.209,10.887,8.232,8.232,0,0,1-12.53,1.056l-2.463-2.463a4.176,4.176,0,0,0-5.177-.518A49.346,49.346,0,1,1,119.64,96.39Z" transform="translate(-63.994 -96)" fill="#c80a50"/>
    </g>
    <g id="Grupo_10698" data-name="Grupo 10698" transform="translate(89.523 97.001)">
      <path id="Trazado_10927" data-name="Trazado 10927" d="M150.143,140.261a9.868,9.868,0,0,0-13.956,0l-6.983,6.983-6.978-6.978a9.869,9.869,0,0,0-13.956,13.956l6.978,6.978-6.978,6.978a9.869,9.869,0,1,0,13.956,13.956l6.978-6.978,6.978,6.978a9.869,9.869,0,1,0,13.956-13.956L143.16,161.2l6.978-6.978a9.869,9.869,0,0,0,0-13.961Z" transform="translate(-105.378 -137.37)" fill="#f0f0f0"/>
    </g>
    <g id="Grupo_10699" data-name="Grupo 10699" transform="translate(192.309 71.476)">
      <path id="Trazado_10928" data-name="Trazado 10928" d="M315.059,96.382A49.3,49.3,0,0,0,279.3,171.1a4.176,4.176,0,0,1-.518,5.177l-2.152,2.152a8.532,8.532,0,0,0-1.209,10.887,8.232,8.232,0,0,0,12.53,1.056l2.463-2.463a4.176,4.176,0,0,1,5.177-.518,49.346,49.346,0,1,0,19.469-91.012Z" transform="translate(-272 -95.992)" fill="#51ae32"/>
    </g>
    <g id="Grupo_10700" data-name="Grupo 10700" transform="translate(210.851 96.987)">
      <path id="Trazado_10929" data-name="Trazado 10929" d="M346.808,140.247l-20.9,20.939-6.988-6.988a9.874,9.874,0,0,0-13.961,0l0,0a9.874,9.874,0,0,0,0,13.961l13.966,13.966a9.875,9.875,0,0,0,13.966,0l27.9-27.932a9.873,9.873,0,0,0,0-13.956l0,0a9.87,9.87,0,0,0-13.961.015Z" transform="translate(-302.058 -137.347)" fill="#f0f0f0"/>
    </g>
    <g id="Grupo_10706" data-name="Grupo 10706" transform="translate(172.569 180.052)">
      <g id="Grupo_10705" data-name="Grupo 10705">
        <g id="Grupo_10701" data-name="Grupo 10701">
          <path id="Trazado_10930" data-name="Trazado 10930" d="M259.74,281.87V355.9a4.935,4.935,0,0,1-9.87,0V281.87A9.9,9.9,0,0,0,240,272h9.87A9.9,9.9,0,0,1,259.74,281.87Z" transform="translate(-240 -272)" fill="#d1aa81"/>
        </g>
        <g id="Grupo_10702" data-name="Grupo 10702" transform="translate(29.61 49.351)">
          <path id="Trazado_10931" data-name="Trazado 10931" d="M307.74,361.87v24.675a4.935,4.935,0,0,1-9.87,0V361.87A9.9,9.9,0,0,0,288,352h9.87A9.9,9.9,0,0,1,307.74,361.87Z" transform="translate(-288 -352)" fill="#d1aa81"/>
        </g>
        <g id="Grupo_10703" data-name="Grupo 10703" transform="translate(59.221 49.351)">
          <path id="Trazado_10932" data-name="Trazado 10932" d="M355.74,361.87v24.675a4.935,4.935,0,0,1-9.87,0V361.87A9.9,9.9,0,0,0,336,352h9.87A9.9,9.9,0,0,1,355.74,361.87Z" transform="translate(-336 -352)" fill="#d1aa81"/>
        </g>
        <g id="Grupo_10704" data-name="Grupo 10704" transform="translate(88.831 49.351)">
          <path id="Trazado_10933" data-name="Trazado 10933" d="M403.74,361.87v69.091h-9.87V361.87A9.9,9.9,0,0,0,384,352h9.87A9.9,9.9,0,0,1,403.74,361.87Z" transform="translate(-384 -352)" fill="#d1aa81"/>
        </g>
      </g>
    </g>
    <g id="Grupo_10707" data-name="Grupo 10707" transform="translate(192.309 41.87)">
      <circle id="Elipse_124" data-name="Elipse 124" cx="5" cy="5" r="5" transform="translate(-0.315 0.13)" fill="#00143c"/>
    </g>
    <g id="Grupo_10708" data-name="Grupo 10708" transform="translate(142.959 41.87)">
      <path id="Trazado_10934" data-name="Trazado 10934" d="M226.545,57.87h-29.61a4.935,4.935,0,0,1,0-9.87h29.61a4.935,4.935,0,0,1,0,9.87Z" transform="translate(-192 -48)" fill="#00143c"/>
    </g>
  </g>
</svg>
