<svg xmlns="http://www.w3.org/2000/svg" width="312" height="312" viewBox="0 0 312 312">
  <g id="Grupo_9320" data-name="Grupo 9320" transform="translate(112 -24.001)">
    <path id="Trazado_10065" data-name="Trazado 10065" d="M200,180A156,156,0,1,1,44,24,156,156,0,0,1,200,180Zm0,0" transform="translate(0 0)" fill="#66baed"/>
    <path id="Trazado_10066" data-name="Trazado 10066" d="M29.8,24H228.214a19.543,19.543,0,0,1,19.543,19.543V230.672a19.542,19.542,0,0,1-19.543,19.541H29.8a19.54,19.54,0,0,1-19.543-19.541V43.544A19.542,19.542,0,0,1,29.8,24Zm0,0" transform="translate(-47.757 0)" fill="#3d4159"/>
    <path id="Trazado_10067" data-name="Trazado 10067" d="M37.964,245.641a6.812,6.812,0,0,1-6.808-6.805V51.707A6.816,6.816,0,0,1,37.964,44.9H236.378a6.816,6.816,0,0,1,6.808,6.808V238.835a6.814,6.814,0,0,1-6.808,6.805Zm0,0" transform="translate(-55.92 -8.163)" fill="#f2f0ec"/>
    <rect id="Rectángulo_6089" data-name="Rectángulo 6089" width="175.571" height="17.914" transform="translate(-0.168 195.369)" fill="#713775"/>
    <rect id="Rectángulo_6090" data-name="Rectángulo 6090" width="20.304" height="127.795" transform="translate(9.985 52.046)" fill="#713775"/>
    <rect id="Rectángulo_6091" data-name="Rectángulo 6091" width="20.304" height="105.619" transform="translate(54.971 74.222)" fill="#f74f4f"/>
    <rect id="Rectángulo_6092" data-name="Rectángulo 6092" width="20.304" height="127.795" transform="translate(99.96 52.046)" fill="#66baed"/>
    <rect id="Rectángulo_6093" data-name="Rectángulo 6093" width="20.304" height="80.021" transform="translate(144.947 99.821)" fill="#3fb777"/>
    <path id="Trazado_10068" data-name="Trazado 10068" d="M242.915,450.4V484.48a153.62,153.62,0,0,1-19.043,8.507q-6.574,2.425-13.423,4.258V450.4Zm0,0" transform="translate(-125.957 -166.563)" fill="#dde8ed"/>
    <path id="Trazado_10069" data-name="Trazado 10069" d="M223.872,450.4v42.585q-6.574,2.425-13.423,4.258V450.4Zm0,0" transform="translate(-125.957 -166.563)" fill="#bfd5de"/>
    <path id="Trazado_10070" data-name="Trazado 10070" d="M273.11,428.985a9.387,9.387,0,0,1-9.386,9.386H210.449v-9.386a9.385,9.385,0,0,1,9.386-9.386h43.889a9.335,9.335,0,0,1,6.634,2.749,9.459,9.459,0,0,1,2.083,3.159,9.286,9.286,0,0,1,.669,3.478Zm0,0" transform="translate(-125.957 -154.53)" fill="#eab599"/>
    <path id="Trazado_10071" data-name="Trazado 10071" d="M272.441,425.507a9.387,9.387,0,0,1-8.717,5.91H210.449v-2.433a9.385,9.385,0,0,1,9.386-9.386h43.889a9.335,9.335,0,0,1,6.634,2.749,9.459,9.459,0,0,1,2.083,3.159Zm0,0" transform="translate(-125.957 -154.53)" fill="#f6caae"/>
    <path id="Trazado_10072" data-name="Trazado 10072" d="M98.2,436.419v17.822a154.838,154.838,0,0,1-53.952,18.541A155.269,155.269,0,0,1-25.9,443.651a156.692,156.692,0,0,1-26.736-25.3A58.012,58.012,0,0,1-2.278,378.641q2.349-.189,4.744-.191H40.219A57.891,57.891,0,0,1,98.2,436.419Zm0,0" transform="translate(-23.189 -138.457)" fill="#bfd5de"/>
    <path id="Trazado_10073" data-name="Trazado 10073" d="M115.339,436.419v34.956a156.9,156.9,0,0,1-31.009,3.083A155.311,155.311,0,0,1-8.762,443.651v-7.231A57.976,57.976,0,0,1,49.219,378.45h8.138a57.971,57.971,0,0,1,57.981,57.969Zm0,0" transform="translate(-40.327 -138.457)" fill="#dde8ed"/>
    <path id="Trazado_10074" data-name="Trazado 10074" d="M74.354,412.774,58.791,437.735,43.23,412.774" transform="translate(-60.637 -151.865)" fill="#f74f4f"/>
    <path id="Trazado_10075" data-name="Trazado 10075" d="M74.941,496.378a154.336,154.336,0,0,1-25.406-7.646l11.721-45.653Zm0,0" transform="translate(-63.1 -163.702)" fill="#f74f4f"/>
    <path id="Trazado_10076" data-name="Trazado 10076" d="M46.942,396.9l-26.1,14.5L12.9,374.472l16.215-9.553" transform="translate(-48.79 -133.171)" fill="#bfd5de"/>
    <path id="Trazado_10077" data-name="Trazado 10077" d="M68.762,396.9l26.1,14.5,7.938-36.929-16.217-9.553" transform="translate(-70.61 -133.171)" fill="#bfd5de"/>
    <rect id="Rectángulo_6094" data-name="Rectángulo 6094" width="31.199" height="9.55" transform="translate(21.718 296.058)" fill="#bfd5de"/>
    <path id="Trazado_10078" data-name="Trazado 10078" d="M76.212,341.8v25.384a20.684,20.684,0,0,1-41.368,0V341.8Zm0,0" transform="translate(-57.361 -124.141)" fill="#eab599"/>
    <path id="Trazado_10079" data-name="Trazado 10079" d="M84.163,380.817v1.609A20.681,20.681,0,0,1,69.6,402.184a20.676,20.676,0,0,1-14.4-17.065q2.071.129,4.166.129a71.556,71.556,0,0,0,24.8-4.43Zm0,0" transform="translate(-65.312 -139.381)" fill="#f6caae"/>
    <path id="Trazado_10080" data-name="Trazado 10080" d="M-48.981,261.206a19.239,19.239,0,0,1-16.156,18.988,19.254,19.254,0,0,1-3.08.246,19.231,19.231,0,0,1-19.236-19.234A19.233,19.233,0,0,1-68.217,241.97a19.254,19.254,0,0,1,3.08.247,19.237,19.237,0,0,1,16.156,18.988Zm0,0" transform="translate(-9.589 -85.144)" fill="#f6caae"/>
    <path id="Trazado_10081" data-name="Trazado 10081" d="M-36.312,261.364a19.239,19.239,0,0,1-16.156,18.988,71.915,71.915,0,0,1,0-37.976,19.237,19.237,0,0,1,16.156,18.988Zm0,0" transform="translate(-22.258 -85.303)" fill="#eab599"/>
    <path id="Trazado_10082" data-name="Trazado 10082" d="M-53.419,269.129A6.874,6.874,0,0,1-60.294,276a6.874,6.874,0,0,1-6.874-6.874,6.875,6.875,0,0,1,6.874-6.874,6.875,6.875,0,0,1,6.875,6.874Zm0,0" transform="translate(-17.512 -93.068)" fill="#eab599"/>
    <path id="Trazado_10083" data-name="Trazado 10083" d="M161.9,261.206a19.227,19.227,0,1,0,16.153-18.988A19.238,19.238,0,0,0,161.9,261.206Zm0,0" transform="translate(-106.99 -85.144)" fill="#f6caae"/>
    <path id="Trazado_10084" data-name="Trazado 10084" d="M161.9,261.364a19.238,19.238,0,0,0,16.153,18.988,71.848,71.848,0,0,0,0-37.976A19.236,19.236,0,0,0,161.9,261.364Zm0,0" transform="translate(-106.99 -85.303)" fill="#eab599"/>
    <path id="Trazado_10085" data-name="Trazado 10085" d="M94.479,166.163v27.253A71.565,71.565,0,0,1,34.4,264.054c-.115.019-.236.038-.35.059a70.547,70.547,0,0,1-11.138.864,71.562,71.562,0,0,1-71.561-71.561V166.163a71.25,71.25,0,0,1,4.041-23.752A71.584,71.584,0,0,1,22.909,94.595h.007a71.5,71.5,0,0,1,71.563,71.568Zm0,0" transform="translate(-24.745 -27.576)" fill="#eab599"/>
    <path id="Trazado_10086" data-name="Trazado 10086" d="M195.929,269.129a6.874,6.874,0,1,1-6.874-6.874,6.874,6.874,0,0,1,6.874,6.874Zm0,0" transform="translate(-114.914 -93.068)" fill="#eab599"/>
    <path id="Trazado_10087" data-name="Trazado 10087" d="M108.764,166.717V193.97a71.565,71.565,0,0,1-60.083,70.638c-.115.019-.236.038-.35.059a71.572,71.572,0,0,1-60.414-70.7V166.717a71.58,71.58,0,0,1,60.426-70.7,71.58,71.58,0,0,1,60.421,70.7Zm0,0" transform="translate(-39.03 -28.13)" fill="#f6caae"/>
    <path id="Trazado_10088" data-name="Trazado 10088" d="M33.369,244.718A8.118,8.118,0,1,1,25.25,236.6a8.117,8.117,0,0,1,8.119,8.119Zm0,0" transform="translate(-50.443 -83.046)" fill="#3d4159"/>
    <path id="Trazado_10089" data-name="Trazado 10089" d="M110.037,244.718a8.118,8.118,0,1,1-8.119-8.119,8.117,8.117,0,0,1,8.119,8.119Zm0,0" transform="translate(-80.391 -83.046)" fill="#3d4159"/>
    <path id="Trazado_10090" data-name="Trazado 10090" d="M36.6,245.342a3.478,3.478,0,1,1-3.478-3.478,3.477,3.477,0,0,1,3.478,3.478Zm0,0" transform="translate(-55.33 -85.103)" fill="#fff"/>
    <path id="Trazado_10091" data-name="Trazado 10091" d="M113.923,245.342a3.479,3.479,0,1,1-3.478-3.478,3.477,3.477,0,0,1,3.478,3.478Zm0,0" transform="translate(-85.533 -85.103)" fill="#fff"/>
    <path id="Trazado_10092" data-name="Trazado 10092" d="M69.457,273.752H53.22a3.5,3.5,0,0,1,0-7.005H69.457a3.5,3.5,0,1,1,0,7.005Zm0,0" transform="translate(-63.171 -94.823)" fill="#eab599"/>
    <path id="Trazado_10093" data-name="Trazado 10093" d="M56.546,307.885A36.158,36.158,0,0,1,39.1,303.378a3.183,3.183,0,0,1,3.066-5.579,29.7,29.7,0,0,0,28.762,0,3.183,3.183,0,0,1,3.066,5.579,36.149,36.149,0,0,1-17.446,4.506Zm0,0" transform="translate(-58.378 -106.798)" fill="#eab599"/>
    <path id="Trazado_10094" data-name="Trazado 10094" d="M94.479,134.518v27.915H81.159V140.574l-96.148-17.867-20.343-3.782v43.509h-13.32V134.518A57.614,57.614,0,0,1,8.96,76.9H36.868c.757,0,1.516.012,2.273.052a57.6,57.6,0,0,1,55.339,57.567Zm0,0" transform="translate(-24.745 -20.663)" fill="#e8c934"/>
    <path id="Trazado_10095" data-name="Trazado 10095" d="M116.058,134.552v27.915h-13.32V140.608L6.59,122.741A57.622,57.622,0,0,1,60.72,76.985a57.6,57.6,0,0,1,55.339,57.567Zm0,0" transform="translate(-46.324 -20.697)" fill="#ffe152"/>
  </g>
</svg>
