<svg xmlns="http://www.w3.org/2000/svg" width="276.179" height="276.179" viewBox="0 0 276.179 276.179">
  <g id="Grupo_9326" data-name="Grupo 9326" transform="translate(112 -24.001)">
    <path id="Trazado_10296" data-name="Trazado 10296" d="M164.179,162.09a137.521,137.521,0,0,1-32.019,88.421,138.879,138.879,0,0,1-23.667,22.4,137.842,137.842,0,0,1-14.769,9.6A134.788,134.788,0,0,1,80.2,289.166c-1.041.451-2.09.879-3.15,1.3a136.625,136.625,0,0,1-22.489,6.77q-4.042.854-8.161,1.458A138.1,138.1,0,1,1,26.089,24,137.525,137.525,0,0,1,80.2,35.008a136.039,136.039,0,0,1,13.527,6.669A138.03,138.03,0,0,1,164.179,162.09Zm0,0" fill="#66baed"/>
    <path id="Trazado_10297" data-name="Trazado 10297" d="M257.836,24V282.51a134.788,134.788,0,0,1-13.527,6.656V24Zm0,0" transform="translate(-164.112)" fill="#3d4159"/>
    <path id="Trazado_10298" data-name="Trazado 10298" d="M-86.922,157.166c64.253,57.445,128.508-57.445,192.762,0V46.7C41.586-10.749-22.669,104.14-86.922,46.7Zm0,0" transform="translate(-11.551 -2.815)" fill="#f74f4f"/>
    <path id="Trazado_10299" data-name="Trazado 10299" d="M80.878,429.764v15.776a137.062,137.062,0,0,1-47.757,16.412,137.416,137.416,0,0,1-62.1-25.784,138.881,138.881,0,0,1-23.667-22.4A51.349,51.349,0,0,1-8.063,378.621q2.079-.171,4.2-.171H29.554a51.245,51.245,0,0,1,51.324,51.314Zm0,0" transform="translate(-27.34 -163.255)" fill="#bfd5de"/>
    <path id="Trazado_10300" data-name="Trazado 10300" d="M101.087,429.764v30.942A138.44,138.44,0,0,1-8.766,436.167v-6.4A51.32,51.32,0,0,1,42.558,378.45h7.2a51.315,51.315,0,0,1,51.324,51.314Zm0,0" transform="translate(-47.548 -163.255)" fill="#dde8ed"/>
    <path id="Trazado_10301" data-name="Trazado 10301" d="M-53.424,259a17.028,17.028,0,0,1-14.3,16.808,17.08,17.08,0,0,1-2.729.217A17.021,17.021,0,0,1-87.477,259,17.023,17.023,0,0,1-70.452,241.97a17.076,17.076,0,0,1,2.729.219A17.026,17.026,0,0,1-53.424,259Zm0,0" transform="translate(-11.295 -100.394)" fill="#d3a489"/>
    <path id="Trazado_10302" data-name="Trazado 10302" d="M70.777,412.774,57,434.869,43.227,412.774" transform="translate(-71.496 -179.064)" fill="#f74f4f"/>
    <path id="Trazado_10303" data-name="Trazado 10303" d="M72.02,490.261a136.625,136.625,0,0,1-22.489-6.77l10.376-40.412Zm0,0" transform="translate(-74.399 -193.023)" fill="#f74f4f"/>
    <path id="Trazado_10304" data-name="Trazado 10304" d="M-38.488,259.184a17.028,17.028,0,0,1-14.3,16.808,63.3,63.3,0,0,1-2.261-16.808,63.192,63.192,0,0,1,2.261-16.808,17.026,17.026,0,0,1,14.3,16.808Zm0,0" transform="translate(-26.232 -100.581)" fill="#bf8e75"/>
    <path id="Trazado_10305" data-name="Trazado 10305" d="M-55.025,268.34a6.085,6.085,0,0,1-6.085,6.085,6.085,6.085,0,0,1-6.085-6.085,6.085,6.085,0,0,1,6.085-6.085,6.085,6.085,0,0,1,6.085,6.085Zm0,0" transform="translate(-20.637 -109.737)" fill="#bf8e75"/>
    <path id="Trazado_10306" data-name="Trazado 10306" d="M43.027,393.226l-23.1,12.838L12.9,373.375l14.356-8.456" transform="translate(-57.527 -157.023)" fill="#bfd5de"/>
    <path id="Trazado_10307" data-name="Trazado 10307" d="M68.754,393.226l23.1,12.838,7.027-32.689-14.353-8.456" transform="translate(-83.253 -157.023)" fill="#bfd5de"/>
    <path id="Trazado_10308" data-name="Trazado 10308" d="M161.867,259a17.023,17.023,0,1,0,14.3-16.808A17.03,17.03,0,0,0,161.867,259Zm0,0" transform="translate(-126.14 -100.394)" fill="#d3a489"/>
    <path id="Trazado_10309" data-name="Trazado 10309" d="M161.867,259.184a17.03,17.03,0,0,0,14.3,16.808,63.673,63.673,0,0,0,0-33.616,17.028,17.028,0,0,0-14.3,16.808Zm0,0" transform="translate(-126.14 -100.581)" fill="#bf8e75"/>
    <path id="Trazado_10310" data-name="Trazado 10310" d="M194.323,268.34a6.085,6.085,0,1,1-6.085-6.085,6.085,6.085,0,0,1,6.085,6.085Zm0,0" transform="translate(-135.483 -109.737)" fill="#bf8e75"/>
    <path id="Trazado_10311" data-name="Trazado 10311" d="M78.021,202.576a63.357,63.357,0,0,1-53.185,62.532,62.676,62.676,0,0,1-10.166.817,63.347,63.347,0,0,1-63.35-63.349c0-16.556,12.093-41.406,22.489-52.692,11.576-12.569,22.425-10.66,40.86-10.66a62.614,62.614,0,0,1,10.166.818,63.359,63.359,0,0,1,53.185,62.534Zm0,0" transform="translate(-29.164 -53.023)" fill="#bf8e75"/>
    <path id="Trazado_10312" data-name="Trazado 10312" d="M71.437,341.8v22.47a18.308,18.308,0,0,1-36.617,0V341.8Zm0,0" transform="translate(-67.624 -146.375)" fill="#bf8e75"/>
    <path id="Trazado_10313" data-name="Trazado 10313" d="M80.811,380.817v1.425A18.308,18.308,0,0,1,67.918,399.73a18.3,18.3,0,0,1-12.746-15.106q1.836.114,3.69.114a63.346,63.346,0,0,0,21.949-3.922Zm0,0" transform="translate(-76.997 -164.345)" fill="#d3a489"/>
    <path id="Trazado_10314" data-name="Trazado 10314" d="M95.383,203.363A63.357,63.357,0,0,1,42.2,265.895a63.356,63.356,0,0,1,0-125.066,63.365,63.365,0,0,1,52.871,56.217c.207,2.077.314,4.189.314,6.317Zm0,0" transform="translate(-46.527 -53.81)" fill="#d3a489"/>
    <path id="Trazado_10315" data-name="Trazado 10315" d="M54.327,311.905a32.033,32.033,0,0,1-15.445-3.986A2.818,2.818,0,1,1,41.6,302.98a26.3,26.3,0,0,0,25.458,0,2.819,2.819,0,0,1,2.716,4.939,32.039,32.039,0,0,1-15.445,3.986Zm0,0" transform="translate(39.832 486.203) rotate(180)" fill="#bf8e75"/>
    <path id="Trazado_10316" data-name="Trazado 10316" d="M31.478,243.786a7.186,7.186,0,1,1-7.185-7.187,7.185,7.185,0,0,1,7.185,7.187Zm0,0" transform="translate(-59.464 -97.92)" fill="#3d4159"/>
    <path id="Trazado_10317" data-name="Trazado 10317" d="M108.146,243.786a7.186,7.186,0,1,1-7.185-7.187,7.185,7.185,0,0,1,7.185,7.187Zm0,0" transform="translate(-94.777 -97.92)" fill="#3d4159"/>
    <path id="Trazado_10318" data-name="Trazado 10318" d="M35.776,244.942a3.08,3.08,0,1,1-3.081-3.078,3.079,3.079,0,0,1,3.081,3.078Zm0,0" transform="translate(-65.227 -100.345)" fill="#fff"/>
    <path id="Trazado_10319" data-name="Trazado 10319" d="M113.1,244.942a3.078,3.078,0,1,1-3.078-3.078,3.078,3.078,0,0,1,3.078,3.078Zm0,0" transform="translate(-100.842 -100.345)" fill="#fff"/>
    <path id="Trazado_10320" data-name="Trazado 10320" d="M67.165,278.173H52.793a3.1,3.1,0,1,1,0-6.2H67.165a3.1,3.1,0,1,1,0,6.2Zm0,0" transform="translate(-74.473 -114.214)" fill="#bf8e75"/>
    <rect id="Rectángulo_6098" data-name="Rectángulo 6098" width="27.617" height="8.456" transform="translate(6.363 264.823)" fill="#bfd5de"/>
    <path id="Trazado_10321" data-name="Trazado 10321" d="M61.891,105.678a38.4,38.4,0,0,1,35.576,36.389l.181,3.662h11.037l5.948,39.539,14.4-4.458L127.1,142.067a38.4,38.4,0,0,0-38.494-36.488Zm0,0" transform="translate(-80.092 -37.574)" fill="#2a2f4f"/>
    <path id="Trazado_10322" data-name="Trazado 10322" d="M133.265,77.419a39.132,39.132,0,0,1-55.343,55.34Zm0,0" transform="translate(-87.476 -24.604)" fill="#3d4159"/>
    <path id="Trazado_10323" data-name="Trazado 10323" d="M19.539,145.727H-28.488l-5.949,39.541-14.4-4.456,1.932-38.747a38.4,38.4,0,0,1,38.5-36.486l69.361.259,9.172,16.507" transform="translate(-29.093 -37.574)" fill="#3d4159"/>
    <path id="Trazado_10324" data-name="Trazado 10324" d="M18.3,105.678a38.4,38.4,0,0,0-35.576,36.389l-.181,3.662H-28.5l-5.946,39.539-14.4-4.458,1.934-38.743A38.4,38.4,0,0,1-8.416,105.579Zm0,0" transform="translate(-29.089 -37.574)" fill="#2a2f4f"/>
    <path id="Trazado_10325" data-name="Trazado 10325" d="M260.265,435.959V452a14.364,14.364,0,0,1-9.016,13.335,14.209,14.209,0,0,1-5.356,1.037A14.374,14.374,0,0,1,231.52,452V435.959a14.372,14.372,0,0,1,28.745,0Zm0,0" transform="translate(-158.221 -183.124)" fill="#bf8e75"/>
    <path id="Trazado_10326" data-name="Trazado 10326" d="M269.41,436.839v16.046a14.363,14.363,0,0,1-9.016,13.335,14.362,14.362,0,0,1-9.018-13.335V436.839a14.378,14.378,0,0,1,9.018-13.342,14.4,14.4,0,0,1,9.016,13.342Zm0,0" transform="translate(-167.366 -184.003)" fill="#d3a489"/>
  </g>
</svg>
