<svg xmlns="http://www.w3.org/2000/svg" width="276.179" height="276.179" viewBox="0 0 276.179 276.179">
  <g id="Grupo_9327" data-name="Grupo 9327" transform="translate(112 -24.001)">
    <path id="Trazado_10327" data-name="Trazado 10327" d="M164.179,162.09A138.089,138.089,0,1,1,26.089,24,138.088,138.088,0,0,1,164.179,162.09Zm0,0" fill="#66baed"/>
    <path id="Trazado_10328" data-name="Trazado 10328" d="M80.9,429.764V460.7A138.292,138.292,0,0,1-52.617,413.779,51.4,51.4,0,0,1-17.14,380.193c.8-.215,1.606-.413,2.424-.588a51.4,51.4,0,0,1,6.679-.986q2.08-.167,4.2-.169H29.578A51.267,51.267,0,0,1,40.461,379.6c.2.04.406.084.6.131.592.135,1.182.282,1.763.44a.329.329,0,0,1,.044.011A51.363,51.363,0,0,1,80.9,429.764Zm0,0" transform="translate(-27.351 -163.255)" fill="#3d4159"/>
    <path id="Trazado_10329" data-name="Trazado 10329" d="M73.185,380.591l-.125.581L55.769,461.6c-.2-.038-.4-.084-.6-.124q-2.74-.566-5.428-1.249a136.658,136.658,0,0,1-14.874-4.667c-.733-.276-1.46-.558-2.187-.847q-2.121-.844-4.2-1.747L13.046,381.179l-.124-.588Zm0,0" transform="translate(-57.538 -164.241)" fill="#61b1e2"/>
    <path id="Trazado_10330" data-name="Trazado 10330" d="M70.8,412.774,57.028,434.869,43.254,412.774" transform="translate(-71.508 -179.064)" fill="#f74f4f"/>
    <path id="Trazado_10331" data-name="Trazado 10331" d="M72.044,490.259q-2.74-.566-5.428-1.249a136.664,136.664,0,0,1-14.874-4.668c-.733-.276-1.46-.558-2.187-.847l10.377-40.416Zm0,0" transform="translate(-74.41 -193.023)" fill="#f74f4f"/>
    <path id="Trazado_10332" data-name="Trazado 10332" d="M43.053,393.226l-23.1,12.838-7.029-32.689,14.355-8.456" transform="translate(-57.538 -157.023)" fill="#2ba1cf"/>
    <path id="Trazado_10333" data-name="Trazado 10333" d="M68.781,393.226l23.1,12.838,7.027-32.689-14.356-8.456" transform="translate(-83.266 -157.023)" fill="#2ba1cf"/>
    <path id="Trazado_10334" data-name="Trazado 10334" d="M105.5,422.3h7.326L97.269,460.144c-.828.135-1.662.264-2.5.388a135.241,135.241,0,0,1-13.588-2.709l23.441-82.454,15.809,7.975Zm0,0" transform="translate(-88.978 -161.836)" fill="#2a2f4f"/>
    <path id="Trazado_10335" data-name="Trazado 10335" d="M21.224,453.641a137.022,137.022,0,0,1-22-10.626l-8.314-20.228h7.328L-16.7,383.829l15.98-7.406Zm0,0" transform="translate(-43.893 -162.322)" fill="#2a2f4f"/>
    <path id="Trazado_10336" data-name="Trazado 10336" d="M71.462,341.8v22.47a18.309,18.309,0,0,1-36.618,0V341.8Zm0,0" transform="translate(-67.635 -146.375)" fill="#eab599"/>
    <path id="Trazado_10337" data-name="Trazado 10337" d="M80.838,380.817v1.425a18.307,18.307,0,0,1-12.9,17.489A18.3,18.3,0,0,1,55.2,384.625q1.833.114,3.687.114a63.341,63.341,0,0,0,21.951-3.922Zm0,0" transform="translate(-77.01 -164.345)" fill="#f6caae"/>
    <path id="Trazado_10338" data-name="Trazado 10338" d="M-53.4,258.995A17.028,17.028,0,0,1-67.7,275.8a16.8,16.8,0,0,1-2.727.22,17.025,17.025,0,0,1-17.027-17.028A17.024,17.024,0,0,1-70.426,241.97a16.8,16.8,0,0,1,2.727.219,17.028,17.028,0,0,1,14.3,16.806Zm0,0" transform="translate(-11.306 -100.394)" fill="#f6caae"/>
    <path id="Trazado_10339" data-name="Trazado 10339" d="M-38.46,259.182a17.028,17.028,0,0,1-14.3,16.808,63.65,63.65,0,0,1,0-33.614,17.028,17.028,0,0,1,14.3,16.806Zm0,0" transform="translate(-26.244 -100.581)" fill="#eab599"/>
    <path id="Trazado_10340" data-name="Trazado 10340" d="M-55,268.336a6.086,6.086,0,0,1-6.086,6.087,6.085,6.085,0,0,1-6.085-6.087,6.085,6.085,0,0,1,6.085-6.085A6.085,6.085,0,0,1-55,268.336Zm0,0" transform="translate(-20.649 -109.735)" fill="#eab599"/>
    <path id="Trazado_10341" data-name="Trazado 10341" d="M161.9,258.995a17.028,17.028,0,0,0,14.3,16.808,16.827,16.827,0,0,0,2.729.22,17.026,17.026,0,1,0,0-34.053,16.825,16.825,0,0,0-2.729.219,17.027,17.027,0,0,0-14.3,16.806Zm0,0" transform="translate(-126.153 -100.394)" fill="#f6caae"/>
    <path id="Trazado_10342" data-name="Trazado 10342" d="M161.9,259.182a17.028,17.028,0,0,0,14.3,16.808,63.591,63.591,0,0,0,0-33.614,17.027,17.027,0,0,0-14.3,16.806Zm0,0" transform="translate(-126.153 -100.581)" fill="#eab599"/>
    <path id="Trazado_10343" data-name="Trazado 10343" d="M78.043,157.946V182.07A63.349,63.349,0,0,1,24.86,244.6c-.1.017-.209.033-.312.052a62.439,62.439,0,0,1-9.857.765A63.348,63.348,0,0,1-48.656,182.07V157.832a63,63,0,0,1,3.58-20.911A63.361,63.361,0,0,1,14.691,94.6H14.7a63.292,63.292,0,0,1,63.345,63.351Zm0,0" transform="translate(-29.176 -32.515)" fill="#eab599"/>
    <path id="Trazado_10344" data-name="Trazado 10344" d="M194.35,268.336a6.085,6.085,0,1,1-6.085-6.085,6.085,6.085,0,0,1,6.085,6.085Zm0,0" transform="translate(-135.496 -109.735)" fill="#eab599"/>
    <path id="Trazado_10345" data-name="Trazado 10345" d="M94.89,158.6v24.124a63.349,63.349,0,0,1-53.184,62.527c-.1.017-.209.033-.31.052a63.355,63.355,0,0,1-53.478-62.58V158.6A63.362,63.362,0,0,1,41.406,96.013,63.362,63.362,0,0,1,94.89,158.6Zm0,0" transform="translate(-46.021 -33.168)" fill="#f6caae"/>
    <path id="Trazado_10346" data-name="Trazado 10346" d="M31.505,238.561a7.186,7.186,0,1,1-7.187-7.185,7.187,7.187,0,0,1,7.187,7.185Zm0,0" transform="translate(-59.477 -95.515)" fill="#3d4159"/>
    <path id="Trazado_10347" data-name="Trazado 10347" d="M108.173,238.561a7.186,7.186,0,1,1-7.187-7.185,7.187,7.187,0,0,1,7.187,7.185Zm0,0" transform="translate(-94.79 -95.515)" fill="#3d4159"/>
    <path id="Trazado_10348" data-name="Trazado 10348" d="M35.8,239.716a3.078,3.078,0,1,1-3.078-3.078,3.08,3.08,0,0,1,3.078,3.078Zm0,0" transform="translate(-65.24 -97.938)" fill="#fff"/>
    <path id="Trazado_10349" data-name="Trazado 10349" d="M113.124,239.716a3.08,3.08,0,1,1-3.078-3.078,3.08,3.08,0,0,1,3.078,3.078Zm0,0" transform="translate(-100.853 -97.938)" fill="#fff"/>
    <path id="Trazado_10350" data-name="Trazado 10350" d="M68.333,275.036H52.626a3.1,3.1,0,0,1,0-6.2H68.333a3.1,3.1,0,0,1,0,6.2Zm0,0" transform="translate(-74.397 -112.769)" fill="#eab599"/>
    <path id="Trazado_10351" data-name="Trazado 10351" d="M54.353,306.681a32.007,32.007,0,0,1-15.445-3.989,2.818,2.818,0,0,1,2.714-4.939,26.293,26.293,0,0,0,25.46,0,2.818,2.818,0,0,1,2.714,4.939,32,32,0,0,1-15.443,3.989Zm0,0" transform="translate(-68.833 -125.926)" fill="#eab599"/>
    <path id="Trazado_10352" data-name="Trazado 10352" d="M78.046,127.9v24.71H66.255V133.264l-85.109-15.816L-36.861,114.1v38.513H-48.652V127.9a51,51,0,0,1,51-51h24.7c.67,0,1.342.011,2.012.046A50.988,50.988,0,0,1,78.046,127.9Zm0,0" transform="translate(-29.177 -24.364)" fill="#2a2f4f"/>
    <path id="Trazado_10353" data-name="Trazado 10353" d="M103.49,127.943v24.71H91.7V133.3L6.59,117.487A51.006,51.006,0,0,1,54.5,76.985a50.988,50.988,0,0,1,48.985,50.958Zm0,0" transform="translate(-54.621 -24.404)" fill="#3d4159"/>
    <path id="Trazado_10354" data-name="Trazado 10354" d="M152.921,393.228l-7.3.327a7.5,7.5,0,0,1-7.817-7.154l-1.049-23.452a7.39,7.39,0,0,1,.474-2.958,7.483,7.483,0,0,1,6.679-4.859l7.293-.326,1.117,24.922Zm0,0" transform="translate(-114.571 -152.365)" fill="#bfd5de"/>
    <path id="Trazado_10355" data-name="Trazado 10355" d="M152.729,379.728l-6.7.3a7.494,7.494,0,0,1-7.817-7.153l-.575-12.883a7.483,7.483,0,0,1,6.679-4.859l7.293-.326Zm0,0" transform="translate(-114.982 -152.365)" fill="#dde8ed"/>
    <path id="Trazado_10356" data-name="Trazado 10356" d="M217.235,439.235a22.838,22.838,0,0,0,17.641-20.615L204.21,382.431l-9.417,44.836Zm0,0" transform="translate(-141.305 -165.089)" fill="#3f4954"/>
    <path id="Trazado_10357" data-name="Trazado 10357" d="M214.07,484.083a136.847,136.847,0,0,1-23.294,7.406L182.7,458.3l-2.468-10.677,25.161-1.121,2.467,10.67Zm0,0" transform="translate(-134.598 -194.6)" fill="#f74f4f"/>
    <path id="Trazado_10358" data-name="Trazado 10358" d="M207.858,450.255,182.7,451.38l-2.466-10.674,7.624-9.225,17.539,8.1Zm0,0" transform="translate(-134.598 -187.681)" fill="#dd3033"/>
    <path id="Trazado_10359" data-name="Trazado 10359" d="M327.527,385.761a25.177,25.177,0,0,0-2.042-45.662l-19.314,20.569Zm0,0" transform="translate(-192.605 -145.591)" fill="#ffe152"/>
    <path id="Trazado_10360" data-name="Trazado 10360" d="M343.335,381.708a25.163,25.163,0,0,1-13.586,23.218L311,382.892l18.209,9.888c8.388-2.579,14.2-5.5,14.13-11.073Zm0,0" transform="translate(-194.827 -164.756)" fill="#e8c934"/>
    <path id="Trazado_10361" data-name="Trazado 10361" d="M308.826,382.1l-2.541-1.667.742-.449Zm0,0" transform="translate(-192.657 -163.96)" fill="#489dcf"/>
    <path id="Trazado_10362" data-name="Trazado 10362" d="M300.233,372.4a138.123,138.123,0,0,1-12.192,13.725L249.113,377l-2.836-63.352L296.858,296.9Zm0,0" transform="translate(-165.018 -125.692)" fill="#f74f4f"/>
    <path id="Trazado_10363" data-name="Trazado 10363" d="M301.692,419.344A138.129,138.129,0,0,1,289.5,433.069l-38.928-9.132-1.127-25.131,51.413,1.928Zm0,0" transform="translate(-166.477 -172.631)" fill="#dd3033"/>
    <path id="Trazado_10364" data-name="Trazado 10364" d="M205.891,327.954l-38.462,1.72a9.254,9.254,0,0,0-8.831,9.657l2.008,44.864a9.252,9.252,0,0,0,9.655,8.829l38.464-1.719" transform="translate(-124.63 -139.997)" fill="#ffe152"/>
    <path id="Trazado_10365" data-name="Trazado 10365" d="M177.885,385.381a9.255,9.255,0,0,1-9.657-8.829l-2.006-44.864c0-.1,0-.2,0-.3a9.255,9.255,0,0,0-7.621,9.52l2.008,44.864a9.252,9.252,0,0,0,9.655,8.831l38.464-1.721-.4-8.865Zm0,0" transform="translate(-124.63 -141.581)" fill="#e8c934"/>
    <path id="Trazado_10366" data-name="Trazado 10366" d="M175.885,360.348a3.167,3.167,0,0,1,2-5.5l20.264-.908a3.17,3.17,0,0,1,.284,6.334l-20.264.906a3.151,3.151,0,0,1-2.282-.828Zm0,0" transform="translate(-132.121 -151.963)" fill="#2a2f4f"/>
    <path id="Trazado_10367" data-name="Trazado 10367" d="M176.857,382.074a3.169,3.169,0,0,1,2-5.506l20.264-.906a3.169,3.169,0,1,1,.284,6.332l-20.266.906a3.163,3.163,0,0,1-2.28-.826Zm0,0" transform="translate(-132.569 -161.97)" fill="#2a2f4f"/>
    <path id="Trazado_10368" data-name="Trazado 10368" d="M177.83,403.8a3.169,3.169,0,0,1,2-5.506l20.264-.906a3.169,3.169,0,1,1,.283,6.332l-20.264.906a3.147,3.147,0,0,1-2.28-.826Zm0,0" transform="translate(-133.018 -171.975)" fill="#2a2f4f"/>
    <rect id="Rectángulo_6099" data-name="Rectángulo 6099" width="112.084" height="84.251" transform="translate(43.079 45.615)" fill="#f2f0ec"/>
    <path id="Trazado_10369" data-name="Trazado 10369" d="M270.778,209.216,258.742,237.8,311.4,207.712Zm0,0" transform="translate(-170.759 -84.615)" fill="#f2f0ec"/>
    <path id="Trazado_10370" data-name="Trazado 10370" d="M243.506,137.778a7.243,7.243,0,1,1-7.244-7.242,7.242,7.242,0,0,1,7.244,7.242Zm0,0" transform="translate(-157.07 -49.069)" fill="#3d4159"/>
    <path id="Trazado_10371" data-name="Trazado 10371" d="M279.14,137.778a7.242,7.242,0,1,1-7.242-7.242,7.241,7.241,0,0,1,7.242,7.242Zm0,0" transform="translate(-173.483 -49.069)" fill="#3d4159"/>
    <path id="Trazado_10372" data-name="Trazado 10372" d="M314.773,137.778a7.242,7.242,0,1,1-7.242-7.242,7.24,7.24,0,0,1,7.242,7.242Zm0,0" transform="translate(-189.896 -49.069)" fill="#3d4159"/>
  </g>
</svg>
