<svg xmlns="http://www.w3.org/2000/svg" width="217.805" height="209.293" viewBox="0 0 217.805 209.293">
  <g id="Grupo_10666" data-name="Grupo 10666" transform="translate(-833.5 -11184.744)">
    <path id="Trazado_10856" data-name="Trazado 10856" d="M484.361,315.372c.1-.373.19-.75.282-1.126C484.552,314.622,484.456,315,484.361,315.372Z" transform="translate(555.187 10999.922)" fill="#afe6ff"/>
    <path id="Trazado_10857" data-name="Trazado 10857" d="M152.253,10.006c-40.27,0-65.075,22.713-65.144,22.751-1.554,7.174-4.257,17.585-4.257,25.224,0,57.794,48.738,104.635,106.532,104.635,24.629,0,47.259-11.467,65.134-25.706a102.429,102.429,0,0,0,2.381-22.258A104.646,104.646,0,0,0,152.253,10.006Z" transform="translate(785.893 11174.738)" fill="#66baed"/>
    <path id="Trazado_10858" data-name="Trazado 10858" d="M206.912,167.641A104.675,104.675,0,0,1,39.5,63.488l-.007.006A104.649,104.649,0,1,0,206.048,171.286c.1-.375.191-.75.282-1.126.043-.179.438-1.856.582-2.52Z" transform="translate(833.5 11144.008)" fill="#4aa5dc"/>
    <g id="Grupo_10633" data-name="Grupo 10633" transform="translate(861.147 11198.58)">
      <g id="Grupo_10624" data-name="Grupo 10624">
        <g id="Grupo_10620" data-name="Grupo 10620" transform="translate(4.495)">
          <path id="Trazado_10859" data-name="Trazado 10859" d="M255.959,134.979a92.1,92.1,0,0,1-22.974,60.994c-16.943,19.283-41.787,26.61-69.474,26.61-51.058,0-87.954-38.184-87.954-89.242,0-38.839,19.456-70.446,53.393-84.133a92.5,92.5,0,0,1,127.009,85.772Z" transform="translate(-75.557 -42.531)" fill="#f1d333"/>
        </g>
        <g id="Grupo_10621" data-name="Grupo 10621" transform="translate(124.659 19.846)">
          <path id="Trazado_10860" data-name="Trazado 10860" d="M368.979,103.094a5.3,5.3,0,0,1-2.856-.834c-1.694-1.078-3.454-2.1-5.233-3.025a5.328,5.328,0,1,1,4.935-9.444c2.046,1.069,4.072,2.24,6.02,3.48a5.329,5.329,0,0,1-2.866,9.824Z" transform="translate(-358.029 -89.183)" fill="#f9ef63"/>
        </g>
        <g id="Grupo_10622" data-name="Grupo 10622" transform="translate(69.642 11.144)">
          <path id="Trazado_10861" data-name="Trazado 10861" d="M275.077,83.112a5.315,5.315,0,0,1-1.652-.264,71.158,71.158,0,0,0-38.175-1.586,5.328,5.328,0,1,1-2.441-10.373,81.813,81.813,0,0,1,43.919,1.828,5.329,5.329,0,0,1-1.65,10.395Z" transform="translate(-228.699 -68.728)" fill="#f9ef63"/>
        </g>
        <g id="Grupo_10623" data-name="Grupo 10623" transform="translate(0 6.682)">
          <path id="Trazado_10862" data-name="Trazado 10862" d="M192.352,211.677a92.443,92.443,0,0,1-69.47-153.438A92.456,92.456,0,1,0,226.91,205,92.177,92.177,0,0,1,192.352,211.677Z" transform="translate(-64.991 -58.239)" fill="#eab14d"/>
        </g>
      </g>
      <g id="Grupo_10625" data-name="Grupo 10625" transform="translate(86.924 119.549)">
        <path id="Trazado_10863" data-name="Trazado 10863" d="M317.532,329.46a51.288,51.288,0,0,1-15.568,2.377,48.49,48.49,0,0,1-26.691-7.653,3.7,3.7,0,0,0-5.739,2.653,32.666,32.666,0,0,0,25.011,35.486l3.094-.51a24.284,24.284,0,0,0,20.295-25.351Z" transform="translate(-269.326 -323.557)" fill="#a55a3c"/>
      </g>
      <g id="Grupo_10627" data-name="Grupo 10627" transform="translate(112.143 119.55)">
        <g id="Grupo_10626" data-name="Grupo 10626">
          <path id="Trazado_10864" data-name="Trazado 10864" d="M368.458,326.832a3.7,3.7,0,0,0-5.742-2.645,44.809,44.809,0,0,1-11.123,5.268c.028.553.045,1.108.045,1.668a32.652,32.652,0,0,1-23.029,31.2,32.624,32.624,0,0,0,40.058-31.781A32.957,32.957,0,0,0,368.458,326.832Z" transform="translate(-328.609 -323.56)" fill="#783c28"/>
        </g>
      </g>
      <g id="Grupo_10628" data-name="Grupo 10628" transform="translate(51.422 35.316)">
        <path id="Trazado_10865" data-name="Trazado 10865" d="M232.947,125.774a18.266,18.266,0,0,0-13.472,9.695,2.305,2.305,0,0,1-3.53.689,18.262,18.262,0,0,0-15.368-3.96c-14.777,2.94-21.636,22.9-5.1,33.946l29.45,17.824a3.43,3.43,0,0,0,4.551-.918l21.47-29.535c8.825-13.287-2.729-30.115-18-27.742Z" transform="translate(-185.869 -125.548)" fill="#dd6938"/>
      </g>
      <g id="Grupo_10629" data-name="Grupo 10629" transform="translate(122.016 35.316)">
        <path id="Trazado_10866" data-name="Trazado 10866" d="M372.881,125.774a18.266,18.266,0,0,1,13.472,9.695,2.305,2.305,0,0,0,3.53.689,18.262,18.262,0,0,1,15.368-3.96c14.777,2.94,21.636,22.9,5.1,33.946L380.9,183.969a3.43,3.43,0,0,1-4.551-.918l-21.47-29.535C346.055,140.229,357.609,123.4,372.881,125.774Z" transform="translate(-351.818 -125.548)" fill="#dd6938"/>
      </g>
      <g id="Grupo_10630" data-name="Grupo 10630" transform="translate(122.016 35.413)">
        <path id="Trazado_10867" data-name="Trazado 10867" d="M389.58,175.158l-21.47-29.535a17.531,17.531,0,0,1,.034-19.847c-12.767,1.306-21.149,16-13.264,27.871l21.47,29.535a3.43,3.43,0,0,0,4.551.918l12.6-7.626c-.057-.014-.113-.031-.168-.048A3.43,3.43,0,0,1,389.58,175.158Z" transform="translate(-351.817 -125.776)" fill="#d80a61"/>
      </g>
      <g id="Grupo_10632" data-name="Grupo 10632" transform="translate(51.421 41.618)">
        <g id="Grupo_10631" data-name="Grupo 10631" transform="translate(0)">
          <path id="Trazado_10868" data-name="Trazado 10868" d="M210.679,166.633c-11.013-7.357-11.646-18.667-6.476-26.27a18.366,18.366,0,0,0-3.626.348c-14.777,2.94-21.636,22.9-5.1,33.946l29.45,17.824a3.43,3.43,0,0,0,4.551-.918l6.843-9.413Z" transform="translate(-185.868 -140.363)" fill="#d80a61"/>
        </g>
      </g>
    </g>
  </g>
</svg>
