<svg xmlns="http://www.w3.org/2000/svg" width="602.729" height="394.183" viewBox="0 0 602.729 394.183">
  <g id="Grupo_9597" data-name="Grupo 9597" transform="translate(-74.523 -61.79)">
    <g id="Grupo_9332" data-name="Grupo 9332">
      <g id="Grupo_9331" data-name="Grupo 9331">
        <g id="Grupo_9328" data-name="Grupo 9328">
          <path id="Trazado_10373" data-name="Trazado 10373" d="M183.734,396.78c10.848-7.573,14.5-16.9,15.733-30.074a46.4,46.4,0,0,0-12.843-36.246c-7.713-7.883-18.328-13.061-24.071-22.476-6.122-10.035-5.912-23.712-14.414-31.829-5.841-5.577-14.381-7.069-21.476-10.926-5.79-3.148-10.558-7.848-15.856-11.767s-11.585-7.173-18.157-6.68c-9.913.745-17.628,10.48-18.1,20.41s5.072,19.427,12.651,25.86c5.5,4.666,12.265,8.239,15.866,14.485,6.765,11.732-.3,28.033,6.961,39.464,5.3,8.347,17.327,12.343,19,22.091.614,3.585-.4,7.24-.372,10.877.086,11.375,10.719,20.538,21.913,22.556s22.619-1.491,33.168-5.745" fill="#f5f5f5"/>
        </g>
        <g id="Grupo_9330" data-name="Grupo 9330">
          <g id="Grupo_9329" data-name="Grupo 9329">
            <path id="Trazado_10374" data-name="Trazado 10374" d="M114.129,286.754a8.94,8.94,0,0,0,1.193,1.331l3.6,3.616c1.592,1.539,3.507,3.451,5.594,5.8,2.105,2.333,4.623,4.879,7.088,7.975l3.973,4.767c1.373,1.663,2.664,3.5,4.078,5.347,2.88,3.651,5.589,7.816,8.525,12.136a240.537,240.537,0,0,1,16.272,29.8,240.565,240.565,0,0,1,11.482,31.961c1.282,5.064,2.6,9.856,3.415,14.434.44,2.281.958,4.469,1.29,6.6s.631,4.177.927,6.135c.679,3.9.91,7.473,1.257,10.6.375,3.122.532,5.824.626,8.035.13,2.1.235,3.789.315,5.091a8.861,8.861,0,0,0,.2,1.775,8.71,8.71,0,0,0,.071-1.78c-.015-1.307-.036-3-.061-5.109-.013-2.22-.093-4.935-.4-8.075-.276-3.141-.442-6.736-1.063-10.662q-.4-2.958-.844-6.177c-.306-2.147-.8-4.35-1.219-6.649-.775-4.612-2.056-9.44-3.312-14.543a231.263,231.263,0,0,0-11.451-32.19,231.229,231.229,0,0,0-16.464-29.928c-2.981-4.326-5.741-8.49-8.675-12.132-1.441-1.838-2.759-3.671-4.161-5.325l-4.059-4.733c-2.523-3.07-5.1-5.582-7.267-7.874-2.147-2.311-4.123-4.174-5.776-5.659l-3.78-3.438A8.721,8.721,0,0,0,114.129,286.754Z" fill="#e0e0e0"/>
          </g>
        </g>
      </g>
    </g>
    <g id="Grupo_9348" data-name="Grupo 9348">
      <g id="Grupo_9333" data-name="Grupo 9333">
        <path id="Trazado_10375" data-name="Trazado 10375" d="M670.063,202.218s-9.54-6.307-21.169,16.511-16.035,35.977-16.035,35.977-3.074,4.781-6.358,1.656-7.782-11.99-13.364-10.393c-5.789,1.655-7.7,8.116-6.592,17.61s2.759,30.383,2.9,32.273c.14,1.855-.922,4.587-3.5,2.817s-17.411-18.288-24.828-10.781.005,33.451.762,36.3.2,4.07-1.156,4.776-5.817-5.317-10.228-9.842-10.319-9-14.235-4.309-5.169,24.156,13.357,55.775l9.543,14.089,17.066-.947c36.4-4.252,51.185-16.976,52.57-22.926s-5.744-7.973-12.013-8.769-13.764-.732-14.016-2.239.384-2.685,3.116-3.8,27.913-10.813,29.44-21.255-20.593-12.335-23.559-13.327-1.424-3.486.141-4.492c1.594-1.024,19.268-12.282,27.512-17.119s12.254-10.249,10.089-15.868c-2.088-5.417-11.874-3.669-16.346-4.409s-2.507-6.073-2.507-6.073,7.852-11.442,19.065-34.468.142-26.885.142-26.885" fill="#ebebeb"/>
      </g>
      <g id="Grupo_9335" data-name="Grupo 9335">
        <g id="Grupo_9334" data-name="Grupo 9334">
          <path id="Trazado_10376" data-name="Trazado 10376" d="M659.613,222.636s-.063.171-.211.494q-.238.51-.666,1.427c-.607,1.27-1.484,3.108-2.61,5.466-2.271,4.744-5.607,11.585-9.761,20.022-8.3,16.878-19.964,40.1-32.927,65.7s-24.683,48.8-33.069,65.637l-9.911,19.945-2.7,5.421-.714,1.4c-.163.315-.259.471-.259.471s.063-.172.211-.494l.666-1.427,2.609-5.465c2.272-4.744,5.607-11.584,9.761-20.022,8.3-16.877,19.965-40.1,32.933-65.708s24.677-48.791,33.063-65.625l9.911-19.947c1.164-2.339,2.072-4.162,2.7-5.421.306-.6.543-1.07.714-1.4C659.517,222.791,659.613,222.636,659.613,222.636Z" fill="#e0e0e0"/>
        </g>
      </g>
      <g id="Grupo_9337" data-name="Grupo 9337">
        <g id="Grupo_9336" data-name="Grupo 9336">
          <path id="Trazado_10377" data-name="Trazado 10377" d="M618.93,258.623a5.531,5.531,0,0,1,.429,1.155c.246.751.57,1.849.959,3.209.77,2.72,1.739,6.505,2.733,10.7.964,4.142,1.837,7.886,2.5,10.751.309,1.289.569,2.376.779,3.251a5.51,5.51,0,0,1,.239,1.207,5.577,5.577,0,0,1-.437-1.151c-.245-.753-.57-1.851-.943-3.215-.744-2.729-1.663-6.525-2.656-10.721l-2.581-10.727-.795-3.249A5.379,5.379,0,0,1,618.93,258.623Z" fill="#e0e0e0"/>
        </g>
      </g>
      <g id="Grupo_9339" data-name="Grupo 9339">
        <g id="Grupo_9338" data-name="Grupo 9338">
          <path id="Trazado_10378" data-name="Trazado 10378" d="M628.136,289.2c-.04-.14,7.675-2.481,17.23-5.228s17.337-4.86,17.377-4.72-7.673,2.481-17.231,5.228S628.177,289.338,628.136,289.2Z" fill="#e0e0e0"/>
        </g>
      </g>
      <g id="Grupo_9341" data-name="Grupo 9341">
        <g id="Grupo_9340" data-name="Grupo 9340">
          <path id="Trazado_10379" data-name="Trazado 10379" d="M606.453,327.622a5.655,5.655,0,0,1,1.256-.058l3.415.012c2.882.006,6.863,0,11.255-.174s8.366-.444,11.239-.673l3.4-.267a5.8,5.8,0,0,1,1.256-.039,5.64,5.64,0,0,1-1.233.243c-.8.121-1.956.276-3.391.435-2.869.325-6.848.668-11.255.83s-8.4.12-11.283.019c-1.442-.057-2.609-.116-3.414-.18A5.811,5.811,0,0,1,606.453,327.622Z" fill="#e0e0e0"/>
        </g>
      </g>
      <g id="Grupo_9343" data-name="Grupo 9343">
        <g id="Grupo_9342" data-name="Grupo 9342">
          <path id="Trazado_10380" data-name="Trazado 10380" d="M592.039,301.8a4.894,4.894,0,0,1,.666.952l1.646,2.694c1.371,2.287,3.232,5.464,5.259,8.989s3.839,6.733,5.126,9.067q.887,1.642,1.5,2.778a4.98,4.98,0,0,1,.488,1.055,4.952,4.952,0,0,1-.667-.952q-.67-1.1-1.646-2.694c-1.37-2.287-3.232-5.464-5.26-8.991s-3.837-6.731-5.125-9.066l-1.5-2.778A4.864,4.864,0,0,1,592.039,301.8Z" fill="#e0e0e0"/>
        </g>
      </g>
      <g id="Grupo_9345" data-name="Grupo 9345">
        <g id="Grupo_9344" data-name="Grupo 9344">
          <path id="Trazado_10381" data-name="Trazado 10381" d="M568.587,333.289a8,8,0,0,1,.84,1.226c.554.9,1.267,2.055,2.123,3.445,1.773,2.921,4.19,6.974,6.832,11.467s5.009,8.579,6.7,11.548l1.978,3.53a8.136,8.136,0,0,1,.663,1.331,8.01,8.01,0,0,1-.841-1.227l-2.123-3.445c-1.772-2.92-4.19-6.974-6.832-11.469s-5.008-8.576-6.7-11.545l-1.978-3.53A7.984,7.984,0,0,1,568.587,333.289Z" fill="#e0e0e0"/>
        </g>
      </g>
      <g id="Grupo_9347" data-name="Grupo 9347">
        <g id="Grupo_9346" data-name="Grupo 9346">
          <path id="Trazado_10382" data-name="Trazado 10382" d="M587.483,364.929a9.116,9.116,0,0,1,1.589-.113l4.33-.142c3.656-.123,8.7-.312,14.271-.679s10.6-.815,14.241-1.171l4.313-.419a9.181,9.181,0,0,1,1.589-.094,9.233,9.233,0,0,1-1.564.3c-1.012.158-2.479.363-4.3.586-3.633.452-8.669.969-14.248,1.328s-10.636.5-14.3.525c-1.831.009-3.313,0-4.337-.027A9.284,9.284,0,0,1,587.483,364.929Z" fill="#e0e0e0"/>
        </g>
      </g>
    </g>
    <g id="Grupo_9351" data-name="Grupo 9351">
      <g id="Grupo_9350" data-name="Grupo 9350">
        <g id="Grupo_9349" data-name="Grupo 9349">
          <path id="Trazado_10383" data-name="Trazado 10383" d="M464.468,87.408h163.98a5.412,5.412,0,0,1,5.412,5.412v45.492a5.412,5.412,0,0,1-5.412,5.412H496.968l-17.185,17.185V143.724H464.468a4.013,4.013,0,0,1-4.013-4.013V91.421A4.013,4.013,0,0,1,464.468,87.408Z" fill="#e0e0e0"/>
        </g>
      </g>
      <path id="Trazado_10384" data-name="Trazado 10384" d="M491.925,111.918l6.5.764a1.013,1.013,0,0,1,.609,1.712l-4.563,4.7a1.014,1.014,0,0,0-.267.9l1.283,6.423a1.013,1.013,0,0,1-1.44,1.108l-5.878-2.888a1.012,1.012,0,0,0-.943.025l-5.712,3.206a1.014,1.014,0,0,1-1.5-1.028l.93-6.483a1.012,1.012,0,0,0-.315-.889l-4.814-4.441a1.014,1.014,0,0,1,.514-1.744l6.454-1.118a1.013,1.013,0,0,0,.747-.575l2.737-5.951a1.013,1.013,0,0,1,1.817-.049l3.058,5.791A1.014,1.014,0,0,0,491.925,111.918Z" fill="#fafafa"/>
      <path id="Trazado_10385" data-name="Trazado 10385" d="M521.55,111.918l6.505.764a1.013,1.013,0,0,1,.608,1.712l-4.563,4.7a1.017,1.017,0,0,0-.267.9l1.284,6.423a1.014,1.014,0,0,1-1.441,1.108L517.8,124.64a1.012,1.012,0,0,0-.943.025l-5.712,3.206a1.014,1.014,0,0,1-1.5-1.028l.931-6.483a1.015,1.015,0,0,0-.316-.889l-4.814-4.441a1.014,1.014,0,0,1,.514-1.744l6.454-1.118a1.013,1.013,0,0,0,.747-.575l2.737-5.951a1.013,1.013,0,0,1,1.817-.049l3.058,5.791A1.015,1.015,0,0,0,521.55,111.918Z" fill="#fafafa"/>
      <path id="Trazado_10386" data-name="Trazado 10386" d="M551.175,111.918l6.505.764a1.013,1.013,0,0,1,.608,1.712l-4.563,4.7a1.017,1.017,0,0,0-.267.9l1.284,6.423a1.014,1.014,0,0,1-1.441,1.108l-5.878-2.888a1.012,1.012,0,0,0-.943.025l-5.712,3.206a1.013,1.013,0,0,1-1.5-1.028l.93-6.483a1.015,1.015,0,0,0-.316-.889l-4.813-4.441a1.014,1.014,0,0,1,.514-1.744l6.453-1.118a1.011,1.011,0,0,0,.747-.575l2.737-5.951a1.013,1.013,0,0,1,1.817-.049l3.058,5.791A1.015,1.015,0,0,0,551.175,111.918Z" fill="#fafafa"/>
      <path id="Trazado_10387" data-name="Trazado 10387" d="M580.8,111.918l6.505.764a1.013,1.013,0,0,1,.609,1.712l-4.564,4.7a1.014,1.014,0,0,0-.266.9l1.283,6.423a1.013,1.013,0,0,1-1.44,1.108l-5.879-2.888a1.012,1.012,0,0,0-.943.025l-5.711,3.206a1.013,1.013,0,0,1-1.5-1.028l.93-6.483a1.015,1.015,0,0,0-.316-.889L564.7,115.03a1.014,1.014,0,0,1,.514-1.744l6.453-1.118a1.015,1.015,0,0,0,.748-.575l2.737-5.951a1.013,1.013,0,0,1,1.816-.049l3.058,5.791A1.015,1.015,0,0,0,580.8,111.918Z" fill="#fafafa"/>
      <path id="Trazado_10388" data-name="Trazado 10388" d="M610.425,111.918l6.505.764a1.013,1.013,0,0,1,.609,1.712l-4.563,4.7a1.011,1.011,0,0,0-.267.9l1.283,6.423a1.013,1.013,0,0,1-1.44,1.108l-5.879-2.888a1.01,1.01,0,0,0-.942.025l-5.712,3.206a1.014,1.014,0,0,1-1.5-1.028l.93-6.483a1.015,1.015,0,0,0-.316-.889l-4.813-4.441a1.014,1.014,0,0,1,.514-1.744l6.453-1.118a1.015,1.015,0,0,0,.748-.575l2.737-5.951a1.013,1.013,0,0,1,1.816-.049l3.059,5.791A1.012,1.012,0,0,0,610.425,111.918Z" fill="#c1c1c1"/>
    </g>
    <g id="Grupo_9375" data-name="Grupo 9375">
      <g id="Grupo_9354" data-name="Grupo 9354">
        <g id="Grupo_9353" data-name="Grupo 9353">
          <g id="Grupo_9352" data-name="Grupo 9352">
            <path id="Trazado_10389" data-name="Trazado 10389" d="M576.038,430.876c-17.177-16.7-17.478-42.555-13.029-65.025.742-3.75.976-7.794,3.309-10.811s6.889-4.6,10.007-2.456c2.586,1.775,3.276,5.232,4.4,8.181a22.357,22.357,0,0,0,7.469,9.891c2.2,1.637,5.045,2.884,7.629,1.963,3.546-1.265,4.662-5.7,5.25-9.453q1.644-10.5,3.287-20.995c.588-3.755,1.2-7.587,2.948-10.957s4.864-6.257,8.595-6.676,7.81,2.359,7.965,6.154c.064,1.579-.505,3.114-.655,4.688s.3,3.415,1.7,4.09c1.426.684,3.1-.135,4.4-1.05,4.489-3.157,7.911-7.608,11.158-12.06s6.438-9.031,10.625-12.59,9.579-6.04,15-5.469,10.605,4.82,11.1,10.315c.5,5.511-3.461,10.374-7.516,14.107A84.871,84.871,0,0,1,649.551,346.5c-1.319.646-2.749,1.344-3.427,2.66-1.223,2.368.742,5.238,3.077,6.462,2.645,1.387,5.726,1.592,8.6,2.412s5.827,2.628,6.483,5.573c.912,4.084-2.95,7.581-6.534,9.7a72.716,72.716,0,0,1-23.226,8.795c-2.924.559-5.972.972-8.514,2.548s-4.433,4.729-3.52,7.59,4.227,4.272,7.205,4.207,5.821-1.213,8.745-1.8c5.472-1.106,12.071.335,14.647,5.328,1.693,3.282,1.22,7.391-.447,10.7a27.723,27.723,0,0,1-7.2,8.345c-9.842,8.347-21.691,14.427-34.326,16.625s-23.9,1.514-35.073-4.769" fill="#8fc4e8"/>
          </g>
        </g>
      </g>
      <g id="Grupo_9358" data-name="Grupo 9358">
        <g id="Grupo_9357" data-name="Grupo 9357">
          <g id="Grupo_9356" data-name="Grupo 9356">
            <g id="Grupo_9355" data-name="Grupo 9355">
              <path id="Trazado_10390" data-name="Trazado 10390" d="M573.011,447.579a166.859,166.859,0,0,1,11.168-29.917,340.452,340.452,0,0,1,19.24-34.015l5.5-8.657c1.812-2.837,3.609-5.651,5.537-8.294A169.889,169.889,0,0,1,626.4,352.141c4.024-4.446,8.005-8.518,11.754-12.3s7.33-7.226,10.718-10.233A135,135,0,0,1,665.9,316.624c2.123-1.371,3.8-2.38,4.954-3.049l1.311-.752a2.739,2.739,0,0,1,.459-.235,2.7,2.7,0,0,1-.422.3l-1.276.812c-1.124.708-2.781,1.754-4.879,3.157a142.765,142.765,0,0,0-16.849,13.13c-3.357,3.022-6.9,6.486-10.635,10.272s-7.688,7.877-11.69,12.323A171.951,171.951,0,0,0,615.009,367.1c-1.913,2.632-3.691,5.422-5.5,8.268l-5.5,8.654a348.983,348.983,0,0,0-19.252,33.919,169.708,169.708,0,0,0-11.267,29.762" fill="#282b38"/>
            </g>
          </g>
        </g>
      </g>
      <g id="Grupo_9362" data-name="Grupo 9362">
        <g id="Grupo_9361" data-name="Grupo 9361">
          <g id="Grupo_9360" data-name="Grupo 9360">
            <g id="Grupo_9359" data-name="Grupo 9359">
              <path id="Trazado_10391" data-name="Trazado 10391" d="M614.659,366.7a7.653,7.653,0,0,1-.106-1.66c-.028-1.069-.018-2.615.023-4.527.079-3.821.367-9.1.707-14.908s.552-11.078.572-14.89c.015-1.906.012-3.449,0-4.515a7.706,7.706,0,0,1,.056-1.663,7.486,7.486,0,0,1,.216,1.649c.1,1.065.178,2.611.225,4.522.108,3.825-.027,9.113-.368,14.934-.35,5.736-.667,10.924-.91,14.889-.1,1.791-.179,3.3-.245,4.513A7.559,7.559,0,0,1,614.659,366.7Z" fill="#282b38"/>
            </g>
          </g>
        </g>
      </g>
      <g id="Grupo_9366" data-name="Grupo 9366">
        <g id="Grupo_9365" data-name="Grupo 9365">
          <g id="Grupo_9364" data-name="Grupo 9364">
            <g id="Grupo_9363" data-name="Grupo 9363">
              <path id="Trazado_10392" data-name="Trazado 10392" d="M664.357,365.548a10.745,10.745,0,0,1-1.962-.084c-1.255-.091-3.071-.234-5.32-.337-4.495-.243-10.716-.362-17.585-.192s-13.082.612-17.565,1.052c-2.245.2-4.056.419-5.309.559a10.425,10.425,0,0,1-1.957.155,10.387,10.387,0,0,1,1.92-.428c1.244-.223,3.051-.514,5.3-.783,4.482-.569,10.71-1.079,17.6-1.263a172.291,172.291,0,0,1,17.633.4c2.252.168,4.067.386,5.317.563A10.305,10.305,0,0,1,664.357,365.548Z" fill="#282b38"/>
            </g>
          </g>
        </g>
      </g>
      <g id="Grupo_9370" data-name="Grupo 9370">
        <g id="Grupo_9369" data-name="Grupo 9369">
          <g id="Grupo_9368" data-name="Grupo 9368">
            <g id="Grupo_9367" data-name="Grupo 9367">
              <path id="Trazado_10393" data-name="Trazado 10393" d="M584.916,416.871a2.546,2.546,0,0,1-.235-.642l-.54-1.879c-.462-1.634-1.069-4.016-1.78-6.968-1.427-5.9-3.14-14.122-4.909-23.216s-3.405-17.32-4.706-23.245c-.641-2.882-1.169-5.252-1.561-7.014-.166-.764-.3-1.394-.414-1.912a2.587,2.587,0,0,1-.1-.679,2.515,2.515,0,0,1,.235.644c.146.508.325,1.127.541,1.878.462,1.634,1.068,4.016,1.78,6.968,1.426,5.9,3.14,14.122,4.909,23.219s3.4,17.316,4.7,23.242c.643,2.881,1.17,5.253,1.562,7.014.166.764.3,1.395.414,1.911A2.515,2.515,0,0,1,584.916,416.871Z" fill="#282b38"/>
            </g>
          </g>
        </g>
      </g>
      <g id="Grupo_9374" data-name="Grupo 9374">
        <g id="Grupo_9373" data-name="Grupo 9373">
          <g id="Grupo_9372" data-name="Grupo 9372">
            <g id="Grupo_9371" data-name="Grupo 9371">
              <path id="Trazado_10394" data-name="Trazado 10394" d="M652.371,406.66a2.662,2.662,0,0,1-.679.159l-1.963.32-7.225,1.106c-6.1.935-14.512,2.323-23.805,3.869s-17.727,2.859-23.849,3.668c-3.061.4-5.541.708-7.258.882l-1.98.19a2.586,2.586,0,0,1-.7.017,2.682,2.682,0,0,1,.679-.16l1.963-.319,7.224-1.106c6.1-.934,14.513-2.323,23.808-3.869s17.724-2.859,23.846-3.668c3.061-.4,5.541-.708,7.26-.882l1.979-.19A2.584,2.584,0,0,1,652.371,406.66Z" fill="#282b38"/>
            </g>
          </g>
        </g>
      </g>
    </g>
    <g id="Grupo_9385" data-name="Grupo 9385">
      <g id="Grupo_9376" data-name="Grupo 9376">
        <path id="Trazado_10395" data-name="Trazado 10395" d="M114.625,351.991c5.409-1.45,11.321-.083,16.084,2.863s8.478,7.347,11.446,12.1c5.742,9.188,7.713,21.5,7.908,32.337-12.021-.555-22.241-10.064-27.122-15.214-7.715-8.139-16.717-27.534-8.316-32.082" fill="#8fc4e8"/>
      </g>
      <g id="Grupo_9377" data-name="Grupo 9377">
        <path id="Trazado_10396" data-name="Trazado 10396" d="M169.369,406.643c-4.922-3.861-7.092-10.663-6.024-16.826a23.64,23.64,0,0,1,10.262-15.111c2.4-1.621,5.359-2.9,8.13-2.07a7.616,7.616,0,0,1,4.891,5.967,15.444,15.444,0,0,1-.972,7.958c-3.084,8.746-7.674,16.644-16.287,20.082" fill="#8fc4e8"/>
      </g>
      <g id="Grupo_9379" data-name="Grupo 9379">
        <g id="Grupo_9378" data-name="Grupo 9378">
          <path id="Trazado_10397" data-name="Trazado 10397" d="M180.291,440.932a8.239,8.239,0,0,1-1.2-1.938c-.7-1.284-1.671-3.159-2.8-5.516a76.406,76.406,0,0,1-6.661-19.345c-1.423-7.962-.384-15.462,1.618-20.354a25.148,25.148,0,0,1,2.94-5.5,7,7,0,0,1,1.5-1.727c.208.135-1.935,2.646-3.63,7.526a40.184,40.184,0,0,0-1.228,19.849c1.391,7.761,4.223,14.422,6.247,19.2C179.14,437.9,180.454,440.855,180.291,440.932Z" fill="#282b38"/>
        </g>
      </g>
      <g id="Grupo_9381" data-name="Grupo 9381">
        <g id="Grupo_9380" data-name="Grupo 9380">
          <path id="Trazado_10398" data-name="Trazado 10398" d="M122.784,366.155a22.25,22.25,0,0,1,2.606,2.7c1.621,1.79,3.92,4.42,6.728,7.7,5.616,6.556,13.225,15.743,21.377,26.09s15.3,19.906,20.356,26.9c2.53,3.5,4.546,6.349,5.907,8.344a22.244,22.244,0,0,1,2.017,3.167,22.313,22.313,0,0,1-2.4-2.888l-6.214-8.111c-5.23-6.861-12.478-16.32-20.621-26.664s-15.639-19.6-21.083-26.291l-6.428-7.944A22.046,22.046,0,0,1,122.784,366.155Z" fill="#282b38"/>
        </g>
      </g>
      <g id="Grupo_9382" data-name="Grupo 9382">
        <path id="Trazado_10399" data-name="Trazado 10399" d="M161.251,420A41.64,41.64,0,0,0,123.9,412.76c-3.217.967-6.78,2.93-7.105,6.273s2.817,5.967,5.83,7.464a35.574,35.574,0,0,0,39.06-5.694" fill="#8fc4e8"/>
      </g>
      <g id="Grupo_9384" data-name="Grupo 9384">
        <g id="Grupo_9383" data-name="Grupo 9383">
          <path id="Trazado_10400" data-name="Trazado 10400" d="M131.891,418.879a7.492,7.492,0,0,1,2.089-.626,17.413,17.413,0,0,1,2.516-.465,29.06,29.06,0,0,1,3.376-.343,43.838,43.838,0,0,1,8.831.386,46.822,46.822,0,0,1,20.015,7.918,43.824,43.824,0,0,1,6.706,5.761,29.491,29.491,0,0,1,2.228,2.559,17.667,17.667,0,0,1,1.516,2.06,7.459,7.459,0,0,1,1.1,1.886c-.193.138-1.909-2.45-5.449-5.9a48.917,48.917,0,0,0-6.727-5.441,49.473,49.473,0,0,0-19.556-7.737,49.02,49.02,0,0,0-8.628-.634C134.96,418.4,131.938,419.112,131.891,418.879Z" fill="#282b38"/>
        </g>
      </g>
    </g>
    <g id="Grupo_9389" data-name="Grupo 9389">
      <g id="Grupo_9388" data-name="Grupo 9388">
        <g id="Grupo_9387" data-name="Grupo 9387">
          <g id="Grupo_9386" data-name="Grupo 9386">
            <path id="Trazado_10401" data-name="Trazado 10401" d="M334.044,141.868l-26.787,2.244.1-.05a49.755,49.755,0,0,1-37.246,17.848,51.976,51.976,0,0,1-17.363-2.746,49.709,49.709,0,0,1-16.441-9.49,50.079,50.079,0,0,1-17.248-36.7,18.421,18.421,0,0,1,.027-2.739q.069-1.374.138-2.753a23.235,23.235,0,0,1,.344-2.745q.21-1.371.42-2.749c.189-.909.451-1.805.674-2.711.25-.9.425-1.822.739-2.7s.645-1.762.968-2.646l.486-1.327c.16-.443.4-.855.592-1.284a50.73,50.73,0,0,1,12.744-17.156,50,50,0,0,1,78.044,16.17,26.4,26.4,0,0,1,1.478,3.4c.412,1.149.842,2.273,1.222,3.395a53.822,53.822,0,0,1,1.5,6.721c.151,1.1.362,2.177.456,3.246q.078,1.609.153,3.161.037.776.075,1.537c-.009.507-.044,1.01-.065,1.507l-.141,2.924-.02-.089,15.151,25.735-15.408-25.582-.023-.038,0-.051q.063-1.423.127-2.908c.019-.494.052-.993.058-1.5q-.039-.756-.08-1.526l-.165-3.14c-.1-1.061-.31-2.13-.464-3.223a53.8,53.8,0,0,0-1.513-6.667c-.381-1.111-.811-2.227-1.223-3.365a26.222,26.222,0,0,0-1.477-3.371,49.463,49.463,0,0,0-77.344-15.945,50.239,50.239,0,0,0-12.607,16.978c-.193.425-.428.832-.586,1.271l-.481,1.312-.958,2.618c-.311.873-.483,1.787-.731,2.676-.221.9-.48,1.782-.668,2.681q-.209,1.364-.415,2.721a22.726,22.726,0,0,0-.342,2.716q-.069,1.365-.138,2.724a18.3,18.3,0,0,0-.027,2.71A49.607,49.607,0,0,0,252.9,158.728a51.612,51.612,0,0,0,17.205,2.756,49.693,49.693,0,0,0,15.608-2.8,50.25,50.25,0,0,0,21.428-14.8l.039-.046.059,0Z" fill="#282b38"/>
          </g>
        </g>
      </g>
    </g>
    <path id="Trazado_10402" data-name="Trazado 10402" d="M245.349,118.305a15.141,15.141,0,0,1-4.83-12.737,18.015,18.015,0,0,1,4.316-9.8,13.737,13.737,0,0,1,17.033-2.914l6.662,3.654,6.661-3.654a13.737,13.737,0,0,1,17.033,2.914,18.008,18.008,0,0,1,4.316,9.8,15.141,15.141,0,0,1-4.83,12.737L272.791,135.75l-1.262,1.076a4.622,4.622,0,0,1-6,0l-1.262-1.076Z" fill="#8fc4e8"/>
    <g id="Grupo_9426" data-name="Grupo 9426">
      <g id="Grupo_9421" data-name="Grupo 9421">
        <g id="Grupo_9404" data-name="Grupo 9404">
          <g id="Grupo_9403" data-name="Grupo 9403">
            <g id="Grupo_9392" data-name="Grupo 9392">
              <g id="Grupo_9391" data-name="Grupo 9391">
                <g id="Grupo_9390" data-name="Grupo 9390">
                  <rect id="Rectángulo_6100" data-name="Rectángulo 6100" width="408.028" height="269.825" rx="14.567" transform="translate(173.753 182.495)" fill="#455464"/>
                </g>
              </g>
            </g>
            <g id="Grupo_9395" data-name="Grupo 9395">
              <g id="Grupo_9394" data-name="Grupo 9394">
                <g id="Grupo_9393" data-name="Grupo 9393">
                  <path id="Rectángulo_6101" data-name="Rectángulo 6101" d="M0,0H442.068a0,0,0,0,1,0,0V5.812a17.8,17.8,0,0,1-17.8,17.8H17.8A17.8,17.8,0,0,1,0,5.812V0A0,0,0,0,1,0,0Z" transform="translate(157.26 432.363)" fill="#455464"/>
                </g>
              </g>
            </g>
            <g id="Grupo_9398" data-name="Grupo 9398">
              <g id="Grupo_9397" data-name="Grupo 9397">
                <g id="Grupo_9396" data-name="Grupo 9396">
                  <rect id="Rectángulo_6102" data-name="Rectángulo 6102" width="384.982" height="227.863" transform="translate(185.276 193.215)" fill="#f5f5f5"/>
                </g>
              </g>
            </g>
            <g id="Grupo_9402" data-name="Grupo 9402">
              <g id="Grupo_9401" data-name="Grupo 9401">
                <g id="Grupo_9400" data-name="Grupo 9400">
                  <g id="Grupo_9399" data-name="Grupo 9399">
                    <path id="Trazado_10403" data-name="Trazado 10403" d="M338.114,432.363c-.007,0,.137-.008.425-.012l1.294-.014,5.028-.028,18.653-.076,62.37-.134h.461l-.233.4c-.785,1.344-1.627,2.788-2.475,4.241-.889,1.522-1.773,3.035-2.618,4.484l-.077.131h-.152l-77.19-.145h-.067l-.034-.056-4.042-6.573c-.439-.719-.776-1.272-1.017-1.665-.225-.371-.326-.551-.326-.551s.138.2.384.578l1.079,1.669,4.124,6.415-.1-.055,77.19-.145-.227.131,2.617-4.485,2.476-4.241.228.4-62.115-.134-18.741-.075-5.105-.029-1.338-.013C338.281,432.372,338.114,432.363,338.114,432.363Z" fill="#282b38"/>
                  </g>
                </g>
              </g>
            </g>
          </g>
        </g>
        <g id="Grupo_9420" data-name="Grupo 9420">
          <g id="Grupo_9406" data-name="Grupo 9406">
            <g id="Grupo_9405" data-name="Grupo 9405">
              <path id="Trazado_10404" data-name="Trazado 10404" d="M326.151,235.6a13.159,13.159,0,0,1,2.446-2.5l-.582-3.189,4.932-2.1,1.9,2.626a13.146,13.146,0,0,1,3.5-.038l1.842-2.665,4.975,2-.513,3.2a13.134,13.134,0,0,1,2.5,2.447l3.188-.582,2.105,4.931-2.627,1.9a13.1,13.1,0,0,1,.039,3.495l2.665,1.842-2,4.976-3.2-.514a13.159,13.159,0,0,1-2.446,2.5l.582,3.188-4.932,2.1-1.9-2.626a13.14,13.14,0,0,1-3.495.038l-1.843,2.665-4.975-2,.514-3.2a13.111,13.111,0,0,1-2.5-2.447l-3.188.582L321.03,247.3l2.627-1.9a13.179,13.179,0,0,1-.039-3.495l-2.665-1.842,2-4.976,3.2.514Zm5.336,5.542a5.752,5.752,0,1,0,7.481-3.193A5.752,5.752,0,0,0,331.487,241.145Z" fill="#e0e0e0" fill-rule="evenodd"/>
            </g>
          </g>
          <g id="Grupo_9408" data-name="Grupo 9408">
            <g id="Grupo_9407" data-name="Grupo 9407">
              <path id="Trazado_10405" data-name="Trazado 10405" d="M306.163,339.02a38.04,38.04,0,0,1,7.087-7.236l-1.687-9.239,14.291-6.1,5.5,7.609a38.041,38.041,0,0,1,10.128-.111l5.338-7.722,14.417,5.793-1.489,9.267a38.081,38.081,0,0,1,7.236,7.089l9.238-1.686,6.1,14.29-7.609,5.5a38.083,38.083,0,0,1,.111,10.128l7.722,5.338-5.792,14.417-9.268-1.489a38.051,38.051,0,0,1-7.089,7.236l1.687,9.239-14.291,6.1-5.5-7.61a38.083,38.083,0,0,1-10.128.111l-5.338,7.722-14.417-5.793,1.489-9.267a38.02,38.02,0,0,1-7.236-7.089l-9.238,1.687-6.1-14.29,7.609-5.5a38.125,38.125,0,0,1-.111-10.128l-7.722-5.338,5.792-14.416,9.27,1.489Zm15.459,16.057a16.667,16.667,0,1,0,21.679-9.252A16.666,16.666,0,0,0,321.622,355.077Z" fill="#f5f5f5" fill-rule="evenodd"/>
            </g>
          </g>
          <g id="Grupo_9417" data-name="Grupo 9417">
            <g id="Grupo_9410" data-name="Grupo 9410">
              <g id="Grupo_9409" data-name="Grupo 9409">
                <path id="Trazado_10406" data-name="Trazado 10406" d="M233.949,358.267a21.046,21.046,0,0,1,3.921-4l-.933-5.112,7.906-3.373,3.045,4.209a21.044,21.044,0,0,1,5.6-.061l2.954-4.272,7.975,3.2-.823,5.127a20.993,20.993,0,0,1,4,3.922l5.111-.933,3.374,7.9-4.21,3.045a21.011,21.011,0,0,1,.061,5.6l4.273,2.953L273,384.459l-5.127-.824a21.058,21.058,0,0,1-3.922,4l.933,5.111-7.906,3.373-3.045-4.21a21.045,21.045,0,0,1-5.6.062l-2.953,4.272-7.976-3.205.823-5.127a21.052,21.052,0,0,1-4-3.922l-5.111.933-3.374-7.9,4.21-3.046a21.087,21.087,0,0,1-.061-5.6l-4.273-2.953,3.205-7.976,5.128.824Zm8.553,8.884a9.221,9.221,0,1,0,11.994-5.119A9.221,9.221,0,0,0,242.5,367.151Z" fill="none"/>
              </g>
            </g>
            <g id="Grupo_9413" data-name="Grupo 9413">
              <g id="Grupo_9412" data-name="Grupo 9412">
                <g id="Grupo_9411" data-name="Grupo 9411">
                  <path id="Trazado_10407" data-name="Trazado 10407" d="M242.5,367.151a6.954,6.954,0,0,1,1.024-2.042,9.174,9.174,0,0,1,5.038-3.582,9.3,9.3,0,0,1,4.335-.193,9.434,9.434,0,0,1,4.465,2.208,9.447,9.447,0,0,1,2.867,4.693,9.409,9.409,0,0,1-4.177,10.4,9.455,9.455,0,0,1-5.318,1.4,9.437,9.437,0,0,1-4.752-1.5,9.3,9.3,0,0,1-3-3.138,9.186,9.186,0,0,1-1.16-6.072,6.972,6.972,0,0,1,.674-2.182c.062.02-.288.77-.47,2.21a9.2,9.2,0,0,0,1.277,5.852,9,9,0,0,0,7.443,4.339,9,9,0,0,0,5.029-1.358,8.935,8.935,0,0,0,3.949-9.83,9.015,9.015,0,0,0-2.691-4.459,9.008,9.008,0,0,0-8.375-2.018,9.2,9.2,0,0,0-4.972,3.342C242.827,366.395,242.561,367.179,242.5,367.151Z" fill="#282b38"/>
                </g>
              </g>
            </g>
            <g id="Grupo_9416" data-name="Grupo 9416">
              <g id="Grupo_9415" data-name="Grupo 9415">
                <g id="Grupo_9414" data-name="Grupo 9414">
                  <path id="Trazado_10408" data-name="Trazado 10408" d="M233.949,358.267a1.914,1.914,0,0,1-.322-.033l-.975-.135-3.844-.573.091-.051-3.158,7.994-.048-.16,4.284,2.936.077.052-.011.094a21.017,21.017,0,0,0,.079,5.559l.015.1-.085.062-4.2,3.057.062-.226c1.069,2.487,2.2,5.126,3.392,7.9l-.229-.124,5.109-.942.13-.024.082.1a20.947,20.947,0,0,0,3.968,3.873l.11.083-.022.136-.816,5.129-.144-.256,7.979,3.2-.294.088c.919-1.331,1.928-2.794,2.949-4.275l.087-.125.151.018a20.887,20.887,0,0,0,5.535-.065l.153-.022.091.126,3.048,4.208-.312-.087,7.9-3.377-.155.289c-.3-1.614-.614-3.356-.935-5.111l-.028-.157.126-.1a20.91,20.91,0,0,0,3.869-3.95l0,0,.1-.128.157.025,5.127.824-.287.163,3.207-7.976.094.313-4.271-2.955-.129-.089.019-.156a20.787,20.787,0,0,0-.057-5.535l-.022-.153.125-.091,4.212-3.042-.084.3-3.365-7.909.267.144-5.112.927-.142.025-.088-.113a20.86,20.86,0,0,0-3.953-3.884l-.111-.083.022-.137c.286-1.757.562-3.461.832-5.125l.136.239-7.97-3.222.242-.072-2.963,4.264-.066.1-.114-.014a20.984,20.984,0,0,0-5.555.045l-.1.015-.061-.085-3.03-4.22.187.052-7.92,3.339.069-.13c.36,2.044.655,3.721.9,5.117l.009.051-.041.032a21.839,21.839,0,0,0-3.072,2.879l-.675.8a2.166,2.166,0,0,1-.226.262,2.66,2.66,0,0,1,.192-.289c.137-.186.344-.466.643-.825a20.411,20.411,0,0,1,3.034-2.957l-.031.083c-.264-1.394-.581-3.066-.967-5.1l-.017-.093.088-.038,7.891-3.408.114-.049.074.1,3.059,4.2-.166-.07a21.267,21.267,0,0,1,5.651-.078l-.178.081,2.942-4.279.091-.133.151.06,7.982,3.189.163.065-.027.174c-.265,1.665-.536,3.369-.815,5.128l-.089-.219a21.273,21.273,0,0,1,4.053,3.959l-.229-.087,5.109-.94.192-.035.076.179q1.65,3.855,3.382,7.9l.079.185-.163.119-4.208,3.048.1-.244a21.3,21.3,0,0,1,.066,5.671l-.11-.245,4.273,2.952.172.118-.077.2q-1.58,3.932-3.2,7.976l-.078.2-.209-.033-5.127-.824.253-.1,0,0a21.36,21.36,0,0,1-3.968,4.048l.1-.255c.32,1.755.638,3.5.932,5.111l.038.207-.193.082-7.907,3.371-.191.081-.121-.168-3.042-4.212.244.1a21.39,21.39,0,0,1-5.671.058l.237-.106-2.957,4.269-.112.162-.182-.074-7.972-3.214-.175-.071.03-.185c.289-1.785.574-3.537.831-5.126l.089.219a21.332,21.332,0,0,1-4.039-3.97l.211.08-5.113.923-.164.03-.065-.153-3.355-7.913-.059-.139.122-.088,4.218-3.033-.07.165a21.238,21.238,0,0,1-.043-5.647l.065.147c-1.534-1.07-2.969-2.071-4.26-2.97l-.088-.062.04-.1c1.324-3.241,2.418-5.92,3.251-7.957l.025-.064.066.012,3.8.655.981.178A2.437,2.437,0,0,1,233.949,358.267Z" fill="#282b38"/>
                </g>
              </g>
            </g>
          </g>
          <g id="Grupo_9419" data-name="Grupo 9419">
            <g id="Grupo_9418" data-name="Grupo 9418">
              <path id="Trazado_10409" data-name="Trazado 10409" d="M214.422,252.738a52.467,52.467,0,0,1,6.523-12.349l-5.861-11.548,16.489-13.678,10.265,7.894a52.444,52.444,0,0,1,13.343-4.129l4.019-12.3,21.332,1.988,1.676,12.833a52.468,52.468,0,0,1,12.351,6.525l11.547-5.861,13.678,16.49-7.894,10.266a52.462,52.462,0,0,1,4.128,13.342l12.306,4.019-1.988,21.332L313.5,289.234a52.482,52.482,0,0,1-6.525,12.35l5.861,11.548L296.349,326.81l-10.266-7.895a52.487,52.487,0,0,1-13.342,4.128l-4.02,12.306-21.332-1.988-1.676-12.834A52.535,52.535,0,0,1,233.363,314l-11.547,5.861-13.678-16.49,7.894-10.266a52.474,52.474,0,0,1-4.128-13.342L199.6,275.747l1.988-21.332,12.836-1.677Zm26.746,15.146a22.983,22.983,0,1,0,25.016-20.751A22.982,22.982,0,0,0,241.168,267.884Z" fill="#e0e0e0" fill-rule="evenodd"/>
            </g>
          </g>
        </g>
      </g>
      <g id="Grupo_9425" data-name="Grupo 9425">
        <g id="Grupo_9422" data-name="Grupo 9422">
          <line id="Línea_1116" data-name="Línea 1116" x2="408.028" transform="translate(173.753 432.363)" fill="#282b38"/>
        </g>
        <g id="Grupo_9424" data-name="Grupo 9424">
          <g id="Grupo_9423" data-name="Grupo 9423">
            <path id="Trazado_10410" data-name="Trazado 10410" d="M581.781,432.363c0,.137-91.347.248-204,.248-112.7,0-204.024-.111-204.024-.248s91.328-.248,204.024-.248C490.434,432.115,581.781,432.226,581.781,432.363Z" fill="#282b38"/>
          </g>
        </g>
      </g>
    </g>
    <g id="Grupo_9596" data-name="Grupo 9596">
      <g id="Grupo_9503" data-name="Grupo 9503">
        <g id="Grupo_9430" data-name="Grupo 9430">
          <g id="Grupo_9427" data-name="Grupo 9427">
            <path id="Trazado_10411" data-name="Trazado 10411" d="M362.323,125.794c-6.292,2.761-9.954,9.542-11.327,16.275s-.922,13.692-1.518,20.537-2.473,14-7.469,18.719c-4.656,4.4-11.514,6.185-15.481,11.212a14.1,14.1,0,0,0,8.04,22.511c-3.137,4.969-1.567,11.907,2.447,16.2s9.911,6.338,15.722,7.222c10.22,1.556,21.119-.163,29.752-5.85s14.674-15.566,14.653-25.9" fill="#282b38"/>
          </g>
          <g id="Grupo_9429" data-name="Grupo 9429">
            <g id="Grupo_9428" data-name="Grupo 9428">
              <path id="Trazado_10412" data-name="Trazado 10412" d="M335.071,227.373a8.239,8.239,0,0,1-1.108-2.228,13.41,13.41,0,0,1-.4-6.749A18.564,18.564,0,0,1,335,213.913a24.818,24.818,0,0,1,2.889-4.561,83.469,83.469,0,0,1,8.651-8.754,90.736,90.736,0,0,0,8.411-8.9,41.6,41.6,0,0,0,5.381-8.382,29.379,29.379,0,0,0,2.185-6.35c.188-.774.242-1.393.33-1.8a3.173,3.173,0,0,1,.137-.629,3.062,3.062,0,0,1-.038.641c-.056.417-.08,1.044-.24,1.829a27.3,27.3,0,0,1-2.056,6.46,40.513,40.513,0,0,1-5.343,8.52,86.915,86.915,0,0,1-8.426,8.977,87.161,87.161,0,0,0-8.634,8.677,24.838,24.838,0,0,0-2.876,4.456,18.52,18.52,0,0,0-1.469,4.369,13.658,13.658,0,0,0,.241,6.626A23.3,23.3,0,0,0,335.071,227.373Z" fill="#455464"/>
            </g>
          </g>
        </g>
        <g id="Grupo_9436" data-name="Grupo 9436">
          <g id="Grupo_9431" data-name="Grupo 9431">
            <path id="Trazado_10413" data-name="Trazado 10413" d="M437.535,148.382c0,9.242,4.264,17.712,8.1,20.826,5.424,4.406,13.383,6.535,18.627,8,7.639,2.135,14.042,8.823,15,16.7s-4.2,16.293-11.876,18.273c4.828,4.931,3.391,13.407-.583,19.048-7.532,10.691-22.563,14.8-35.028,10.847s-22.019-15-25.739-27.537" fill="#282b38"/>
          </g>
          <g id="Grupo_9433" data-name="Grupo 9433">
            <g id="Grupo_9432" data-name="Grupo 9432">
              <path id="Trazado_10414" data-name="Trazado 10414" d="M456.54,239.4a8.234,8.234,0,0,0,2.938-1.293,8.6,8.6,0,0,0,2.461-2.819,10.239,10.239,0,0,0,1.316-4.757,11.647,11.647,0,0,0-1.545-5.764,18.671,18.671,0,0,0-4.491-5.267c-3.785-3.191-8.935-5.184-13.914-8.047a27.24,27.24,0,0,1-6.609-5.189,15.837,15.837,0,0,1-2.31-3.294,14.509,14.509,0,0,1-1.293-3.635,24.712,24.712,0,0,1-.324-7.074c.167-2.21.449-4.248.643-6.11a27.189,27.189,0,0,0-.139-8.8l-.363-1.338c-.114-.385-.269-.691-.362-.95a5.414,5.414,0,0,1-.287-.793,5.32,5.32,0,0,1,.379.754c.109.254.279.557.409.941s.259.843.412,1.341a26.253,26.253,0,0,1,.3,8.883c-.173,1.872-.434,3.912-.582,6.1a24.553,24.553,0,0,0,.359,6.945,14.374,14.374,0,0,0,3.52,6.7,26.988,26.988,0,0,0,6.5,5.085c4.924,2.836,10.108,4.852,13.957,8.124a18.987,18.987,0,0,1,4.559,5.421,11.934,11.934,0,0,1,1.535,5.972,10.444,10.444,0,0,1-1.427,4.885,8.635,8.635,0,0,1-2.59,2.838,7.181,7.181,0,0,1-2.211,1.009A5.275,5.275,0,0,1,456.54,239.4Z" fill="#455464"/>
            </g>
          </g>
          <g id="Grupo_9435" data-name="Grupo 9435">
            <g id="Grupo_9434" data-name="Grupo 9434">
              <path id="Trazado_10415" data-name="Trazado 10415" d="M474.543,208.568a4.948,4.948,0,0,0,.933-2.567,6.207,6.207,0,0,0-.714-3.116,7.807,7.807,0,0,0-2.835-3.13,13.822,13.822,0,0,0-4.914-1.659c-1.861-.324-3.891-.441-6.021-.772a32.34,32.34,0,0,1-12.935-5.116A31.788,31.788,0,0,1,438.5,182.1a32.161,32.161,0,0,1-3.924-10.679,30.715,30.715,0,0,1-.409-7.665c.07-.906.154-1.6.24-2.075a3.987,3.987,0,0,1,.139-.714c.058.007-.114,1-.186,2.8a32.878,32.878,0,0,0,4.533,18.1,31.718,31.718,0,0,0,9.442,9.93,32.281,32.281,0,0,0,12.729,5.076c2.1.339,4.134.473,6.02.818a14.048,14.048,0,0,1,5.029,1.766,8.025,8.025,0,0,1,2.9,3.306,6.313,6.313,0,0,1,.658,3.251,4.459,4.459,0,0,1-.659,1.991,5.3,5.3,0,0,1-.337.431C474.593,208.529,474.55,208.574,474.543,208.568Z" fill="#455464"/>
            </g>
          </g>
        </g>
        <g id="Grupo_9471" data-name="Grupo 9471">
          <g id="Grupo_9470" data-name="Grupo 9470">
            <g id="Grupo_9468" data-name="Grupo 9468">
              <g id="Grupo_9467" data-name="Grupo 9467">
                <g id="Grupo_9461" data-name="Grupo 9461">
                  <g id="Grupo_9438" data-name="Grupo 9438">
                    <g id="Grupo_9437" data-name="Grupo 9437">
                      <path id="Trazado_10416" data-name="Trazado 10416" d="M366.811,256.714c1.316-13.809,2.449-28.371,2.449-28.371s-17.494-4.7-18.9-28.269c-1.336-22.475,7.339-73.217,7.339-73.217h0c26.624-7.92,56.263,2.014,72.5,24.3h0L417.664,263.135c-1.455,13-13.793,22.1-27.7,20.437h0C375.917,281.89,365.557,269.87,366.811,256.714Z" fill="#b78d77"/>
                    </g>
                  </g>
                  <g id="Grupo_9444" data-name="Grupo 9444">
                    <g id="Grupo_9440" data-name="Grupo 9440">
                      <g id="Grupo_9439" data-name="Grupo 9439">
                        <path id="Trazado_10417" data-name="Trazado 10417" d="M360.358,167.418a2.99,2.99,0,0,0,2.574,3.285,2.86,2.86,0,0,0,3.332-2.381,2.991,2.991,0,0,0-2.571-3.286A2.863,2.863,0,0,0,360.358,167.418Z" fill="#282b38"/>
                      </g>
                    </g>
                    <g id="Grupo_9443" data-name="Grupo 9443">
                      <g id="Grupo_9442" data-name="Grupo 9442">
                        <g id="Grupo_9441" data-name="Grupo 9441">
                          <path id="Trazado_10418" data-name="Trazado 10418" d="M355.862,163.612c.33.424,2.749-1.022,5.951-.7,3.2.277,5.39,2.156,5.776,1.8.188-.156-.119-.893-1.069-1.739a8.206,8.206,0,0,0-4.577-1.92,7.877,7.877,0,0,0-4.784,1.041C356.1,162.751,355.7,163.42,355.862,163.612Z" fill="#282b38"/>
                        </g>
                      </g>
                    </g>
                  </g>
                  <g id="Grupo_9450" data-name="Grupo 9450">
                    <g id="Grupo_9446" data-name="Grupo 9446">
                      <g id="Grupo_9445" data-name="Grupo 9445">
                        <path id="Trazado_10419" data-name="Trazado 10419" d="M393.084,171.21a2.991,2.991,0,0,0,2.574,3.285,2.859,2.859,0,0,0,3.331-2.381,2.992,2.992,0,0,0-2.571-3.287A2.862,2.862,0,0,0,393.084,171.21Z" fill="#282b38"/>
                      </g>
                    </g>
                    <g id="Grupo_9449" data-name="Grupo 9449">
                      <g id="Grupo_9448" data-name="Grupo 9448">
                        <g id="Grupo_9447" data-name="Grupo 9447">
                          <path id="Trazado_10420" data-name="Trazado 10420" d="M389.159,168.063c.332.425,2.753-1.021,5.952-.7,3.2.277,5.39,2.156,5.777,1.8.187-.157-.117-.893-1.07-1.74a8.2,8.2,0,0,0-4.576-1.919,7.875,7.875,0,0,0-4.785,1.04C389.4,167.2,389,167.872,389.159,168.063Z" fill="#282b38"/>
                        </g>
                      </g>
                    </g>
                  </g>
                  <g id="Grupo_9453" data-name="Grupo 9453">
                    <g id="Grupo_9452" data-name="Grupo 9452">
                      <g id="Grupo_9451" data-name="Grupo 9451">
                        <path id="Trazado_10421" data-name="Trazado 10421" d="M375.2,190.667c.033-.18-1.924-.72-5.109-1.45-.809-.165-1.567-.4-1.65-.975a4.187,4.187,0,0,1,.785-2.37q1.445-2.854,3.031-5.988c4.23-8.535,7.378-15.585,7.033-15.752s-4.054,6.614-8.285,15.149q-1.535,3.159-2.933,6.035a4.761,4.761,0,0,0-.74,3.168,2.065,2.065,0,0,0,1.227,1.328,5.6,5.6,0,0,0,1.37.329C373.159,190.635,375.171,190.848,375.2,190.667Z" fill="#282b38"/>
                      </g>
                    </g>
                  </g>
                  <g id="Grupo_9455" data-name="Grupo 9455">
                    <g id="Grupo_9454" data-name="Grupo 9454">
                      <path id="Trazado_10422" data-name="Trazado 10422" d="M369.26,228.343a59.319,59.319,0,0,0,31.891-5.232s-9.108,15.2-32.117,10.741Z" fill="#aa6c51"/>
                    </g>
                  </g>
                  <g id="Grupo_9457" data-name="Grupo 9457">
                    <g id="Grupo_9456" data-name="Grupo 9456">
                      <path id="Trazado_10423" data-name="Trazado 10423" d="M375.8,198.518a5.794,5.794,0,0,1,5.383-1.634,5.3,5.3,0,0,1,3.446,2.309,3.354,3.354,0,0,1-.122,3.842,3.89,3.89,0,0,1-4.3.648,12.19,12.19,0,0,1-3.853-2.845,3.564,3.564,0,0,1-.821-1.037,1.077,1.077,0,0,1,.122-1.192" fill="#aa6c51"/>
                    </g>
                  </g>
                  <g id="Grupo_9460" data-name="Grupo 9460">
                    <g id="Grupo_9459" data-name="Grupo 9459">
                      <g id="Grupo_9458" data-name="Grupo 9458">
                        <path id="Trazado_10424" data-name="Trazado 10424" d="M384.407,193.81c-.518-.082-.867,3.394-4.084,5.568s-6.881,1.428-6.956,1.911c-.07.213.759.756,2.319.952a8.692,8.692,0,0,0,5.786-1.4,7.575,7.575,0,0,0,3.2-4.691C384.95,194.712,384.647,193.813,384.407,193.81Z" fill="#282b38"/>
                      </g>
                    </g>
                  </g>
                </g>
                <g id="Grupo_9463" data-name="Grupo 9463">
                  <g id="Grupo_9462" data-name="Grupo 9462">
                    <path id="Trazado_10425" data-name="Trazado 10425" d="M419.162,175.909a13.9,13.9,0,0,1,7.422,1.213,9.706,9.706,0,0,1,4.979,5.5,10.14,10.14,0,0,1-.666,7.423,17.167,17.167,0,0,1-4.841,5.824,11.632,11.632,0,0,1-4.8,2.546,5.555,5.555,0,0,1-5.089-1.31" fill="#b78d77"/>
                  </g>
                </g>
                <g id="Grupo_9466" data-name="Grupo 9466">
                  <g id="Grupo_9465" data-name="Grupo 9465">
                    <g id="Grupo_9464" data-name="Grupo 9464">
                      <path id="Trazado_10426" data-name="Trazado 10426" d="M419.053,191.086c-.293.064.638,1.671,2.967,1.283a4.907,4.907,0,0,0,3.045-2.171,11.1,11.1,0,0,0,1.64-4,6.513,6.513,0,0,0-.619-4.472,4.335,4.335,0,0,0-3.071-2.246c-2.328-.282-3.21,1.264-2.951,1.337.169.207,1.155-.537,2.648-.019,1.437.413,2.676,2.57,2.114,5.047-.529,2.526-1.74,4.766-3.156,5.215C420.186,191.645,419.229,190.9,419.053,191.086Z" fill="#aa6c51"/>
                    </g>
                  </g>
                </g>
              </g>
            </g>
            <g id="Grupo_9469" data-name="Grupo 9469">
              <path id="Trazado_10427" data-name="Trazado 10427" d="M368.919,136.782a28.426,28.426,0,0,1-19.148,16.125c-.495-5.729-.831-11.53.105-17.2s3.248-11.27,7.385-15.263,10.273-6.143,15.827-4.656" fill="#282b38"/>
            </g>
          </g>
        </g>
        <g id="Grupo_9472" data-name="Grupo 9472">
          <path id="Trazado_10428" data-name="Trazado 10428" d="M370.519,126.256a22.823,22.823,0,0,0,23.592,31.128c1.522-.159,3.115-.464,4.544.087,1.525.588,2.528,2.023,3.437,3.382,3.7,5.527,7.606,11.272,13.435,14.473s14.175,2.887,18.072-2.5c1.9-2.621,2.454-5.951,2.893-9.155,1.478-10.773,2.083-22.336-3.05-31.922-3.813-7.122-10.515-12.416-17.927-15.629s-15.528-4.489-23.591-4.983c-4.687-.287-9.538-.293-13.884,1.483s-8.1,5.722-8.345,10.41" fill="#282b38"/>
        </g>
        <g id="Grupo_9474" data-name="Grupo 9474">
          <g id="Grupo_9473" data-name="Grupo 9473">
            <path id="Trazado_10429" data-name="Trazado 10429" d="M435.463,166.714a5.22,5.22,0,0,1-.284-.79c-.158-.526-.426-1.29-.783-2.269a42.073,42.073,0,0,0-3.945-7.861,41.011,41.011,0,0,0-8.671-9.676,56.5,56.5,0,0,0-13.887-7.819c-5.246-2.2-10.375-4.009-14.863-6.11a51.949,51.949,0,0,1-11.207-6.844,29.306,29.306,0,0,1-5.944-6.556,20.463,20.463,0,0,1-1.19-2.1,5.426,5.426,0,0,1-.351-.762,5.36,5.36,0,0,1,.439.715c.256.486.687,1.17,1.263,2.037a30.524,30.524,0,0,0,6.005,6.392,53.025,53.025,0,0,0,11.177,6.7c4.471,2.065,9.6,3.863,14.863,6.067a56,56,0,0,1,13.982,7.921,40.579,40.579,0,0,1,8.68,9.843,39.485,39.485,0,0,1,3.83,7.984c.331.993.57,1.769.7,2.306A5.447,5.447,0,0,1,435.463,166.714Z" fill="#455464"/>
          </g>
        </g>
        <g id="Grupo_9476" data-name="Grupo 9476">
          <g id="Grupo_9475" data-name="Grupo 9475">
            <path id="Trazado_10430" data-name="Trazado 10430" d="M428.249,165.438a4.465,4.465,0,0,1-.394-.658,20.508,20.508,0,0,0-1.191-1.836,24.472,24.472,0,0,0-5.758-5.558,56.1,56.1,0,0,0-10.558-5.543c-2.069-.894-4.258-1.811-6.482-2.869s-4.483-2.245-6.724-3.588A58.922,58.922,0,0,1,385.5,136.4a44.91,44.91,0,0,1-7.272-9.557,37.052,37.052,0,0,1-3.2-7.439c-.261-.921-.453-1.638-.548-2.133a4.321,4.321,0,0,1-.136-.756,4.5,4.5,0,0,1,.233.732c.125.486.347,1.192.635,2.1a39.7,39.7,0,0,0,3.321,7.323,45.766,45.766,0,0,0,7.29,9.409,59.847,59.847,0,0,0,11.577,8.878c2.226,1.333,4.474,2.512,6.679,3.575s4.387,1.981,6.455,2.888a54.6,54.6,0,0,1,10.581,5.678,23.559,23.559,0,0,1,5.711,5.731,16.114,16.114,0,0,1,1.121,1.9A4.39,4.39,0,0,1,428.249,165.438Z" fill="#455464"/>
          </g>
        </g>
        <g id="Grupo_9478" data-name="Grupo 9478">
          <g id="Grupo_9477" data-name="Grupo 9477">
            <path id="Trazado_10431" data-name="Trazado 10431" d="M349.852,162.117a2.538,2.538,0,0,1-.225-.534c-.128-.357-.329-.883-.548-1.572a27.511,27.511,0,0,1-1-6.038,28.959,28.959,0,0,1,5.991-18.947,26.562,26.562,0,0,1,4.021-4.152,51.407,51.407,0,0,1,4.364-3.125,45.947,45.947,0,0,0,7.22-5.368,16.074,16.074,0,0,0,3.535-4.866c.58-1.309.712-2.1.764-2.091a2.546,2.546,0,0,1-.088.575,10.594,10.594,0,0,1-.5,1.592,15.448,15.448,0,0,1-3.465,5.038,44.046,44.046,0,0,1-7.214,5.5,52.428,52.428,0,0,0-4.308,3.119,26.437,26.437,0,0,0-3.939,4.082,28.411,28.411,0,0,0-4.915,9.748,28.958,28.958,0,0,0-1.117,8.88,30.214,30.214,0,0,0,.839,6c.186.649.337,1.176.455,1.591A2.536,2.536,0,0,1,349.852,162.117Z" fill="#455464"/>
          </g>
        </g>
        <g id="Grupo_9502" data-name="Grupo 9502">
          <g id="Grupo_9481" data-name="Grupo 9481">
            <g id="Grupo_9479" data-name="Grupo 9479">
              <path id="Trazado_10432" data-name="Trazado 10432" d="M407.161,208.39a22.292,22.292,0,0,1-14.857-5.449l.636-.707a21.065,21.065,0,0,0,33.692-23.371l.885-.348a22.8,22.8,0,0,1-7.939,26.15A21.819,21.819,0,0,1,407.161,208.39Z" fill="#8fc4e8"/>
            </g>
            <g id="Grupo_9480" data-name="Grupo 9480">
              <path id="Trazado_10433" data-name="Trazado 10433" d="M399.429,204.32a4.607,4.607,0,1,1-4.607-4.607A4.608,4.608,0,0,1,399.429,204.32Z" fill="#8fc4e8"/>
            </g>
          </g>
          <g id="Grupo_9482" data-name="Grupo 9482">
            <circle id="Elipse_117" data-name="Elipse 117" cx="15.431" cy="15.431" r="15.431" transform="translate(413.009 194.336) rotate(-83.008)" fill="#8fc4e8"/>
          </g>
          <g id="Grupo_9484" data-name="Grupo 9484">
            <g id="Grupo_9483" data-name="Grupo 9483">
              <path id="Trazado_10434" data-name="Trazado 10434" d="M427.7,178.753a19.79,19.79,0,0,1,.09-3.914c.05-1.268.11-2.8.179-4.57.018-1.782.076-3.808.006-6.046,0-1.12-.077-2.289-.144-3.507-.043-1.22-.184-2.48-.3-3.787-.1-1.309-.348-2.644-.521-4.028q-.192-1.029-.389-2.085c-.122-.707-.272-1.417-.459-2.127a40.8,40.8,0,0,0-8.078-17.015,37.53,37.53,0,0,0-15.383-10.78,67.553,67.553,0,0,0-15.145-3.808c-4.432-.618-8.062-.805-10.567-.982a20.137,20.137,0,0,1-3.9-.32,19.379,19.379,0,0,1,3.914-.258,94.566,94.566,0,0,1,10.684.517,64.1,64.1,0,0,1,15.512,3.574,38.078,38.078,0,0,1,16.029,11.105,41.177,41.177,0,0,1,8.27,17.66c.183.731.326,1.46.441,2.184s.245,1.434.365,2.136c.154,1.414.382,2.779.456,4.111.1,1.33.21,2.613.223,3.849.038,1.236.082,2.421.049,3.552,0,2.263-.129,4.3-.226,6.1-.148,1.788-.29,3.325-.434,4.578A19.755,19.755,0,0,1,427.7,178.753Z" fill="#8fc4e8"/>
            </g>
          </g>
          <g id="Grupo_9485" data-name="Grupo 9485" opacity="0.4">
            <path id="Trazado_10435" data-name="Trazado 10435" d="M441.246,180.9a10.621,10.621,0,1,1-10.621-10.621A10.621,10.621,0,0,1,441.246,180.9Z"/>
          </g>
          <g id="Grupo_9487" data-name="Grupo 9487">
            <g id="Grupo_9486" data-name="Grupo 9486">
              <path id="Trazado_10436" data-name="Trazado 10436" d="M427.131,170.993a2.108,2.108,0,0,1,.474-.247,7.14,7.14,0,0,1,1.473-.436,8.379,8.379,0,0,1,5.509.943,7.434,7.434,0,0,1,2.83,2.714,8.21,8.21,0,0,1,1.136,4.356,8.03,8.03,0,0,1-11.367,7.109,7.847,7.847,0,0,1-3.54-3.491,8.225,8.225,0,0,1-.906-4.412,8.344,8.344,0,0,1,1.31-3.7,7.72,7.72,0,0,1,4.4-3.425,4.966,4.966,0,0,1,1.528-.174,2.151,2.151,0,0,1,.531.076,7.564,7.564,0,0,0-2.006.283,7.694,7.694,0,0,0-4.154,3.426,8.055,8.055,0,0,0-1.2,3.545,7.857,7.857,0,0,0,.9,4.168,7.423,7.423,0,0,0,3.342,3.263,7.471,7.471,0,0,0,10.7-6.679,7.852,7.852,0,0,0-1.033-4.138,7.143,7.143,0,0,0-2.649-2.619,8.4,8.4,0,0,0-5.306-1.056A14.93,14.93,0,0,0,427.131,170.993Z" fill="#282b38"/>
            </g>
          </g>
          <g id="Grupo_9489" data-name="Grupo 9489">
            <g id="Grupo_9488" data-name="Grupo 9488">
              <path id="Trazado_10437" data-name="Trazado 10437" d="M430.532,191.36a8.538,8.538,0,0,1-.208-5.042,9.072,9.072,0,0,1,.219,2.516A8.968,8.968,0,0,1,430.532,191.36Z" fill="#282b38"/>
            </g>
          </g>
          <g id="Grupo_9491" data-name="Grupo 9491">
            <g id="Grupo_9490" data-name="Grupo 9490">
              <path id="Trazado_10438" data-name="Trazado 10438" d="M436.392,189.3a11.759,11.759,0,0,1-1.744-4.476,11.759,11.759,0,0,1,1.744,4.476Z" fill="#282b38"/>
            </g>
          </g>
          <g id="Grupo_9493" data-name="Grupo 9493">
            <g id="Grupo_9492" data-name="Grupo 9492">
              <path id="Trazado_10439" data-name="Trazado 10439" d="M440.339,184.679c-.092.1-.82-.411-1.625-1.143s-1.384-1.409-1.292-1.51.819.41,1.625,1.143S440.431,184.577,440.339,184.679Z" fill="#282b38"/>
            </g>
          </g>
          <g id="Grupo_9495" data-name="Grupo 9495">
            <g id="Grupo_9494" data-name="Grupo 9494">
              <path id="Trazado_10440" data-name="Trazado 10440" d="M440.62,178.231c-.047.129-.575.056-1.179-.163s-1.058-.5-1.011-.629.574-.056,1.179.163S440.666,178.1,440.62,178.231Z" fill="#282b38"/>
            </g>
          </g>
          <g id="Grupo_9497" data-name="Grupo 9497">
            <g id="Grupo_9496" data-name="Grupo 9496">
              <path id="Trazado_10441" data-name="Trazado 10441" d="M423.6,188.978a8.23,8.23,0,0,1,2.312-4.51,33.591,33.591,0,0,1-2.312,4.51Z" fill="#282b38"/>
            </g>
          </g>
          <g id="Grupo_9499" data-name="Grupo 9499">
            <g id="Grupo_9498" data-name="Grupo 9498">
              <path id="Trazado_10442" data-name="Trazado 10442" d="M420.429,183.567c-.095-.1.509-.845,1.35-1.67s1.6-1.415,1.7-1.317-.508.845-1.35,1.671S420.525,183.665,420.429,183.567Z" fill="#282b38"/>
            </g>
          </g>
          <g id="Grupo_9501" data-name="Grupo 9501">
            <g id="Grupo_9500" data-name="Grupo 9500">
              <path id="Trazado_10443" data-name="Trazado 10443" d="M422.907,176.211c.036.132-.4.361-.962.512s-1.054.165-1.09.033.4-.362.963-.512S422.872,176.079,422.907,176.211Z" fill="#282b38"/>
            </g>
          </g>
        </g>
      </g>
      <g id="Grupo_9509" data-name="Grupo 9509">
        <g id="Grupo_9504" data-name="Grupo 9504">
          <path id="Trazado_10444" data-name="Trazado 10444" d="M503.616,260.627c-1-5.651-3.206-8.721-4.855-10.328a28.474,28.474,0,0,0-4.887-4.2c-2.244-1.366-5.295-3.061-7.245-3.482-2.413-.522-3-3.659-.979-4.552s8.7.384,15.126,5.109,3.176-7.245,2.07-11.625-3.888-18.08-2.8-19.452c1.591-2.01,4.1-.644,5.1,3.754,1.015,4.452,4.942,17.4,7.239,16.766,2.263-.625-3.672-22.86-3.672-22.86s-2.041-4.567.587-5.388c4.74-1.482,9.3,22.572,9.677,24.87.261,1.6,2.785,1,2.411-.7-.384-1.753-6.438-22.055-1.628-23.609,3.692-1.193,3.937,19.756,7.541,23.333s-1.818-15.907,1.76-16.9c1.33-.37,2.381-.462,3.873,11.132.8,6.231.281,14.822,2.712,26.713" fill="#b78d77"/>
        </g>
        <g id="Grupo_9508" data-name="Grupo 9508">
          <g id="Grupo_9505" data-name="Grupo 9505">
            <path id="Trazado_10445" data-name="Trazado 10445" d="M491.631,305.349l21.859,31.37-10.5-80.9,31.251-12.323s39.439,151.194-13.457,153.321c0,0-36.6-1-63.921-64.369Z" fill="#b78d77"/>
          </g>
          <g id="Grupo_9507" data-name="Grupo 9507">
            <g id="Grupo_9506" data-name="Grupo 9506">
              <path id="Trazado_10446" data-name="Trazado 10446" d="M526.69,242.9c.056.081-.685.572-1.645,1.649a11.041,11.041,0,0,0-2.562,5.041l-.123.591-.435-.434a13.378,13.378,0,0,0-1.615-1.416,13.811,13.811,0,0,0-6.644-2.577c-1.849-.2-3.012,0-3.028-.111a6.753,6.753,0,0,1,3.065-.361,12.849,12.849,0,0,1,8.7,4.016l-.557.156a10.413,10.413,0,0,1,2.9-5.2A5.069,5.069,0,0,1,526.69,242.9Z" fill="#aa6c51"/>
            </g>
          </g>
        </g>
      </g>
      <g id="Grupo_9595" data-name="Grupo 9595">
        <g id="Grupo_9512" data-name="Grupo 9512">
          <g id="Grupo_9511" data-name="Grupo 9511">
            <g id="Grupo_9510" data-name="Grupo 9510">
              <path id="Trazado_10447" data-name="Trazado 10447" d="M475.928,370.755,449.475,337.2,442.6,371.519a71.093,71.093,0,0,0,4.12,41.4l3.414,8.163H327.652l3.062-10.9c1.728-13.36-.585-27.309-.182-46.443l-3.4-21.571L308.6,421.078H254.128s29.9-122.49,48.63-146.725c23.614-30.557,64.869-26.526,64.869-26.526L392.9,287.446l24.684-35.723s42.421-9.017,75.537,48L510.847,330.1h0l-8.228-62.527,38.351-8.854s13.851,61.434,12.94,94.328c-.813,29.381-13.317,44.8-30.648,46.312C496.02,401.743,475.928,370.755,475.928,370.755Z" fill="#8fc4e8"/>
            </g>
          </g>
        </g>
        <g id="Grupo_9513" data-name="Grupo 9513">
          <path id="Trazado_10448" data-name="Trazado 10448" d="M367.627,247.827l.432-4.935s18.723,4.161,25,36.851c0,0,6.3-30.169,26.464-33.208l3.4,8.691-12.382,32.235L388.8,293.818l-21.155-6.357-9.621-19.106Z" fill="#8fc4e8"/>
        </g>
        <g id="Grupo_9515" data-name="Grupo 9515">
          <g id="Grupo_9514" data-name="Grupo 9514">
            <path id="Trazado_10449" data-name="Trazado 10449" d="M315.454,260.827a5.546,5.546,0,0,1,.1.847q.064.9.176,2.432c.136,2.113.356,5.168.66,8.941.6,7.545,1.639,17.954,3.269,29.387s3.563,21.718,5.1,29.13c.766,3.706,1.411,6.7,1.873,8.767l.512,2.384a5.388,5.388,0,0,1,.146.839,5.527,5.527,0,0,1-.243-.816q-.222-.873-.6-2.363c-.52-2.054-1.217-5.039-2.028-8.739-1.625-7.4-3.605-17.684-5.247-29.132s-2.614-21.873-3.128-29.431c-.259-3.779-.426-6.84-.5-8.956q-.053-1.537-.083-2.438A5.536,5.536,0,0,1,315.454,260.827Z" fill="#282b38"/>
          </g>
        </g>
        <g id="Grupo_9517" data-name="Grupo 9517">
          <g id="Grupo_9516" data-name="Grupo 9516">
            <path id="Trazado_10450" data-name="Trazado 10450" d="M366.811,247.2" fill="none" stroke="#51545e" stroke-miterlimit="10" stroke-width="0.05"/>
          </g>
        </g>
        <g id="Grupo_9519" data-name="Grupo 9519">
          <g id="Grupo_9518" data-name="Grupo 9518">
            <path id="Trazado_10451" data-name="Trazado 10451" d="M422.461,250.558a2.215,2.215,0,0,1-.267.472l-.842,1.3-3.12,4.762c-2.618,4.03-6.157,9.649-9.831,15.993-.146.25-.29.5-.424.731l-.238.41-.2-.428a14.629,14.629,0,0,0-2.691-4.327,4.877,4.877,0,0,0-4.168-1.559,5.7,5.7,0,0,0-3.438,2.255,10.5,10.5,0,0,0-1.716,3.3c-.707,2.193-1.119,4.045-1.641,5.243a11,11,0,0,1-.655,1.349,2.168,2.168,0,0,1-.3.429c-.039-.022.343-.631.776-1.845.462-1.206.815-3.042,1.49-5.284a10.7,10.7,0,0,1,1.724-3.438,6.083,6.083,0,0,1,3.685-2.453,5.326,5.326,0,0,1,4.578,1.66,14.922,14.922,0,0,1,2.8,4.461l-.439-.018c.135-.231.279-.481.425-.732,3.68-6.354,7.272-11.953,9.968-15.937,1.347-1.993,2.465-3.588,3.253-4.679l.919-1.247A2.2,2.2,0,0,1,422.461,250.558Z" fill="#282b38"/>
          </g>
        </g>
        <g id="Grupo_9521" data-name="Grupo 9521">
          <g id="Grupo_9520" data-name="Grupo 9520">
            <path id="Trazado_10452" data-name="Trazado 10452" d="M404.633,269.07a1.712,1.712,0,0,1-.2.422c-.179.315-.4.7-.661,1.159l-2.513,4.215-3.78,6.217-2.247,3.663-1.206,1.944a1.733,1.733,0,0,1-.474.478.914.914,0,0,1-.762.1,1.926,1.926,0,0,1-.952-.909c-3.518-5.285-6.134-10.389-8.186-13.982-1.012-1.806-1.845-3.26-2.431-4.258a13.614,13.614,0,0,1-.875-1.573,1.663,1.663,0,0,1,.291.366c.175.25.435.618.749,1.106.637.969,1.517,2.4,2.57,4.184,2.132,3.553,4.8,8.632,8.292,13.879.22.343.418.633.687.714.242.088.481-.1.688-.394l1.2-1.914,2.271-3.648,3.871-6.162,2.646-4.132c.3-.442.54-.808.741-1.11A1.658,1.658,0,0,1,404.633,269.07Z" fill="#282b38"/>
          </g>
        </g>
        <g id="Grupo_9523" data-name="Grupo 9523">
          <g id="Grupo_9522" data-name="Grupo 9522">
            <path id="Trazado_10453" data-name="Trazado 10453" d="M472.448,271.969a3.821,3.821,0,0,1-.284.653c-.227.462-.527,1.069-.9,1.829-.8,1.578-1.92,3.88-3.261,6.744s-2.866,6.306-4.467,10.167c-1.579,3.87-3.226,8.161-4.8,12.719-1.561,4.565-2.9,8.962-4.04,12.985-1.113,4.029-2.035,7.681-2.733,10.765s-1.238,5.586-1.579,7.322q-.258,1.242-.414,1.995a4.024,4.024,0,0,1-.178.69,3.829,3.829,0,0,1,.079-.708q.123-.761.324-2.013c.282-1.748.764-4.265,1.426-7.362s1.544-6.766,2.635-10.811c1.115-4.037,2.446-8.449,4.011-13.024,1.581-4.569,3.245-8.865,4.85-12.733,1.627-3.859,3.183-7.3,4.573-10.143s2.552-5.13,3.4-6.682l.984-1.786A3.806,3.806,0,0,1,472.448,271.969Z" fill="#282b38"/>
          </g>
        </g>
        <g id="Grupo_9525" data-name="Grupo 9525">
          <g id="Grupo_9524" data-name="Grupo 9524">
            <path id="Trazado_10454" data-name="Trazado 10454" d="M416.422,396.236a4.456,4.456,0,0,1-.765-.027l-2.187-.172c-.95-.075-2.11-.181-3.453-.348s-2.877-.317-4.561-.58c-3.376-.46-7.375-1.155-11.787-2.07-4.4-.946-9.219-2.13-14.208-3.6-4.983-1.494-9.663-3.133-13.87-4.748-4.2-1.645-7.925-3.248-11-4.707-1.553-.7-2.923-1.408-4.136-2.007s-2.246-1.139-3.082-1.6l-1.925-1.05a4.438,4.438,0,0,1-.656-.4,4.342,4.342,0,0,1,.7.308l1.967.967c.849.429,1.89.948,3.116,1.517s2.6,1.259,4.161,1.938c3.092,1.415,6.827,2.981,11.021,4.6,4.206,1.587,8.878,3.208,13.848,4.7,4.975,1.467,9.772,2.661,14.161,3.63,4.4.936,8.38,1.666,11.743,2.169,1.677.285,3.206.464,4.544.651s2.493.328,3.439.432l2.176.265A4.456,4.456,0,0,1,416.422,396.236Z" fill="#282b38"/>
          </g>
        </g>
        <g id="Grupo_9527" data-name="Grupo 9527">
          <g id="Grupo_9526" data-name="Grupo 9526">
            <path id="Trazado_10455" data-name="Trazado 10455" d="M411.005,398.379a2.043,2.043,0,0,1-.5.13l-1.461.277c-1.271.235-3.118.526-5.406.841-4.576.634-10.936,1.279-17.985,1.527s-13.441.039-18.051-.275c-2.3-.155-4.167-.317-5.451-.464l-1.477-.175a.261.261,0,1,1,.01-.1l1.484.082c1.287.087,3.151.2,5.454.306,4.607.224,10.98.37,18.014.13s13.378-.836,17.958-1.38c2.29-.27,4.142-.507,5.42-.684l1.475-.185A2.043,2.043,0,0,1,411.005,398.379Z" fill="#282b38"/>
          </g>
        </g>
        <g id="Grupo_9529" data-name="Grupo 9529">
          <g id="Grupo_9528" data-name="Grupo 9528">
            <path id="Trazado_10456" data-name="Trazado 10456" d="M454.35,343.382a3.948,3.948,0,0,1,.144-.719q.191-.768.507-2.038c.462-1.818,1.108-4.362,1.9-7.483,1.606-6.317,3.74-15.069,6.362-24.671,1.323-4.8,2.675-9.347,3.986-13.457,1.333-4.1,2.609-7.775,3.788-10.818.562-1.532,1.138-2.891,1.625-4.092s.928-2.226,1.307-3.056q.545-1.194.87-1.912a4.14,4.14,0,0,1,.334-.653,4.027,4.027,0,0,1-.242.693l-.784,1.947c-.351.841-.772,1.873-1.227,3.084s-1.014,2.575-1.555,4.112c-1.135,3.053-2.374,6.729-3.681,10.833-1.285,4.112-2.621,8.656-3.943,13.451-2.62,9.591-4.807,18.33-6.5,24.627-.844,3.15-1.542,5.695-2.055,7.446q-.372,1.257-.6,2.013A4.163,4.163,0,0,1,454.35,343.382Z" fill="#282b38"/>
          </g>
        </g>
        <g id="Grupo_9531" data-name="Grupo 9531">
          <g id="Grupo_9530" data-name="Grupo 9530">
            <path id="Trazado_10457" data-name="Trazado 10457" d="M326.492,341.741a4.8,4.8,0,0,1-.521-.6c-.318-.414-.832-.993-1.4-1.81a52.707,52.707,0,0,1-4.368-7.182,68.971,68.971,0,0,1-4.584-11.6,101.791,101.791,0,0,1-3.187-14.929c-1.459-10.747-1.7-20.559-2.138-27.626-.2-3.538-.384-6.4-.533-8.374q-.105-1.428-.166-2.276a4.826,4.826,0,0,1-.027-.8,4.767,4.767,0,0,1,.126.787c.063.518.163,1.282.259,2.268.208,1.972.448,4.832.691,8.369.53,7.067.825,16.873,2.279,27.579a104.944,104.944,0,0,0,3.134,14.868,71.4,71.4,0,0,0,4.46,11.568,58.065,58.065,0,0,0,4.212,7.228c.538.831,1.025,1.427,1.317,1.86A4.692,4.692,0,0,1,326.492,341.741Z" fill="#282b38"/>
          </g>
        </g>
        <g id="Grupo_9533" data-name="Grupo 9533">
          <g id="Grupo_9532" data-name="Grupo 9532">
            <path id="Trazado_10458" data-name="Trazado 10458" d="M321.839,319.723c.029.146-1.419.461-2.956,1.373-1.549.895-2.531,2-2.644,1.908a6.944,6.944,0,0,1,5.6-3.281Z" fill="#282b38"/>
          </g>
        </g>
        <g id="Grupo_9535" data-name="Grupo 9535">
          <g id="Grupo_9534" data-name="Grupo 9534">
            <path id="Trazado_10459" data-name="Trazado 10459" d="M320.908,306.879a25.853,25.853,0,0,0-3.733,1.344,26.141,26.141,0,0,0-3.224,2.315,7.919,7.919,0,0,1,6.957-3.659Z" fill="#282b38"/>
          </g>
        </g>
        <g id="Grupo_9537" data-name="Grupo 9537">
          <g id="Grupo_9536" data-name="Grupo 9536">
            <path id="Trazado_10460" data-name="Trazado 10460" d="M318.1,295.138a27.15,27.15,0,0,0-2.964,1,26.9,26.9,0,0,0-2.588,1.756,5.692,5.692,0,0,1,5.552-2.756Z" fill="#282b38"/>
          </g>
        </g>
        <g id="Grupo_9539" data-name="Grupo 9539">
          <g id="Grupo_9538" data-name="Grupo 9538">
            <path id="Trazado_10461" data-name="Trazado 10461" d="M316.732,283.02c.019.145-1.251.387-2.693,1.01s-2.5,1.359-2.593,1.245a6.936,6.936,0,0,1,5.286-2.255Z" fill="#282b38"/>
          </g>
        </g>
        <g id="Grupo_9541" data-name="Grupo 9541">
          <g id="Grupo_9540" data-name="Grupo 9540">
            <path id="Trazado_10462" data-name="Trazado 10462" d="M315.945,273.22c.019.145-1.269.377-2.7,1.058-1.439.666-2.44,1.508-2.54,1.4a6.456,6.456,0,0,1,5.24-2.458Z" fill="#282b38"/>
          </g>
        </g>
        <g id="Grupo_9543" data-name="Grupo 9543">
          <g id="Grupo_9542" data-name="Grupo 9542">
            <path id="Trazado_10463" data-name="Trazado 10463" d="M456.921,328.4c-.119.084-.77-.793-1.963-1.262a13.394,13.394,0,0,0-2.287-.467,2.652,2.652,0,0,1,2.473.008C456.5,327.225,457.048,328.363,456.921,328.4Z" fill="#282b38"/>
          </g>
        </g>
        <g id="Grupo_9545" data-name="Grupo 9545">
          <g id="Grupo_9544" data-name="Grupo 9544">
            <path id="Trazado_10464" data-name="Trazado 10464" d="M460.642,318.388a6.435,6.435,0,0,0-5.3-3.427c-.009-.058.371-.189,1.013-.168a4.861,4.861,0,0,1,4.029,2.6C460.661,317.972,460.7,318.372,460.642,318.388Z" fill="#282b38"/>
          </g>
        </g>
        <g id="Grupo_9547" data-name="Grupo 9547">
          <g id="Grupo_9546" data-name="Grupo 9546">
            <path id="Trazado_10465" data-name="Trazado 10465" d="M463.43,307.385a6.722,6.722,0,0,0-5.576-2.211c-.017-.056.316-.234.914-.318a4.8,4.8,0,0,1,4.214,1.671C463.36,307,463.482,307.355,463.43,307.385Z" fill="#282b38"/>
          </g>
        </g>
        <g id="Grupo_9549" data-name="Grupo 9549">
          <g id="Grupo_9548" data-name="Grupo 9548">
            <path id="Trazado_10466" data-name="Trazado 10466" d="M466.715,296.809c-.128.066-.649-.914-1.8-1.505a10.234,10.234,0,0,0-2.258-.64c-.012-.061.255-.185.724-.211a3.576,3.576,0,0,1,3.1,1.639C466.723,296.494,466.771,296.784,466.715,296.809Z" fill="#282b38"/>
          </g>
        </g>
        <g id="Grupo_9551" data-name="Grupo 9551">
          <g id="Grupo_9550" data-name="Grupo 9550">
            <path id="Trazado_10467" data-name="Trazado 10467" d="M470.559,287.1a4.991,4.991,0,0,0-4.663-2.158c-.02-.055.263-.239.793-.327a3.706,3.706,0,0,1,3.607,1.669C470.572,286.745,470.615,287.08,470.559,287.1Z" fill="#282b38"/>
          </g>
        </g>
        <g id="Grupo_9553" data-name="Grupo 9553">
          <g id="Grupo_9552" data-name="Grupo 9552">
            <path id="Trazado_10468" data-name="Trazado 10468" d="M407.7,273.22a1.946,1.946,0,0,1-.215.463l-.7,1.278c-.622,1.1-1.539,2.69-2.7,4.636s-2.559,4.251-4.163,6.78c-.8,1.264-1.659,2.584-2.575,3.935a44.328,44.328,0,0,1-3.026,4.069,4.261,4.261,0,0,1-1.026.918.679.679,0,0,1-.438.087,1.358,1.358,0,0,1-.382-.121,3.345,3.345,0,0,1-.568-.385,14.266,14.266,0,0,1-1.75-1.825c-1.048-1.264-1.972-2.54-2.835-3.767-1.721-2.457-3.18-4.727-4.388-6.643s-2.149-3.489-2.789-4.582c-.29-.511-.529-.929-.722-1.268a.257.257,0,1,1,.086-.052l.8,1.218,2.92,4.494c1.243,1.89,2.731,4.136,4.465,6.569.87,1.214,1.8,2.479,2.835,3.719a14.115,14.115,0,0,0,1.687,1.752c.3.241.68.508.865.358a4.1,4.1,0,0,0,.871-.8,45.891,45.891,0,0,0,2.994-4.013c.918-1.34,1.779-2.652,2.591-3.907,1.623-2.512,3.052-4.8,4.249-6.716,1.166-1.876,2.124-3.416,2.831-4.552l.783-1.231A1.942,1.942,0,0,1,407.7,273.22Z" fill="#282b38"/>
          </g>
        </g>
        <g id="Grupo_9555" data-name="Grupo 9555">
          <g id="Grupo_9554" data-name="Grupo 9554">
            <path id="Trazado_10469" data-name="Trazado 10469" d="M386.391,287.447c-.058.008-.176-.336-.133-.913a4.013,4.013,0,0,1,2.654-3.36c.551-.176.913-.14.918-.083a5.253,5.253,0,0,0-3.439,4.356Z" fill="#282b38"/>
          </g>
        </g>
        <g id="Grupo_9557" data-name="Grupo 9557">
          <g id="Grupo_9556" data-name="Grupo 9556">
            <path id="Trazado_10470" data-name="Trazado 10470" d="M392.96,295.332a17.331,17.331,0,0,1-.055-7.886,27.015,27.015,0,0,1,.068,3.943A27.006,27.006,0,0,1,392.96,295.332Z" fill="#282b38"/>
          </g>
        </g>
        <g id="Grupo_9559" data-name="Grupo 9559">
          <g id="Grupo_9558" data-name="Grupo 9558">
            <path id="Trazado_10471" data-name="Trazado 10471" d="M400.419,285.286c-.139.039-.45-1.066-1.489-1.913a10.054,10.054,0,0,0-2.147-1.126c0-.061.3-.126.775-.051a3.7,3.7,0,0,1,2.774,2.319C400.491,284.971,400.479,285.274,400.419,285.286Z" fill="#282b38"/>
          </g>
        </g>
        <g id="Grupo_9561" data-name="Grupo 9561">
          <g id="Grupo_9560" data-name="Grupo 9560">
            <path id="Trazado_10472" data-name="Trazado 10472" d="M405.292,277.136a10.018,10.018,0,0,0-1.234-2.063c-.894-.983-2.006-1.229-1.975-1.37.009-.06.308-.09.769.042a3.654,3.654,0,0,1,2.45,2.62C405.4,276.834,405.353,277.131,405.292,277.136Z" fill="#282b38"/>
          </g>
        </g>
        <g id="Grupo_9563" data-name="Grupo 9563">
          <g id="Grupo_9562" data-name="Grupo 9562">
            <path id="Trazado_10473" data-name="Trazado 10473" d="M381.42,279.985c-.056.012-.215-.376-.24-1.046a5.225,5.225,0,0,1,2.364-4.435c.571-.354.982-.438,1-.384a6.9,6.9,0,0,0-3.127,5.865Z" fill="#282b38"/>
          </g>
        </g>
        <g id="Grupo_9564" data-name="Grupo 9564">
          <path id="Trazado_10474" data-name="Trazado 10474" d="M393.059,279.743" fill="none" stroke="#000" stroke-miterlimit="10" stroke-width="1"/>
        </g>
        <g id="Grupo_9566" data-name="Grupo 9566" opacity="0.4">
          <g id="Grupo_9565" data-name="Grupo 9565">
            <path id="Trazado_10475" data-name="Trazado 10475" d="M367.371,247.753c2.143,8.218,5.719,21.6,9.592,32.077a3.392,3.392,0,0,0,.738,1.329c.983.935,2.673.361,3.6-.631a24.193,24.193,0,0,0,2.11-3.223,4.163,4.163,0,0,1,3.066-2.1,3.614,3.614,0,0,1,2.722,1.367,15.058,15.058,0,0,1,1.667,2.663c.276.492.63,1.021,1.182,1.135a.713.713,0,0,0,.845-.993l-3.425-8.878s-1.57-6.514-7.015-5.5c-6.087,1.133-3.327,11.128-3.327,11.128S367.28,247.4,367.371,247.753Z"/>
          </g>
        </g>
        <g id="Grupo_9568" data-name="Grupo 9568">
          <g id="Grupo_9567" data-name="Grupo 9567">
            <path id="Trazado_10476" data-name="Trazado 10476" d="M393.059,279.743a3.2,3.2,0,0,1-.293-.581c-.176-.389-.424-.966-.733-1.714l-2.524-6.367c-.271-.669-.555-1.37-.874-2.087a6.465,6.465,0,0,0-1.246-2.023,5.954,5.954,0,0,0-4.741-1.767,4.585,4.585,0,0,0-2.5,1.12,6.268,6.268,0,0,0-1.351,2.587,7.348,7.348,0,0,0-.207,3.04,24.688,24.688,0,0,0,.564,3.182l.281,1.14-.474.142c-1.4-4.031-3.015-7.761-4.487-11.14s-2.826-6.406-3.886-8.976-1.839-4.679-2.31-6.157c-.249-.734-.4-1.317-.513-1.709a2.936,2.936,0,0,1-.14-.606,2.983,2.983,0,0,1,.233.577c.14.383.323.954.6,1.676.524,1.454,1.346,3.538,2.448,6.085s2.476,5.559,3.982,8.928,3.127,7.105,4.543,11.161l-.475.142c-.089-.364-.186-.756-.284-1.15A24.858,24.858,0,0,1,378.1,272a7.783,7.783,0,0,1,.236-3.241,6.682,6.682,0,0,1,1.483-2.774,5.015,5.015,0,0,1,2.777-1.233,6.356,6.356,0,0,1,5.088,1.937,6.836,6.836,0,0,1,1.3,2.153c.313.73.589,1.437.85,2.113l2.378,6.424.645,1.747A3.176,3.176,0,0,1,393.059,279.743Z" fill="#282b38"/>
          </g>
        </g>
        <g id="Grupo_9570" data-name="Grupo 9570" opacity="0.4">
          <g id="Grupo_9569" data-name="Grupo 9569">
            <path id="Trazado_10477" data-name="Trazado 10477" d="M393.545,279.5c-.207.142-.056.509.19.563a.876.876,0,0,0,.686-.245c1.273-.985,1.985-2.507,2.882-3.844s2.211-2.619,3.821-2.626c1.711-.008,3.082,1.426,3.927,2.914s1.422,3.173,2.64,4.375A120.139,120.139,0,0,0,422.2,251.543c-2.009,1.392-3.324,3.552-4.581,5.648l-9.74,16.246a12.646,12.646,0,0,0-2.745-4.331,5.349,5.349,0,0,0-4.722-1.512c-1.9.445-3.209,2.159-4.135,3.872a23.2,23.2,0,0,0-2.6,8.093"/>
          </g>
        </g>
        <g id="Grupo_9572" data-name="Grupo 9572">
          <g id="Grupo_9571" data-name="Grupo 9571">
            <path id="Trazado_10478" data-name="Trazado 10478" d="M521.25,359.61a6.328,6.328,0,0,1-.649-1.094c-.392-.717-.927-1.772-1.56-3.089a113.441,113.441,0,0,1-7.692-21.477c-.347-1.42-.6-2.574-.756-3.378a6.134,6.134,0,0,1-.192-1.256,6.286,6.286,0,0,1,.38,1.212l.907,3.333c.778,2.809,1.936,6.667,3.433,10.855s3.056,7.9,4.239,10.564l1.414,3.151A6.23,6.23,0,0,1,521.25,359.61Z" fill="#282b38"/>
          </g>
        </g>
        <g id="Grupo_9574" data-name="Grupo 9574">
          <g id="Grupo_9573" data-name="Grupo 9573">
            <path id="Trazado_10479" data-name="Trazado 10479" d="M511.743,357.73a5.242,5.242,0,0,1-.4-1.094c-.232-.712-.522-1.757-.84-3.058a66.583,66.583,0,0,1-1.641-20.8c.11-1.335.233-2.412.35-3.152a5.262,5.262,0,0,1,.225-1.143,5.3,5.3,0,0,1-.033,1.164c-.058.744-.127,1.822-.192,3.153a80.322,80.322,0,0,0,1.633,20.7c.272,1.3.51,2.358.684,3.084A5.307,5.307,0,0,1,511.743,357.73Z" fill="#282b38"/>
          </g>
        </g>
        <g id="Grupo_9576" data-name="Grupo 9576">
          <g id="Grupo_9575" data-name="Grupo 9575">
            <path id="Trazado_10480" data-name="Trazado 10480" d="M542.3,270.19a3.6,3.6,0,0,1,.766.293l.15.065-.159.057a134.73,134.73,0,0,1-19.087,4.883c-5.581,1.028-10.687,1.624-14.391,1.921-1.851.151-3.352.242-4.391.276a9.849,9.849,0,0,1-1.614.008,10.063,10.063,0,0,1,1.6-.2l4.371-.432c3.688-.385,8.771-1.035,14.335-2.06,9.276-1.685,16.906-3.937,19.137-4.521l-.009.123A3.52,3.52,0,0,1,542.3,270.19Z" fill="#282b38"/>
          </g>
        </g>
        <g id="Grupo_9578" data-name="Grupo 9578">
          <g id="Grupo_9577" data-name="Grupo 9577">
            <path id="Trazado_10481" data-name="Trazado 10481" d="M533.686,265.854c-.013-.015.1-.164.408-.252a1.584,1.584,0,0,1,1.281.284,1.834,1.834,0,0,1,.826,1.78,1.476,1.476,0,0,1-.733,1.005,2.043,2.043,0,0,1-1.279.235,2.11,2.11,0,0,1-1.18-.547,1.58,1.58,0,0,1-.469-1.147,2,2,0,0,1,1.068-1.643,1.809,1.809,0,0,1,1.292-.206c.306.08.428.215.417.232a2.128,2.128,0,0,0-1.528.274,1.682,1.682,0,0,0-.792,1.343,1.308,1.308,0,0,0,1.255,1.2,1.28,1.28,0,0,0,1.5-.844,1.637,1.637,0,0,0-1.628-1.779C533.855,265.811,533.709,265.9,533.686,265.854Z" fill="#282b38"/>
          </g>
        </g>
        <g id="Grupo_9580" data-name="Grupo 9580">
          <g id="Grupo_9579" data-name="Grupo 9579">
            <path id="Trazado_10482" data-name="Trazado 10482" d="M385.087,286.958a3.935,3.935,0,0,1-.546.477c-.378.288-.9.765-1.651,1.267a37.162,37.162,0,0,1-6.652,3.784,40.492,40.492,0,0,1-10.916,3.105,41.8,41.8,0,0,1-6.712.361,41.254,41.254,0,0,1-7.164-.887c-4.837-1.092-9.2-2.876-13.3-3.976a35.987,35.987,0,0,0-5.9-1.163,24.283,24.283,0,0,0-5.222.052,15.994,15.994,0,0,0-7.076,2.492,25.667,25.667,0,0,0-2.166,1.752,9.607,9.607,0,0,1,2.056-1.91,15.708,15.708,0,0,1,7.14-2.682,24.157,24.157,0,0,1,5.306-.113,35.566,35.566,0,0,1,5.979,1.131c4.143,1.086,8.512,2.856,13.291,3.933a41.49,41.49,0,0,0,7.072.886,42.264,42.264,0,0,0,6.636-.328,41.273,41.273,0,0,0,10.837-2.974,40.43,40.43,0,0,0,6.682-3.621c.765-.476,1.3-.926,1.7-1.188A3.9,3.9,0,0,1,385.087,286.958Z" fill="#fafafa"/>
          </g>
        </g>
        <g id="Grupo_9582" data-name="Grupo 9582">
          <g id="Grupo_9581" data-name="Grupo 9581">
            <path id="Trazado_10483" data-name="Trazado 10483" d="M448.631,328.141a1.725,1.725,0,0,1-.3-.139l-.865-.45c-.381-.193-.874-.39-1.442-.647-.591-.2-1.255-.491-2.042-.692a31.508,31.508,0,0,0-13.622-.5,79.006,79.006,0,0,0-9.265,2.1c-3.3.9-6.818,1.946-10.607,2.718a38.877,38.877,0,0,1-12.083.738,57.837,57.837,0,0,1-12.655-2.978c-4.222-1.421-8.264-3.009-12.233-4.332a61.973,61.973,0,0,0-11.678-2.865,54.677,54.677,0,0,0-20.238,1.1,59.65,59.65,0,0,0-7.455,2.406c-1.057.462-2.052.869-2.942,1.3-.882.448-1.7.824-2.415,1.22l-1.887,1.055-1.348.832c-.348.213-.623.381-.833.508a1.646,1.646,0,0,1-.293.16,1.682,1.682,0,0,1,.265-.2l.807-.55c.358-.236.793-.542,1.326-.874l1.87-1.1c.705-.411,1.526-.8,2.4-1.264.888-.445,1.882-.866,2.94-1.342a58.424,58.424,0,0,1,7.475-2.49A54.465,54.465,0,0,1,361.9,320.65a61.977,61.977,0,0,1,11.77,2.857c3.988,1.323,8.032,2.907,12.238,4.323a57.72,57.72,0,0,0,12.547,2.965,38.639,38.639,0,0,0,11.943-.7c3.765-.754,7.279-1.782,10.589-2.668a77.961,77.961,0,0,1,9.322-2.054,31.1,31.1,0,0,1,13.729.657c.789.217,1.454.521,2.042.741.567.274,1.056.486,1.432.695l.844.494A1.614,1.614,0,0,1,448.631,328.141Z" fill="#fafafa"/>
          </g>
        </g>
        <g id="Grupo_9584" data-name="Grupo 9584">
          <g id="Grupo_9583" data-name="Grupo 9583">
            <path id="Trazado_10484" data-name="Trazado 10484" d="M398.242,286.25a22.448,22.448,0,0,0,2.556.56,18.414,18.414,0,0,0,7.053-.564,85.15,85.15,0,0,0,9.934-3.715,32.952,32.952,0,0,1,6.053-1.8,28.773,28.773,0,0,1,6.775-.39,39.431,39.431,0,0,1,12.688,3.046,68.542,68.542,0,0,1,9.463,4.907c2.588,1.582,4.618,2.959,6.019,3.912l1.6,1.115a3.455,3.455,0,0,1,.539.418,3.533,3.533,0,0,1-.594-.334l-1.652-1.038c-1.432-.9-3.489-2.234-6.092-3.773a71.981,71.981,0,0,0-9.456-4.784,39.65,39.65,0,0,0-12.543-2.974,28.655,28.655,0,0,0-6.66.373,33.073,33.073,0,0,0-5.976,1.753c-3.715,1.446-7.031,2.95-10.014,3.629a17.838,17.838,0,0,1-7.166.415A8.7,8.7,0,0,1,398.242,286.25Z" fill="#fafafa"/>
          </g>
        </g>
        <g id="Grupo_9586" data-name="Grupo 9586">
          <g id="Grupo_9585" data-name="Grupo 9585">
            <path id="Trazado_10485" data-name="Trazado 10485" d="M456.687,261.166a8.456,8.456,0,0,1-1.421.433c-.461.128-1.028.272-1.695.4s-1.42.312-2.268.432a52.918,52.918,0,0,1-5.976.644,54.419,54.419,0,0,1-14.641-1.245,52.871,52.871,0,0,1-5.782-1.644c-.815-.261-1.528-.563-2.162-.808s-1.17-.479-1.6-.683a8.464,8.464,0,0,1-1.328-.666,8.643,8.643,0,0,1,1.4.488c.442.176.985.387,1.626.6s1.358.5,2.175.734c1.616.528,3.573,1.052,5.768,1.531a58.587,58.587,0,0,0,14.524,1.235c2.244-.1,4.261-.288,5.944-.535.845-.1,1.6-.249,2.267-.357s1.239-.219,1.7-.319A8.6,8.6,0,0,1,456.687,261.166Z" fill="#fafafa"/>
          </g>
        </g>
        <g id="Grupo_9588" data-name="Grupo 9588">
          <g id="Grupo_9587" data-name="Grupo 9587">
            <path id="Trazado_10486" data-name="Trazado 10486" d="M315.858,267.593a2.571,2.571,0,0,1,.436-.386c.3-.239.734-.592,1.312-1.027,1.149-.879,2.838-2.118,4.988-3.562a69.871,69.871,0,0,1,18.1-8.938,42.627,42.627,0,0,1,20.065-1.4,31.177,31.177,0,0,1,5.9,1.688c.681.249,1.179.518,1.527.671a2.677,2.677,0,0,1,.514.273c-.019.042-.754-.276-2.109-.764a34.807,34.807,0,0,0-5.894-1.523,43.674,43.674,0,0,0-19.859,1.529,73.608,73.608,0,0,0-18.056,8.757c-2.167,1.4-3.884,2.6-5.066,3.425l-1.366.951A2.62,2.62,0,0,1,315.858,267.593Z" fill="#fafafa"/>
          </g>
        </g>
        <g id="Grupo_9590" data-name="Grupo 9590">
          <g id="Grupo_9589" data-name="Grupo 9589">
            <path id="Trazado_10487" data-name="Trazado 10487" d="M441.721,372.464a1.332,1.332,0,0,1-.281.078l-.838.181a9.073,9.073,0,0,1-1.378.208l-.886.1-1.014.027c-2.875.122-7.015-.621-11.878-2.186-2.441-.761-5.079-1.692-7.949-2.543a48.3,48.3,0,0,0-9.35-1.814c-6.7-.641-14.128.166-21.77,1.561-7.657,1.378-14.894,3.117-21.621,3.917a67.568,67.568,0,0,1-17.934.117,37.333,37.333,0,0,1-11.563-3.493c-.634-.333-1.2-.618-1.683-.886l-1.176-.748-.717-.468a1.255,1.255,0,0,1-.234-.173,1.28,1.28,0,0,1,.262.131l.742.425,1.2.7,1.695.84a38.36,38.36,0,0,0,11.528,3.32,68.439,68.439,0,0,0,17.828-.223c6.691-.821,13.913-2.569,21.59-3.952,7.66-1.4,15.136-2.2,21.9-1.528a48.231,48.231,0,0,1,9.424,1.875c2.88.872,5.511,1.823,7.938,2.6a38.005,38.005,0,0,0,11.771,2.328l1.006-.005.881-.072a9.693,9.693,0,0,0,1.375-.16l.844-.132A1.231,1.231,0,0,1,441.721,372.464Z" fill="#fafafa"/>
          </g>
        </g>
        <g id="Grupo_9592" data-name="Grupo 9592" opacity="0.3">
          <g id="Grupo_9591" data-name="Grupo 9591">
            <path id="Trazado_10488" data-name="Trazado 10488" d="M353.616,379.353c4.533,11.307,13.3,19.34,25.371,21s24.278-1.1,36.033-4.3c-21.373-2.989-40.276-5.951-61.4-16.7"/>
          </g>
        </g>
        <g id="Grupo_9594" data-name="Grupo 9594">
          <g id="Grupo_9593" data-name="Grupo 9593">
            <path id="Trazado_10489" data-name="Trazado 10489" d="M444.782,410.449a1.405,1.405,0,0,1-.3-.107l-.846-.362-3.235-1.435c-2.811-1.236-6.84-3.134-11.874-5.315a52,52,0,0,0-8.469-2.866,27.158,27.158,0,0,0-10.162-.473,36.658,36.658,0,0,0-5.4,1.226,54.739,54.739,0,0,0-5.414,2.048c-3.612,1.574-7.2,3.536-10.9,5.516a86.74,86.74,0,0,1-11.119,5.175,34.508,34.508,0,0,1-11.193,2.279,25.163,25.163,0,0,1-10.133-1.987,66.76,66.76,0,0,1-8.026-4.083c-2.387-1.36-4.537-2.6-6.5-3.553a34.669,34.669,0,0,0-5.161-2.1,18.8,18.8,0,0,0-1.964-.528,10.987,10.987,0,0,0-1.463-.283l-.908-.144a1.617,1.617,0,0,1-.308-.066,1.449,1.449,0,0,1,.313.015l.917.1a10.018,10.018,0,0,1,1.48.238,17.824,17.824,0,0,1,1.988.488,33.411,33.411,0,0,1,5.227,2.037c1.982.932,4.15,2.158,6.547,3.5a67.942,67.942,0,0,0,8.008,4.006,24.826,24.826,0,0,0,9.971,1.912,34.178,34.178,0,0,0,11.035-2.279,87.342,87.342,0,0,0,11.051-5.154c3.692-1.979,7.295-3.946,10.936-5.525a55.221,55.221,0,0,1,5.469-2.056,36.885,36.885,0,0,1,5.474-1.225,27.455,27.455,0,0,1,10.318.525,51.53,51.53,0,0,1,8.514,2.944c5.031,2.229,9.027,4.17,11.817,5.461l3.2,1.52.825.406A1.669,1.669,0,0,1,444.782,410.449Z" fill="#fafafa"/>
          </g>
        </g>
      </g>
    </g>
  </g>
</svg>
