<svg xmlns="http://www.w3.org/2000/svg" width="276.179" height="276.179" viewBox="0 0 276.179 276.179">
  <g id="Grupo_9325" data-name="Grupo 9325" transform="translate(112 -24.001)">
    <path id="Trazado_10238" data-name="Trazado 10238" d="M164.179,162.09a138.27,138.27,0,0,1-4.9,36.592,137.425,137.425,0,0,1-6.071,17.449A138.239,138.239,0,0,1,126,257.417c-.407.423-.811.84-1.218,1.258a139.039,139.039,0,0,1-15.257,13.453c-.626.478-1.262.953-1.9,1.42q-3.144,2.3-6.42,4.429a136.315,136.315,0,0,1-12.148,7.04c-.721.373-1.447.74-2.174,1.089a134.965,134.965,0,0,1-13.955,5.923q-1.346.483-2.706.942a134.613,134.613,0,0,1-13.483,3.793A138.171,138.171,0,0,1,29.1,300.146q-1.5.034-3.009.033c-.236,0-.474,0-.71-.006a137.429,137.429,0,0,1-74.361-22.166q-3.66-2.377-7.152-4.966a.006.006,0,0,1-.006-.006q-3.72-2.756-7.236-5.754-4.972-4.226-9.516-8.911A139.393,139.393,0,0,1-87.55,240.558q-3.78-5.462-7.033-11.294c0-.006-.006-.006-.006-.01A138.062,138.062,0,0,1-102,213.781a138.932,138.932,0,0,1-5.377-16.119A138.405,138.405,0,0,1-112,162.09a138.089,138.089,0,1,1,276.179,0Zm0,0" fill="#66baed"/>
    <path id="Trazado_10239" data-name="Trazado 10239" d="M245.26,453.666a137.661,137.661,0,0,1-95.682,41.472v-3.631a44.166,44.166,0,0,1,32.715-42.656q1.03-.278,2.084-.506a43.832,43.832,0,0,1,5.744-.847c1.195-.095,2.4-.145,3.614-.145h28.755a44.134,44.134,0,0,1,9.368.992c.175.034.35.072.518.112.508.118,1.016.243,1.517.378.017.006.023.006.04.012a43.922,43.922,0,0,1,11.328,4.819Zm0,0" transform="translate(-120.48 -194.991)" fill="#3d4159"/>
    <path id="Trazado_10240" data-name="Trazado 10240" d="M261.88,449.192l-.105.5-3.93,18.273c-.626.478-1.262.953-1.9,1.42a137.512,137.512,0,0,1-34.7,18.481q-1.346.483-2.706.942L210.135,449.7l-.108-.506Zm0,0" transform="translate(-148.322 -195.838)" fill="#66baed"/>
    <path id="Trazado_10241" data-name="Trazado 10241" d="M259.824,476.892,249.4,493.614c-.721.373-1.447.74-2.174,1.089l-11.1-17.811Zm0,0" transform="translate(-160.339 -208.596)" fill="#3d4159"/>
    <path id="Trazado_10242" data-name="Trazado 10242" d="M235.951,460.066,216.07,471.114l-6.047-28.13,12.354-7.276" transform="translate(-148.32 -189.628)" fill="#2ba1cf"/>
    <path id="Trazado_10243" data-name="Trazado 10243" d="M284.019,442.988l-4.035,18.77c-.626.478-1.262.953-1.9,1.42q-3.144,2.3-6.42,4.429l-13.572-7.542,13.572-24.353Zm0,0" transform="translate(-170.461 -189.629)" fill="#2ba1cf"/>
    <path id="Trazado_10244" data-name="Trazado 10244" d="M313.53,453.255c-.407.423-.811.84-1.218,1.258a138.991,138.991,0,0,1-17.156,14.874l5.788-19.705.145-.489Zm0,0" transform="translate(-187.531 -195.838)" fill="#2a2f4f"/>
    <path id="Trazado_10245" data-name="Trazado 10245" d="M209.506,487.868a136.742,136.742,0,0,1-16.189,4.734l-2.237-5.451h6.308l-12.857-33.519,13.606-4.44.147.489Zm0,0" transform="translate(-136.579 -195.838)" fill="#2a2f4f"/>
    <path id="Trazado_10246" data-name="Trazado 10246" d="M260.4,415.817v19.335a15.755,15.755,0,0,1-31.509,0V415.817Zm0,0" transform="translate(-157.009 -180.466)" fill="#eab599"/>
    <path id="Trazado_10247" data-name="Trazado 10247" d="M268.462,449.392v1.224a15.755,15.755,0,0,1-11.1,15.049,15.753,15.753,0,0,1-10.967-13q1.581.095,3.176.1a54.437,54.437,0,0,0,18.888-3.374Zm0,0" transform="translate(-165.074 -195.93)" fill="#f6caae"/>
    <path id="Trazado_10248" data-name="Trazado 10248" d="M152.957,344.565a14.64,14.64,0,1,1-12.3-14.463,14.649,14.649,0,0,1,12.3,14.463Zm0,0" transform="translate(-108.54 -140.9)" fill="#f6caae"/>
    <path id="Trazado_10249" data-name="Trazado 10249" d="M165.811,344.728a14.649,14.649,0,0,1-12.3,14.463,54.735,54.735,0,0,1,0-28.924,14.65,14.65,0,0,1,12.3,14.461Zm0,0" transform="translate(-121.394 -141.063)" fill="#eab599"/>
    <path id="Trazado_10250" data-name="Trazado 10250" d="M151.581,352.6a5.236,5.236,0,1,1-5.236-5.236,5.235,5.235,0,0,1,5.236,5.236Zm0,0" transform="translate(-116.579 -148.939)" fill="#eab599"/>
    <path id="Trazado_10251" data-name="Trazado 10251" d="M366.634,339.582a137.427,137.427,0,0,1-6.071,17.449A14.655,14.655,0,1,1,350.509,330.1a14.863,14.863,0,0,1,2.349-.186,14.643,14.643,0,0,1,13.776,9.667Zm0,0" transform="translate(-207.358 -140.9)" fill="#f6caae"/>
    <path id="Trazado_10252" data-name="Trazado 10252" d="M338.207,344.728a14.651,14.651,0,0,0,12.306,14.463,54.808,54.808,0,0,0,0-28.924,14.65,14.65,0,0,0-12.306,14.461Zm0,0" transform="translate(-207.36 -141.063)" fill="#eab599"/>
    <path id="Trazado_10253" data-name="Trazado 10253" d="M266.061,257.618v20.757a54.513,54.513,0,0,1-45.763,53.8l-.266.044a53.83,53.83,0,0,1-8.483.659,54.507,54.507,0,0,1-54.506-54.508V257.618a54.477,54.477,0,0,1,54.506-54.512h.006a54.472,54.472,0,0,1,54.505,54.512Zm0,0" transform="translate(-123.918 -82.494)" fill="#eab599"/>
    <path id="Trazado_10254" data-name="Trazado 10254" d="M366.136,352.6a5.236,5.236,0,1,1-5.236-5.236,5.236,5.236,0,0,1,5.236,5.236Zm0,0" transform="translate(-215.401 -148.939)" fill="#eab599"/>
    <path id="Trazado_10255" data-name="Trazado 10255" d="M280.553,258.182v20.757a54.513,54.513,0,0,1-45.763,53.8l-.266.044a54.517,54.517,0,0,1-46.016-53.848V258.182a54.52,54.52,0,0,1,46.025-53.853,54.519,54.519,0,0,1,46.02,53.853Zm0,0" transform="translate(-138.411 -83.057)" fill="#f6caae"/>
    <path id="Trazado_10256" data-name="Trazado 10256" d="M226.013,331.478a6.184,6.184,0,1,1-6.184-6.184,6.184,6.184,0,0,1,6.184,6.184Zm0,0" transform="translate(-149.988 -138.772)" fill="#3d4159"/>
    <path id="Trazado_10257" data-name="Trazado 10257" d="M291.982,331.478a6.184,6.184,0,1,1-6.184-6.184,6.184,6.184,0,0,1,6.184,6.184Zm0,0" transform="translate(-180.372 -138.772)" fill="#3d4159"/>
    <path id="Trazado_10258" data-name="Trazado 10258" d="M229.709,332.474a2.65,2.65,0,1,1-2.648-2.648,2.649,2.649,0,0,1,2.648,2.648Zm0,0" transform="translate(-154.947 -140.859)" fill="#fff"/>
    <path id="Trazado_10259" data-name="Trazado 10259" d="M296.245,332.474a2.65,2.65,0,1,1-2.651-2.648,2.65,2.65,0,0,1,2.651,2.648Zm0,0" transform="translate(-185.592 -140.859)" fill="#fff"/>
    <path id="Trazado_10260" data-name="Trazado 10260" d="M256.72,356.57H244.354a2.668,2.668,0,1,1,0-5.335H256.72a2.668,2.668,0,0,1,0,5.335Zm0,0" transform="translate(-162.903 -150.72)" fill="#eab599"/>
    <path id="Trazado_10261" data-name="Trazado 10261" d="M245.673,385.6a27.542,27.542,0,0,1-13.289-3.43,2.425,2.425,0,0,1,2.337-4.25,22.634,22.634,0,0,0,21.907,0,2.425,2.425,0,1,1,2.337,4.25,27.547,27.547,0,0,1-13.291,3.43Zm0,0" transform="translate(-158.04 -162.871)" fill="#eab599"/>
    <path id="Trazado_10262" data-name="Trazado 10262" d="M266.059,231.766v21.265H255.914V236.379L182.68,222.769l-15.5-2.88v33.14H157.039V231.766a43.883,43.883,0,0,1,43.882-43.886h21.256c.577,0,1.155.009,1.732.038a43.876,43.876,0,0,1,42.15,43.848Zm0,0" transform="translate(-123.916 -75.481)" fill="#2a2f4f"/>
    <path id="Trazado_10263" data-name="Trazado 10263" d="M287.953,231.8v21.265H277.808V236.411L204.574,222.8A43.89,43.89,0,0,1,245.8,187.95a43.876,43.876,0,0,1,42.15,43.848Zm0,0" transform="translate(-145.81 -75.513)" fill="#3d4159"/>
    <path id="Trazado_10264" data-name="Trazado 10264" d="M58.774,490.483v3.854A137.479,137.479,0,0,1-22.739,467.2q-3.72-2.757-7.242-5.761-4.972-4.226-9.516-8.911a44.749,44.749,0,0,1,12.43-5.455c.7-.186,1.4-.36,2.118-.512A45.247,45.247,0,0,1-19.1,445.7c1.212-.1,2.436-.145,3.675-.145H13.836a44.937,44.937,0,0,1,9.53,1.009c.175.033.356.072.525.112.518.118,1.037.249,1.544.389a.1.1,0,0,1,.038,0,44.994,44.994,0,0,1,33.3,43.412Zm0,0" transform="translate(-33.395 -194.163)" fill="#e8c934"/>
    <path id="Trazado_10265" data-name="Trazado 10265" d="M66.9,490.483v3.854a137.5,137.5,0,0,1-88.754-32.893A44.878,44.878,0,0,1,.785,447.077c.7-.186,1.4-.36,2.12-.512a45.154,45.154,0,0,1,5.849-.864c1.212-.1,2.435-.145,3.674-.145h9.532a44.937,44.937,0,0,1,9.53,1.009c.175.033.356.072.525.112.518.118,1.037.249,1.544.389a.1.1,0,0,1,.038,0,44.994,44.994,0,0,1,33.3,43.412Zm0,0" transform="translate(-41.52 -194.163)" fill="#ffe152"/>
    <path id="Trazado_10266" data-name="Trazado 10266" d="M36.1,447.427l-.114.505-8.713,40.532a137.542,137.542,0,0,1-39.5-20.4l-4.328-20.127-.114-.512Zm0,0" transform="translate(-43.911 -195.025)" fill="#f2f0ec"/>
    <path id="Trazado_10267" data-name="Trazado 10267" d="M9.721,458.487l-14.792,8.224q-3.66-2.377-7.152-4.966a.006.006,0,0,1-.006-.006l-4.436-20.628L-4.1,433.7Zm0,0" transform="translate(-43.911 -188.704)" fill="#d8d5d0"/>
    <path id="Trazado_10268" data-name="Trazado 10268" d="M32.246,458.492l20.228,11.241,6.153-28.62-12.568-7.4" transform="translate(-66.438 -188.706)" fill="#d8d5d0"/>
    <path id="Trazado_10269" data-name="Trazado 10269" d="M41.085,248.281v67.759H-72.678q-3.78-5.462-7.033-11.294V248.281A60.033,60.033,0,0,1-76.3,228.235a60.456,60.456,0,0,1,56.977-40.351,60.1,60.1,0,0,1,9.412.731A60.364,60.364,0,0,1,26.42,208.828a60.4,60.4,0,0,1,14.665,39.453Zm0,0" transform="translate(-14.872 -75.483)" fill="#f74f4f"/>
    <path id="Trazado_10270" data-name="Trazado 10270" d="M-54.872,250.936c0,23.963,14.033,51.7,21.738,65.109h-39.55q-3.78-5.468-7.04-11.3V248.285a60.087,60.087,0,0,1,3.416-20.047,60.46,60.46,0,0,1,56.544-40.346c-18.565.463-35.108,30.255-35.108,63.044Zm0,0" transform="translate(-14.866 -75.486)" fill="#dd3033"/>
    <path id="Trazado_10271" data-name="Trazado 10271" d="M34.6,413.47v19.672a16.031,16.031,0,0,1-32.062,0V413.47Zm0,0" transform="translate(-52.755 -179.385)" fill="#eab599"/>
    <path id="Trazado_10272" data-name="Trazado 10272" d="M42.808,447.63v1.245a16.029,16.029,0,0,1-11.29,15.312,16.023,16.023,0,0,1-11.159-13.224q1.606.1,3.228.1a55.342,55.342,0,0,0,19.221-3.43Zm0,0" transform="translate(-60.963 -195.119)" fill="#f6caae"/>
    <path id="Trazado_10273" data-name="Trazado 10273" d="M-74.215,340.967a14.91,14.91,0,0,1-12.518,14.718,15.3,15.3,0,0,1-2.389.192,14.858,14.858,0,0,1-8.934-2.971,138.933,138.933,0,0,1-5.377-16.119A14.906,14.906,0,0,1-89.122,326.06a15.118,15.118,0,0,1,2.389.191,14.908,14.908,0,0,1,12.518,14.716Zm0,0" transform="translate(-3.945 -139.125)" fill="#f6caae"/>
    <path id="Trazado_10274" data-name="Trazado 10274" d="M-61.644,341.133a14.908,14.908,0,0,1-12.518,14.716,55.427,55.427,0,0,1-1.979-14.716,55.459,55.459,0,0,1,1.979-14.718,14.908,14.908,0,0,1,12.518,14.718Zm0,0" transform="translate(-16.516 -139.288)" fill="#eab599"/>
    <path id="Trazado_10275" data-name="Trazado 10275" d="M-76.121,349.15a5.328,5.328,0,0,1-5.329,5.327,5.327,5.327,0,0,1-5.327-5.327,5.328,5.328,0,0,1,5.327-5.329,5.328,5.328,0,0,1,5.329,5.329Zm0,0" transform="translate(-11.617 -147.305)" fill="#eab599"/>
    <path id="Trazado_10276" data-name="Trazado 10276" d="M23.173,289.518V340.76A55.238,55.238,0,0,1-6.2,355.377l-.27.044a54.421,54.421,0,0,1-8.631.672,55.463,55.463,0,0,1-55.462-55.462V279.51A55.808,55.808,0,0,1-70,271.545,35.144,35.144,0,0,0-25.829,268.7a31.4,31.4,0,0,0,8.336-13.021A36.61,36.61,0,0,0-6.045,278.528a40.929,40.929,0,0,0,29.219,10.991Zm0,0" transform="translate(-19.084 -106.709)" fill="#eab599"/>
    <path id="Trazado_10277" data-name="Trazado 10277" d="M37.921,289.518V340.76A55.238,55.238,0,0,1,8.544,355.377l-.27.044a55.468,55.468,0,0,1-46.821-54.79V279.51c0-.563.011-1.119.03-1.677a34.756,34.756,0,0,0,27.438-9.13,31.4,31.4,0,0,0,8.333-13.021A36.6,36.6,0,0,0,8.7,278.528a40.921,40.921,0,0,0,29.217,10.991Zm0,0" transform="translate(-33.832 -106.709)" fill="#f6caae"/>
    <path id="Trazado_10278" data-name="Trazado 10278" d="M71.745,322.463a9.212,9.212,0,0,0-18.425,0" transform="translate(-76.144 -133.225)" fill="#eab599"/>
    <path id="Trazado_10279" data-name="Trazado 10279" d="M-4.531,322.463a9.211,9.211,0,0,0-9.21-9.212,9.211,9.211,0,0,0-9.212,9.212" transform="translate(-41.014 -133.225)" fill="#eab599"/>
    <path id="Trazado_10280" data-name="Trazado 10280" d="M-4.957,332.227a6.293,6.293,0,0,1-6.294,6.292,6.292,6.292,0,0,1-6.292-6.292,6.292,6.292,0,0,1,6.292-6.292,6.292,6.292,0,0,1,6.294,6.292Zm0,0" transform="translate(-43.506 -139.067)" fill="#3d4159"/>
    <path id="Trazado_10281" data-name="Trazado 10281" d="M71.317,332.227a6.292,6.292,0,1,1-6.292-6.292,6.292,6.292,0,0,1,6.292,6.292Zm0,0" transform="translate(-78.638 -139.067)" fill="#3d4159"/>
    <path id="Trazado_10282" data-name="Trazado 10282" d="M30.864,362.335H18.28a2.714,2.714,0,1,1,0-5.428H30.864a2.714,2.714,0,0,1,0,5.428Zm0,0" transform="translate(-58.755 -153.333)" fill="#eab599"/>
    <path id="Trazado_10283" data-name="Trazado 10283" d="M19.622,391.867A28.023,28.023,0,0,1,6.1,388.376a2.467,2.467,0,0,1,2.377-4.324,23.019,23.019,0,0,0,22.291,0,2.467,2.467,0,0,1,2.377,4.324,28.014,28.014,0,0,1-13.521,3.492Zm0,0" transform="translate(-53.806 -165.694)" fill="#eab599"/>
    <path id="Trazado_10284" data-name="Trazado 10284" d="M-1.194,333.239a2.7,2.7,0,0,1-2.7,2.7,2.7,2.7,0,0,1-2.695-2.7,2.694,2.694,0,0,1,2.695-2.695,2.7,2.7,0,0,1,2.7,2.695Zm0,0" transform="translate(-48.552 -141.19)" fill="#fff"/>
    <path id="Trazado_10285" data-name="Trazado 10285" d="M75.654,333.239a2.7,2.7,0,1,1-2.7-2.695,2.7,2.7,0,0,1,2.7,2.695Zm0,0" transform="translate(-83.948 -141.19)" fill="#fff"/>
    <path id="Trazado_10286" data-name="Trazado 10286" d="M90.443,360.109a6.909,6.909,0,1,1-6.909-6.909,6.909,6.909,0,0,1,6.909,6.909Zm0,0" transform="translate(-86.879 -151.625)" fill="#eab599"/>
    <path id="Trazado_10287" data-name="Trazado 10287" d="M-23.912,360.109a6.909,6.909,0,0,1-6.909,6.909,6.909,6.909,0,0,1-6.909-6.909,6.909,6.909,0,0,1,6.909-6.909,6.909,6.909,0,0,1,6.909,6.909Zm0,0" transform="translate(-34.208 -151.625)" fill="#eab599"/>
    <path id="Trazado_10288" data-name="Trazado 10288" d="M127.828,100.99h-86A22.094,22.094,0,0,1,19.73,78.895V46.1A22.1,22.1,0,0,1,41.825,24h86A22.1,22.1,0,0,1,149.922,46.1v32.8a22.1,22.1,0,0,1-22.095,22.095Zm0,0" transform="translate(-60.673)" fill="#f2f0ec"/>
    <path id="Trazado_10289" data-name="Trazado 10289" d="M34.432,164.525a16.6,16.6,0,1,1-16.606-16.606,16.6,16.6,0,0,1,16.606,16.606Zm0,0" transform="translate(-52.149 -57.075)" fill="#f2f0ec"/>
    <path id="Trazado_10290" data-name="Trazado 10290" d="M-19.486,202.557a8.3,8.3,0,0,1-8.3,8.3,8.3,8.3,0,0,1-8.3-8.3,8.3,8.3,0,0,1,8.3-8.3,8.3,8.3,0,0,1,8.3,8.3Zm0,0" transform="translate(-34.963 -78.417)" fill="#f2f0ec"/>
    <path id="Trazado_10291" data-name="Trazado 10291" d="M256.325,164.525a16.606,16.606,0,1,1-16.606-16.606,16.606,16.606,0,0,1,16.606,16.606Zm0,0" transform="translate(-154.349 -57.075)" fill="#f2f0ec"/>
    <path id="Trazado_10292" data-name="Trazado 10292" d="M307.817,202.557a8.3,8.3,0,1,1-8.3-8.3,8.3,8.3,0,0,1,8.3,8.3Zm0,0" transform="translate(-185.714 -78.417)" fill="#f2f0ec"/>
    <path id="Trazado_10293" data-name="Trazado 10293" d="M105.432,89.108A7.327,7.327,0,1,1,98.1,81.782a7.326,7.326,0,0,1,7.328,7.326Zm0,0" transform="translate(-93.397 -26.613)" fill="#3d4159"/>
    <path id="Trazado_10294" data-name="Trazado 10294" d="M141.479,89.108a7.327,7.327,0,1,1-7.326-7.326,7.326,7.326,0,0,1,7.326,7.326Zm0,0" transform="translate(-110 -26.613)" fill="#3d4159"/>
    <path id="Trazado_10295" data-name="Trazado 10295" d="M177.53,89.108a7.327,7.327,0,1,1-7.328-7.326,7.326,7.326,0,0,1,7.328,7.326Zm0,0" transform="translate(-126.604 -26.613)" fill="#3d4159"/>
  </g>
</svg>
