<svg xmlns="http://www.w3.org/2000/svg" width="1139.616" height="610.545" viewBox="0 0 1139.616 610.545">
  <g id="Grupo_9386" data-name="Grupo 9386" transform="translate(-129.5 -164.423)">
    <path id="Trazado_9920" data-name="Trazado 9920" d="M1235.173,770.237v0c-.088.158-.176.312-.263.469-.627,1.123-1.276,2.263-1.939,3.408L218.6,773.812s-.987-1.1-2.755-3.211c-.1-.119-.2-.241-.307-.368a381.082,381.082,0,0,1-24.325-33.027s0-.009-.009-.017c-28.326-42.844-67.576-118.714-60.971-202.922a230.739,230.739,0,0,1,17.825-72.747C179.746,387.078,274.279,336.9,359.44,335.888c32.961-.395,64.524,6.584,90.489,22.373a56.148,56.148,0,0,0,17.132,6.43,106.047,106.047,0,0,0,18.913,2.242c55.308,1.947,145.258-29.22,198.61-107.635,28.33-41.641,71.823-68.9,121.81-83.1q3.494-.987,7.031-1.895a307.7,307.7,0,0,1,34.93-6.8q3.211-.434,6.443-.807c52.751-6.123,109.248.21,161.07,17.711q10.237,3.454,20.216,7.5c97.52,39.492,173.39,120.135,166.719,232.734q-.395,6.678-1.184,13.509a262.183,262.183,0,0,1-4.474,26.549q-1.764,7.98-4.057,16.141C1152.894,623.58,1313.578,630.023,1235.173,770.237Z" fill="#dceaff" opacity="0.5"/>
    <g id="Grupo_9316" data-name="Grupo 9316" transform="translate(445.617 378.271)">
      <path id="Trazado_9921" data-name="Trazado 9921" d="M1734.858,1108.266v0l-789.556.083,6.807-235.967V808.271h29.531V758.2h58.914v42.5h17.992V722.1h3.912v-5.5h.7v5.5h14.211v-5.5h.706v5.5h20.115v-5.5h.706v5.5h12.662v-5.5h.7v5.5h5.2v73.374h19.887V783.6l23.452.1V764.477h4.715v-3.8h.627v3.8h18.11v.009h3.623v-3.811h.623v3.811h4.369v38.238h27.917V816.8h15.522v-8.171h14.4V776.183h7.18V761.046h1.083v15.137h17.2v-28.37h1.689v28.37h11.382v-.395h-.018v-3.6h.018v-3.408h-.018v-5.671h.018V759.49h-.018v-5.671h.018V750.2h-.018v-5.671h.018v-3.912h-.018V734.95h.018v-4.983h-.018V724.3h.018v-3.759h3.39V716.3h.544v4.241h25.123V716.3h.539v4.241h4.588V750.2l3.224.018V750.2h-.026v-5.671h.026v-3.912h-.026V734.95h.026v-3.9h-.026v-5.671h.026v-.017h30.466v.017h5.236c.268.149.544.3.816.452v37.821h5.605V758.2h64.3v42.5h19.636V722.1h4.267v-5.5h.771v5.5h15.5v-5.5h.768v5.5h21.961v-5.5h.768v5.5h13.821v-5.5h.763v5.5h5.68v73.374h21.7V783.6l25.593.1V764.481h5.153v-3.807h.684v3.807h19.759v0h3.956v-3.811h.68v3.811h4.768v38.242h30.47V816.8h16.943v-8.171h15.711V776.178h7.834V761.046h1.184v15.132h18.777V747.814h1.842v28.365h9.233a262.116,262.116,0,0,1-4.474,26.549q-1.764,7.98-4.057,16.141C1652.579,961.609,1813.263,968.052,1734.858,1108.266Z" transform="translate(-945.302 -716.3)" fill="#dfebfa"/>
    </g>
    <path id="Trazado_9922" data-name="Trazado 9922" d="M2437.158,223.505V801.831h-20.216V216.009Q2427.185,219.463,2437.158,223.505Z" transform="translate(-1401.075 -31.597)" fill="#afcdfb"/>
    <path id="Trazado_9923" data-name="Trazado 9923" d="M467.061,635.726v405.91H215.848c-.1-.119-.2-.241-.307-.368a381.066,381.066,0,0,1-24.325-33.027s0-.009-.009-.017C162.882,965.38,123.631,889.509,130.236,805.3a230.739,230.739,0,0,1,17.825-72.747c31.685-74.441,126.218-124.622,211.378-125.631,32.654.36,63.778,7.408,89.625,22.373A60.862,60.862,0,0,0,467.061,635.726Z" transform="translate(0 -271.035)" fill="#cee1fd"/>
    <g id="Grupo_9317" data-name="Grupo 9317" transform="translate(807.398 166.7)">
      <path id="Trazado_9924" data-name="Trazado 9924" d="M1991.09,170.3V241.52c0,5.553-1.355,10.084-3.008,10.084h-.43c-1.654,0-3-4.531-3-10.084V171.106Q1987.858,170.672,1991.09,170.3Z" transform="translate(-1943.689 -170.299)" fill="#9fc1f4"/>
      <path id="Trazado_9925" data-name="Trazado 9925" d="M1921.448,335.9c-23.472,0-42.5,20.12-42.5,44.939h85C1963.949,356.023,1944.921,335.9,1921.448,335.9Z" transform="translate(-1878.948 -271.733)" fill="#ff9843"/>
      <path id="Trazado_9926" data-name="Trazado 9926" d="M1947.7,336.674a17.488,17.488,0,0,0-3.733-.406c-15.293,0-27.69,20.057-27.69,44.8h7.466C1923.738,358.373,1934.168,339.624,1947.7,336.674Z" transform="translate(-1901.809 -271.956)" fill="#ffc48a"/>
    </g>
    <g id="Grupo_9324" data-name="Grupo 9324" transform="translate(1024.255 612.043)">
      <g id="Grupo_9319" data-name="Grupo 9319" transform="translate(86.423 64.546)">
        <path id="Trazado_9927" data-name="Trazado 9927" d="M2702.675,1513.528s-11.31-13.195-.7-21.577c0,0,7.752-4.693,14.073-4.312,0,0-8.958,15.02-6.059,16.513s8.774-17.456,8.774-17.456,17.641-1.711,23.316,1.018c0,0-15.081,12.341-11.9,13.076s19.466-11.379,19.466-11.379,16.419,2.794,15.543,12.81-6.533,13.109-9.019,12.843-17.032-5.819-17.349-3.781,8.439,8.7,14.57,9.007c0,0-11.576,12.766-19.27,9.082s-8.35-9.525-13.145-11.715-8.89-2.185-6.91.048,10.659,4.406,13.4,9.257,5.2,8.123-2.757,6.925-20.9-7.022-21.466-13.691Z" transform="translate(-2683.558 -1486.168)" fill="#77a4e5"/>
        <g id="Grupo_9318" data-name="Grupo 9318" transform="translate(0 16.248)">
          <path id="Trazado_9928" data-name="Trazado 9928" d="M2749.714,1528.177s-44.6-1.719-54.444,11.035a32.252,32.252,0,0,1-8.88,12.463l-1.045,2.847s7.728-8.148,10.493-8.641C2695.838,1545.881,2691.513,1530.08,2749.714,1528.177Z" transform="translate(-2676.152 -1528.099)" fill="#77a4e5"/>
          <path id="Trazado_9929" data-name="Trazado 9929" d="M2671.859,1587.166s-9.572,7.079-10.237,19.728l1.737.155s3.057-13.079,8.583-18.193S2671.859,1587.166,2671.859,1587.166Z" transform="translate(-2661.622 -1563.591)" fill="#77a4e5"/>
        </g>
      </g>
      <g id="Grupo_9321" data-name="Grupo 9321" transform="translate(0 28.72)">
        <path id="Trazado_9930" data-name="Trazado 9930" d="M2504.586,1440.3s17.992-10.076,9.6-23.75c0,0-6.717-8.4-13.914-10.555,0,0,3.839,20.391,0,20.871s-2.639-23.03-2.639-23.03-18.952-9.116-26.388-8.4c0,0,11.755,19.911,7.916,19.431s-17.032-20.631-17.032-20.631-19.431-3.6-22.55,7.917,1.919,17.272,4.8,17.992,21.351.48,20.871,2.879-12.955,6.238-19.911,4.078c0,0,7.677,18.951,17.752,17.992s13.195-7.2,19.431-7.677,10.8,1.2,7.677,2.879-13.674.55-18.712,4.833-9.116,6.921.24,8.841,26.148.72,29.507-6.477Z" transform="translate(-2438.591 -1393.713)" fill="#77a4e5"/>
        <g id="Grupo_9320" data-name="Grupo 9320" transform="translate(9.86 12.047)">
          <path id="Trazado_9931" data-name="Trazado 9931" d="M2464.037,1424.8s50.377,16.312,56.135,34.545a38.272,38.272,0,0,0,4.8,17.512v3.6s-5.277-12.235-8.156-13.914C2516.813,1466.544,2528.088,1450.711,2464.037,1424.8Z" transform="translate(-2464.037 -1424.803)" fill="#77a4e5"/>
          <path id="Trazado_9932" data-name="Trazado 9932" d="M2617.48,1555.606s7.769,11.8,3.34,26.158l-2-.537s1.94-15.818-2.125-23.773S2617.48,1555.606,2617.48,1555.606Z" transform="translate(-2556.548 -1503.549)" fill="#77a4e5"/>
        </g>
      </g>
      <g id="Grupo_9323" data-name="Grupo 9323" transform="translate(79.027)">
        <path id="Trazado_9933" data-name="Trazado 9933" d="M2658.127,1381.011s-23.717-13.282-12.649-31.306c0,0,8.854-11.068,18.341-13.914,0,0-5.06,26.879,0,27.511s3.479-30.358,3.479-30.358,24.981-12.016,34.784-11.068c0,0-15.495,26.247-10.436,25.614s22.452-27.2,22.452-27.2,25.614-4.743,29.725,10.436-2.53,22.768-6.325,23.716-28.144.633-27.511,3.795,17.076,8.222,26.247,5.376c0,0-10.119,24.982-23.4,23.717s-17.393-9.487-25.614-10.119-14.23,1.581-10.119,3.795,18.025.725,24.666,6.371,12.016,9.124-.316,11.654-34.468.949-38.9-8.538Z" transform="translate(-2642.535 -1319.594)" fill="#9fc1f4"/>
        <g id="Grupo_9322" data-name="Grupo 9322" transform="translate(3.066 15.88)">
          <path id="Trazado_9934" data-name="Trazado 9934" d="M2746.772,1360.576s-66.407,21.5-74,45.536c0,0,.316,10.751-6.325,23.084v4.743s6.957-16.127,10.752-18.341C2677.2,1415.6,2662.34,1394.729,2746.772,1360.576Z" transform="translate(-2660.25 -1360.576)" fill="#9fc1f4"/>
          <path id="Trazado_9935" data-name="Trazado 9935" d="M2656.648,1533s-10.241,15.552-4.4,34.482l2.635-.708s-2.557-20.851,2.8-31.338S2656.648,1533,2656.648,1533Z" transform="translate(-2650.447 -1464.378)" fill="#9fc1f4"/>
        </g>
      </g>
      <path id="Trazado_9936" data-name="Trazado 9936" d="M2607.276,1659.161a46.458,46.458,0,0,0,46.458-46.458h-92.915A46.458,46.458,0,0,0,2607.276,1659.161Z" transform="translate(-2513.456 -1499.125)" fill="#9fc1f4"/>
      <path id="Trazado_9937" data-name="Trazado 9937" d="M2627.658,1658.8a46.486,46.486,0,0,1-52.227-46.1h11.542A46.465,46.465,0,0,0,2627.658,1658.8Z" transform="translate(-2522.407 -1499.125)" fill="#afcdfb"/>
      <rect id="Rectángulo_6079" data-name="Rectángulo 6079" width="95.499" height="1.425" transform="translate(45.835 113.577)" fill="#9fc1f4"/>
    </g>
    <g id="Grupo_9349" data-name="Grupo 9349" transform="translate(683.619 479.096)">
      <g id="Grupo_9325" data-name="Grupo 9325" transform="translate(172.527 93.764)">
        <path id="Trazado_9938" data-name="Trazado 9938" d="M2050.4,1415.41l-45.652-189.476,3.189-7.459,45.226,196.913a.805.805,0,0,1-.785.986h-.754A1.259,1.259,0,0,1,2050.4,1415.41Z" transform="translate(-2004.75 -1218.475)" fill="#77a4e5"/>
      </g>
      <g id="Grupo_9348" data-name="Grupo 9348">
        <g id="Grupo_9326" data-name="Grupo 9326" transform="translate(10.632 208.398)">
          <path id="Trazado_9939" data-name="Trazado 9939" d="M1588.469,1597.575h0a1.519,1.519,0,0,1-1.5-1.767l13.445-81.5h5.761l-16.034,81.888A1.705,1.705,0,0,1,1588.469,1597.575Z" transform="translate(-1586.948 -1514.31)" fill="#77a4e5"/>
        </g>
        <g id="Grupo_9327" data-name="Grupo 9327" transform="translate(139.613 208.398)">
          <path id="Trazado_9940" data-name="Trazado 9940" d="M1921.33,1597.575h0a1.52,1.52,0,0,1-1.5-1.767l13.445-81.5h5.762L1923,1596.2A1.7,1.7,0,0,1,1921.33,1597.575Z" transform="translate(-1919.81 -1514.31)" fill="#77a4e5"/>
        </g>
        <path id="Trazado_9941" data-name="Trazado 9941" d="M1750.615,1185.068H1590.036L1623.3,976.5h160.58Z" transform="translate(-1578.208 -976.499)" fill="#f5fbff"/>
        <rect id="Rectángulo_6080" data-name="Rectángulo 6080" width="184.422" height="6.136" transform="translate(0 206.978)" fill="#77a4e5"/>
        <g id="Grupo_9328" data-name="Grupo 9328" transform="translate(48.511 12.537)">
          <path id="Trazado_9942" data-name="Trazado 9942" d="M1744.882,1039.957a33.64,33.64,0,0,1-.719,4.854c-3.347,14.905-16.62,26.326-31.618,26.352-16.6.028-29.02-13.9-27.753-31.1s15.745-31.178,32.341-31.206a27.868,27.868,0,0,1,9.8,1.727,26.86,26.86,0,0,1,11.006,7.627,28.028,28.028,0,0,1,3.008,4.194,27.658,27.658,0,0,1,1.394,2.7,29.59,29.59,0,0,1,2.362,8.339,31.732,31.732,0,0,1,.265,4.56Q1744.955,1038.965,1744.882,1039.957Z" transform="translate(-1684.703 -1008.853)" fill="#bdd1f9"/>
          <path id="Trazado_9943" data-name="Trazado 9943" d="M1789.975,1030.7l-27.5,14.912s11.348-19.983,16-27.613a27.117,27.117,0,0,1,7.094,5.811,28.022,28.022,0,0,1,3.008,4.194A27.672,27.672,0,0,1,1789.975,1030.7Z" transform="translate(-1732.338 -1014.453)" fill="#fff"/>
          <path id="Trazado_9944" data-name="Trazado 9944" d="M1801.111,1022.7l-25.12,13.621s10.365-18.253,14.62-25.222a24.729,24.729,0,0,1,6.479,5.308,25.489,25.489,0,0,1,2.748,3.831A25.192,25.192,0,0,1,1801.111,1022.7Z" transform="translate(-1740.618 -1010.229)" fill="#f99746"/>
        </g>
        <g id="Grupo_9334" data-name="Grupo 9334" transform="translate(27.451 116.446)">
          <g id="Grupo_9329" data-name="Grupo 9329">
            <path id="Trazado_9945" data-name="Trazado 9945" d="M1762.524,1353.279l-132.17-.009,13.38-76.26,132.171.009Zm-131.1-.777,130.3.009,13.111-74.723-130.3-.009Z" transform="translate(-1630.354 -1277.01)" fill="#bdd1f9"/>
          </g>
          <g id="Grupo_9331" data-name="Grupo 9331" transform="translate(7.069 42.209)">
            <path id="Trazado_9946" data-name="Trazado 9946" d="M1765.816,1414.872l-117.22-.009s20.793-11.15,26.5-10.566,13.9,5.1,19.173,5.275,10.98-15.651,16.848-14.9,8.076,14.745,11.115,13.377,12.162-1.959,17.416,0,12.911-6.23,17.531-5.974S1765.816,1414.872,1765.816,1414.872Z" transform="translate(-1648.596 -1391.269)" fill="#f99746"/>
            <g id="Grupo_9330" data-name="Grupo 9330" transform="translate(5.353)">
              <path id="Trazado_9947" data-name="Trazado 9947" d="M1685.946,1387.128h-22.389l.208-1.187h22.389Z" transform="translate(-1663.113 -1385.939)" fill="#f99746"/>
              <path id="Trazado_9948" data-name="Trazado 9948" d="M1684.8,1393.673h-22.389l.208-1.187h22.389Z" transform="translate(-1662.409 -1389.948)" fill="#f99746"/>
            </g>
          </g>
          <g id="Grupo_9333" data-name="Grupo 9333" transform="translate(13.776 6.163)">
            <path id="Trazado_9949" data-name="Trazado 9949" d="M1665.905,1316.214l117.22.008s-16.879-11.153-22.789-10.569-15.691,5.1-21.023,5.271-5.488-15.652-11.617-14.907-13.25,14.743-15.809,13.376-11.474-1.961-17.416,0-10.724-6.232-15.434-5.976S1665.905,1316.214,1665.905,1316.214Z" transform="translate(-1665.905 -1294.8)" fill="#bdd1f9"/>
            <g id="Grupo_9332" data-name="Grupo 9332" transform="translate(4.97)">
              <path id="Trazado_9950" data-name="Trazado 9950" d="M1702.269,1294.1H1679.88l.208-1.187h22.389Z" transform="translate(-1679.435 -1292.916)" fill="#bdd1f9"/>
              <path id="Trazado_9951" data-name="Trazado 9951" d="M1701.12,1300.65h-22.389l.208-1.187h22.389Z" transform="translate(-1678.731 -1296.925)" fill="#bdd1f9"/>
            </g>
          </g>
        </g>
        <g id="Grupo_9335" data-name="Grupo 9335" transform="translate(43.685 81.718)">
          <path id="Trazado_9952" data-name="Trazado 9952" d="M1677.39,1211.48h-5.141l4.468-24.092h5.141Z" transform="translate(-1672.249 -1187.388)" fill="#bdd1f9"/>
          <path id="Trazado_9953" data-name="Trazado 9953" d="M1695.464,1220.062h-5.141l3.461-18.663h5.141Z" transform="translate(-1683.32 -1195.97)" fill="#bdd1f9"/>
          <path id="Trazado_9954" data-name="Trazado 9954" d="M1713.54,1218.8H1708.4l3.609-19.463h5.141Z" transform="translate(-1694.391 -1194.705)" fill="#bdd1f9"/>
          <path id="Trazado_9955" data-name="Trazado 9955" d="M1731.614,1226.161h-5.141l2.745-14.8h5.141Z" transform="translate(-1705.461 -1202.069)" fill="#bdd1f9"/>
          <path id="Trazado_9956" data-name="Trazado 9956" d="M1749.688,1224.458h-5.141l2.945-15.882h5.142Z" transform="translate(-1716.532 -1200.365)" fill="#bdd1f9"/>
          <path id="Trazado_9957" data-name="Trazado 9957" d="M1767.763,1230.093h-5.141l2.284-12.317h5.141Z" transform="translate(-1727.603 -1206.001)" fill="#bdd1f9"/>
        </g>
        <g id="Grupo_9336" data-name="Grupo 9336" transform="translate(112.462 81.718)">
          <path id="Trazado_9958" data-name="Trazado 9958" d="M1854.882,1211.48h-5.141l4.468-24.092h5.141Z" transform="translate(-1849.741 -1187.388)" fill="#f99746"/>
          <path id="Trazado_9959" data-name="Trazado 9959" d="M1872.957,1220.062h-5.141l3.461-18.663h5.141Z" transform="translate(-1860.812 -1195.97)" fill="#f99746"/>
          <path id="Trazado_9960" data-name="Trazado 9960" d="M1891.032,1218.8h-5.141l3.609-19.463h5.141Z" transform="translate(-1871.883 -1194.705)" fill="#f99746"/>
          <path id="Trazado_9961" data-name="Trazado 9961" d="M1909.106,1226.161h-5.141l2.745-14.8h5.141Z" transform="translate(-1882.954 -1202.069)" fill="#f99746"/>
          <path id="Trazado_9962" data-name="Trazado 9962" d="M1927.181,1224.458h-5.142l2.946-15.882h5.141Z" transform="translate(-1894.024 -1200.365)" fill="#f99746"/>
          <path id="Trazado_9963" data-name="Trazado 9963" d="M1945.255,1230.093h-5.141l2.284-12.317h5.141Z" transform="translate(-1905.095 -1206.001)" fill="#f99746"/>
        </g>
        <g id="Grupo_9345" data-name="Grupo 9345" transform="translate(120.225 19.522)">
          <g id="Grupo_9337" data-name="Grupo 9337" transform="translate(5.396 5.35)">
            <path id="Trazado_9964" data-name="Trazado 9964" d="M1900.436,1042.978H1883.7l.431-2.292h16.736Z" transform="translate(-1883.699 -1040.686)" fill="#bdd1f9"/>
            <path id="Trazado_9965" data-name="Trazado 9965" d="M1950.664,1042.978h-18.48l.431-2.292h18.48Z" transform="translate(-1913.397 -1040.686)" fill="#bdd1f9"/>
            <path id="Trazado_9966" data-name="Trazado 9966" d="M1995.244,1042.978h-11.781l.43-2.292h11.781Z" transform="translate(-1944.805 -1040.686)" fill="#bdd1f9"/>
            <path id="Trazado_9967" data-name="Trazado 9967" d="M2027.882,1042.978h-9.092l.431-2.292h9.092Z" transform="translate(-1966.443 -1040.686)" fill="#bdd1f9"/>
          </g>
          <g id="Grupo_9338" data-name="Grupo 9338" transform="translate(3.559 15.132)">
            <path id="Trazado_9968" data-name="Trazado 9968" d="M1895.7,1068.223h-16.736l.431-2.293h16.736Z" transform="translate(-1878.959 -1065.93)" fill="#bdd1f9"/>
            <path id="Trazado_9969" data-name="Trazado 9969" d="M1945.924,1068.223h-18.48l.43-2.293h18.48Z" transform="translate(-1908.657 -1065.93)" fill="#bdd1f9"/>
            <path id="Trazado_9970" data-name="Trazado 9970" d="M1990.5,1068.223h-11.781l.43-2.293h11.781Z" transform="translate(-1940.065 -1065.93)" fill="#bdd1f9"/>
            <path id="Trazado_9971" data-name="Trazado 9971" d="M2023.141,1068.223h-9.092l.431-2.293h9.092Z" transform="translate(-1961.703 -1065.93)" fill="#bdd1f9"/>
          </g>
          <g id="Grupo_9339" data-name="Grupo 9339" transform="translate(6.4)">
            <path id="Trazado_9972" data-name="Trazado 9972" d="M1911.97,1029.173h-25.678l.431-2.293H1912.4Z" transform="translate(-1886.292 -1026.88)" fill="#bdd1f9"/>
            <path id="Trazado_9973" data-name="Trazado 9973" d="M1973.672,1029.173h-14.8l.431-2.293h14.8Z" transform="translate(-1930.747 -1026.88)" fill="#bdd1f9"/>
            <path id="Trazado_9974" data-name="Trazado 9974" d="M2018.893,1029.173h-16.437l.431-2.293h16.438Z" transform="translate(-1957.443 -1026.88)" fill="#bdd1f9"/>
          </g>
          <g id="Grupo_9340" data-name="Grupo 9340" transform="translate(4.447 10.401)">
            <path id="Trazado_9975" data-name="Trazado 9975" d="M1906.93,1056.015h-25.678l.43-2.293h25.678Z" transform="translate(-1881.252 -1053.722)" fill="#bdd1f9"/>
            <path id="Trazado_9976" data-name="Trazado 9976" d="M1968.631,1056.015h-14.8l.43-2.293h14.8Z" transform="translate(-1925.707 -1053.722)" fill="#bdd1f9"/>
            <path id="Trazado_9977" data-name="Trazado 9977" d="M2013.853,1056.015h-16.437l.43-2.293h16.437Z" transform="translate(-1952.403 -1053.722)" fill="#bdd1f9"/>
          </g>
          <g id="Grupo_9341" data-name="Grupo 9341" transform="translate(1.722 24.913)">
            <path id="Trazado_9978" data-name="Trazado 9978" d="M1890.955,1093.467h-16.736l.431-2.293h16.736Z" transform="translate(-1874.219 -1091.174)" fill="#bdd1f9"/>
            <path id="Trazado_9979" data-name="Trazado 9979" d="M1941.183,1093.467H1922.7l.431-2.293h18.48Z" transform="translate(-1903.916 -1091.174)" fill="#bdd1f9"/>
            <path id="Trazado_9980" data-name="Trazado 9980" d="M1985.763,1093.467h-11.781l.431-2.293h11.781Z" transform="translate(-1935.324 -1091.174)" fill="#bdd1f9"/>
            <path id="Trazado_9981" data-name="Trazado 9981" d="M2018.4,1093.467h-9.092l.43-2.293h9.092Z" transform="translate(-1956.963 -1091.174)" fill="#bdd1f9"/>
          </g>
          <g id="Grupo_9342" data-name="Grupo 9342" transform="translate(2.61 20.183)">
            <path id="Trazado_9982" data-name="Trazado 9982" d="M1902.188,1081.259h-25.678l.431-2.292h25.678Z" transform="translate(-1876.511 -1078.967)" fill="#bdd1f9"/>
            <path id="Trazado_9983" data-name="Trazado 9983" d="M1963.89,1081.259h-14.8l.431-2.292h14.8Z" transform="translate(-1920.965 -1078.967)" fill="#bdd1f9"/>
            <path id="Trazado_9984" data-name="Trazado 9984" d="M2009.112,1081.259h-16.437l.431-2.292h16.437Z" transform="translate(-1947.662 -1078.967)" fill="#bdd1f9"/>
          </g>
          <g id="Grupo_9343" data-name="Grupo 9343" transform="translate(0 34.084)">
            <path id="Trazado_9985" data-name="Trazado 9985" d="M1886.511,1117.134h-16.736l.43-2.293h16.737Z" transform="translate(-1869.774 -1114.841)" fill="#bdd1f9"/>
            <path id="Trazado_9986" data-name="Trazado 9986" d="M1936.739,1117.134H1918.26l.43-2.293h18.48Z" transform="translate(-1899.472 -1114.841)" fill="#bdd1f9"/>
            <path id="Trazado_9987" data-name="Trazado 9987" d="M1981.319,1117.134h-11.781l.431-2.293h11.781Z" transform="translate(-1930.88 -1114.841)" fill="#bdd1f9"/>
            <path id="Trazado_9988" data-name="Trazado 9988" d="M2013.957,1117.134h-9.092l.431-2.293h9.092Z" transform="translate(-1952.519 -1114.841)" fill="#bdd1f9"/>
          </g>
          <g id="Grupo_9344" data-name="Grupo 9344" transform="translate(0.888 29.354)">
            <path id="Trazado_9989" data-name="Trazado 9989" d="M1897.745,1104.926h-25.678l.431-2.293h25.678Z" transform="translate(-1872.066 -1102.633)" fill="#bdd1f9"/>
            <path id="Trazado_9990" data-name="Trazado 9990" d="M1959.446,1104.926h-14.8l.431-2.293h14.8Z" transform="translate(-1916.521 -1102.633)" fill="#bdd1f9"/>
            <path id="Trazado_9991" data-name="Trazado 9991" d="M2004.668,1104.926H1988.23l.431-2.293H2005.1Z" transform="translate(-1943.218 -1102.633)" fill="#bdd1f9"/>
          </g>
        </g>
        <g id="Grupo_9346" data-name="Grupo 9346" transform="translate(89.783 81.561)">
          <path id="Trazado_9992" data-name="Trazado 9992" d="M1801.726,1194.861h-8.192l.211-1.122h8.192Z" transform="translate(-1792.635 -1191.12)" fill="#bdd1f9"/>
          <path id="Trazado_9993" data-name="Trazado 9993" d="M1826.311,1194.861h-9.045l.211-1.122h9.045Z" transform="translate(-1807.171 -1191.12)" fill="#bdd1f9"/>
          <path id="Trazado_9994" data-name="Trazado 9994" d="M1799.406,1207.217h-8.192l.21-1.122h8.192Z" transform="translate(-1791.214 -1198.688)" fill="#bdd1f9"/>
          <path id="Trazado_9995" data-name="Trazado 9995" d="M1823.99,1207.217h-9.045l.211-1.122h9.045Z" transform="translate(-1805.75 -1198.688)" fill="#bdd1f9"/>
          <path id="Trazado_9996" data-name="Trazado 9996" d="M1807.371,1188.1H1794.8l.211-1.122h12.568Z" transform="translate(-1793.412 -1186.981)" fill="#bdd1f9"/>
          <path id="Trazado_9997" data-name="Trazado 9997" d="M1837.572,1188.1h-7.245l.211-1.122h7.245Z" transform="translate(-1815.171 -1186.981)" fill="#bdd1f9"/>
          <path id="Trazado_9998" data-name="Trazado 9998" d="M1804.9,1201.242h-12.569l.21-1.122h12.568Z" transform="translate(-1791.901 -1195.029)" fill="#bdd1f9"/>
          <path id="Trazado_9999" data-name="Trazado 9999" d="M1835.1,1201.242h-7.245l.211-1.122h7.245Z" transform="translate(-1813.66 -1195.029)" fill="#bdd1f9"/>
        </g>
        <g id="Grupo_9347" data-name="Grupo 9347" transform="translate(155.404 81.561)">
          <path id="Trazado_10000" data-name="Trazado 10000" d="M1971.074,1194.861h-8.192l.211-1.122h8.192Z" transform="translate(-1961.983 -1191.12)" fill="#bdd1f9"/>
          <path id="Trazado_10001" data-name="Trazado 10001" d="M1995.659,1194.861h-9.045l.211-1.122h9.045Z" transform="translate(-1976.519 -1191.12)" fill="#bdd1f9"/>
          <path id="Trazado_10002" data-name="Trazado 10002" d="M1968.754,1207.217h-8.192l.21-1.122h8.192Z" transform="translate(-1960.563 -1198.688)" fill="#bdd1f9"/>
          <path id="Trazado_10003" data-name="Trazado 10003" d="M1993.339,1207.217h-9.045l.211-1.122h9.045Z" transform="translate(-1975.098 -1198.688)" fill="#bdd1f9"/>
          <path id="Trazado_10004" data-name="Trazado 10004" d="M1976.72,1188.1h-12.568l.211-1.122h12.569Z" transform="translate(-1962.761 -1186.981)" fill="#bdd1f9"/>
          <path id="Trazado_10005" data-name="Trazado 10005" d="M2006.92,1188.1h-7.245l.211-1.122h7.245Z" transform="translate(-1984.52 -1186.981)" fill="#bdd1f9"/>
          <path id="Trazado_10006" data-name="Trazado 10006" d="M1974.252,1201.242h-12.569l.211-1.122h12.569Z" transform="translate(-1961.249 -1195.029)" fill="#bdd1f9"/>
          <path id="Trazado_10007" data-name="Trazado 10007" d="M2004.454,1201.242h-7.245l.21-1.122h7.245Z" transform="translate(-1983.009 -1195.029)" fill="#bdd1f9"/>
        </g>
      </g>
    </g>
    <g id="Grupo_9353" data-name="Grupo 9353" transform="translate(853.937 419.026)">
      <g id="Grupo_9350" data-name="Grupo 9350" transform="translate(0 321.641)">
        <path id="Trazado_10008" data-name="Trazado 10008" d="M2036.81,1678.533c-.288,3.92-5.819,3.963-12.1,3.234s-4.608.86-13.4.982-11.818-2.783-12.243-4.038c-.379-1.114,3.854-2.052,8.382-3.155.57-.137,1.142-.281,1.713-.425,5.106-1.3,8.487-5.12,12.856-8.457,4.138-3.161,9.474-14.6,9.474-14.6l12.006-.542s-5.056,10.254-6.955,14.675c-1.117,2.6-.641,5.795-.156,8.247A15.363,15.363,0,0,1,2036.81,1678.533Z" transform="translate(-1999.051 -1651.533)" fill="#ffb27d"/>
        <path id="Trazado_10009" data-name="Trazado 10009" d="M2024.715,1718c-6.277-.728-4.608.86-13.4.982s-11.818-2.783-12.243-4.039c-.379-1.114,3.854-2.052,8.382-3.155l.054.083a24.624,24.624,0,0,0,12.9,2.31c5.9-.591,11.918-3.053,15.988-3.494a15.361,15.361,0,0,1,.416,4.078C2036.522,1718.686,2030.991,1718.729,2024.715,1718Z" transform="translate(-1999.051 -1687.766)" fill="#233862"/>
      </g>
      <g id="Grupo_9351" data-name="Grupo 9351" transform="translate(82.917 314.423)">
        <path id="Trazado_10010" data-name="Trazado 10010" d="M2250.794,1667.938c-.283,3.921-5.815,3.968-12.093,3.246s-4.607.865-13.4,1-11.821-2.771-12.247-4.026c-.381-1.114,3.851-2.056,8.379-3.163.57-.137,1.14-.282,1.712-.427,5.1-1.3,8.481-5.128,12.847-8.469,4.135-3.165,0-21.9,0-21.9l13.205-1.285s-.634,15.777-.625,22.95c0,2.83,1.3,5.552,1.794,8A15.4,15.4,0,0,1,2250.794,1667.938Z" transform="translate(-2213.035 -1632.907)" fill="#ffb27d"/>
        <path id="Trazado_10011" data-name="Trazado 10011" d="M2238.7,1720.111c-6.277-.722-4.607.865-13.4,1s-11.821-2.771-12.247-4.026c-.381-1.114,3.851-2.056,8.379-3.163l.053.083a24.634,24.634,0,0,0,12.9,2.3c5.9-.6,11.915-3.066,15.984-3.511a15.4,15.4,0,0,1,.419,4.078C2250.511,1720.785,2244.979,1720.833,2238.7,1720.111Z" transform="translate(-2213.035 -1681.834)" fill="#233862"/>
      </g>
      <path id="Trazado_10012" data-name="Trazado 10012" d="M2209.824,847.08c-2.273-9.35,1.022-13.7,4-16.022,1.41-3.441,3.02-5.922,4.665-6.857a16.841,16.841,0,0,1,9.113-1.743,4.264,4.264,0,0,0-1.922-.912c1.56-.232,5.041,1.316,5.041,1.316,21.7-8.361,25.109,23.588,24.653,31.011s-.392,16.164,10.9,22.012c21.539,11.159-7.159,53.208-7.159,53.208.548-6-27.128-37.651-41.567-47.131-3.515-5.175-4.764-14.316-4.858-15.036.607,7.248,1.847,11.314,2.955,13.6C2209.057,874.47,2208.082,859.926,2209.824,847.08Z" transform="translate(-2127.685 -821.477)" fill="#a9453d"/>
      <path id="Trazado_10013" data-name="Trazado 10013" d="M2233.146,944.991c-.072.033,6.972,3.69,12.271,2.241,4.983-1.359,8.24-7.821,8.171-7.835-2.111-.419-2.719-3.319-2.674-15.783l-.955.188-16.042,3.177s.365,5.049.375,9.805C2234.3,940.777,2234.061,944.565,2233.146,944.991Z" transform="translate(-2142.436 -884.036)" fill="#ffb27d"/>
      <path id="Trazado_10014" data-name="Trazado 10014" d="M2235.135,927.276s.365,5.049.376,9.805c8.977-.253,13.723-8.442,15.667-12.982Z" transform="translate(-2143.654 -884.334)" fill="#ed975d"/>
      <path id="Trazado_10015" data-name="Trazado 10015" d="M2066.385,1386.632a3.936,3.936,0,0,0,3.567,5.128l6.267.293,6.632.2a5.325,5.325,0,0,0,4.292-1.959,186.448,186.448,0,0,0,31.469-59.583q.417-1.323.882-2.678c6.527-19.032,20.058-42.921,27.189-64.544,1.135-3.444,2.154-6.686,3.069-9.754.293-.983.578-1.948.85-2.9a229.343,229.343,0,0,0,8.178-43.055l-51.49.412S2096.45,1292.45,2066.385,1386.632Z" transform="translate(-2040.178 -1058.093)" fill="#2a4e96"/>
      <path id="Trazado_10016" data-name="Trazado 10016" d="M2179.051,1027.015c.13,24.5-3.595,35.014-3.595,35.014a69.191,69.191,0,0,0,48.249,2.956c.309-.1,18.746-5.318,18.746-5.318-.439-.992-4.082-17.386-4.509-18.3-5.532-11.88-7.04-16.868-7.7-20.52a77.7,77.7,0,0,1-.638-20.528,164.7,164.7,0,0,1,6.354-32.237c-7.139-1.624-13.825-4.478-21.256-7.265-1.709,2.129-6.934,4.355-11.467,4.254-5.219-.115-6.912-2.349-6.641-4.789-5.562,3.095-10,6.018-10,6.018-4.727,8.211-14.314,16.185-15.009,28.781C2171.419,998.182,2179.047,1026.329,2179.051,1027.015Z" transform="translate(-2104.731 -906.498)" fill="#fff"/>
      <path id="Trazado_10017" data-name="Trazado 10017" d="M2292.9,1072.234c2.251,3.186,6.566,22.548,17.3,24.982-5.532-13.8-9.732-19.85-10.389-24.093a104.672,104.672,0,0,1-.637-23.845c-3.594-6.3-6.276-10.618-6.276-10.618-.283-1.018-5.711-17.806-7.451-2.8S2290.385,1068.671,2292.9,1072.234Z" transform="translate(-2174.297 -948.986)" fill="#5f9aa8"/>
      <path id="Trazado_10018" data-name="Trazado 10018" d="M2216.215,887.266s21.241.35,21.255-12.881,2.766-22.1-10.795-22.88-16.2,4.263-17.281,8.678S2210.69,886.834,2216.215,887.266Z" transform="translate(-2127.732 -839.82)" fill="#ffb27d"/>
      <path id="Trazado_10019" data-name="Trazado 10019" d="M2229.426,846.547s5.816,15.522,14.741,17.817,12.8-.1,12.8-.1a25.274,25.274,0,0,1-8.266-14.932S2233.813,839.159,2229.426,846.547Z" transform="translate(-2140.157 -835.185)" fill="#a9453d"/>
      <path id="Trazado_10020" data-name="Trazado 10020" d="M2216.146,850.049s-4.343,3.465-5.4,6.835-1.535,10.3-3.557,10.069c0,0-4.381-10.551.542-16.519C2212.951,844.105,2216.146,850.049,2216.146,850.049Z" transform="translate(-2125.436 -837.427)" fill="#a9453d"/>
      <path id="Trazado_10021" data-name="Trazado 10021" d="M2125.289,1176.382l-10.032,30.586,5.722,2.294,16.587-27.023Z" transform="translate(-2070.228 -1038.859)" fill="#ffb27d"/>
      <path id="Trazado_10022" data-name="Trazado 10022" d="M2164.254,971.168s-11.829,4.694-15.252,12.013-8.608,56.408-10.672,61.449-3.617,9.032-3.617,9.032,5.964,5.025,11.962,5.4S2164.254,971.168,2164.254,971.168Z" transform="translate(-2082.145 -913.164)" fill="#f99746"/>
      <path id="Trazado_10023" data-name="Trazado 10023" d="M2185.29,960.286s-12.289,30.359-12.65,36.5-1.445,100.472-1.445,100.472.723,4.337-7.59,2.53-10.481-3.614-10.481-3.614,7.951-58.187,5.782-78.426S2175.53,964.5,2175.53,964.5Z" transform="translate(-2093.421 -906.498)" fill="#f99746"/>
      <path id="Trazado_10024" data-name="Trazado 10024" d="M2092.063,1451.014l7.2.221a4.163,4.163,0,0,0,3.339-1.508c4.839-5.861,21.719-27.8,31.854-60.052q.417-1.323.882-2.678c6.527-19.032,20.058-42.921,27.189-64.544,1.135-3.444,2.154-6.686,3.069-9.754.293-.983.578-1.948.849-2.9l-7.583-5.754s-22.765,36.864-29.813,71.556C2122.927,1405.737,2098.409,1442,2092.063,1451.014Z" transform="translate(-2056.021 -1117.054)" fill="#1e3d70"/>
      <path id="Trazado_10025" data-name="Trazado 10025" d="M2254.412,1363.369c-.124,15.96.633,51.533,2.576,68.922a3.142,3.142,0,0,0,3.125,2.792h5.372c2.265,0,3.958-.017,5.084-.033a2.066,2.066,0,0,0,1.993-1.669c5.343-27.187,9.167-49.774,11.966-69.29,2.342-16.336,4.424-30.341,6.025-42.4,1.612-12.132,2.732-22.292,3.134-30.875.062-1.352.108-2.667.133-3.943s.033-2.53.022-3.741l-44.489-4.337C2249.912,1308.359,2254.484,1353.564,2254.412,1363.369Z" transform="translate(-2152.362 -1101.59)" fill="#2a4e96"/>
      <path id="Trazado_10026" data-name="Trazado 10026" d="M2290.986,1454.084c2.034,0,3.608-.013,4.723-.028a2.507,2.507,0,0,0,2.423-2.024c5.307-27.031,9.11-49.507,11.9-68.94,2.342-16.336,4.424-30.341,6.025-42.4,1.612-12.132,2.732-22.292,3.134-30.875l-16.325,9.6s10.419,3.675,6.444,31.5S2296.519,1450.145,2290.986,1454.084Z" transform="translate(-2177.863 -1120.591)" fill="#1e3d70"/>
      <path id="Trazado_10027" data-name="Trazado 10027" d="M2261.533,1096.431s3.133,11.323,13.976,9.877,26.26-7.951,26.26-7.951-4.633-14.641-10.395-33.875c-6.975-23.286-15.609-53.3-19.678-72.239a117.107,117.107,0,0,1-2.212-12.909l-9-17.453s-13.412,30.1-14.135,37.691S2261.533,1096.431,2261.533,1096.431Z" transform="translate(-2150.511 -907.476)" fill="#f99746"/>
      <path id="Trazado_10028" data-name="Trazado 10028" d="M2247.261,998.442l-11.873-36.56c.032.015,14.995,4.452,22.521,8.255,0,0,4.7,6.065,7.615,20.057,0,0,3.075,33.594-3.791,45.881,0,0-21.685,4.337-56.38-7.589v-7.951s37.948,1.988,45.719,2.891Z" transform="translate(-2125.413 -907.476)" fill="#ffb27d"/>
      <path id="Trazado_10029" data-name="Trazado 10029" d="M2286.79,1063.468c.484,12.288,3.376,36.141,29.155,48.91.069.032.137.069.206.1-6.975-23.286-15.609-53.3-19.678-72.239C2291.738,1047.313,2286.526,1056.7,2286.79,1063.468Z" transform="translate(-2175.287 -955.469)" fill="#ed7d2b"/>
      <path id="Trazado_10030" data-name="Trazado 10030" d="M2280.855,961.882s22.008,1.55,27.308,13.357,6.987,51.079.241,62.645c0,0-9.289,2.645-25.716-.427l-.607-.115s-5.24-12.83-.542-15.36c0,0,13.854.723,12.408-3.855S2280.855,961.882,2280.855,961.882Z" transform="translate(-2170.879 -907.476)" fill="#f99746"/>
      <g id="Grupo_9352" data-name="Grupo 9352" transform="translate(52.187 106.738)">
        <path id="Trazado_10031" data-name="Trazado 10031" d="M2140.469,1108.169l.648,2.084,36.112-11.233a1.388,1.388,0,0,0,.244-1.278,1.022,1.022,0,0,0-.892-.806Z" transform="translate(-2137.857 -1096.935)" fill="#a9453d"/>
        <path id="Trazado_10032" data-name="Trazado 10032" d="M2133.729,1127.9l2.612-1.969.648,2.083Z" transform="translate(-2133.729 -1114.692)" fill="#a9453d"/>
      </g>
      <path id="Trazado_10033" data-name="Trazado 10033" d="M2101.633,1253.157s-9.161,5.063-10.366,8.92-.378,11.933,1.077,11.813,3.624-8.679,4.829-9.281,2.893-2.41,2.893-1.085-1.206,3.736-.6,4.1,2.531-3.374,3.857-4.1,1.883-6.684,3.172-8.284S2101.633,1253.157,2101.633,1253.157Z" transform="translate(-2055.179 -1085.884)" fill="#ffb27d"/>
      <path id="Trazado_10034" data-name="Trazado 10034" d="M2172.579,1106.371s-8.193-5.045-11.629-4.269-12.2,7.12-7.983,8.493,7.625-.067,9.246.93,2.816,2.822,10.367,2.8S2172.579,1106.371,2172.579,1106.371Z" transform="translate(-2092.638 -993.312)" fill="#ffb27d"/>
    </g>
    <g id="Grupo_9363" data-name="Grupo 9363" transform="translate(480.67 496.43)">
      <g id="Grupo_9357" data-name="Grupo 9357" transform="translate(15.313 89.609)" opacity="0.6">
        <g id="Grupo_9354" data-name="Grupo 9354" transform="translate(39.568 89.285)">
          <path id="Trazado_10035" data-name="Trazado 10035" d="M1178.951,1578.326h-.135a1.419,1.419,0,0,1-1.419-1.452l2.151-93.233,6.336-.739-5.4,93.978A1.533,1.533,0,0,1,1178.951,1578.326Z" transform="translate(-1177.397 -1482.903)" fill="#77a4e5"/>
        </g>
        <g id="Grupo_9355" data-name="Grupo 9355" transform="translate(2.645 89.285)">
          <path id="Trazado_10036" data-name="Trazado 10036" d="M1083.662,1578.326h-.135a1.418,1.418,0,0,1-1.418-1.452l2.151-93.233,6.336-.739-5.4,93.978A1.533,1.533,0,0,1,1083.662,1578.326Z" transform="translate(-1082.108 -1482.903)" fill="#77a4e5"/>
        </g>
        <g id="Grupo_9356" data-name="Grupo 9356" transform="translate(99.154 89.285)">
          <path id="Trazado_10037" data-name="Trazado 10037" d="M1338.1,1578.326h.135a1.419,1.419,0,0,0,1.419-1.452l-2.151-93.233-6.336-.739,5.4,93.978A1.533,1.533,0,0,0,1338.1,1578.326Z" transform="translate(-1331.169 -1482.903)" fill="#77a4e5"/>
        </g>
        <path id="Trazado_10038" data-name="Trazado 10038" d="M1075.283,1336.728v-63.887a20.355,20.355,0,0,1,20.355-20.355h46.029a20.355,20.355,0,0,1,20.355,20.355v66.329Z" transform="translate(-1075.283 -1252.486)" fill="#77a4e5"/>
        <path id="Rectángulo_6081" data-name="Rectángulo 6081" d="M0,0H94.985a0,0,0,0,1,0,0V10.086a0,0,0,0,1,0,0h-84.9A10.086,10.086,0,0,1,0,0V0A0,0,0,0,1,0,0Z" transform="translate(0 84.242)" fill="#77a4e5"/>
        <path id="Rectángulo_6082" data-name="Rectángulo 6082" d="M5.043,0H71.232a5.043,5.043,0,0,1,5.043,5.043v0a5.043,5.043,0,0,1-5.043,5.043H5.043A5.043,5.043,0,0,1,0,5.043v0A5.043,5.043,0,0,1,5.043,0Z" transform="translate(33.88 84.242)" fill="#77a4e5"/>
      </g>
      <g id="Grupo_9362" data-name="Grupo 9362">
        <path id="Trazado_10039" data-name="Trazado 10039" d="M1464.562,1597.782c.642,3.211,5.219,2.675,10.333,1.426s3.9.236,11.177-.57,9.483-3.52,9.705-4.6c.2-.961-3.4-1.3-7.255-1.743-.485-.055-.972-.114-1.46-.175-4.355-.546-7.544-3.357-11.5-5.665-3.747-2.186-9.339-11.093-9.339-11.093l-9.981.791s5.238,7.956,7.264,11.414c1.191,2.035,1.128,4.725.979,6.8A12.82,12.82,0,0,0,1464.562,1597.782Z" transform="translate(-1293.31 -1360.64)" fill="#ffb27d"/>
        <path id="Trazado_10040" data-name="Trazado 10040" d="M1487.806,1625.973c5.114-1.249,3.9.236,11.176-.57s9.483-3.52,9.705-4.6c.2-.961-3.4-1.3-7.255-1.743l-.036.074a20.519,20.519,0,0,1-10.423,3.24c-4.937.12-10.168-1.295-13.578-1.24a12.819,12.819,0,0,0,.077,3.415C1478.115,1627.759,1482.692,1627.223,1487.806,1625.973Z" transform="translate(-1306.22 -1387.406)" fill="#233862"/>
        <path id="Trazado_10041" data-name="Trazado 10041" d="M1255.438,1637.811c-1.984,2.606,1.446,5.684,5.766,8.693s2.4,3.08,7.821,8,8.913,4.784,9.871,4.234c.851-.486-1.273-3.407-3.492-6.594-.28-.4-.557-.8-.835-1.21-2.471-3.627-2.473-7.878-3.36-12.371-.839-4.256,6.112-19.9,6.112-19.9l-11.166-1.406s-1.458,9.447-2.713,13.254c-.737,2.239-3.839,3.716-5.495,4.979A12.8,12.8,0,0,0,1255.438,1637.811Z" transform="translate(-1169.963 -1386.306)" fill="#ffb27d"/>
        <path id="Trazado_10042" data-name="Trazado 10042" d="M1261.2,1675.324c4.32,3.008,2.4,3.079,7.821,8s8.913,4.784,9.871,4.234c.851-.486-1.273-3.407-3.492-6.594l-.079.022a20.515,20.515,0,0,1-9.325-5.673c-3.356-3.624-5.755-8.482-8.052-11a12.8,12.8,0,0,0-2.51,2.316C1253.455,1669.237,1256.885,1672.315,1261.2,1675.324Z" transform="translate(-1169.963 -1415.125)" fill="#233862"/>
        <path id="Trazado_10043" data-name="Trazado 10043" d="M1314.872,1436.278l-10.2,27.442-13.314,35.831a21.569,21.569,0,0,1-7.073-.646,30.677,30.677,0,0,1-6.841-3.33s3.7-38.473,10.594-60.557c1.767-5.669,3.748-10.254,5.934-12.835C1304.665,1409.548,1314.872,1436.278,1314.872,1436.278Z" transform="translate(-1183.796 -1264.74)" fill="#163560"/>
        <path id="Trazado_10044" data-name="Trazado 10044" d="M1191.351,1342.787c-6.681-2.155-26.814-.87-45.956,2.878l-2.93-5.129-41.346-3.229s-13.644,30.256-6.174,49.535a6.992,6.992,0,0,0,7,4.71s.6,0,.6,0,24.608-.014,32.6-.014c20.562,0,43.516-14.135,46.486-14.728,4.86-.972,6.8,8.748,11.665,18.955s45.687,45.2,45.687,45.2,6.275.063,8.867-.909a8.733,8.733,0,0,0,3.807-2.4S1206.418,1347.648,1191.351,1342.787Z" transform="translate(-1070.644 -1214.83)" fill="#2a4e96"/>
        <path id="Trazado_10045" data-name="Trazado 10045" d="M1102.6,1021.787c-5.819-1.386-13.722.241-15.034.395-15.7,1.832-19.212,26.223-18.044,33.044,2.153,12.573-3.886,16.114-11.092,26.17-14.448,20.164-4.468,36.766,7.294,40.88,7.057,2.468,16.672-4.253,16.672-4.253.177.066,24.965-23.6,37.228-35.094C1140.235,1074.433,1117.429,1025.319,1102.6,1021.787Z" transform="translate(-1045.258 -1021.232)" fill="#233862"/>
        <path id="Trazado_10046" data-name="Trazado 10046" d="M1157.959,1141.076c.073.025-6.393,4.249-11.663,3.36-4.957-.832-10.2-7.3-10.136-7.321,2-.611,3.775-2.95,2.523-15.013l.942.089,15.841,1.52s.136,4.924.587,9.53C1156.431,1137.109,1157.032,1140.752,1157.959,1141.076Z" transform="translate(-1097.257 -1083.016)" fill="#ffb27d"/>
        <path id="Trazado_10047" data-name="Trazado 10047" d="M1160.946,1123.852s.136,4.924.587,9.53c-8.717.626-14.105-6.843-16.428-11.05Z" transform="translate(-1102.736 -1083.157)" fill="#ed975d"/>
        <path id="Trazado_10048" data-name="Trazado 10048" d="M1157.851,1082.824s-20.531,2.4-21.829-10.41-4.821-21.126,8.233-23.2,16.1,2.556,17.573,6.726S1163.158,1081.869,1157.851,1082.824Z" transform="translate(-1096.301 -1038.058)" fill="#ffb27d"/>
        <path id="Trazado_10049" data-name="Trazado 10049" d="M1149.97,1046.329s-9.915,14.193-18.333,17.281-12.4,1.148-12.4,1.148a34.833,34.833,0,0,0,5.341-13.139,6.272,6.272,0,0,1,4.1-4.861C1134.711,1044.651,1146.35,1041.423,1149.97,1046.329Z" transform="translate(-1086.892 -1035.026)" fill="#233862"/>
        <path id="Trazado_10050" data-name="Trazado 10050" d="M1177.4,1047.279s5.3,3.026,7.416,5.733c2.043,2.613,4.225,9.551,3.909,12.608,0,0,3.339-14.569-2.008-19.87C1181.05,1040.129,1177.4,1047.279,1177.4,1047.279Z" transform="translate(-1122.518 -1034.929)" fill="#233862"/>
        <path id="Trazado_10051" data-name="Trazado 10051" d="M1146.257,1195.972c-.62,41.472-.17,32.806-4.707,36.741-1.093.947-4.166,1.512-8.211,1.779-12.717.844-35.071-1.251-35.921-3.6-2.933-8.132-.863-10.658-3.31-23.107-.255-1.324-.571-2.757-.942-4.318-2.04-8.55-4.026-11.459,3.213-25.2,6.565-12.443,13.654-22.384,14.267-22.019,17.32,10.281,18.447,1.481,18.447,1.481S1146.56,1175.743,1146.257,1195.972Z" transform="translate(-1069.767 -1103.926)" fill="#fff"/>
        <path id="Trazado_10052" data-name="Trazado 10052" d="M1303.942,1489.37l-13.617,37.324s-4.892,1.594-8.454,1.076a10.587,10.587,0,0,1-5.62-2.509s4.16-42.508,11.057-64.592Z" transform="translate(-1183.064 -1290.39)" fill="#2a4e96"/>
        <path id="Trazado_10053" data-name="Trazado 10053" d="M1188.872,1160.08s17.822,3.022,19.914,10.695,17.4,49.956,17.4,49.956-12.049,4.453-16.234.268-14.563-38.831-14.563-38.831Z" transform="translate(-1129.544 -1106.278)" fill="#fff"/>
        <path id="Trazado_10054" data-name="Trazado 10054" d="M1137.813,1294.5c-12.717.844-35.071-1.251-35.921-3.6-2.933-8.132-.863-10.658-3.31-23.107l5.965-13.58s-.845,15.541,4.827,20.6,23.222,9.765,25.979,13.992A15.465,15.465,0,0,1,1137.813,1294.5Z" transform="translate(-1074.241 -1163.933)" fill="#dfebfd"/>
        <g id="Grupo_9358" data-name="Grupo 9358" transform="translate(46.848 117.793)">
          <path id="Trazado_10055" data-name="Trazado 10055" d="M1202.5,1335.344s3.786,3.267,4.865,3.53a2.993,2.993,0,0,0,1.691.019l-2.76-3.234Z" transform="translate(-1184.737 -1331.422)" fill="#ffb27d"/>
          <path id="Trazado_10056" data-name="Trazado 10056" d="M1198.624,1325.41l9.59,2.475a1.588,1.588,0,0,1-1.334.851,21.251,21.251,0,0,1-4-.275Z" transform="translate(-1182.365 -1325.337)" fill="#ffb27d"/>
          <path id="Trazado_10057" data-name="Trazado 10057" d="M1156.664,1330.58s13.689-6.09,16.259-5.286,9.159,4.294,10.193,5.763-5.4-.183-7.405-.308c-1.3-.081-4.32,1.7-5.819,2.565-6.309,3.623-10.689,3.3-10.689,3.3Z" transform="translate(-1156.664 -1325.221)" fill="#ffb27d"/>
        </g>
        <path id="Trazado_10058" data-name="Trazado 10058" d="M1076.644,1156.266s-19.369,3.635-22.957,9c-7.829,11.713-24.494,60.243-15.161,66.751,10.51,7.329,47.834,1.917,47.834,1.917s1.242-5.806-.486-8.614-29.811-7.345-31.107-8.641,12.8-20.038,11.3-23.625C1061.259,1181.566,1076.644,1156.266,1076.644,1156.266Z" transform="translate(-1035.764 -1103.942)" fill="#fff"/>
        <g id="Grupo_9359" data-name="Grupo 9359" transform="translate(115.723 121.083)">
          <path id="Trazado_10059" data-name="Trazado 10059" d="M1336.13,1333.711s13.553,3.661,14.947,5.765,4.123,8.535,4.007,10.214-3.816-3.322-5.2-4.6c-.9-.828-4.149-1.314-5.747-1.574-4.028-.655-5.971-2.5-7.482-3.416a4.1,4.1,0,0,0-2.242-.5Z" transform="translate(-1334.409 -1333.711)" fill="#ffb27d"/>
          <path id="Trazado_10060" data-name="Trazado 10060" d="M1374.368,1358.1s.823,4.613,1.452,5.442a2.812,2.812,0,0,0,1.218,1.013l-.1-3.983Z" transform="translate(-1358.884 -1348.65)" fill="#ffb27d"/>
          <path id="Trazado_10061" data-name="Trazado 10061" d="M1377.423,1348.588l5.511,7.467a1.488,1.488,0,0,1-1.473-.169,19.916,19.916,0,0,1-2.745-2.562Z" transform="translate(-1360.755 -1342.823)" fill="#ffb27d"/>
          <path id="Trazado_10062" data-name="Trazado 10062" d="M1340.2,1350.2s1.257,3.05,3.765,4.144,4.35,2.736,4.753,2.145-1.9-3.7-1.9-3.7Z" transform="translate(-1337.954 -1343.811)" fill="#ffb27d"/>
        </g>
        <path id="Trazado_10063" data-name="Trazado 10063" d="M1255.9,1290.8l28.5,18.022s-3,4.006-3.993,4.371c-5.28,1.936-29.018.081-37.148-12.127Z" transform="translate(-1162.86 -1186.343)" fill="#fff"/>
        <g id="Grupo_9361" data-name="Grupo 9361" transform="translate(52.593 122.697)">
          <path id="Trazado_10064" data-name="Trazado 10064" d="M1245.627,1339.512c1.682,0,18.414-1.16,18.414-1.16s-.483,2.965.551,4.552l-16.3,3.119-3.352-.983Z" transform="translate(-1216.476 -1338.168)" fill="#f9ddbf"/>
          <g id="Grupo_9360" data-name="Grupo 9360">
            <path id="Trazado_10065" data-name="Trazado 10065" d="M1172.734,1344.034l27.907-2.689s-.982,5.162,2.66,6.511l-30.766,2.25S1170.058,1346.616,1172.734,1344.034Z" transform="translate(-1171.491 -1340.001)" fill="#f99746"/>
            <path id="Trazado_10066" data-name="Trazado 10066" d="M1264.306,1338.429l-18.86,1.451s.141-.651.494-.66,18.735-1.344,18.735-1.344l-.064.515Z" transform="translate(-1216.789 -1337.877)" fill="#f99746"/>
            <path id="Trazado_10067" data-name="Trazado 10067" d="M1251.616,1352.481l16.608-3.156-.152-.43-17.7,3.39Z" transform="translate(-1219.805 -1344.625)" fill="#f99746"/>
          </g>
        </g>
      </g>
    </g>
    <g id="Grupo_9372" data-name="Grupo 9372" transform="translate(326.137 478.633)">
      <g id="Grupo_9367" data-name="Grupo 9367" transform="translate(0 85.723)">
        <g id="Grupo_9364" data-name="Grupo 9364" transform="translate(43.925 99.695)">
          <path id="Trazado_10068" data-name="Trazado 10068" d="M752.043,1560.359h-.15a1.58,1.58,0,0,1-1.575-1.62l2.388-104.1,7.034-.825-6,104.936A1.705,1.705,0,0,1,752.043,1560.359Z" transform="translate(-750.318 -1453.81)" fill="#77a4e5"/>
        </g>
        <g id="Grupo_9365" data-name="Grupo 9365" transform="translate(2.936 99.695)">
          <path id="Trazado_10069" data-name="Trazado 10069" d="M646.262,1560.359h-.15a1.579,1.579,0,0,1-1.575-1.62l2.388-104.1,7.034-.825-6,104.936A1.706,1.706,0,0,1,646.262,1560.359Z" transform="translate(-644.537 -1453.81)" fill="#77a4e5"/>
        </g>
        <g id="Grupo_9366" data-name="Grupo 9366" transform="translate(110.071 99.695)">
          <path id="Trazado_10070" data-name="Trazado 10070" d="M928.718,1560.359h.15a1.58,1.58,0,0,0,1.575-1.62l-2.388-104.1-7.034-.825,6,104.936A1.706,1.706,0,0,0,928.718,1560.359Z" transform="translate(-921.02 -1453.81)" fill="#77a4e5"/>
        </g>
        <path id="Trazado_10071" data-name="Trazado 10071" d="M636.961,1290.591v-71.336a22.662,22.662,0,0,1,22.6-22.728h51.1a22.662,22.662,0,0,1,22.6,22.728v74.062Z" transform="translate(-636.961 -1196.527)" fill="#77a4e5"/>
        <path id="Rectángulo_6083" data-name="Rectángulo 6083" d="M0,0H105.443a0,0,0,0,1,0,0V11.262a0,0,0,0,1,0,0H11.262A11.262,11.262,0,0,1,0,0V0A0,0,0,0,1,0,0Z" transform="translate(0 94.064)" fill="#77a4e5"/>
        <rect id="Rectángulo_6084" data-name="Rectángulo 6084" width="84.673" height="11.262" rx="5.631" transform="translate(37.61 94.064)" fill="#77a4e5"/>
      </g>
      <g id="Grupo_9371" data-name="Grupo 9371" transform="translate(22.348)">
        <path id="Trazado_10072" data-name="Trazado 10072" d="M827.676,1128.53s-4.277,3.638-5.206,13.074c-.706,7.164,4.265,62.785,8,67.205,10.522,12.438,23.711,7.182,28.877,9.07l4.873-4.378s-17.135-12.646-18.438-16.772C840.766,1180.846,843.878,1134.529,827.676,1128.53Z" transform="translate(-772.893 -1069.156)" fill="#f9ddbf"/>
        <path id="Trazado_10073" data-name="Trazado 10073" d="M766.748,991.176s.289-10.2-13.164-12.2-17.171,1.144-19.458,4.575-6.576,17.441-6.148,23.017,15.774,12.47,15.523,15.723S766.748,991.176,766.748,991.176Z" transform="translate(-715.04 -977.168)" fill="#163560"/>
        <path id="Trazado_10074" data-name="Trazado 10074" d="M987.52,1667.222c-.436,3.447,4.265,4.462,9.734,4.941s3.773,1.561,11.232,3.22,10.543-.32,11.123-1.333c.517-.9-2.924-2.459-6.587-4.216-.461-.219-.922-.445-1.384-.671-4.121-2.027-6.334-5.936-9.473-9.6-2.973-3.47-5.527-14.324-5.527-14.324l-10.125-2.593s2.521,9.778,3.37,13.943c.5,2.45-.461,5.134-1.3,7.172A13.79,13.79,0,0,0,987.52,1667.222Z" transform="translate(-873.412 -1384.056)" fill="#ffb27d"/>
        <path id="Trazado_10075" data-name="Trazado 10075" d="M998.8,1705.541c5.469.479,3.773,1.561,11.232,3.22s10.543-.32,11.123-1.333c.516-.9-2.924-2.459-6.587-4.215l-.06.063a21.036,21.036,0,0,1-11.378-.28c-4.918-1.555-9.614-4.753-13-5.854a13.785,13.785,0,0,0-1.062,3.459C988.63,1704.047,993.331,1705.062,998.8,1705.541Z" transform="translate(-874.959 -1417.434)" fill="#233862"/>
        <path id="Trazado_10076" data-name="Trazado 10076" d="M770.02,1328.3s67.689,7.022,78.846,17.384,9.17,106.9,9.17,106.9c-1.737,1.8-3.018,1.76-5.763,1.545-2.633-.207-8-2.472-8-2.472s-14.5-47.4-14.677-58.376-2.474-29.6-7.078-30.7-59.4,5.046-65.411-12.263,3.968-31.55,3.968-31.55Z" transform="translate(-731.719 -1185.678)" fill="#ed7d2b"/>
        <path id="Trazado_10077" data-name="Trazado 10077" d="M707.767,1226.955a30.8,30.8,0,0,0,16.906,5.283c15.68.57,35.246-1.3,39.1-4.937a6.627,6.627,0,0,0,1.626-4.469c.425-6.017-2.449-15.916-4.379-24.108-1.253-5.322-2.106-9.92-1.407-12.271,2.127-7.153,8.736-21.732,9.307-26.522s-5.147-30.46-13.051-33.638-38.416,0-38.416,0c-11.919,2.419-12.421,27.831-8.462,49.46.1.558.206,1.111.313,1.66C713.59,1199.377,699.619,1221.5,707.767,1226.955Z" transform="translate(-701.084 -1066.92)" fill="#f9ddbf"/>
        <g id="Grupo_9368" data-name="Grupo 9368" transform="translate(20.336 12.011)">
          <path id="Trazado_10078" data-name="Trazado 10078" d="M780.506,1106.311c-.214,1.393-4.03,3.654-12.184,1.5-7.814-2.06-8.752-4.605-8.751-6.285,0-1.989,3.4-4.669,3.353-16.908l.937.184,15.754,3.12s-.358,4.958-.369,9.629C779.235,1101.477,780.863,1103.991,780.506,1106.311Z" transform="translate(-754.745 -1054.273)" fill="#ffb27d"/>
          <path id="Trazado_10079" data-name="Trazado 10079" d="M786.4,1088.218s-.358,4.958-.369,9.629c-8.816-.249-13.476-8.291-15.385-12.749Z" transform="translate(-761.526 -1054.565)" fill="#ed975d"/>
          <path id="Trazado_10080" data-name="Trazado 10080" d="M785.532,1048.928s-20.858.344-20.873-12.649-2.716-21.7,10.6-22.468,15.91,4.186,16.97,8.522S790.958,1048.5,785.532,1048.928Z" transform="translate(-757.718 -1010.852)" fill="#ffb27d"/>
          <path id="Trazado_10081" data-name="Trazado 10081" d="M774.159,1008.941s-5.711,15.243-14.476,17.5-12.566-.094-12.566-.094a24.819,24.819,0,0,0,8.118-14.663S769.851,1001.686,774.159,1008.941Z" transform="translate(-747.117 -1006.3)" fill="#163560"/>
          <path id="Trazado_10082" data-name="Trazado 10082" d="M813.251,1012.381s4.265,3.4,5.3,6.711,1.508,10.12,3.493,9.888c0,0,4.3-10.361-.533-16.222C816.389,1006.543,813.251,1012.381,813.251,1012.381Z" transform="translate(-787.625 -1008.502)" fill="#163560"/>
        </g>
        <path id="Trazado_10083" data-name="Trazado 10083" d="M857.916,1662.471c-.05,3.475,4.734,3.942,10.221,3.788s3.922,1.115,11.518,1.905,10.439-1.533,10.9-2.606c.413-.952-3.178-2.107-7.013-3.429-.483-.165-.966-.336-1.45-.507-4.319-1.539-6.954-5.168-10.48-8.446-3.34-3.1,4.032-18.127,4.032-18.127l-9.664-4.782s-1.833,10.725-4.193,20.107c-.61,2.424-2.6,6.417-3.2,8.539A13.8,13.8,0,0,0,857.916,1662.471Z" transform="translate(-794.646 -1376.472)" fill="#ffb27d"/>
        <path id="Trazado_10084" data-name="Trazado 10084" d="M708.748,1286.635c2.921,1.955,7.727,7.551,16.489,7.865,14.462-3.289,30.927-7.12,40.723-9.406.425-6.017-2.449-15.916-4.379-24.108-11.421,3.487-28.418-8.394-34.131-13.09-6-4.932-5.816-21.367-5.816-21.367l-12.082,11.486c.1.558.206,1.111.313,1.66C714.155,1261.638,700.6,1281.175,708.748,1286.635Z" transform="translate(-701.648 -1129.181)" fill="#f2ccaa"/>
        <path id="Trazado_10085" data-name="Trazado 10085" d="M868.137,1711.539c5.487-.154,3.922,1.116,11.518,1.905s10.439-1.533,10.9-2.606c.413-.952-3.178-2.107-7.013-3.429l-.053.069a21.056,21.056,0,0,1-11.336,1.033c-5.06-.978-10.081-3.615-13.569-4.319a13.8,13.8,0,0,0-.671,3.56C857.866,1711.227,862.65,1711.693,868.137,1711.539Z" transform="translate(-794.646 -1421.753)" fill="#233862"/>
        <path id="Trazado_10086" data-name="Trazado 10086" d="M722.413,1347.329c17.186-.489,68.514,3.608,78.375,11.042,12.137,9.151-22.536,108.112-22.536,108.112a44.79,44.79,0,0,1-5.3.246c-5.507-.622-7.749-2.3-7.749-2.3s.134-58.246,4.185-69.388c3.744-10.294,6.037-13.936,1.348-14.551s-63.224,6.852-68.109-10.819c-3.816-13.8,1.822-26.578,1.822-26.578S706.559,1347.78,722.413,1347.329Z" transform="translate(-698.717 -1200.576)" fill="#f99746"/>
        <path id="Trazado_10087" data-name="Trazado 10087" d="M711,1128.469s-11.938,1.014-12.867,10.449c-.705,7.165-5.9,57.983-2.159,62.4,10.522,12.438,45.609,15.074,50.775,16.961l1.421-5.882s-37.456-18.871-36.885-23.16S722.451,1126.772,711,1128.469Z" transform="translate(-694.635 -1069.096)" fill="#f9ddbf"/>
        <path id="Trazado_10088" data-name="Trazado 10088" d="M736.362,982.237s.856-5.443-6.692-6.847-7.69,14.629-8.5,18.495,1.207,6.181,4.086,6.417S736.362,982.237,736.362,982.237Z" transform="translate(-710.778 -975.303)" fill="#163560"/>
        <g id="Grupo_9369" data-name="Grupo 9369" transform="translate(50.756 138.716)">
          <path id="Trazado_10089" data-name="Trazado 10089" d="M828.808,1340.637s10.667-3.019,13.208-2.313,11.247,6.47,10.022,8.036-8.893-.937-12.422-.463-6.258,2.215-8.8,1.839a29.457,29.457,0,0,1-5.2-1.376Z" transform="translate(-825.62 -1336.307)" fill="#ffb27d"/>
          <path id="Trazado_10090" data-name="Trazado 10090" d="M833.848,1337.617s5.219-2.681,6.7-4.208a.416.416,0,0,1,.648.075c.4.627.77,1.839-1.061,3.043C837.5,1338.261,833.848,1337.617,833.848,1337.617Z" transform="translate(-830.66 -1333.287)" fill="#ffb27d"/>
        </g>
        <g id="Grupo_9370" data-name="Grupo 9370" transform="translate(86.457 144.346)">
          <path id="Trazado_10091" data-name="Trazado 10091" d="M922.628,1347.815s11.07.606,13.244,2.1,8.538,9.77,6.873,10.853-8.108-3.772-11.6-4.469-6.638.064-8.92-1.116a29.5,29.5,0,0,1-4.47-2.988Z" transform="translate(-917.755 -1347.815)" fill="#ffb27d"/>
        </g>
      </g>
    </g>
    <g id="Grupo_9378" data-name="Grupo 9378" transform="translate(166.571 460.404)">
      <g id="Grupo_9373" data-name="Grupo 9373" transform="translate(38.624)">
        <path id="Trazado_10092" data-name="Trazado 10092" d="M660.582,1694.72H615.541c-2.166-2.644-1.368-12.4-1.04-15.584.067-.641.114-1.015.114-1.015s15.38-12.3,17.493-2.882c.064.3.143.584.228.869,2.662,8.811,14.6,12.815,21.495,13.93C658.312,1690.765,659.969,1693.1,660.582,1694.72Z" transform="translate(-502.005 -1383.615)" fill="#1b3051"/>
        <path id="Trazado_10093" data-name="Trazado 10093" d="M372.189,1353.435c1.626,0,77.152,14.181,89.645,29.645,6.241,7.725,7.169,96.944,7.169,96.944s-7.722,9.573-24.4,4.015c0,0-12.226-61.042-11.323-79.557.25-5.12-51.6-.741-61.094-3.2s-32.679-23.1-27.569-33.16S372.189,1353.435,372.189,1353.435Z" transform="translate(-336.512 -1188.683)" fill="#233862"/>
        <path id="Trazado_10094" data-name="Trazado 10094" d="M554.833,1342.619s4.834,4.171,9.79,5.35a44.346,44.346,0,0,1,7.194,2.186c4.485,2.059,12.993,11.248,12.2,12.161-2.536,2.928-12.754-4.7-14.709-4.16s3.207,4.972,1.159,6.176c-1.07.629-3.084-3.2-4.969-3.74-2.55-.73-4.243-4.58-5.006-4.843-1.487-.511-7.693-6.077-7.693-6.077Z" transform="translate(-464.47 -1182.058)" fill="#ffb27d"/>
        <path id="Trazado_10095" data-name="Trazado 10095" d="M711.953,1694.72H666.912c-2.166-2.644-1.368-12.4-1.04-15.584.067-.641.114-1.015.114-1.015s15.38-12.3,17.493-2.882c.064.3.143.584.228.869,2.661,8.811,14.6,12.815,21.494,13.93C709.683,1690.765,711.34,1693.1,711.953,1694.72Z" transform="translate(-533.47 -1383.615)" fill="#1e3c68"/>
        <path id="Trazado_10096" data-name="Trazado 10096" d="M429.625,1353.435c1.626,0,77.152,14.181,89.645,29.645,6.241,7.725,7.169,96.944,7.169,96.944s-7.721,9.573-24.4,4.015c0,0-12.227-61.042-11.323-79.557.25-5.12-51.6-.741-61.094-3.2s-32.679-23.1-27.57-33.16S429.625,1353.435,429.625,1353.435Z" transform="translate(-371.692 -1188.683)" fill="#2b478b"/>
        <path id="Trazado_10097" data-name="Trazado 10097" d="M422.682,1052.725a73.292,73.292,0,0,1-16.053-3.494c-6.155-2-11.116-4.916-7.919-10.541,2.946-5.184,7.715-16.766,7.393-26.36l11.452,9.229,7.779,6.268a93.29,93.29,0,0,1-.882,10.172q-.234,1.771-.552,3.818a2.775,2.775,0,0,0,1.279,2.786l.176.109A4.344,4.344,0,0,1,422.682,1052.725Z" transform="translate(-369.475 -979.753)" fill="#ffb27d"/>
        <path id="Trazado_10098" data-name="Trazado 10098" d="M447.336,1040.771s.4,1.342-.286,6.3c-6.935-1.131-13.419-6.663-13.419-6.663,3.531-.969,4.816-4.785,7.446-4.429Z" transform="translate(-391.477 -994.222)" fill="#ed975d"/>
        <path id="Trazado_10099" data-name="Trazado 10099" d="M435.115,981.539s-26.678,4.432-29.182-12.224-7.634-27.3,9.293-30.836,21.2,2.323,23.388,7.679S441.989,979.957,435.115,981.539Z" transform="translate(-372.84 -933.861)" fill="#ffb27d"/>
        <path id="Trazado_10100" data-name="Trazado 10100" d="M433.194,933.187c1.146,4.011-1.92,8.9-7.067,10.5-7.639,2.388-5.951,11.759-9.389,11.631s-4.825-5.387-7.9-1.185c-2.619,3.584,2.18,7.833,1.85,9.8-.567,3.374-5.853,10.278-10.616,9.932s-13.676-22.983-11.893-29.986,8.913-14.388,15.661-15.407,16.12,1.9,18.285,1.9S432.575,931.021,433.194,933.187Z" transform="translate(-363.498 -928.26)" fill="#2b478b"/>
        <path id="Trazado_10101" data-name="Trazado 10101" d="M401.157,1173.9c-.446,3.845-1.255,6.459-2.527,7.31-3.977,2.664-9.251,5.976-15.136,9.255-20.868,11.638-49.438,22.867-55.249,3.2-6.827-23.1-2.342-66.469,4.353-93.408,3.853-15.52,14.512-31.8,21.719-31.787,12.278.021,29.929,3.263,37.057,20.843,2.759,6.81,6.814,30.412,8.883,52.031C401.492,1154.221,402.021,1166.4,401.157,1173.9Z" transform="translate(-324.844 -1014.136)" fill="#fff"/>
        <path id="Trazado_10102" data-name="Trazado 10102" d="M397.71,1058.947l2.78-6.263s24.649,2.509,28.831,16.672C429.321,1069.356,410.268,1059.25,397.71,1058.947Z" transform="translate(-369.475 -1004.47)" fill="#dfebfd"/>
        <path id="Trazado_10103" data-name="Trazado 10103" d="M456.291,1281.757c-.446,3.845-1.255,6.459-2.527,7.31-3.977,2.664-9.251,5.976-15.136,9.255-6.141-3.734-18.75-12.641-21.7-23.14-3.853-13.727-1.152-30.618-1.152-30.618Z" transform="translate(-379.978 -1121.998)" fill="#dfebfd"/>
        <path id="Trazado_10104" data-name="Trazado 10104" d="M410.614,1116.5s2.138,59,5.493,70.662c5.721,19.891,57.9,26.975,57.9,26.975a10.683,10.683,0,0,0,1.7-9.271s-31.194-24.587-32.106-29.267,6.8-36.4-2.014-47.935S416.533,1106.131,410.614,1116.5Z" transform="translate(-377.379 -1040.897)" fill="#fff"/>
      </g>
      <g id="Grupo_9377" data-name="Grupo 9377" transform="translate(0 98.059)">
        <g id="Grupo_9374" data-name="Grupo 9374" transform="translate(3.903 116.372)">
          <path id="Trazado_10105" data-name="Trazado 10105" d="M237.78,1577.754l-.172,0a2.333,2.333,0,0,1-2.358-2.5l9.373-93.615,8.18.73-13.46,94.118A1.523,1.523,0,0,1,237.78,1577.754Z" transform="translate(-235.24 -1481.64)" fill="#77a4e5"/>
        </g>
        <g id="Grupo_9375" data-name="Grupo 9375" transform="translate(52.151 116.372)">
          <path id="Trazado_10106" data-name="Trazado 10106" d="M362.294,1577.754l-.172,0a2.333,2.333,0,0,1-2.358-2.5l9.374-93.615,8.179.73-13.46,94.118A1.523,1.523,0,0,1,362.294,1577.754Z" transform="translate(-359.753 -1481.64)" fill="#77a4e5"/>
        </g>
        <g id="Grupo_9376" data-name="Grupo 9376" transform="translate(130.246 116.372)">
          <path id="Trazado_10107" data-name="Trazado 10107" d="M576.316,1577.754l.172,0a2.333,2.333,0,0,0,2.358-2.5l-9.373-93.615-8.18.73,13.46,94.118A1.523,1.523,0,0,0,576.316,1577.754Z" transform="translate(-561.293 -1481.64)" fill="#77a4e5"/>
        </g>
        <path id="Trazado_10108" data-name="Trazado 10108" d="M234.261,1284.429l-8.9-78.188c-1.166-11.268,2.6-22.3,18.864-23.154l28.605-1.742c16.954-.7,24.609,13.411,26.755,24.274l16.981,85.948Z" transform="translate(-225.168 -1181.319)" fill="#77a4e5"/>
        <path id="Rectángulo_6085" data-name="Rectángulo 6085" d="M7.493,0H128.741a7.493,7.493,0,0,1,7.493,7.493v7.493a0,0,0,0,1,0,0H7.493A7.493,7.493,0,0,1,0,7.493v0A7.493,7.493,0,0,1,7.493,0Z" transform="translate(145.468 117.741) rotate(180)" fill="#77a4e5"/>
        <path id="Rectángulo_6086" data-name="Rectángulo 6086" d="M7.493,0h67.18a7.493,7.493,0,0,1,7.493,7.493v7.493a0,0,0,0,1,0,0H7.493A7.493,7.493,0,0,1,0,7.493v0A7.493,7.493,0,0,1,7.493,0Z" transform="translate(91.401 117.741) rotate(180)" fill="#77a4e5"/>
      </g>
    </g>
    <path id="Rectángulo_6087" data-name="Rectángulo 6087" d="M2.321,0h1128.67a2.322,2.322,0,0,1,2.322,2.322v0a2.321,2.321,0,0,1-2.321,2.321H2.321A2.321,2.321,0,0,1,0,2.322v0A2.321,2.321,0,0,1,2.321,0Z" transform="translate(135.803 770.325)" fill="#2e3552"/>
    <g id="Grupo_9385" data-name="Grupo 9385" transform="translate(329.223 374.308)">
      <rect id="Rectángulo_6088" data-name="Rectángulo 6088" width="51.287" height="49.756" rx="9.467" fill="#77a4e5"/>
      <path id="Rectángulo_6089" data-name="Rectángulo 6089" d="M8.647,0H38.2a8.646,8.646,0,0,1,8.646,8.646V36.8A8.647,8.647,0,0,1,38.2,45.445H8.647A8.647,8.647,0,0,1,0,36.8V8.647A8.647,8.647,0,0,1,8.647,0Z" transform="translate(2.222 2.155)" fill="#dfebfd"/>
      <g id="Grupo_9381" data-name="Grupo 9381" transform="translate(6.055 5.634)">
        <g id="Grupo_9379" data-name="Grupo 9379" transform="translate(18.526)">
          <circle id="Elipse_116" data-name="Elipse 116" cx="1.062" cy="1.062" r="1.062" fill="#77a4e5"/>
          <path id="Trazado_10109" data-name="Trazado 10109" d="M730.271,726.366a1.062,1.062,0,1,1,.413,1.445A1.063,1.063,0,0,1,730.271,726.366Z" transform="translate(-721.699 -723.802)" fill="#77a4e5"/>
          <path id="Trazado_10110" data-name="Trazado 10110" d="M748.668,742.02a1.062,1.062,0,1,1-.317,1.469A1.062,1.062,0,0,1,748.668,742.02Z" transform="translate(-732.751 -733.621)" fill="#77a4e5"/>
          <path id="Trazado_10111" data-name="Trazado 10111" d="M757.146,765.594a1.062,1.062,0,1,1-1.062,1.062A1.062,1.062,0,0,1,757.146,765.594Z" transform="translate(-737.591 -748.164)" fill="#77a4e5"/>
          <circle id="Elipse_117" data-name="Elipse 117" cx="1.062" cy="1.062" r="1.062" transform="translate(15.883 27.599)" fill="#77a4e5"/>
          <path id="Trazado_10112" data-name="Trazado 10112" d="M733.948,809.41a1.063,1.063,0,1,1-1.5,0A1.063,1.063,0,0,1,733.948,809.41Z" transform="translate(-722.922 -774.812)" fill="#77a4e5"/>
          <circle id="Elipse_118" data-name="Elipse 118" cx="1.062" cy="1.062" r="1.062" transform="translate(0 36.984)" fill="#77a4e5"/>
        </g>
        <g id="Grupo_9380" data-name="Grupo 9380" transform="translate(0 2.018)">
          <path id="Trazado_10113" data-name="Trazado 10113" d="M688.486,726.366a1.062,1.062,0,1,0-.413,1.445A1.063,1.063,0,0,0,688.486,726.366Z" transform="translate(-676.442 -725.82)" fill="#77a4e5"/>
          <path id="Trazado_10114" data-name="Trazado 10114" d="M670.091,742.02a1.062,1.062,0,1,0,.317,1.469A1.062,1.062,0,0,0,670.091,742.02Z" transform="translate(-665.39 -735.638)" fill="#77a4e5"/>
          <path id="Trazado_10115" data-name="Trazado 10115" d="M661.613,765.594a1.062,1.062,0,1,0,1.063,1.062A1.062,1.062,0,0,0,661.613,765.594Z" transform="translate(-660.551 -750.182)" fill="#77a4e5"/>
          <circle id="Elipse_119" data-name="Elipse 119" cx="1.062" cy="1.062" r="1.062" transform="translate(2.609 25.582)" fill="#77a4e5"/>
          <path id="Trazado_10116" data-name="Trazado 10116" d="M684.81,809.41a1.063,1.063,0,1,0,1.5,0A1.063,1.063,0,0,0,684.81,809.41Z" transform="translate(-675.219 -776.829)" fill="#77a4e5"/>
        </g>
      </g>
      <g id="Grupo_9384" data-name="Grupo 9384" transform="translate(25.357 10.854)">
        <path id="Trazado_10117" data-name="Trazado 10117" d="M710.363,766.656a1.063,1.063,0,1,1,1.063,1.063A1.062,1.062,0,0,1,710.363,766.656Z" transform="translate(-710.363 -753.384)" fill="#77a4e5"/>
        <g id="Grupo_9382" data-name="Grupo 9382" transform="translate(0.917)">
          <rect id="Rectángulo_6090" data-name="Rectángulo 6090" width="0.29" height="13.272" fill="#77a4e5"/>
        </g>
        <g id="Grupo_9383" data-name="Grupo 9383" transform="translate(0.66 7.388)">
          <rect id="Rectángulo_6091" data-name="Rectángulo 6091" width="8.945" height="0.87" transform="matrix(0.787, -0.617, 0.617, 0.787, 0, 5.523)" fill="#77a4e5"/>
        </g>
      </g>
    </g>
  </g>
</svg>
