<svg id="Grupo_10711" data-name="Grupo 10711" xmlns="http://www.w3.org/2000/svg" width="219.081" height="209.667" viewBox="0 0 219.081 209.667">
  <path id="Trazado_10976" data-name="Trazado 10976" d="M88.5,155.136a6.738,6.738,0,0,1,6.733-6.73h58.712a6.739,6.739,0,0,1,6.733,6.73V259.807A104.834,104.834,0,1,0-31.5,201.835a104.355,104.355,0,0,0,20.576,62.381l1.678.428H88.5Zm0,0" transform="translate(40.914 -97.001)" fill="#66baed"/>
  <rect id="Rectángulo_6170" data-name="Rectángulo 6170" width="36.799" height="18.827" transform="translate(73.408 133.93)" fill="#9182b0"/>
  <rect id="Rectángulo_6171" data-name="Rectángulo 6171" width="12.837" height="18.827" transform="translate(73.408 133.93)" fill="#7a6d98"/>
  <path id="Trazado_10977" data-name="Trazado 10977" d="M109.62,364H26.226a8.557,8.557,0,0,0-8.558,8.558v6.755H109.62Zm0,0" transform="translate(19.797 -211.671)" fill="#a79bc6"/>
  <path id="Trazado_10978" data-name="Trazado 10978" d="M47.62,364H26.226a8.557,8.557,0,0,0-8.558,8.558v6.755H39.063v-6.755A8.557,8.557,0,0,1,47.62,364Zm0,0" transform="translate(19.797 -211.671)" fill="#9182b0"/>
  <path id="Trazado_10979" data-name="Trazado 10979" d="M81.417,160.605a6.738,6.738,0,0,1,6.733-6.73h46.435v-41.9a2.239,2.239,0,0,0-2.238-2.238H-45.762A2.238,2.238,0,0,0-48,111.973v120.38a4.475,4.475,0,0,0,4.475,4.475H81.417Zm0,0" transform="translate(48 -102.47)" fill="#a79bc6"/>
  <path id="Trazado_10980" data-name="Trazado 10980" d="M-30.093,232.353V218.928h-6.72a2.237,2.237,0,0,1-2.237-2.238V120.923a2.239,2.239,0,0,1,2.237-2.238h6.72v-6.713a2.238,2.238,0,0,1,2.238-2.238H-45.762A2.238,2.238,0,0,0-48,111.973v120.38a4.475,4.475,0,0,0,4.475,4.475h17.906a4.475,4.475,0,0,1-4.475-4.475Zm0,0" transform="translate(48 -102.47)" fill="#9182b0"/>
  <path id="Trazado_10981" data-name="Trazado 10981" d="M88.155,167.343a6.738,6.738,0,0,1,6.733-6.73H132.37V127.661a2.237,2.237,0,0,0-2.235-2.238H-30.075a2.239,2.239,0,0,0-2.237,2.238v95.767a2.239,2.239,0,0,0,2.237,2.238H88.155Zm0,0" transform="translate(41.262 -109.208)" fill="#b3dafe"/>
  <path id="Trazado_10982" data-name="Trazado 10982" d="M-14.441,223.428V127.661a2.239,2.239,0,0,1,2.238-2.238H-30.075a2.239,2.239,0,0,0-2.237,2.238v95.767a2.239,2.239,0,0,0,2.237,2.238H-12.2a2.239,2.239,0,0,1-2.238-2.238Zm0,0" transform="translate(41.262 -109.208)" fill="#8ac9fe"/>
  <path id="Trazado_10983" data-name="Trazado 10983" d="M-25.894,314.71a3.21,3.21,0,0,1-3.21,3.209,3.21,3.21,0,0,1-3.209-3.209A3.21,3.21,0,0,1-29.1,311.5a3.21,3.21,0,0,1,3.21,3.209Zm0,0" transform="translate(41.262 -189.124)" fill="#fff"/>
  <path id="Trazado_10984" data-name="Trazado 10984" d="M122.053,428.7a6.74,6.74,0,0,1-6.733-6.733V418H33.248l-2.307.428A104.822,104.822,0,0,0,155.549,428.7Zm0,0" transform="translate(14.097 -234.863)" fill="#f6a96c"/>
  <path id="Trazado_10985" data-name="Trazado 10985" d="M103.993,390.091H4.566a105.4,105.4,0,0,0,15.046,16.351h84.381Zm0,0" transform="translate(25.424 -222.877)" fill="#d88a55"/>
  <path id="Trazado_10986" data-name="Trazado 10986" d="M103.993,397.456H52a6.427,6.427,0,0,1-4.363-1.707q-2.942-2.721-5.672-5.658H4.566a105.4,105.4,0,0,0,15.046,16.351h84.381Zm0,0" transform="translate(25.424 -222.877)" fill="#c57a44"/>
  <path id="Trazado_10987" data-name="Trazado 10987" d="M249.329,403.142H179.913l-1.823.3v12.139a7.159,7.159,0,0,0,7.161,7.161h58.712a7.159,7.159,0,0,0,7.161-7.161V403.445Zm0,0" transform="translate(-49.101 -228.482)" fill="#b5add5"/>
  <path id="Trazado_10988" data-name="Trazado 10988" d="M243.963,186.353H185.251a7.158,7.158,0,0,0-7.161,7.158v8.716l1.814.3H249.4l1.728-.3v-8.716a7.159,7.159,0,0,0-7.161-7.158Zm0,0" transform="translate(-49.101 -135.376)" fill="#b5add5"/>
  <path id="Trazado_10989" data-name="Trazado 10989" d="M187.63,415.812V403.673h-9.54v12.139a7.159,7.159,0,0,0,7.161,7.161h9.54a7.161,7.161,0,0,1-7.161-7.161Zm0,0" transform="translate(-49.101 -228.71)" fill="#a79bc6"/>
  <path id="Trazado_10990" data-name="Trazado 10990" d="M187.63,202.225v-8.716a7.162,7.162,0,0,1,7.161-7.16h-9.54a7.16,7.16,0,0,0-7.161,7.16v8.716Zm0,0" transform="translate(-49.101 -135.374)" fill="#a79bc6"/>
  <rect id="Rectángulo_6172" data-name="Rectángulo 6172" width="73.034" height="108.112" transform="translate(128.989 66.852)" fill="#fff"/>
  <rect id="Rectángulo_6173" data-name="Rectángulo 6173" width="9.541" height="108.112" transform="translate(128.989 66.852)" fill="#f3f0ff"/>
  <path id="Trazado_10991" data-name="Trazado 10991" d="M241.768,420.317H230.583a2.273,2.273,0,0,1,0-4.546h11.185a2.273,2.273,0,0,1,0,4.546Zm0,0" transform="translate(-70.67 -233.906)" fill="#9182b0"/>
  <path id="Trazado_10992" data-name="Trazado 10992" d="M242.811,201.813H223.193a2.273,2.273,0,0,1,0-4.546h19.619a2.273,2.273,0,0,1,0,4.546Zm0,0" transform="translate(-67.496 -140.063)" fill="#9182b0"/>
  <path id="Trazado_10993" data-name="Trazado 10993" d="M207.337,199.54a2.272,2.272,0,1,1-2.271-2.273,2.272,2.272,0,0,1,2.271,2.273Zm0,0" transform="translate(-59.71 -140.063)" fill="#fff"/>
  <path id="Trazado_10994" data-name="Trazado 10994" d="M197.762,288.071l4.713,23.075a2.734,2.734,0,0,0,2.677,2.186h35.807a2.732,2.732,0,0,0,2.676-2.186l4.716-23.075Zm0,0" transform="translate(-57.549 -179.061)" fill="#fd4755"/>
  <path id="Trazado_10995" data-name="Trazado 10995" d="M211.169,311.146l-4.714-23.075h-8.694l4.713,23.075a2.734,2.734,0,0,0,2.677,2.186h8.7a2.734,2.734,0,0,1-2.679-2.186Zm0,0" transform="translate(-57.549 -179.061)" fill="#fb2b3a"/>
  <path id="Trazado_10996" data-name="Trazado 10996" d="M213.8,311.253a3.21,3.21,0,0,1-3.209-3.209V297.46a3.209,3.209,0,1,1,6.418,0v10.584a3.209,3.209,0,0,1-3.209,3.209Zm0,0" transform="translate(-63.06 -181.715)" fill="#e41f2d"/>
  <path id="Trazado_10997" data-name="Trazado 10997" d="M231.053,311.253a3.21,3.21,0,0,1-3.209-3.209V297.46a3.209,3.209,0,1,1,6.418,0v10.584a3.209,3.209,0,0,1-3.209,3.209Zm0,0" transform="translate(-70.469 -181.715)" fill="#e41f2d"/>
  <path id="Trazado_10998" data-name="Trazado 10998" d="M248.3,311.253a3.21,3.21,0,0,1-3.209-3.209V297.46a3.209,3.209,0,1,1,6.418,0v10.584a3.209,3.209,0,0,1-3.209,3.209Zm0,0" transform="translate(-77.877 -181.715)" fill="#e41f2d"/>
  <path id="Trazado_10999" data-name="Trazado 10999" d="M265.553,311.253a3.21,3.21,0,0,1-3.209-3.209V297.46a3.209,3.209,0,1,1,6.418,0v10.584a3.209,3.209,0,0,1-3.209,3.209Zm0,0" transform="translate(-85.286 -181.715)" fill="#e41f2d"/>
  <path id="Trazado_11000" data-name="Trazado 11000" d="M253.931,261.652H262.6l-11.1-19.217a1.365,1.365,0,0,0-1.865-.5L245.5,244.32a1.365,1.365,0,0,0-.5,1.865Zm0,0" transform="translate(-77.759 -159.168)" fill="#fd4755"/>
  <path id="Trazado_11001" data-name="Trazado 11001" d="M249.794,244.32l2.1-1.212-.39-.673a1.365,1.365,0,0,0-1.865-.5L245.5,244.32a1.365,1.365,0,0,0-.5,1.865l8.928,15.467h4.292l-8.93-15.467a1.365,1.365,0,0,1,.5-1.865Zm0,0" transform="translate(-77.759 -159.168)" fill="#fb2b3a"/>
  <path id="Trazado_11002" data-name="Trazado 11002" d="M216.878,261.652l8.928-15.467a1.366,1.366,0,0,0-.5-1.865l-4.134-2.387a1.365,1.365,0,0,0-1.866.5l-11.1,19.217Zm0,0" transform="translate(-62.037 -159.168)" fill="#fd4755"/>
  <path id="Trazado_11003" data-name="Trazado 11003" d="M221.173,241.933a1.365,1.365,0,0,0-1.866.5l-11.1,19.217h4.444l10.668-18.478Zm0,0" transform="translate(-62.037 -159.168)" fill="#fb2b3a"/>
  <path id="Trazado_11004" data-name="Trazado 11004" d="M248.074,283.265h-56.68a1.365,1.365,0,0,1-1.366-1.366V277.25a1.365,1.365,0,0,1,1.366-1.366h56.68a1.366,1.366,0,0,1,1.366,1.366V281.9a1.365,1.365,0,0,1-1.366,1.366Zm0,0" transform="translate(-54.227 -173.827)" fill="#fe646f"/>
  <path id="Trazado_11005" data-name="Trazado 11005" d="M243.563,356.075H212.15a3.209,3.209,0,1,1,0-6.418h31.412a3.209,3.209,0,1,1,0,6.418Zm0,0" transform="translate(-62.35 -205.511)" fill="#fe646f"/>
  <path id="Trazado_11006" data-name="Trazado 11006" d="M243.563,376.419H212.15a3.209,3.209,0,1,1,0-6.418h31.412a3.209,3.209,0,1,1,0,6.418Zm0,0" transform="translate(-62.35 -214.248)" fill="#fe646f"/>
  <path id="Trazado_11007" data-name="Trazado 11007" d="M198.919,281.9V277.25a1.365,1.365,0,0,1,1.366-1.366h-8.892a1.365,1.365,0,0,0-1.366,1.366V281.9a1.365,1.365,0,0,0,1.366,1.366h8.892a1.365,1.365,0,0,1-1.366-1.366Zm0,0" transform="translate(-54.227 -173.827)" fill="#fd4755"/>
  <path id="Trazado_11008" data-name="Trazado 11008" d="M48.792,250.917a8.015,8.015,0,1,1-8.016-8.014,8.015,8.015,0,0,1,8.016,8.014Zm0,0" transform="translate(13.315 -159.663)" fill="#9182b0"/>
  <path id="Trazado_11009" data-name="Trazado 11009" d="M39.744,250.917a8.011,8.011,0,0,1,4.524-7.207,8.016,8.016,0,1,0,0,14.415,8.01,8.01,0,0,1-4.524-7.207Zm0,0" transform="translate(13.315 -159.663)" fill="#7a6d98"/>
  <path id="Trazado_11010" data-name="Trazado 11010" d="M94.9,250.917a8.016,8.016,0,1,1-8.016-8.014,8.017,8.017,0,0,1,8.016,8.014Zm0,0" transform="translate(-6.488 -159.663)" fill="#9182b0"/>
  <path id="Trazado_11011" data-name="Trazado 11011" d="M85.855,250.917a8.008,8.008,0,0,1,4.524-7.207,8.016,8.016,0,1,0,0,14.415,8.007,8.007,0,0,1-4.524-7.207Zm0,0" transform="translate(-6.488 -159.663)" fill="#7a6d98"/>
  <path id="Trazado_11012" data-name="Trazado 11012" d="M72.993,210.435H28.022a3.209,3.209,0,1,1,0-6.418H70.708l14.9-42.983a3.211,3.211,0,0,1,3.033-2.157h12.637a3.209,3.209,0,1,1,0,6.418H90.928l-14.9,42.983a3.207,3.207,0,0,1-3.031,2.157Zm0,0" transform="translate(16.729 -123.575)" fill="#0172fb"/>
  <path id="Trazado_11013" data-name="Trazado 11013" d="M9.116,177.184,18.831,205.2a2.058,2.058,0,0,0,1.944,1.381h38.5a2.052,2.052,0,0,0,1.941-1.381l9.717-28.021a2.056,2.056,0,0,0-1.941-2.73H11.057a2.056,2.056,0,0,0-1.941,2.73Zm0,0" transform="translate(23.519 -130.265)" fill="#9182b0"/>
  <path id="Trazado_11014" data-name="Trazado 11014" d="M32.517,205.2,22.8,177.184a2.056,2.056,0,0,1,1.941-2.73H11.057a2.056,2.056,0,0,0-1.941,2.73L18.831,205.2a2.058,2.058,0,0,0,1.944,1.381H34.46a2.058,2.058,0,0,1-1.943-1.381Zm0,0" transform="translate(23.519 -130.265)" fill="#7a6d98"/>
  <path id="Trazado_11015" data-name="Trazado 11015" d="M13.918,153.46a3.209,3.209,0,1,1-3.209-3.209,3.21,3.21,0,0,1,3.209,3.209Zm0,0" transform="translate(24.164 -119.871)" fill="#fff"/>
  <path id="Trazado_11016" data-name="Trazado 11016" d="M30.418,153.46a3.209,3.209,0,1,1-3.209-3.209,3.21,3.21,0,0,1,3.209,3.209Zm0,0" transform="translate(17.078 -119.871)" fill="#fff"/>
  <path id="Trazado_11017" data-name="Trazado 11017" d="M46.918,153.46a3.209,3.209,0,1,1-3.209-3.209,3.21,3.21,0,0,1,3.209,3.209Zm0,0" transform="translate(9.991 -119.871)" fill="#fff"/>
</svg>
