<svg xmlns="http://www.w3.org/2000/svg" width="297.636" height="297.636" viewBox="0 0 297.636 297.636">
  <g id="Grupo_10710" data-name="Grupo 10710" transform="translate(112 -24.001)">
    <path id="Trazado_10935" data-name="Trazado 10935" d="M185.636,172.819A148.818,148.818,0,1,1,36.818,24,148.816,148.816,0,0,1,185.636,172.819Zm0,0" fill="#66baed"/>
    <path id="Trazado_10936" data-name="Trazado 10936" d="M164.514,433.75v17a147.613,147.613,0,0,1-48.774,17.269q-5.623.927-11.372,1.44-3.579.317-7.217.454c-1.973.087-3.96.123-5.952.123q-6.67,0-13.182-.577a148.232,148.232,0,0,1-31.888-6.372c-.366-.116-.736-.238-1.1-.359a147.813,147.813,0,0,1-27.147-11.979v-17a55.316,55.316,0,0,1,40.971-53.422c.863-.232,1.731-.445,2.611-.634a55.474,55.474,0,0,1,7.2-1.063c1.495-.12,3-.182,4.526-.182H109.2a55.279,55.279,0,0,1,11.73,1.245c.218.043.436.091.65.141.638.145,1.276.3,1.9.474a.507.507,0,0,1,.05.012,55.349,55.349,0,0,1,40.981,53.429Zm0,0" transform="translate(-54.379 -148.401)" fill="#2a2f4f"/>
    <path id="Trazado_10937" data-name="Trazado 10937" d="M184.066,433.75v17a147.613,147.613,0,0,1-48.774,17.269q-5.623.927-11.372,1.44-3.579.317-7.217.454c-1.973.087-3.96.123-5.952.123q-6.67,0-13.182-.577a148.232,148.232,0,0,1-31.888-6.372c-.366-.116-.736-.238-1.1-.359V433.75a55.314,55.314,0,0,1,40.97-53.422c.863-.232,1.73-.445,2.611-.634a55.46,55.46,0,0,1,7.2-1.063q2.241-.18,4.526-.182h8.867a55.279,55.279,0,0,1,11.73,1.245c.218.043.436.091.65.141.638.145,1.276.3,1.9.474a.507.507,0,0,1,.05.012,55.349,55.349,0,0,1,40.981,53.429Zm0,0" transform="translate(-73.931 -148.401)" fill="#3d4159"/>
    <path id="Trazado_10938" data-name="Trazado 10938" d="M153.076,380.591l-.134.627-19.166,89.137q-6.506.576-13.168.577t-13.182-.577L88.263,381.222l-.134-.631Zm0,0" transform="translate(-83.79 -149.297)" fill="#f2f0ec"/>
    <path id="Trazado_10939" data-name="Trazado 10939" d="M120.6,395.425,95.7,409.261l-7.575-35.229,15.471-9.113" transform="translate(-83.79 -142.736)" fill="#d8d5d0"/>
    <path id="Trazado_10940" data-name="Trazado 10940" d="M143.988,395.425l24.9,13.835,7.573-35.229-15.471-9.113" transform="translate(-107.177 -142.736)" fill="#d8d5d0"/>
    <path id="Trazado_10941" data-name="Trazado 10941" d="M16.109,241.9v-83.4a74.346,74.346,0,1,1,148.691,0v83.4" transform="translate(-53.637 -25.18)" fill="#f74f4f"/>
    <path id="Trazado_10942" data-name="Trazado 10942" d="M46.692,161.753c0,29.5,17.274,63.632,26.763,80.149H16.109V158.5a74.3,74.3,0,0,1,73.8-74.343c-22.857.573-43.217,37.241-43.217,77.6Zm0,0" transform="translate(-53.637 -25.184)" fill="#dd3033"/>
    <path id="Trazado_10943" data-name="Trazado 10943" d="M149.522,341.8v24.215a19.732,19.732,0,0,1-39.463,0V341.8Zm0,0" transform="translate(-92.972 -133.057)" fill="#eab599"/>
    <path id="Trazado_10944" data-name="Trazado 10944" d="M158.045,380.817v1.535a19.726,19.726,0,0,1-13.9,18.845,19.72,19.72,0,0,1-13.734-16.277q1.976.123,3.974.12a68.2,68.2,0,0,0,23.657-4.224Zm0,0" transform="translate(-101.494 -149.392)" fill="#f6caae"/>
    <path id="Trazado_10945" data-name="Trazado 10945" d="M24.46,260.318a18.349,18.349,0,0,1-15.41,18.114,18.133,18.133,0,0,1-2.941.237,18.349,18.349,0,0,1,0-36.7,18.133,18.133,0,0,1,2.941.236,18.349,18.349,0,0,1,15.41,18.112Zm0,0" transform="translate(-41.768 -91.259)" fill="#f6caae"/>
    <path id="Trazado_10946" data-name="Trazado 10946" d="M38.038,260.488A18.349,18.349,0,0,1,22.628,278.6a68.532,68.532,0,0,1,0-36.226,18.349,18.349,0,0,1,15.41,18.112Zm0,0" transform="translate(-55.346 -91.429)" fill="#eab599"/>
    <path id="Trazado_10947" data-name="Trazado 10947" d="M21.163,268.809a6.558,6.558,0,1,1-6.558-6.558,6.558,6.558,0,0,1,6.558,6.558Zm0,0" transform="translate(-50.261 -99.751)" fill="#eab599"/>
    <path id="Trazado_10948" data-name="Trazado 10948" d="M141.944,203.23V266.3A68.013,68.013,0,0,1,105.786,284.3l-.336.054a67.011,67.011,0,0,1-10.623.827,68.27,68.27,0,0,1-68.268-68.268v-26a68.78,68.78,0,0,1,.7-9.805c16.243,11.681,39.53,10.527,54.369-3.5a38.652,38.652,0,0,0,10.26-16.032A45.052,45.052,0,0,0,105.979,189.7a50.372,50.372,0,0,0,35.965,13.527Zm0,0" transform="translate(-58.012 -57.601)" fill="#eab599"/>
    <path id="Trazado_10949" data-name="Trazado 10949" d="M157.255,203.233v63.073A68.026,68.026,0,0,1,121.1,284.3c-.109.018-.225.036-.334.056a68.277,68.277,0,0,1-57.633-67.442v-26c0-.692.011-1.378.036-2.067a42.773,42.773,0,0,0,33.771-11.236,38.636,38.636,0,0,0,10.26-16.029,45.07,45.07,0,0,0,14.092,28.124,48.83,48.83,0,0,0,9.53,7.021,50.249,50.249,0,0,0,5.364,2.618h.007a51.469,51.469,0,0,0,20.069,3.9c.334,0,.663-.007,1-.012Zm0,0" transform="translate(-73.323 -57.603)" fill="#f6caae"/>
    <rect id="Rectángulo_6167" data-name="Rectángulo 6167" width="50.146" height="24.102" transform="translate(20.8 151.006)" fill="#eab599"/>
    <path id="Trazado_10950" data-name="Trazado 10950" d="M211.688,281.47a8.5,8.5,0,1,1-8.5-8.5,8.505,8.505,0,0,1,8.5,8.5Zm0,0" transform="translate(-128.401 -104.237)" fill="#eab599"/>
    <path id="Trazado_10951" data-name="Trazado 10951" d="M81.074,281.47a8.5,8.5,0,1,1-8.5-8.5,8.505,8.505,0,0,1,8.5,8.5Zm0,0" transform="translate(-73.715 -104.237)" fill="#eab599"/>
    <path id="Trazado_10952" data-name="Trazado 10952" d="M64.555,245.4v.007a19.183,19.183,0,0,0,18.963,18.863c.454,0,.91,0,1.367,0a19.157,19.157,0,0,0,18.87-19.17v-5.77l-.2-7.539a2.469,2.469,0,0,0-1.665-2.261,53.907,53.907,0,0,0-35.678.074,2.466,2.466,0,0,0-1.653,2.324V245.4Zm0,0" transform="translate(-73.92 -84.792)" fill="#dde8ed"/>
    <path id="Trazado_10953" data-name="Trazado 10953" d="M196.229,239.328V245.1a19.164,19.164,0,0,1-18.873,19.174c-.456.007-.91.007-1.367,0a19.176,19.176,0,0,1-18.959-18.866V231.931a2.468,2.468,0,0,1,1.653-2.325,53.972,53.972,0,0,1,16.813-3.061h.007a51.469,51.469,0,0,0,20.069,3.9,2.448,2.448,0,0,1,.456,1.349Zm0,0" transform="translate(-112.638 -84.801)" fill="#dde8ed"/>
    <path id="Trazado_10954" data-name="Trazado 10954" d="M190.737,238.675a11.339,11.339,0,0,0-22.678,0" transform="translate(-117.255 -85.133)" fill="#bfd5de"/>
    <path id="Trazado_10955" data-name="Trazado 10955" d="M103.619,238.675a11.339,11.339,0,0,0-22.678,0" transform="translate(-80.781 -85.133)" fill="#bfd5de"/>
    <path id="Trazado_10956" data-name="Trazado 10956" d="M102.614,249.569a7.745,7.745,0,1,1-7.744-7.744,7.745,7.745,0,0,1,7.744,7.744Zm0,0" transform="translate(-83.37 -91.199)" fill="#3d4159"/>
    <path id="Trazado_10957" data-name="Trazado 10957" d="M189.731,249.569a7.745,7.745,0,1,1-7.744-7.744,7.745,7.745,0,0,1,7.744,7.744Zm0,0" transform="translate(-119.844 -91.199)" fill="#3d4159"/>
    <path id="Trazado_10958" data-name="Trazado 10958" d="M130.885,317.849a34.516,34.516,0,0,1-16.645-4.3,3.037,3.037,0,1,1,2.925-5.323,28.342,28.342,0,0,0,27.438,0,3.037,3.037,0,1,1,2.925,5.323,34.508,34.508,0,0,1-16.643,4.3Zm0,0" transform="translate(-94.063 -118.843)" fill="#eab599"/>
    <path id="Trazado_10959" data-name="Trazado 10959" d="M106.275,250.4a3.319,3.319,0,1,1-3.32-3.318,3.321,3.321,0,0,1,3.32,3.318Zm0,0" transform="translate(-88.608 -93.402)" fill="#fff"/>
    <path id="Trazado_10960" data-name="Trazado 10960" d="M144.812,286.491H129.323a3.34,3.34,0,1,1,0-6.681h15.489a3.34,3.34,0,0,1,0,6.681Zm0,0" transform="translate(-99.638 -107.102)" fill="#eab599"/>
    <path id="Trazado_10961" data-name="Trazado 10961" d="M194.044,250.4a3.319,3.319,0,1,1-3.318-3.318,3.319,3.319,0,0,1,3.318,3.318Zm0,0" transform="translate(-125.355 -93.402)" fill="#fff"/>
    <path id="Trazado_10962" data-name="Trazado 10962" d="M66.121,243.523H60.047V229.744a5.514,5.514,0,0,1,3.679-5.187,57.147,57.147,0,0,1,37.69-.077,5.534,5.534,0,0,1,3.7,5.048l.2,7.618v6.074H99.245v-6.034l-.191-7.1a51.057,51.057,0,0,0-32.933.064Zm0,0" transform="translate(-72.033 -82.615)" fill="#f2f0ec"/>
    <path id="Trazado_10963" data-name="Trazado 10963" d="M194.681,228.546v14.971h-2.966v-6.031l-.188-7.094a51.042,51.042,0,0,0-32.933.062v13.368H152.52V230.045a5.518,5.518,0,0,1,3.681-5.187,56.994,56.994,0,0,1,12.044-2.818,51.155,51.155,0,0,0,26.437,6.506Zm0,0" transform="translate(-110.749 -82.915)" fill="#f2f0ec"/>
    <rect id="Rectángulo_6168" data-name="Rectángulo 6168" width="14.76" height="6.074" transform="translate(30.048 146.993)" fill="#f2f0ec"/>
    <path id="Trazado_10964" data-name="Trazado 10964" d="M50.014,232.394,48.1,238.159l-4.167-1.385L26.555,231.4v-6.39l18.3,5.666Zm0,0" transform="translate(-58.01 -84.158)" fill="#f2f0ec"/>
    <path id="Trazado_10965" data-name="Trazado 10965" d="M54.719,341.98l-6.111,7.945-16.686,4.451L22.07,357l-7.689-7.089c-.214-.2-.432-.4-.638-.6C-7.929,329.084-18.17,313.182-27.61,285.077c-.1-.273-.188-.552-.279-.834l-3.275-9.93,6.476-7.884,10.956-13.345,9.749-2.278,1.514,3.844,4.258,10.832,6.165,15.682L-.07,288.49l-5.418,4.946c2.484,7.964,14.56,26.72,20.78,32.284l6.742-2.886,9.986-4.287,11.729,12.117,8.1,8.359.007-.007Zm0,0" transform="translate(-33.844 -94.959)" fill="#edce66"/>
    <path id="Trazado_10966" data-name="Trazado 10966" d="M70.335,367.337l-9.991,4.285,26.579,27.091,6.109-7.941Zm0,0" transform="translate(-72.157 -143.748)" fill="#f2f0ec"/>
    <path id="Trazado_10967" data-name="Trazado 10967" d="M20.509,281.164l-8.038,7.319L-1.184,253.075,8.574,250.8Zm0,0" transform="translate(-46.396 -94.957)" fill="#f2f0ec"/>
    <path id="Trazado_10968" data-name="Trazado 10968" d="M31.923,365.628l-9.853,2.625-7.689-7.089c-.214-.2-.432-.4-.638-.6C-7.929,340.336-18.17,324.434-27.61,296.329c-.1-.273-.188-.552-.279-.834l-3.275-9.93,6.476-7.884s2.064,53.806,56.6,87.943c0,0,.006,0,.006,0Zm0,0" transform="translate(-33.844 -106.211)" fill="#cfa32b"/>
    <path id="Trazado_10969" data-name="Trazado 10969" d="M23.661,352.63l-9.235,9.235a12.541,12.541,0,0,1-8.913,3.69,12.528,12.528,0,0,1-5.956-1.492,12.693,12.693,0,0,1-2.957-2.2,12.6,12.6,0,0,1,0-17.823l9.235-9.235A12.6,12.6,0,1,1,23.661,352.63Zm0,0" transform="translate(-43.923 -128.582)" fill="#eab599"/>
    <path id="Trazado_10970" data-name="Trazado 10970" d="M27.372,356.341l-9.235,9.235a12.62,12.62,0,0,1-14.869,2.2,12.607,12.607,0,0,1,2.2-14.869l9.235-9.233a12.6,12.6,0,0,1,14.869-2.2,12.607,12.607,0,0,1-2.2,14.869Zm0,0" transform="translate(-47.635 -132.293)" fill="#f6caae"/>
    <path id="Trazado_10971" data-name="Trazado 10971" d="M3.922,452.578A149.139,149.139,0,0,1-16.1,439.944q-4.939-3.688-9.544-7.773a143.837,143.837,0,0,1,9.226-54.955l8.007,3.025Q.223,383.5,8.866,386.771a116.818,116.818,0,0,0-4.944,65.807Zm0,0" transform="translate(-36.129 -147.884)" fill="#2a2f4f"/>
    <path id="Trazado_10972" data-name="Trazado 10972" d="M10.484,454.757A149.136,149.136,0,0,1-9.542,442.122a143.827,143.827,0,0,1,7.689-59.7q8.638,3.263,17.281,6.531a116.818,116.818,0,0,0-4.944,65.807Zm0,0" transform="translate(-42.691 -150.063)" fill="#3d4159"/>
    <rect id="Rectángulo_6169" data-name="Rectángulo 6169" width="110.764" height="83.261" transform="translate(59.38 33.884)" fill="#f2f0ec"/>
    <path id="Trazado_10973" data-name="Trazado 10973" d="M271.042,174.2l-11.894,28.249,52.037-29.736Zm0,0" transform="translate(-155.392 -62.264)" fill="#f2f0ec"/>
    <path id="Trazado_10974" data-name="Trazado 10974" d="M270.394,139.653a6.7,6.7,0,1,0,6.669,6.74,6.714,6.714,0,0,0-6.669-6.74Zm0,0" transform="translate(-157.308 -48.421)" fill="#3d4159"/>
    <path id="Trazado_10975" data-name="Trazado 10975" d="M265.821,62.505c-6.79,0-14.356,3.772-14.356,9.185a5.32,5.32,0,0,0,5.273,5.343A5.833,5.833,0,0,0,260.871,75c1.008-.972,1.88-1.812,4.671-1.812,5.763,0,5.763,3.815,5.763,5.069,0,3.978-2.507,6.188-5.162,8.529-.677.6-1.315,1.161-1.912,1.758a8.186,8.186,0,0,1-.706.6c-2.446,1.939-3.538,3.888-3.538,10.314,0,3.52,1.971,5.623,5.275,5.623,3.718,0,5.411-2.553,5.411-4.923a19.8,19.8,0,0,1,.138-3.311,9.105,9.105,0,0,1,1.09-1.174l.536-.531.111-.116c.388-.431.959-.958,1.617-1.569,3.083-2.857,8.243-7.639,8.243-15.691,0-9.128-6.667-15.262-16.588-15.262Zm0,0" transform="translate(-152.176 -16.121)" fill="#3d4159"/>
  </g>
</svg>
