<svg xmlns="http://www.w3.org/2000/svg" width="286" height="286" viewBox="0 0 286 286">
  <g id="Grupo_9319" data-name="Grupo 9319" transform="translate(89.5 -60.751)">
    <circle id="Elipse_116" data-name="Elipse 116" cx="143" cy="143" r="143" transform="translate(-89.5 60.751)" fill="#66baed"/>
    <path id="Trazado_10040" data-name="Trazado 10040" d="M280.392,358.2l-18.646-14.14a19.218,19.218,0,0,0-23.512.217c-21.6,17.03-65.946,53.368-72.281,69.374-4.753,12.007,9.307,22.683,22.463,29.708A143.494,143.494,0,0,0,280.392,358.2Z" transform="translate(-93.32 -102.446)" fill="#348ed8"/>
    <path id="Trazado_10041" data-name="Trazado 10041" d="M161.5,99.452a27.389,27.389,0,0,0-25.981,36.053L146.3,167.852H28.5v152H150.1a45.6,45.6,0,0,0,45.6-45.6v-106.4Zm0,0" transform="translate(-43.267 -14.19)" fill="#fdbf92"/>
    <path id="Trazado_10042" data-name="Trazado 10042" d="M5.5,387.452H28.3a19,19,0,0,1,0,38H5.5a19,19,0,0,1,0-38Zm0,0" transform="translate(-27.867 -119.79)" fill="#fdb683"/>
    <path id="Trazado_10043" data-name="Trazado 10043" d="M103.1,146.651a26.6,26.6,0,1,1,26.6-26.6,26.605,26.605,0,0,1-26.6,26.6Zm0-45.6a19,19,0,1,0,19,19,19,19,0,0,0-19-19Zm0,0" transform="translate(-60.866 -11.989)" fill="#ffb431"/>
    <rect id="Rectángulo_6083" data-name="Rectángulo 6083" width="15.2" height="26.6" transform="translate(34.633 115.661)" fill="#c7483c"/>
    <path id="Trazado_10044" data-name="Trazado 10044" d="M164.1,263.252a79.8,79.8,0,1,1-23.374-56.426A79.8,79.8,0,0,1,164.1,263.252Zm0,0" transform="translate(-34.467 -44.99)" fill="#fdb683"/>
    <path id="Trazado_10045" data-name="Trazado 10045" d="M35.211,198.963,11.3,175.049a3.8,3.8,0,0,0-5.373,0L-3.9,184.876a3.8,3.8,0,0,0-1.113,2.687A3.8,3.8,0,0,0-3.9,190.249l23.913,23.913Zm0,0" transform="translate(-30.977 -41.501)" fill="#c7483c"/>
    <path id="Trazado_10046" data-name="Trazado 10046" d="M178.5,198.963l23.913-23.913a3.8,3.8,0,0,1,5.373,0l9.827,9.827a3.8,3.8,0,0,1,0,5.373L193.7,214.163Zm0,0" transform="translate(-98.267 -41.501)" fill="#c7483c"/>
    <path id="Trazado_10047" data-name="Trazado 10047" d="M152.1,251.252a79.8,79.8,0,1,1-79.8-79.8,79.8,79.8,0,0,1,79.8,79.8Zm0,0" transform="translate(-30.067 -40.59)" fill="#d65246"/>
    <path id="Trazado_10048" data-name="Trazado 10048" d="M145.7,260.052a64.6,64.6,0,1,1-64.6-64.6,64.6,64.6,0,0,1,64.6,64.6Zm0,0" transform="translate(-38.867 -49.39)" fill="#2c86d1"/>
    <rect id="Rectángulo_6084" data-name="Rectángulo 6084" width="30.4" height="15.2" transform="translate(27.033 100.461)" fill="#d65246"/>
    <rect id="Rectángulo_6085" data-name="Rectángulo 6085" width="7.6" height="15.2" transform="translate(38.433 248.661)" fill="#ffb431"/>
    <rect id="Rectángulo_6086" data-name="Rectángulo 6086" width="7.6" height="15.2" transform="translate(38.433 157.461)" fill="#ffb431"/>
    <path id="Trazado_10049" data-name="Trazado 10049" d="M143.3,350.2l6.583-3.8,7.6,13.164-6.583,3.8Zm0,0" transform="translate(-85.359 -104.74)" fill="#ffb431"/>
    <path id="Trazado_10050" data-name="Trazado 10050" d="M71.3,225.5l6.58-3.8,7.6,13.164-6.58,3.8Zm0,0" transform="translate(-58.96 -59.015)" fill="#ffb431"/>
    <path id="Trazado_10051" data-name="Trazado 10051" d="M167.457,328.841l3.8-6.58,13.164,7.6-3.8,6.58Zm0,0" transform="translate(-94.218 -95.887)" fill="#ffb431"/>
    <path id="Trazado_10052" data-name="Trazado 10052" d="M42.75,256.84l3.8-6.583,13.161,7.6-3.8,6.583Zm0,0" transform="translate(-48.492 -69.485)" fill="#ffb431"/>
    <rect id="Rectángulo_6087" data-name="Rectángulo 6087" width="15.2" height="7.6" transform="translate(80.233 206.861)" fill="#ffb431"/>
    <rect id="Rectángulo_6088" data-name="Rectángulo 6088" width="15.2" height="7.6" transform="translate(-10.967 206.861)" fill="#ffb431"/>
    <path id="Trazado_10053" data-name="Trazado 10053" d="M42.746,329.857l13.164-7.6,3.8,6.58-13.164,7.6Zm0,0" transform="translate(-48.49 -95.885)" fill="#ffb431"/>
    <path id="Trazado_10054" data-name="Trazado 10054" d="M143.3,234.875l7.6-13.161,6.58,3.8-7.6,13.161Zm0,0" transform="translate(-85.36 -59.02)" fill="#ffb431"/>
    <path id="Trazado_10055" data-name="Trazado 10055" d="M71.3,359.581l7.6-13.164,6.581,3.8-7.6,13.164Zm0,0" transform="translate(-58.959 -104.744)" fill="#ffb431"/>
    <path id="Trazado_10056" data-name="Trazado 10056" d="M123.3,290.852a11.4,11.4,0,1,1-11.4-11.4,11.4,11.4,0,0,1,11.4,11.4Zm0,0" transform="translate(-69.667 -80.19)" fill="#ffb431"/>
    <path id="Trazado_10057" data-name="Trazado 10057" d="M125.832,273.077l39.094-22.805,3.832,6.566-39.1,22.8Zm0,0" transform="translate(-78.955 -69.491)" fill="#ffb431"/>
    <path id="Trazado_10058" data-name="Trazado 10058" d="M-36.5,207.452h22.8a18.958,18.958,0,0,1,19,19,18.958,18.958,0,0,1-19,19H-36.5a18.958,18.958,0,0,1-19-19,18.958,18.958,0,0,1,19-19Zm0,0" transform="translate(-12.467 -53.79)" fill="#fdc8a2"/>
    <path id="Trazado_10059" data-name="Trazado 10059" d="M-36.5,267.452h22.8a18.958,18.958,0,0,1,19,19,18.958,18.958,0,0,1-19,19H-36.5a18.958,18.958,0,0,1-19-19,18.958,18.958,0,0,1,19-19Zm0,0" transform="translate(-12.467 -75.79)" fill="#fdc8a2"/>
    <path id="Trazado_10060" data-name="Trazado 10060" d="M-18.5,327.452H4.3a19,19,0,1,1,0,38H-18.5a18.958,18.958,0,0,1-19-19,18.958,18.958,0,0,1,19-19Zm0,0" transform="translate(-19.067 -97.79)" fill="#fdc8a2"/>
    <path id="Trazado_10061" data-name="Trazado 10061" d="M-6.5,387.452H16.3a19,19,0,0,1,0,38H-6.5a18.958,18.958,0,0,1-19-19,18.958,18.958,0,0,1,19-19Zm0,0" transform="translate(-23.467 -119.79)" fill="#fdc8a2"/>
    <path id="Trazado_10062" data-name="Trazado 10062" d="M-27.7,261.452H-4.9a3.792,3.792,0,0,1,3.8,3.8,3.792,3.792,0,0,1-3.8,3.8H-27.7a3.792,3.792,0,0,1-3.8-3.8,3.792,3.792,0,0,1,3.8-3.8Zm0,0" transform="translate(-21.267 -73.59)" fill="#fdb683"/>
    <path id="Trazado_10063" data-name="Trazado 10063" d="M-16.21,321.452H.01a3.282,3.282,0,0,1,3.29,3.29v1.02a3.282,3.282,0,0,1-3.29,3.29H-16.21a3.282,3.282,0,0,1-3.29-3.29v-1.02a3.282,3.282,0,0,1,3.29-3.29Zm0,0" transform="translate(-25.667 -95.59)" fill="#fdb683"/>
    <path id="Trazado_10064" data-name="Trazado 10064" d="M1.79,381.452H18.01a3.282,3.282,0,0,1,3.29,3.29v1.02a3.282,3.282,0,0,1-3.29,3.29H1.79a3.282,3.282,0,0,1-3.29-3.29v-1.02a3.282,3.282,0,0,1,3.29-3.29Zm0,0" transform="translate(-32.267 -117.59)" fill="#fdb683"/>
  </g>
</svg>
