<svg xmlns="http://www.w3.org/2000/svg" width="312" height="312" viewBox="0 0 312 312">
  <g id="Grupo_9321" data-name="Grupo 9321" transform="translate(112 -24.001)">
    <path id="Trazado_10096" data-name="Trazado 10096" d="M200,180a155.44,155.44,0,0,1-11.462,58.791,156.485,156.485,0,0,1-89.78,87.321,154.313,154.313,0,0,1-20.821,6.182,157.611,157.611,0,0,1-56.279,2.121q-2.885-.41-5.732-.931-4.221-.771-8.36-1.764-3.2-.764-6.341-1.662c-.1-.024-.212-.057-.319-.088q-3.649-1.049-7.219-2.266a154.085,154.085,0,0,1-17.619-7.234q-5.685-2.753-11.1-5.949a156.629,156.629,0,0,1-40.733-34.568A155.321,155.321,0,0,1-112,180a156,156,0,1,1,312,0Zm0,0" fill="#66baed"/>
    <path id="Trazado_10097" data-name="Trazado 10097" d="M101.161,390.017v62.608a156.231,156.231,0,0,1-153.708-52.34V390.017a57.992,57.992,0,0,1,42.949-56c.9-.24,1.813-.464,2.737-.661a57.722,57.722,0,0,1,7.546-1.115c1.566-.126,3.144-.19,4.744-.19H43.18a57.911,57.911,0,0,1,12.3,1.3c.229.045.457.1.681.147.669.152,1.338.319,1.992.495.02.007.034.007.052.015a58.021,58.021,0,0,1,42.958,56.008Zm0,0" transform="translate(-23.224 -120.331)" fill="#3d4159"/>
    <path id="Trazado_10098" data-name="Trazado 10098" d="M85.782,334.189l-.138.657-20.09,93.439q-6.82.6-13.8.607t-13.818-.607L17.844,334.85l-.141-.661Zm0,0" transform="translate(-50.665 -121.167)" fill="#dde8ed"/>
    <path id="Trazado_10099" data-name="Trazado 10099" d="M79.157,366.372,63.594,391.333,48.031,366.372" transform="translate(-62.512 -133.739)" fill="#f74f4f"/>
    <path id="Trazado_10100" data-name="Trazado 10100" d="M78.728,452.636c-2.611.243-5.241,13.142-7.883,24.661q-3.2-.764-6.341-1.662c-.1-.024-.212-.057-.319-.088q-3.649-1.049-7.219-2.266c-2.345-10.3-4.668-20.429-6.972-20.638l14.37-55.97Zm0,0" transform="translate(-63.278 -145.575)" fill="#f74f4f"/>
    <path id="Trazado_10101" data-name="Trazado 10101" d="M51.742,350.495,25.644,365,17.7,328.069l16.217-9.552" transform="translate(-50.665 -115.045)" fill="#bfd5de"/>
    <path id="Trazado_10102" data-name="Trazado 10102" d="M73.562,350.495l26.1,14.5,7.938-36.929-16.217-9.552" transform="translate(-72.485 -115.045)" fill="#bfd5de"/>
    <path id="Trazado_10103" data-name="Trazado 10103" d="M80.994,295.4v25.382a20.684,20.684,0,0,1-41.369,0V295.4Zm0,0" transform="translate(-59.229 -106.016)" fill="#eab599"/>
    <path id="Trazado_10104" data-name="Trazado 10104" d="M88.945,334.419v1.607a20.682,20.682,0,0,1-14.568,19.757,20.673,20.673,0,0,1-14.4-17.062q2.071.124,4.166.126a71.5,71.5,0,0,0,24.8-4.428Zm0,0" transform="translate(-67.18 -121.257)" fill="#f6caae"/>
    <path id="Trazado_10105" data-name="Trazado 10105" d="M-44.2,214.8a19.237,19.237,0,0,1-16.153,18.988,19.246,19.246,0,0,1-3.08.247A19.233,19.233,0,0,1-82.672,214.8a19.233,19.233,0,0,1,19.236-19.236,19.248,19.248,0,0,1,3.08.248A19.235,19.235,0,0,1-44.2,214.8Zm0,0" transform="translate(-11.456 -67.018)" fill="#f6caae"/>
    <path id="Trazado_10106" data-name="Trazado 10106" d="M-31.533,214.962A19.237,19.237,0,0,1-47.687,233.95a71.931,71.931,0,0,1,0-37.976,19.235,19.235,0,0,1,16.153,18.988Zm0,0" transform="translate(-24.126 -67.177)" fill="#eab599"/>
    <path id="Trazado_10107" data-name="Trazado 10107" d="M-48.638,222.727a6.875,6.875,0,0,1-6.874,6.874,6.875,6.875,0,0,1-6.875-6.874,6.874,6.874,0,0,1,6.875-6.874,6.874,6.874,0,0,1,6.874,6.874Zm0,0" transform="translate(-19.38 -74.942)" fill="#eab599"/>
    <path id="Trazado_10108" data-name="Trazado 10108" d="M166.676,214.8a19.232,19.232,0,1,0,16.153-18.988A19.236,19.236,0,0,0,166.676,214.8Zm0,0" transform="translate(-108.858 -67.018)" fill="#f6caae"/>
    <path id="Trazado_10109" data-name="Trazado 10109" d="M166.676,214.962a19.236,19.236,0,0,0,16.153,18.988,71.865,71.865,0,0,0,0-37.976,19.234,19.234,0,0,0-16.153,18.988Zm0,0" transform="translate(-108.858 -67.177)" fill="#eab599"/>
    <path id="Trazado_10110" data-name="Trazado 10110" d="M99.261,119.761v27.252a71.568,71.568,0,0,1-60.083,70.64l-.35.057a70.609,70.609,0,0,1-11.138.867,71.564,71.564,0,0,1-71.561-71.564V119.761a71.205,71.205,0,0,1,4.042-23.749A71.585,71.585,0,0,1,27.69,48.192H27.7a71.521,71.521,0,0,1,71.564,71.569Zm0,0" transform="translate(-26.613 -9.45)" fill="#eab599"/>
    <path id="Trazado_10111" data-name="Trazado 10111" d="M200.708,222.727a6.876,6.876,0,1,1-6.874-6.874,6.874,6.874,0,0,1,6.874,6.874Zm0,0" transform="translate(-116.78 -74.942)" fill="#eab599"/>
    <path id="Trazado_10112" data-name="Trazado 10112" d="M113.546,120.316v27.252a71.568,71.568,0,0,1-60.083,70.64l-.35.057A71.573,71.573,0,0,1-7.3,147.569V120.316a71.581,71.581,0,0,1,60.426-70.7,71.581,71.581,0,0,1,60.421,70.7Zm0,0" transform="translate(-40.898 -10.005)" fill="#f6caae"/>
    <path id="Trazado_10113" data-name="Trazado 10113" d="M38.149,198.317a8.12,8.12,0,1,1-8.12-8.117,8.119,8.119,0,0,1,8.12,8.117Zm0,0" transform="translate(-52.309 -64.921)" fill="#3d4159"/>
    <path id="Trazado_10114" data-name="Trazado 10114" d="M114.819,198.317a8.118,8.118,0,1,1-8.12-8.117,8.119,8.119,0,0,1,8.12,8.117Zm0,0" transform="translate(-82.259 -64.921)" fill="#3d4159"/>
    <path id="Trazado_10115" data-name="Trazado 10115" d="M41.38,198.94a3.479,3.479,0,1,1-3.478-3.478,3.48,3.48,0,0,1,3.478,3.478Zm0,0" transform="translate(-57.196 -66.977)" fill="#fff"/>
    <path id="Trazado_10116" data-name="Trazado 10116" d="M118.7,198.94a3.479,3.479,0,1,1-3.48-3.478,3.482,3.482,0,0,1,3.48,3.478Zm0,0" transform="translate(-87.401 -66.977)" fill="#fff"/>
    <path id="Trazado_10117" data-name="Trazado 10117" d="M74.238,227.35H58a3.5,3.5,0,0,1,0-7.005H74.238a3.5,3.5,0,0,1,0,7.005Zm0,0" transform="translate(-65.039 -76.697)" fill="#eab599"/>
    <path id="Trazado_10118" data-name="Trazado 10118" d="M61.327,261.483a36.16,36.16,0,0,1-17.448-4.506,3.183,3.183,0,1,1,3.066-5.58,29.7,29.7,0,0,0,28.762,0,3.183,3.183,0,1,1,3.066,5.58,36.155,36.155,0,0,1-17.446,4.506Zm0,0" transform="translate(-60.245 -88.673)" fill="#eab599"/>
    <path id="Trazado_10119" data-name="Trazado 10119" d="M99.261,88.118v27.917H85.94V94.173L-10.208,76.306l-20.343-3.782v43.511h-13.32V88.118A57.612,57.612,0,0,1,13.739,30.5h27.91c.757,0,1.514.012,2.273.05A57.6,57.6,0,0,1,99.261,88.118Zm0,0" transform="translate(-26.613 -2.539)" fill="#e8c934"/>
    <path id="Trazado_10120" data-name="Trazado 10120" d="M120.84,88.15v27.917H107.519V94.205L11.371,76.339A57.621,57.621,0,0,1,65.5,30.583,57.6,57.6,0,0,1,120.84,88.15Zm0,0" transform="translate(-48.192 -2.571)" fill="#ffe152"/>
    <path id="Trazado_10121" data-name="Trazado 10121" d="M6.255,328.966,40.122,449.1a154.474,154.474,0,0,1-24.839-9.5L-3.01,381.987H5.267L-11.6,337.976Zm0,0" transform="translate(-39.217 -119.127)" fill="#2a2f4f"/>
    <path id="Trazado_10122" data-name="Trazado 10122" d="M108.684,381.987h8.277L94.238,453.542a153.974,153.974,0,0,1-20.433-4.356L107.7,328.966l17.862,9.01Zm0,0" transform="translate(-72.58 -119.127)" fill="#2a2f4f"/>
    <path id="Trazado_10123" data-name="Trazado 10123" d="M270.542,313.155v32.514a156.485,156.485,0,0,1-89.78,87.321,154.313,154.313,0,0,1-20.821,6.182A156.428,156.428,0,0,1,126,442.878L97.93,439.7V313.155a15.552,15.552,0,0,1,15.548-15.549H254.994a15.547,15.547,0,0,1,15.548,15.549Zm0,0" transform="translate(-82.004 -106.877)" fill="#d8d5d0"/>
    <path id="Trazado_10124" data-name="Trazado 10124" d="M148.093,500.755v11.59a154.322,154.322,0,0,1-20.821,6.182,157.613,157.613,0,0,1-56.279,2.121q-7.155-1.021-14.092-2.694-3.2-.764-6.341-1.662c-.1-.024-.212-.057-.319-.088q-3.649-1.049-7.219-2.266A154.085,154.085,0,0,1,25.4,506.7q-5.685-2.753-11.1-5.949Zm0,0" transform="translate(-49.335 -186.232)" fill="#d8d5d0"/>
    <path id="Trazado_10125" data-name="Trazado 10125" d="M276.257,313.155v32.514a156.484,156.484,0,0,1-89.78,87.321,154.314,154.314,0,0,1-20.821,6.182,156.428,156.428,0,0,1-33.937,3.706H112.559V313.155a15.55,15.55,0,0,1,15.548-15.549h132.6a15.547,15.547,0,0,1,15.548,15.549Zm0,0" transform="translate(-87.718 -106.877)" fill="#f2f0ec"/>
    <path id="Trazado_10126" data-name="Trazado 10126" d="M252.589,405.914A15.917,15.917,0,1,1,236.671,390a15.918,15.918,0,0,1,15.917,15.917Zm0,0" transform="translate(-129.982 -142.967)" fill="#ffe152"/>
    <rect id="Rectángulo_6095" data-name="Rectángulo 6095" width="141.315" height="106.224" transform="translate(58.682 38.303)" fill="#fff"/>
    <path id="Trazado_10127" data-name="Trazado 10127" d="M270.886,209.676l-15.175,36.041L322.1,207.778Zm0,0" transform="translate(-143.637 -71.788)" fill="#fff"/>
    <path id="Trazado_10128" data-name="Trazado 10128" d="M252.725,129.605a7.837,7.837,0,1,1-7.836-7.838,7.836,7.836,0,0,1,7.836,7.838Zm0,0" transform="translate(-136.348 -38.19)" fill="#3d4159"/>
    <path id="Trazado_10129" data-name="Trazado 10129" d="M286.858,129.605a7.837,7.837,0,1,1-7.838-7.838,7.837,7.837,0,0,1,7.838,7.838Zm0,0" transform="translate(-149.681 -38.19)" fill="#3d4159"/>
    <path id="Trazado_10130" data-name="Trazado 10130" d="M320.989,129.605a7.836,7.836,0,1,1-7.836-7.838,7.837,7.837,0,0,1,7.836,7.838Zm0,0" transform="translate(-163.014 -38.19)" fill="#3d4159"/>
  </g>
</svg>
