<svg xmlns="http://www.w3.org/2000/svg" width="286.879" height="286.879" viewBox="0 0 286.879 286.879">
  <g id="Grupo_9318" data-name="Grupo 9318" transform="translate(112 -24.001)">
    <path id="Trazado_10003" data-name="Trazado 10003" d="M174.879,167.44A143.439,143.439,0,1,1,31.439,24,143.438,143.438,0,0,1,174.879,167.44Zm0,0" transform="translate(0 0)" fill="#66baed"/>
    <path id="Trazado_10004" data-name="Trazado 10004" d="M253.745,117.189A93.142,93.142,0,0,1,206.457,198.3v0A93.373,93.373,0,0,1,126.1,203.8h-.011a93.214,93.214,0,1,1,127.654-86.608Zm0,0" transform="translate(-78.866)" fill="#95d3f8"/>
    <path id="Trazado_10005" data-name="Trazado 10005" d="M180.221,208.295a93.607,93.607,0,0,1-54.12-4.5h-.011a93.212,93.212,0,0,1,54.12-177.712A93.218,93.218,0,0,0,165.421,203.8h.011a91.869,91.869,0,0,0,14.789,4.5Zm0,0" transform="translate(-78.866)" fill="#b9e3f3"/>
    <path id="Trazado_10006" data-name="Trazado 10006" d="M316.844,121.167a93.142,93.142,0,0,1-47.287,81.112c-16.242-33.08-54.015-3.8-58.408-45.07s45.228-26.786,59.719-41.275,0-36.886-12.3-24.59-30.736,8.781-26.346-3.513S257.694,70.267,242.53,65s0-20.433,11.51-31.944l.011-.007a93.473,93.473,0,0,1,54.462,49.568c-11.3,0-21.839,19.267-11.3,29.806,5.719,5.719,12.828,7.282,19.624,7.792.007.315.007.639.007.954Zm0,0" transform="translate(-141.965 -3.978)" fill="#3fb777"/>
    <path id="Trazado_10007" data-name="Trazado 10007" d="M126.1,224.627h-.011A93.21,93.21,0,0,1,95.422,71.376c25.411,6.089,29.8,23.647,13.115,29.8-16.446,6.058-17.534,17.236-.755,22.6.252.083.5.157.755.234,11.867,3.561,7.295,14.743-1.528,21.622-4.226,3.3-9.438,5.6-14.279,5.6-14.929,0-2.635,30.3,15.369,30.3s18,43.1,18,43.1Zm0,0" transform="translate(-78.866 -20.83)" fill="#ffe152"/>
    <path id="Trazado_10008" data-name="Trazado 10008" d="M126.1,224.627h-.011A93.21,93.21,0,0,1,95.422,71.376c25.411,6.089,29.8,23.647,13.115,29.8-16.446,6.058-17.534,17.236-.755,22.6a93.869,93.869,0,0,0-1.084,14.25q0,3.838.311,7.606c-4.226,3.3-9.438,5.6-14.279,5.6-14.929,0-2.635,30.3,15.369,30.3s18,43.1,18,43.1Zm0,0" transform="translate(-78.866 -20.83)" fill="#44c983"/>
    <path id="Trazado_10009" data-name="Trazado 10009" d="M322.352,46.307c-.517-24.15-36.79-24.15-37.307,0,0,.264-.007.527-.007.792A36.383,36.383,0,0,0,303.7,78.888,36.382,36.382,0,0,0,322.361,47.1c0-.265,0-.528-.008-.792Zm0,0" transform="translate(-174.574 -1.844)" fill="#f74f4f"/>
    <path id="Trazado_10010" data-name="Trazado 10010" d="M320.39,53.368a9.508,9.508,0,1,1-9.507-9.508,9.485,9.485,0,0,1,9.507,9.508Zm0,0" transform="translate(-181.757 -8.732)" fill="#dde8ed"/>
    <path id="Trazado_10011" data-name="Trazado 10011" d="M251.995,180.751c-.517-24.153-36.79-24.153-37.307,0-.006.263-.008.527-.008.792a36.384,36.384,0,0,0,18.663,31.789A36.387,36.387,0,0,0,252,181.543c0-.265,0-.53-.009-.792Zm0,0" transform="translate(-143.638 -60.957)" fill="#f74f4f"/>
    <path id="Trazado_10012" data-name="Trazado 10012" d="M250.033,187.81a9.509,9.509,0,1,1-9.51-9.508,9.494,9.494,0,0,1,9.51,9.508Zm0,0" transform="translate(-150.821 -67.845)" fill="#dde8ed"/>
    <path id="Trazado_10013" data-name="Trazado 10013" d="M341.159,217.67c-.516-24.15-36.79-24.15-37.307,0-.006.264-.008.527-.008.792a36.384,36.384,0,0,0,18.663,31.789,36.386,36.386,0,0,0,18.661-31.789c0-.265,0-.528-.009-.792Zm0,0" transform="translate(-182.842 -77.19)" fill="#f74f4f"/>
    <path id="Trazado_10014" data-name="Trazado 10014" d="M339.2,224.731a9.509,9.509,0,1,1-9.508-9.507,9.485,9.485,0,0,1,9.508,9.507Zm0,0" transform="translate(-190.025 -84.079)" fill="#dde8ed"/>
    <path id="Trazado_10015" data-name="Trazado 10015" d="M78.858,431.752v16.387a142.268,142.268,0,0,1-47.013,16.645c-.081.011-.157.022-.241.035a142.742,142.742,0,0,1-67.913-30.931A144.1,144.1,0,0,1-58.352,411.16a53.416,53.416,0,0,1,35.368-30.9c.831-.224,1.67-.429,2.517-.611a53.453,53.453,0,0,1,6.938-1.024q2.16-.174,4.362-.175H25.546a53.277,53.277,0,0,1,11.3,1.2c.21.041.422.087.626.136.615.14,1.23.293,1.834.457a.34.34,0,0,1,.046.011,53.353,53.353,0,0,1,39.5,51.5Zm0,0" transform="translate(-23.588 -155.848)" fill="#a35418"/>
    <path id="Trazado_10016" data-name="Trazado 10016" d="M96.156,431.752v33A143.7,143.7,0,0,1-19.012,433.888v-2.136A53.314,53.314,0,0,1,20.479,380.26c.829-.224,1.667-.429,2.517-.611a53.4,53.4,0,0,1,6.938-1.024q2.16-.174,4.36-.175h8.549a53.277,53.277,0,0,1,11.3,1.2c.21.041.422.087.626.136.615.14,1.23.293,1.834.457a.34.34,0,0,1,.046.011,53.353,53.353,0,0,1,39.5,51.5Zm0,0" transform="translate(-40.886 -155.848)" fill="#cc7a3b"/>
    <path id="Trazado_10017" data-name="Trazado 10017" d="M67.138,380.591l-.129.6L49.263,463.747a141.635,141.635,0,0,1-29.079-10.381L4.668,381.2l-.129-.611Zm0,0" transform="translate(-51.241 -156.789)" fill="#f2f0ec"/>
    <path id="Trazado_10018" data-name="Trazado 10018" d="M35.837,394.323l-24,13.335L4.539,373.7l14.912-8.783" transform="translate(-51.241 -149.898)" fill="#d8d5d0"/>
    <path id="Trazado_10019" data-name="Trazado 10019" d="M60.4,394.323l24,13.335L91.7,373.7l-14.912-8.783" transform="translate(-75.802 -149.898)" fill="#d8d5d0"/>
    <path id="Trazado_10020" data-name="Trazado 10020" d="M-67.48,236.194V155.8a71.277,71.277,0,0,1,4.051-23.787A71.719,71.719,0,0,1,15.338,85.01a71.67,71.67,0,0,1,60.5,70.794v80.389" transform="translate(-19.575 -26.443)" fill="#3d4159"/>
    <path id="Trazado_10021" data-name="Trazado 10021" d="M-38.007,158.948c0,28.436,16.652,61.332,25.8,77.253H-67.484V155.809a71.286,71.286,0,0,1,4.051-23.787A71.735,71.735,0,0,1,3.651,84.153c-22.032.552-41.658,35.9-41.658,74.8Zm0,0" transform="translate(-19.573 -26.448)" fill="#2a2f4f"/>
    <path id="Trazado_10022" data-name="Trazado 10022" d="M64.5,341.8v23.34a19.019,19.019,0,0,1-38.038,0V341.8Zm0,0" transform="translate(-60.882 -139.734)" fill="#eab599"/>
    <path id="Trazado_10023" data-name="Trazado 10023" d="M73.453,380.817v1.48A19.017,19.017,0,0,1,60.06,400.463a19.014,19.014,0,0,1-13.24-15.691q1.9.119,3.83.118a65.8,65.8,0,0,0,22.8-4.073Zm0,0" transform="translate(-69.832 -156.888)" fill="#f6caae"/>
    <path id="Trazado_10024" data-name="Trazado 10024" d="M-60.458,259.655a17.688,17.688,0,0,1-14.855,17.459,17.451,17.451,0,0,1-2.832.228,17.684,17.684,0,0,1-17.687-17.687A17.684,17.684,0,0,1-78.145,241.97a17.447,17.447,0,0,1,2.832.228,17.687,17.687,0,0,1,14.855,17.457Zm0,0" transform="translate(-7.109 -95.839)" fill="#f6caae"/>
    <path id="Trazado_10025" data-name="Trazado 10025" d="M-46.2,259.833a17.688,17.688,0,0,1-14.855,17.459,66.131,66.131,0,0,1,0-34.916A17.687,17.687,0,0,1-46.2,259.833Zm0,0" transform="translate(-21.37 -96.017)" fill="#eab599"/>
    <path id="Trazado_10026" data-name="Trazado 10026" d="M-62.9,268.572a6.321,6.321,0,0,1-6.321,6.323,6.321,6.321,0,0,1-6.321-6.323,6.321,6.321,0,0,1,6.321-6.321,6.321,6.321,0,0,1,6.321,6.321Zm0,0" transform="translate(-16.028 -104.756)" fill="#eab599"/>
    <path id="Trazado_10027" data-name="Trazado 10027" d="M54.184,201.725v60.8a65.549,65.549,0,0,1-34.853,17.342l-.322.052a64.6,64.6,0,0,1-10.241.8,65.8,65.8,0,0,1-65.8-65.8V189.853a66.3,66.3,0,0,1,.672-9.451c15.656,11.259,38.1,10.147,52.406-3.371a37.277,37.277,0,0,0,9.889-15.452,43.413,43.413,0,0,0,13.583,27.107,48.548,48.548,0,0,0,34.665,13.038Zm0,0" transform="translate(-24.169 -60.492)" fill="#eab599"/>
    <path id="Trazado_10028" data-name="Trazado 10028" d="M70.263,201.725v60.8A65.549,65.549,0,0,1,35.41,279.862l-.322.052a65.809,65.809,0,0,1-55.55-65V189.853q0-1,.035-1.992a41.242,41.242,0,0,0,32.552-10.83,37.277,37.277,0,0,0,9.889-15.452A43.413,43.413,0,0,0,35.6,188.686a48.548,48.548,0,0,0,34.665,13.038Zm0,0" transform="translate(-40.249 -60.492)" fill="#f6caae"/>
    <path id="Trazado_10029" data-name="Trazado 10029" d="M106.326,238.265a10.928,10.928,0,1,0-21.857,0" transform="translate(-86.385 -89.405)" fill="#eab599"/>
    <path id="Trazado_10030" data-name="Trazado 10030" d="M19.208,238.265a10.928,10.928,0,1,0-21.856,0" transform="translate(-48.081 -89.405)" fill="#eab599"/>
    <path id="Trazado_10031" data-name="Trazado 10031" d="M18.46,249.289A7.465,7.465,0,1,1,11,241.825a7.465,7.465,0,0,1,7.464,7.464Zm0,0" transform="translate(-50.798 -95.775)" fill="#3d4159"/>
    <path id="Trazado_10032" data-name="Trazado 10032" d="M105.581,249.289a7.465,7.465,0,1,1-7.466-7.464,7.465,7.465,0,0,1,7.466,7.464Zm0,0" transform="translate(-89.104 -95.775)" fill="#3d4159"/>
    <path id="Trazado_10033" data-name="Trazado 10033" d="M59.495,283.636H44.566a3.22,3.22,0,1,1,0-6.44H59.495a3.22,3.22,0,0,1,0,6.44Zm0,0" transform="translate(-67.424 -111.327)" fill="#eab599"/>
    <path id="Trazado_10034" data-name="Trazado 10034" d="M46.634,317.488a33.269,33.269,0,0,1-16.043-4.141,2.927,2.927,0,1,1,2.821-5.13,27.315,27.315,0,0,0,26.444,0,2.927,2.927,0,0,1,2.821,5.13,33.275,33.275,0,0,1-16.043,4.141Zm0,0" transform="translate(-62.029 -124.807)" fill="#eab599"/>
    <path id="Trazado_10035" data-name="Trazado 10035" d="M22.442,250.285a3.2,3.2,0,1,1-3.2-3.2,3.2,3.2,0,0,1,3.2,3.2Zm0,0" transform="translate(-56.301 -98.089)" fill="#fff"/>
    <path id="Trazado_10036" data-name="Trazado 10036" d="M110.214,250.285a3.2,3.2,0,1,1-3.2-3.2,3.2,3.2,0,0,1,3.2,3.2Zm0,0" transform="translate(-94.892 -98.089)" fill="#fff"/>
    <path id="Trazado_10037" data-name="Trazado 10037" d="M127.48,281.163a8.2,8.2,0,1,1-8.2-8.2,8.2,8.2,0,0,1,8.2,8.2Zm0,0" transform="translate(-98.089 -109.467)" fill="#eab599"/>
    <path id="Trazado_10038" data-name="Trazado 10038" d="M-3.134,281.163a8.2,8.2,0,0,1-8.2,8.2,8.2,8.2,0,0,1-8.2-8.2,8.2,8.2,0,0,1,8.2-8.2,8.2,8.2,0,0,1,8.2,8.2Zm0,0" transform="translate(-40.659 -109.467)" fill="#eab599"/>
    <path id="Trazado_10039" data-name="Trazado 10039" d="M201.654,268.4,129.676,416.065q-6.349-.105-12.559-.761L195.3,265.2a3.561,3.561,0,0,1,6.358,3.207Zm0,0" transform="translate(-100.74 -105.21)" fill="#3d4159"/>
  </g>
</svg>
