<svg xmlns="http://www.w3.org/2000/svg" width="286.879" height="286.879" viewBox="0 0 286.879 286.879">
  <g id="Grupo_9317" data-name="Grupo 9317" transform="translate(112 -24.001)">
    <path id="Trazado_9951" data-name="Trazado 9951" d="M174.879,167.44a142.762,142.762,0,0,1-27.335,84.244,143.917,143.917,0,0,1-19.14,21.451,143.3,143.3,0,0,1-14.014,11.333q-5.165,3.67-10.663,6.886A142.723,142.723,0,0,1,31.439,310.88a142.723,142.723,0,0,1-67.574-16.886A143.987,143.987,0,0,1-78.388,259.7q-3.476-4.127-6.64-8.518-1.589-2.2-3.084-4.467-2.742-4.117-5.194-8.431A142.782,142.782,0,0,1-112,167.44a143.439,143.439,0,1,1,286.879,0Zm0,0" transform="translate(0 0)" fill="#66baed"/>
    <path id="Trazado_9952" data-name="Trazado 9952" d="M159.452,324.241H148.914V269.4H13.476v54.84H2.938V258.864H159.452Zm0,0" transform="translate(-50.537 -103.267)" fill="#ffe152"/>
    <rect id="Rectángulo_6082" data-name="Rectángulo 6082" width="10.539" height="39.075" transform="translate(26.167 120.23)" fill="#ffe152"/>
    <path id="Trazado_9953" data-name="Trazado 9953" d="M269.192,343.207v25.849a144.292,144.292,0,0,1-33.155,32.784H164.668V343.207a52.243,52.243,0,0,1,52.26-52.265,52.848,52.848,0,0,1,8.142.633,52.269,52.269,0,0,1,44.122,51.632Zm0,0" transform="translate(-121.648 -117.371)" fill="#f74f4f"/>
    <path id="Trazado_9954" data-name="Trazado 9954" d="M186.168,345.5c0,20.738,12.143,44.733,18.812,56.341H164.668V343.21a52.231,52.231,0,0,1,51.879-52.26c-16.067.4-30.379,26.179-30.379,54.55Zm0,0" transform="translate(-121.648 -117.375)" fill="#dd3033"/>
    <path id="Trazado_9955" data-name="Trazado 9955" d="M169.79,418.948a12.9,12.9,0,1,1-10.832-12.734,12.9,12.9,0,0,1,10.832,12.734Zm0,0" transform="translate(-112.557 -167.982)" fill="#f6caae"/>
    <path id="Trazado_9956" data-name="Trazado 9956" d="M180.192,419.079a12.9,12.9,0,0,1-10.832,12.732,48.212,48.212,0,0,1,0-25.466,12.9,12.9,0,0,1,10.832,12.734Zm0,0" transform="translate(-122.958 -168.113)" fill="#eab599"/>
    <path id="Trazado_9957" data-name="Trazado 9957" d="M168.008,425.452a4.609,4.609,0,1,1-4.609-4.611,4.61,4.61,0,0,1,4.609,4.611Zm0,0" transform="translate(-119.063 -174.487)" fill="#eab599"/>
    <path id="Trazado_9958" data-name="Trazado 9958" d="M253.406,376.7v38.642a143.312,143.312,0,0,1-14.014,11.333q-5.165,3.67-10.663,6.886c-.245.046-.5.088-.742.129l-.234.035a46.855,46.855,0,0,1-7.47.584A47.99,47.99,0,0,1,172.3,386.317V368.039a48.681,48.681,0,0,1,.486-6.892,30.411,30.411,0,0,0,38.224-2.458,27.09,27.09,0,0,0,7.207-11.27,31.7,31.7,0,0,0,9.906,19.771,35.421,35.421,0,0,0,25.286,9.508Zm0,0" transform="translate(-125.003 -142.204)" fill="#eab599"/>
    <path id="Trazado_9959" data-name="Trazado 9959" d="M265.13,376.7v38.642a143.443,143.443,0,0,1-24.678,18.218c-.245.046-.5.088-.742.129l-.234.035a47.99,47.99,0,0,1-40.515-47.405V368.039c0-.486.013-.968.031-1.451a30.08,30.08,0,0,0,23.739-7.9,27.09,27.09,0,0,0,7.207-11.27,31.7,31.7,0,0,0,9.906,19.771A35.421,35.421,0,0,0,265.13,376.7Zm0,0" transform="translate(-136.726 -142.204)" fill="#f6caae"/>
    <path id="Trazado_9960" data-name="Trazado 9960" d="M291.432,403.349a7.97,7.97,0,0,0-15.94,0" transform="translate(-170.376 -163.292)" fill="#eab599"/>
    <path id="Trazado_9961" data-name="Trazado 9961" d="M227.9,403.349a7.971,7.971,0,0,0-15.943,0" transform="translate(-142.439 -163.292)" fill="#eab599"/>
    <path id="Trazado_9962" data-name="Trazado 9962" d="M227.35,411.388a5.445,5.445,0,1,1-5.443-5.446,5.444,5.444,0,0,1,5.443,5.446Zm0,0" transform="translate(-144.421 -167.936)" fill="#3d4159"/>
    <path id="Trazado_9963" data-name="Trazado 9963" d="M290.889,411.388a5.445,5.445,0,1,1-5.446-5.446,5.446,5.446,0,0,1,5.446,5.446Zm0,0" transform="translate(-172.359 -167.936)" fill="#3d4159"/>
    <path id="Trazado_9964" data-name="Trazado 9964" d="M257.276,436.44H246.387a2.349,2.349,0,0,1,0-4.7h10.889a2.349,2.349,0,0,1,0,4.7Zm0,0" transform="translate(-156.547 -179.28)" fill="#eab599"/>
    <path id="Trazado_9965" data-name="Trazado 9965" d="M247.9,461.128a24.247,24.247,0,0,1-11.7-3.021,2.135,2.135,0,0,1,2.055-3.743,19.917,19.917,0,0,0,19.287,0,2.136,2.136,0,0,1,2.057,3.743,24.247,24.247,0,0,1-11.7,3.021Zm0,0" transform="translate(-152.612 -189.11)" fill="#eab599"/>
    <path id="Trazado_9966" data-name="Trazado 9966" d="M230.252,412.115a2.333,2.333,0,1,1-2.333-2.333,2.334,2.334,0,0,1,2.333,2.333Zm0,0" transform="translate(-148.433 -169.624)" fill="#fff"/>
    <path id="Trazado_9967" data-name="Trazado 9967" d="M294.268,412.115a2.333,2.333,0,1,1-2.333-2.333,2.334,2.334,0,0,1,2.333,2.333Zm0,0" transform="translate(-176.58 -169.624)" fill="#fff"/>
    <path id="Trazado_9968" data-name="Trazado 9968" d="M306.859,434.634a5.979,5.979,0,1,1-5.977-5.977,5.978,5.978,0,0,1,5.977,5.977Zm0,0" transform="translate(-178.911 -177.923)" fill="#eab599"/>
    <path id="Trazado_9969" data-name="Trazado 9969" d="M211.6,434.634a5.978,5.978,0,1,1-5.98-5.977,5.979,5.979,0,0,1,5.98,5.977Zm0,0" transform="translate(-137.027 -177.923)" fill="#eab599"/>
    <path id="Trazado_9970" data-name="Trazado 9970" d="M-60.5,418.477a13.419,13.419,0,0,1-3.22,8.74q-3.476-4.127-6.64-8.518a143.623,143.623,0,0,1-8.278-12.9A13.418,13.418,0,0,1-74,404.981a13.3,13.3,0,0,1,2.164.175A13.5,13.5,0,0,1-60.5,418.477Zm0,0" transform="translate(-14.669 -167.513)" fill="#d3a489"/>
    <path id="Trazado_9971" data-name="Trazado 9971" d="M-56.423,418.614a13.419,13.419,0,0,1-3.22,8.74q-3.476-4.127-6.64-8.518-1.589-2.2-3.084-4.467a49.27,49.27,0,0,1,1.609-9.074,13.5,13.5,0,0,1,11.335,13.32Zm0,0" transform="translate(-18.745 -167.651)" fill="#bf8e75"/>
    <path id="Trazado_9972" data-name="Trazado 9972" d="M95.824,418.481A13.5,13.5,0,0,0,107.157,431.8a13.791,13.791,0,0,0,2.162.173,13.5,13.5,0,1,0-13.5-13.5Zm0,0" transform="translate(-91.378 -167.515)" fill="#d3a489"/>
    <path id="Trazado_9973" data-name="Trazado 9973" d="M95.824,418.617a13.5,13.5,0,0,0,11.333,13.323,50.47,50.47,0,0,0,0-26.646,13.5,13.5,0,0,0-11.333,13.323Zm0,0" transform="translate(-91.378 -167.651)" fill="#bf8e75"/>
    <path id="Trazado_9974" data-name="Trazado 9974" d="M120.947,425.286a4.823,4.823,0,1,1-4.824-4.824,4.823,4.823,0,0,1,4.824,4.824Zm0,0" transform="translate(-98.183 -174.32)" fill="#bf8e75"/>
    <path id="Trazado_9975" data-name="Trazado 9975" d="M35.586,376.8A50.213,50.213,0,0,1-6.566,426.367a49.358,49.358,0,0,1-8.057.65c-.258,0-.514,0-.773-.013a144.1,144.1,0,0,1-48.893-42.809,50.51,50.51,0,0,1-.543-7.393c0-13.121,4.555-32.816,12.791-41.761,9.182-9.965,22.8-8.448,37.418-8.448a50.053,50.053,0,0,1,8.057.644A50.216,50.216,0,0,1,35.586,376.8Zm0,0" transform="translate(-20.739 -133.01)" fill="#bf8e75"/>
    <path id="Trazado_9976" data-name="Trazado 9976" d="M48.235,377.373A50.221,50.221,0,0,1,6.08,426.939a50.216,50.216,0,0,1,0-99.129,50.225,50.225,0,0,1,41.905,44.558c.164,1.648.25,3.32.25,5.006Zm0,0" transform="translate(-33.384 -133.582)" fill="#d3a489"/>
    <path id="Trazado_9977" data-name="Trazado 9977" d="M14.262,454.638a25.4,25.4,0,0,1-12.241-3.16,2.234,2.234,0,1,1,2.152-3.916,20.84,20.84,0,0,0,20.18,0,2.234,2.234,0,0,1,2.152,3.916,25.4,25.4,0,0,1-12.242,3.16Zm0,0" transform="translate(-49.625 -186.114)" fill="#bf8e75"/>
    <path id="Trazado_9978" data-name="Trazado 9978" d="M-3.249,406.583a5.7,5.7,0,0,1-5.695,5.7,5.7,5.7,0,0,1-5.7-5.7,5.7,5.7,0,0,1,5.7-5.7,5.7,5.7,0,0,1,5.695,5.7Zm0,0" transform="translate(-42.808 -165.713)" fill="#3d4159"/>
    <path id="Trazado_9979" data-name="Trazado 9979" d="M55.255,406.583a5.7,5.7,0,1,1-5.7-5.7,5.7,5.7,0,0,1,5.7,5.7Zm0,0" transform="translate(-68.531 -165.713)" fill="#3d4159"/>
    <path id="Trazado_9980" data-name="Trazado 9980" d="M-.211,407.344a2.441,2.441,0,0,1-2.44,2.44,2.442,2.442,0,0,1-2.443-2.44A2.442,2.442,0,0,1-2.651,404.9a2.441,2.441,0,0,1,2.44,2.441Zm0,0" transform="translate(-47.006 -167.479)" fill="#fff"/>
    <path id="Trazado_9981" data-name="Trazado 9981" d="M58.789,407.344a2.442,2.442,0,1,1-2.44-2.441,2.441,2.441,0,0,1,2.44,2.441Zm0,0" transform="translate(-72.947 -167.479)" fill="#fff"/>
    <path id="Trazado_9982" data-name="Trazado 9982" d="M24.075,432.792H12.685a2.458,2.458,0,0,1,0-4.916h11.39a2.458,2.458,0,1,1,0,4.916Zm0,0" transform="translate(-53.742 -177.58)" fill="#bf8e75"/>
    <path id="Trazado_9983" data-name="Trazado 9983" d="M19.535,300.99a30.438,30.438,0,0,1,28.2,28.842l.145,2.9h8.748l4.715,31.338,11.414-3.533-1.535-30.71a30.435,30.435,0,0,0-30.511-28.922Zm0,0" transform="translate(-57.835 -121.754)" fill="#2a2f4f"/>
    <path id="Trazado_9984" data-name="Trazado 9984" d="M75.63,279.423a31.016,31.016,0,0,1-43.864,43.864Zm0,0" transform="translate(-63.212 -112.307)" fill="#3d4159"/>
    <path id="Trazado_9985" data-name="Trazado 9985" d="M-10.76,332.735H-48.828l-4.714,31.34-11.414-3.533,1.532-30.712a30.435,30.435,0,0,1,30.511-28.919l54.979.206L29.333,314.2" transform="translate(-20.684 -121.754)" fill="#3d4159"/>
    <path id="Trazado_9986" data-name="Trazado 9986" d="M-11.742,300.99a30.439,30.439,0,0,0-28.2,28.842l-.144,2.9h-8.749l-4.714,31.338-11.414-3.533,1.534-30.71a30.436,30.436,0,0,1,30.511-28.922Zm0,0" transform="translate(-20.683 -121.754)" fill="#2a2f4f"/>
    <path id="Trazado_9987" data-name="Trazado 9987" d="M58,154.037a12.584,12.584,0,1,1-12.583-12.583,12.771,12.771,0,0,1,2.016.162A12.581,12.581,0,0,1,58,154.037Zm0,0" transform="translate(-63.679 -51.643)" fill="#f6caae"/>
    <path id="Trazado_9988" data-name="Trazado 9988" d="M68.143,154.162a12.582,12.582,0,0,1-10.567,12.423,47.035,47.035,0,0,1,0-24.846,12.585,12.585,0,0,1,10.567,12.423Zm0,0" transform="translate(-73.827 -51.768)" fill="#eab599"/>
    <path id="Trazado_9989" data-name="Trazado 9989" d="M56.257,160.383a4.5,4.5,0,1,1-4.5-4.5,4.5,4.5,0,0,1,4.5,4.5Zm0,0" transform="translate(-70.026 -57.989)" fill="#eab599"/>
    <path id="Trazado_9990" data-name="Trazado 9990" d="M210.246,154.037a12.584,12.584,0,1,0,12.583-12.583,12.776,12.776,0,0,0-2.016.162,12.583,12.583,0,0,0-10.567,12.421Zm0,0" transform="translate(-141.688 -51.643)" fill="#f6caae"/>
    <path id="Trazado_9991" data-name="Trazado 9991" d="M210.246,154.162a12.584,12.584,0,0,0,10.567,12.423,47.035,47.035,0,0,0,0-24.846,12.587,12.587,0,0,0-10.567,12.423Zm0,0" transform="translate(-141.688 -51.768)" fill="#eab599"/>
    <path id="Trazado_9992" data-name="Trazado 9992" d="M154.076,83.414v17.83a46.818,46.818,0,0,1-39.307,46.214c-.075.013-.153.026-.23.037a46.134,46.134,0,0,1-7.286.567,46.82,46.82,0,0,1-46.818-46.818V83.414a46.8,46.8,0,0,1,46.818-46.823h0a46.791,46.791,0,0,1,46.819,46.823Zm0,0" transform="translate(-75.818 -5.536)" fill="#eab599"/>
    <path id="Trazado_9993" data-name="Trazado 9993" d="M233.675,160.383a4.5,4.5,0,1,1-4.5-4.5,4.5,4.5,0,0,1,4.5,4.5Zm0,0" transform="translate(-148.035 -57.989)" fill="#eab599"/>
    <path id="Trazado_9994" data-name="Trazado 9994" d="M165.518,83.859v17.83A46.818,46.818,0,0,1,126.21,147.9c-.075.013-.153.026-.23.037a46.822,46.822,0,0,1-39.524-46.251V83.859A46.83,46.83,0,0,1,125.99,37.6a46.831,46.831,0,0,1,39.528,46.256Zm0,0" transform="translate(-87.26 -5.981)" fill="#f6caae"/>
    <path id="Trazado_9995" data-name="Trazado 9995" d="M117.866,142.943a5.312,5.312,0,1,1-5.312-5.309,5.312,5.312,0,0,1,5.312,5.309Zm0,0" transform="translate(-96.399 -49.963)" fill="#3d4159"/>
    <path id="Trazado_9996" data-name="Trazado 9996" d="M172.417,142.943a5.312,5.312,0,1,1-5.312-5.309,5.312,5.312,0,0,1,5.312,5.309Zm0,0" transform="translate(-120.384 -49.963)" fill="#3d4159"/>
    <path id="Trazado_9997" data-name="Trazado 9997" d="M120.7,143.653a2.276,2.276,0,1,1-2.277-2.277,2.277,2.277,0,0,1,2.277,2.277Zm0,0" transform="translate(-100.313 -51.609)" fill="#fff"/>
    <path id="Trazado_9998" data-name="Trazado 9998" d="M175.714,143.653a2.275,2.275,0,1,1-2.276-2.277,2.277,2.277,0,0,1,2.276,2.277Zm0,0" transform="translate(-124.504 -51.609)" fill="#fff"/>
    <path id="Trazado_9999" data-name="Trazado 9999" d="M143.343,163.666H132.722a2.292,2.292,0,0,1,0-4.583h10.622a2.292,2.292,0,0,1,0,4.583Zm0,0" transform="translate(-106.594 -59.394)" fill="#eab599"/>
    <path id="Trazado_10000" data-name="Trazado 10000" d="M134.191,187.753a23.654,23.654,0,0,1-11.414-2.948,2.083,2.083,0,1,1,2.007-3.651,19.429,19.429,0,0,0,18.816,0,2.083,2.083,0,1,1,2,3.651,23.642,23.642,0,0,1-11.414,2.948Zm0,0" transform="translate(-102.754 -68.985)" fill="#eab599"/>
    <path id="Trazado_10001" data-name="Trazado 10001" d="M154.076,61.7V79.962h-8.713v-14.3l-62.9-11.69L69.149,51.5V79.962H60.434V61.7A37.7,37.7,0,0,1,98.125,24h18.258c.5,0,.993.009,1.488.035a37.683,37.683,0,0,1,36.2,37.661Zm0,0" transform="translate(-75.818)" fill="#a35418"/>
    <path id="Trazado_10002" data-name="Trazado 10002" d="M171.359,61.724V79.989h-8.713v-14.3L99.742,54a37.7,37.7,0,0,1,35.413-29.933,37.683,37.683,0,0,1,36.2,37.661Zm0,0" transform="translate(-93.101 -0.027)" fill="#cc7a3b"/>
  </g>
</svg>
