<svg xmlns="http://www.w3.org/2000/svg" width="286.267" height="286.879" viewBox="0 0 286.267 286.879">
  <g id="Grupo_9316" data-name="Grupo 9316" transform="translate(111.004 -24.005)">
    <path id="Trazado_9920" data-name="Trazado 9920" d="M175.263,168.23A143.133,143.133,0,1,1,32.132,25.1,143.132,143.132,0,0,1,175.263,168.23Zm0,0" transform="translate(0 -0.48)" fill="#66baed"/>
    <path id="Trazado_9921" data-name="Trazado 9921" d="M171.51,117.294V262.462H-80.445V117.294A23.369,23.369,0,0,1-57.079,93.923h205.22a23.37,23.37,0,0,1,23.369,23.371Zm0,0" transform="translate(-13.403 -30.665)" fill="#3d4159"/>
    <path id="Trazado_9922" data-name="Trazado 9922" d="M167.675,130.986V258.63h-216.9V130.986a5.851,5.851,0,0,1,5.84-5.844h205.22a5.852,5.852,0,0,1,5.842,5.844Zm0,0" transform="translate(-27.095 -44.358)" fill="#dde8ed"/>
    <rect id="Rect치ngulo_6080" data-name="Rect치ngulo 6080" width="251.955" height="11.445" transform="translate(-93.848 218.332)" fill="#2a2f4f"/>
    <path id="Trazado_9923" data-name="Trazado 9923" d="M172.429,385.866a142.774,142.774,0,0,1-15.454,25.994,143.685,143.685,0,0,1-11.147,13.173h-207.1A144.043,144.043,0,0,1-72.423,411.86a142.636,142.636,0,0,1-15.452-25.994,19.913,19.913,0,0,1,4.6-.537h251.1a19.927,19.927,0,0,1,4.6.537Zm0,0" transform="translate(-10.144 -158.473)" fill="#3d4159"/>
    <path id="Trazado_9924" data-name="Trazado 9924" d="M158.225,259.457H-45.709a10.281,10.281,0,0,1-10.283-10.281V128.019a9.64,9.64,0,0,1,9.638-9.643h205.22a9.642,9.642,0,0,1,9.641,9.643V249.176a10.281,10.281,0,0,1-10.281,10.281Zm-203.136-7.594H157.423a3.486,3.486,0,0,0,3.487-3.487V128.019a2.047,2.047,0,0,0-2.044-2.049H-46.354a2.049,2.049,0,0,0-2.044,2.049V248.376a3.487,3.487,0,0,0,3.487,3.487Zm0,0" transform="translate(-24.128 -41.39)" fill="#2a2f4f"/>
    <path id="Trazado_9925" data-name="Trazado 9925" d="M138.171,399.59H94.284a13.547,13.547,0,0,1-13.546-13.546v-.715h70.979v.715a13.546,13.546,0,0,1-13.546,13.546Zm0,0" transform="translate(-84.096 -158.473)" fill="#2a2f4f"/>
    <path id="Trazado_9926" data-name="Trazado 9926" d="M169.046,432.587A143.688,143.688,0,0,1,157.9,445.761H-49.2a144.043,144.043,0,0,1-11.147-13.173Zm0,0" transform="translate(-22.215 -179.2)" fill="#2a2f4f"/>
    <path id="Trazado_9927" data-name="Trazado 9927" d="M155.821,327.374H31.773a46.82,46.82,0,0,1,34.656-43.9c.73-.193,1.467-.375,2.209-.539a48.711,48.711,0,0,1,6.094-.9c1.263-.1,2.535-.151,3.824-.151h30.481a47.128,47.128,0,0,1,9.926,1.05c.18.042.368.083.551.123.535.123,1.078.259,1.605.4a.161.161,0,0,1,.039.011,46.837,46.837,0,0,1,34.663,43.911Zm0,0" transform="translate(-62.62 -113.101)" fill="#dd3033"/>
    <path id="Trazado_9928" data-name="Trazado 9928" d="M173.767,327.374H72.691a46.816,46.816,0,0,1,34.659-43.9c.728-.193,1.465-.375,2.206-.539a48.761,48.761,0,0,1,6.092-.9c1.263-.1,2.538-.151,3.829-.151h7.507a47.128,47.128,0,0,1,9.926,1.05c.18.042.368.083.551.123.535.123,1.078.259,1.605.4a.161.161,0,0,1,.039.011,46.837,46.837,0,0,1,34.663,43.911Zm0,0" transform="translate(-80.567 -113.101)" fill="#f74f4f"/>
    <path id="Trazado_9929" data-name="Trazado 9929" d="M148.254,283.755l-.112.531L138.7,328.2H102.849l-9.436-43.9-.116-.537Zm0,0" transform="translate(-89.604 -113.924)" fill="#f2f0ec"/>
    <path id="Trazado_9930" data-name="Trazado 9930" d="M120.779,295.839l-21.07,11.71L93.3,277.735l13.09-7.711" transform="translate(-89.606 -107.901)" fill="#d8d5d0"/>
    <path id="Trazado_9931" data-name="Trazado 9931" d="M142.246,295.839l21.068,11.71,6.408-29.814-13.09-7.711" transform="translate(-111.073 -107.901)" fill="#d8d5d0"/>
    <path id="Trazado_9932" data-name="Trazado 9932" d="M30.195,157.5V86.918a62.912,62.912,0,1,1,125.824,0V157.5" transform="translate(-61.928)" fill="#ffe152"/>
    <path id="Trazado_9933" data-name="Trazado 9933" d="M56.073,89.678c0,24.965,14.619,53.847,22.645,67.823H30.191V86.921A62.874,62.874,0,0,1,92.644,24.013C73.3,24.5,56.073,55.527,56.073,89.678Zm0,0" transform="translate(-61.927 -0.004)" fill="#e8c934"/>
    <path id="Trazado_9934" data-name="Trazado 9934" d="M145.911,249.767v20.491a16.7,16.7,0,0,1-33.395,0V249.767Zm0,0" transform="translate(-98.034 -99.017)" fill="#eab599"/>
    <path id="Trazado_9935" data-name="Trazado 9935" d="M153.732,283.954v1.3a16.7,16.7,0,0,1-11.761,15.95,16.694,16.694,0,0,1-11.623-13.776q1.674.105,3.364.1a57.709,57.709,0,0,0,20.02-3.575Zm0,0" transform="translate(-105.854 -114.011)" fill="#f6caae"/>
    <path id="Trazado_9936" data-name="Trazado 9936" d="M36.408,177.82a15.519,15.519,0,1,1-13.04-15.327,15.527,15.527,0,0,1,13.04,15.327Zm0,0" transform="translate(-51.034 -60.652)" fill="#f6caae"/>
    <path id="Trazado_9937" data-name="Trazado 9937" d="M48.872,177.976a15.527,15.527,0,0,1-13.04,15.329,58.078,58.078,0,0,1,0-30.656,15.526,15.526,0,0,1,13.04,15.327Zm0,0" transform="translate(-63.498 -60.808)" fill="#eab599"/>
    <path id="Trazado_9938" data-name="Trazado 9938" d="M34.224,185.614a5.55,5.55,0,1,1-5.548-5.551,5.546,5.546,0,0,1,5.548,5.551Zm0,0" transform="translate(-58.828 -68.445)" fill="#eab599"/>
    <path id="Trazado_9939" data-name="Trazado 9939" d="M136.991,127.1v53.376a57.571,57.571,0,0,1-30.6,15.226l-.281.046a56.992,56.992,0,0,1-8.989.7,57.769,57.769,0,0,1-57.77-57.768v-22a57.852,57.852,0,0,1,.592-8.3c13.744,9.886,33.45,8.908,46.009-2.96a32.724,32.724,0,0,0,8.68-13.564,38.12,38.12,0,0,0,11.924,23.8A42.63,42.63,0,0,0,136.991,127.1Zm0,0" transform="translate(-65.945 -29.759)" fill="#eab599"/>
    <path id="Trazado_9940" data-name="Trazado 9940" d="M151.045,127.1v53.376a57.571,57.571,0,0,1-30.6,15.226l-.281.046a57.779,57.779,0,0,1-48.77-57.071v-22c0-.586.011-1.167.03-1.748A36.2,36.2,0,0,0,100,105.42a32.73,32.73,0,0,0,8.682-13.564,38.111,38.111,0,0,0,11.924,23.8A42.63,42.63,0,0,0,151.045,127.1Zm0,0" transform="translate(-79.998 -29.759)" fill="#f6caae"/>
    <path id="Trazado_9941" data-name="Trazado 9941" d="M182.527,159.068a9.6,9.6,0,0,0-19.191,0" transform="translate(-120.323 -55.029)" fill="#eab599"/>
    <path id="Trazado_9942" data-name="Trazado 9942" d="M106.191,159.068a9.6,9.6,0,0,0-19.191,0" transform="translate(-86.842 -55.029)" fill="#eab599"/>
    <path id="Trazado_9943" data-name="Trazado 9943" d="M105.528,168.718a6.553,6.553,0,1,1-6.553-6.553,6.555,6.555,0,0,1,6.553,6.553Zm0,0" transform="translate(-89.22 -60.596)" fill="#3d4159"/>
    <path id="Trazado_9944" data-name="Trazado 9944" d="M181.862,168.718a6.554,6.554,0,1,1-6.555-6.553,6.557,6.557,0,0,1,6.555,6.553Zm0,0" transform="translate(-122.699 -60.596)" fill="#3d4159"/>
    <path id="Trazado_9945" data-name="Trazado 9945" d="M141.486,198.814H128.378a2.827,2.827,0,0,1,0-5.653h13.108a2.827,2.827,0,1,1,0,5.653Zm0,0" transform="translate(-103.751 -74.19)" fill="#eab599"/>
    <path id="Trazado_9946" data-name="Trazado 9946" d="M130.217,228.483a29.2,29.2,0,0,1-14.086-3.636,2.57,2.57,0,1,1,2.476-4.5,23.984,23.984,0,0,0,23.218,0,2.57,2.57,0,0,1,2.476,4.5,29.208,29.208,0,0,1-14.084,3.636Zm0,0" transform="translate(-99.034 -85.972)" fill="#eab599"/>
    <path id="Trazado_9947" data-name="Trazado 9947" d="M109,169.585a2.808,2.808,0,1,1-2.807-2.807A2.81,2.81,0,0,1,109,169.585Zm0,0" transform="translate(-94.028 -62.619)" fill="#fff"/>
    <path id="Trazado_9948" data-name="Trazado 9948" d="M185.909,169.585a2.808,2.808,0,1,1-2.809-2.807,2.81,2.81,0,0,1,2.809,2.807Zm0,0" transform="translate(-127.76 -62.619)" fill="#fff"/>
    <path id="Trazado_9949" data-name="Trazado 9949" d="M201.055,196.65a7.2,7.2,0,1,1-7.2-7.2,7.2,7.2,0,0,1,7.2,7.2Zm0,0" transform="translate(-130.552 -72.564)" fill="#eab599"/>
    <path id="Trazado_9950" data-name="Trazado 9950" d="M86.608,196.65a7.2,7.2,0,1,1-7.2-7.2,7.2,7.2,0,0,1,7.2,7.2Zm0,0" transform="translate(-80.358 -72.564)" fill="#eab599"/>
    <rect id="Rect치ngulo_6081" data-name="Rect치ngulo 6081" width="202.334" height="7.594" transform="translate(-69.039 210.473)" fill="#2a2f4f"/>
  </g>
</svg>
