<svg id="Grupo_9323" data-name="Grupo 9323" xmlns="http://www.w3.org/2000/svg" width="273" height="273" viewBox="0 0 273 273">
  <path id="Trazado_10131" data-name="Trazado 10131" d="M273,136.5a136.469,136.469,0,0,1-62.729,114.862,133.5,133.5,0,0,1-15.11,8.417,135.595,135.595,0,0,1-42.61,12.287,137.843,137.843,0,0,1-39.651-1.1,135.482,135.482,0,0,1-32.342-9.917q-5.383-2.424-10.508-5.288c-.552-.306-1.1-.625-1.654-.935q-5.517-3.183-10.7-6.859-2.265-1.606-4.457-3.3A136.5,136.5,0,1,1,273,136.5Z" fill="#66baed"/>
  <path id="Trazado_10132" data-name="Trazado 10132" d="M259.042,386.883V410.1a59.194,59.194,0,0,1-76.886,0V386.883A59.193,59.193,0,0,0,259.042,386.883Z" transform="translate(-85.03 -180.596)" fill="#bfd5de"/>
  <path id="Trazado_10133" data-name="Trazado 10133" d="M259.042,386.883v8.179a59.194,59.194,0,0,1-76.886,0v-8.179A59.193,59.193,0,0,0,259.042,386.883Z" transform="translate(-85.03 -180.596)" fill="#dde8ed"/>
  <path id="Trazado_10134" data-name="Trazado 10134" d="M267.778,44.377a94.618,94.618,0,0,1-74.068,92.369A94.125,94.125,0,0,1,173.176,139,94.622,94.622,0,0,1,78.555,44.377c0-2.173.073-4.334.219-6.474A136.386,136.386,0,0,1,267.561,37.9Q267.777,41.106,267.778,44.377Z" transform="translate(-36.669)" fill="#6dc5ef"/>
  <path id="Trazado_10135" data-name="Trazado 10135" d="M380.645,392.93a136.678,136.678,0,0,1-74.775,51.719,134.563,134.563,0,0,1-19.768,3.818V416.6a38.7,38.7,0,0,1,35.541-38.572c1.048-.087,2.1-.127,3.164-.127h25.207a38.567,38.567,0,0,1,30.632,15.032Z" transform="translate(-133.552 -176.402)" fill="#bfd5de"/>
  <path id="Trazado_10136" data-name="Trazado 10136" d="M397.951,392.93a136.678,136.678,0,0,1-74.775,51.719V416.6a38.707,38.707,0,0,1,38.711-38.7h5.437A38.641,38.641,0,0,1,397.951,392.93Z" transform="translate(-150.858 -176.402)" fill="#dde8ed"/>
  <path id="Trazado_10137" data-name="Trazado 10137" d="M288.8,286.593a12.834,12.834,0,1,1-10.785-12.678A12.845,12.845,0,0,1,288.8,286.593Z" transform="translate(-122.82 -127.786)" fill="#d3a489"/>
  <path id="Trazado_10138" data-name="Trazado 10138" d="M383.628,404.082l-10.389,16.667-10.391-16.667" transform="translate(-169.376 -188.624)" fill="#f74f4f"/>
  <path id="Trazado_10139" data-name="Trazado 10139" d="M381.126,450.78a133.5,133.5,0,0,1-15.11,8.417l8.7-31.99Z" transform="translate(-170.855 -199.419)" fill="#f74f4f"/>
  <path id="Trazado_10140" data-name="Trazado 10140" d="M300.352,286.737a12.845,12.845,0,0,1-10.785,12.678,48.012,48.012,0,0,1,0-25.356A12.842,12.842,0,0,1,300.352,286.737Z" transform="translate(-134.374 -127.93)" fill="#bf8e75"/>
  <path id="Trazado_10141" data-name="Trazado 10141" d="M287.773,293.817a4.59,4.59,0,1,1-4.591-4.59A4.591,4.591,0,0,1,287.773,293.817Z" transform="translate(-130.047 -135.01)" fill="#bf8e75"/>
  <path id="Trazado_10142" data-name="Trazado 10142" d="M362.433,388.915,345.008,398.6l-5.3-24.657,10.827-6.378" transform="translate(-158.574 -171.579)" fill="#bfd5de"/>
  <path id="Trazado_10143" data-name="Trazado 10143" d="M382.328,388.915l17.427,9.686,5.3-24.657-10.828-6.378" transform="translate(-178.47 -171.579)" fill="#bfd5de"/>
  <path id="Trazado_10144" data-name="Trazado 10144" d="M453.379,286.593a12.834,12.834,0,1,0,10.785-12.678A12.845,12.845,0,0,0,453.379,286.593Z" transform="translate(-211.636 -127.786)" fill="#d3a489"/>
  <g id="Grupo_9322" data-name="Grupo 9322" transform="translate(156.079 104.119)">
    <path id="Trazado_10145" data-name="Trazado 10145" d="M453.379,286.737a12.845,12.845,0,0,0,10.785,12.678,48.012,48.012,0,0,0,0-25.356A12.842,12.842,0,0,0,453.379,286.737Z" transform="translate(-367.715 -232.049)" fill="#bf8e75"/>
    <path id="Trazado_10146" data-name="Trazado 10146" d="M478.036,293.817a4.591,4.591,0,1,1-4.59-4.59A4.591,4.591,0,0,1,478.036,293.817Z" transform="translate(-374.939 -239.13)" fill="#bf8e75"/>
    <path id="Trazado_10147" data-name="Trazado 10147" d="M388.285,243.134A47.786,47.786,0,0,1,348.17,290.3a47.176,47.176,0,0,1-7.669.616,47.779,47.779,0,0,1-47.782-47.782c0-12.487,4.337-31.232,12.178-39.744,8.731-9.479,21.7-8.04,35.6-8.04a47.764,47.764,0,0,1,47.784,47.784Z" transform="translate(-292.719 -195.272)" fill="#bf8e75"/>
    <path id="Trazado_10148" data-name="Trazado 10148" d="M384.054,349.926v16.948a13.81,13.81,0,0,1-27.62,0V349.926Z" transform="translate(-322.461 -267.464)" fill="#bf8e75"/>
  </g>
  <path id="Trazado_10149" data-name="Trazado 10149" d="M391.3,379.7v1.073a13.809,13.809,0,0,1-9.727,13.193,13.805,13.805,0,0,1-9.612-11.393q1.384.084,2.783.085A47.791,47.791,0,0,0,391.3,379.7Z" transform="translate(-173.632 -177.242)" fill="#d3a489"/>
  <path id="Trazado_10150" data-name="Trazado 10150" d="M401.712,243.742A47.786,47.786,0,0,1,361.6,290.907a47.787,47.787,0,0,1,0-94.333,47.8,47.8,0,0,1,39.88,42.4Q401.708,241.329,401.712,243.742Z" transform="translate(-150.068 -91.76)" fill="#d3a489"/>
  <path id="Trazado_10151" data-name="Trazado 10151" d="M371.169,323.047a24.163,24.163,0,0,1-11.649-3.008,2.126,2.126,0,0,1,2.05-3.726,19.831,19.831,0,0,0,19.2,0,2.126,2.126,0,0,1,2.05,3.726A24.177,24.177,0,0,1,371.169,323.047Z" transform="translate(-167.309 -147.531)" fill="#bf8e75"/>
  <path id="Trazado_10152" data-name="Trazado 10152" d="M353.759,275.071a5.421,5.421,0,1,1-5.422-5.419A5.422,5.422,0,0,1,353.759,275.071Z" transform="translate(-160.073 -125.873)" fill="#3d4159"/>
  <path id="Trazado_10153" data-name="Trazado 10153" d="M412.259,275.071a5.421,5.421,0,1,1-5.419-5.419A5.42,5.42,0,0,1,412.259,275.071Z" transform="translate(-187.381 -125.873)" fill="#3d4159"/>
  <path id="Trazado_10154" data-name="Trazado 10154" d="M357.11,275.99a2.322,2.322,0,1,1-2.323-2.322A2.322,2.322,0,0,1,357.11,275.99Z" transform="translate(-164.53 -127.747)" fill="#fff"/>
  <path id="Trazado_10155" data-name="Trazado 10155" d="M416.11,275.99a2.322,2.322,0,1,1-2.323-2.322A2.322,2.322,0,0,1,416.11,275.99Z" transform="translate(-192.071 -127.747)" fill="#fff"/>
  <path id="Trazado_10156" data-name="Trazado 10156" d="M380.961,301.319H370.12a2.339,2.339,0,1,1,0-4.678h10.841a2.339,2.339,0,0,1,0,4.678Z" transform="translate(-171.679 -138.471)" fill="#bf8e75"/>
  <path id="Trazado_10157" data-name="Trazado 10157" d="M377.09,169.75A28.965,28.965,0,0,1,403.923,197.2l.138,2.762h8.325l4.486,29.824,10.862-3.361-1.46-29.224a28.96,28.96,0,0,0-29.032-27.522Z" transform="translate(-176.024 -79.204)" fill="#2a2f4f"/>
  <path id="Trazado_10158" data-name="Trazado 10158" d="M431.066,148.187a29.516,29.516,0,0,1-41.742,41.742Z" transform="translate(-181.735 -69.173)" fill="#3d4159"/>
  <path id="Trazado_10159" data-name="Trazado 10159" d="M344.174,199.96H307.948l-4.484,29.824L292.6,226.422l1.456-29.224a28.964,28.964,0,0,1,29.037-27.522l52.316.2,6.917,12.451" transform="translate(-136.586 -79.204)" fill="#3d4159"/>
  <path id="Trazado_10160" data-name="Trazado 10160" d="M343.242,169.75A28.963,28.963,0,0,0,316.409,197.2l-.138,2.762h-8.327l-4.486,29.824-10.86-3.361,1.458-29.224a28.964,28.964,0,0,1,29.034-27.522Z" transform="translate(-136.584 -79.204)" fill="#2a2f4f"/>
  <path id="Trazado_10161" data-name="Trazado 10161" d="M134.093,410.508v35.2A136.493,136.493,0,0,1,45.4,388.87a36.158,36.158,0,0,1,19.606-13.293c.563-.156,1.131-.3,1.71-.419a35.262,35.262,0,0,1,4.7-.692c.975-.077,1.96-.123,2.958-.123H97.929a36.2,36.2,0,0,1,7.671.814c.146.027.285.06.425.094.416.1.829.2,1.241.306l.033.013a36.186,36.186,0,0,1,26.793,34.937Z" transform="translate(-21.194 -174.743)" fill="#3d4159"/>
  <path id="Trazado_10162" data-name="Trazado 10162" d="M124.475,375.871l-.09.413-11.533,53.641c-.6.05-1.2.1-1.8.14-.841.056-1.693.106-2.545.14-.608.027-1.22.056-1.833.073q-5.517-3.183-10.7-6.859-2.265-1.606-4.457-3.3l-9.427-43.835-.09-.413Z" transform="translate(-38.279 -175.455)" fill="#f74f4f"/>
  <path id="Trazado_10163" data-name="Trazado 10163" d="M123.041,398.816l-9.708,15.57-9.708-15.57" transform="translate(-48.372 -186.166)" fill="#dde8ed"/>
  <path id="Trazado_10164" data-name="Trazado 10164" d="M123.358,453.063a6.059,6.059,0,0,1,.785-2.206l-7.81-30.443L110.047,444.9Z" transform="translate(-51.37 -196.248)" fill="#dde8ed"/>
  <path id="Trazado_10165" data-name="Trazado 10165" d="M103.238,384.646l-16.281,9.048L82,370.658,92.12,364.7" transform="translate(-38.279 -170.24)" fill="#dd3033"/>
  <path id="Trazado_10166" data-name="Trazado 10166" d="M121.828,384.646l16.279,9.048,4.953-23.036L132.944,364.7" transform="translate(-56.869 -170.24)" fill="#dd3033"/>
  <path id="Trazado_10167" data-name="Trazado 10167" d="M148.134,406.959H153.3L141.883,436.5q-5.383-2.424-10.508-5.288L147.4,376.271l.123-.4,11.137,3.639Z" transform="translate(-61.325 -175.455)" fill="#2a2f4f"/>
  <path id="Trazado_10168" data-name="Trazado 10168" d="M86.12,423.418a136.762,136.762,0,0,1-19.206-16.458h4.5L60.887,379.51l11.143-3.639.117.4Z" transform="translate(-28.422 -175.455)" fill="#2a2f4f"/>
  <path id="Trazado_10169" data-name="Trazado 10169" d="M123.439,348.219v15.833a12.9,12.9,0,0,1-25.806,0V348.219Z" transform="translate(-45.575 -162.548)" fill="#eab599"/>
  <path id="Trazado_10170" data-name="Trazado 10170" d="M130.213,376.035v1a12.9,12.9,0,0,1-9.087,12.324,12.892,12.892,0,0,1-8.981-10.643c.86.052,1.729.079,2.6.079a44.634,44.634,0,0,0,15.469-2.762Z" transform="translate(-52.349 -175.532)" fill="#f6caae"/>
  <path id="Trazado_10171" data-name="Trazado 10171" d="M34.443,289.046a12,12,0,0,1-10.076,11.845,12.186,12.186,0,0,1-1.923.154,12,12,0,0,1,0-24,12.125,12.125,0,0,1,1.923.154A12,12,0,0,1,34.443,289.046Z" transform="translate(-4.876 -129.325)" fill="#f6caae"/>
  <path id="Trazado_10172" data-name="Trazado 10172" d="M45.238,289.181a12,12,0,0,1-10.076,11.845,44.873,44.873,0,0,1,0-23.69A12,12,0,0,1,45.238,289.181Z" transform="translate(-15.67 -129.46)" fill="#eab599"/>
  <path id="Trazado_10173" data-name="Trazado 10173" d="M33.483,295.8a4.289,4.289,0,1,1-4.289-4.289A4.289,4.289,0,0,1,33.483,295.8Z" transform="translate(-11.626 -136.075)" fill="#eab599"/>
  <path id="Trazado_10174" data-name="Trazado 10174" d="M188.207,289.046a12,12,0,0,0,10.076,11.845,12.186,12.186,0,0,0,1.923.154,12,12,0,0,0,0-24,12.125,12.125,0,0,0-1.923.154A12,12,0,0,0,188.207,289.046Z" transform="translate(-87.854 -129.325)" fill="#f6caae"/>
  <path id="Trazado_10175" data-name="Trazado 10175" d="M188.207,289.181a12,12,0,0,0,10.076,11.845,44.815,44.815,0,0,0,0-23.69A12,12,0,0,0,188.207,289.181Z" transform="translate(-87.854 -129.46)" fill="#eab599"/>
  <path id="Trazado_10176" data-name="Trazado 10176" d="M127.39,216.626v17A44.643,44.643,0,0,1,89.912,277.69c-.071.013-.146.025-.219.036a43.885,43.885,0,0,1-6.946.541A44.642,44.642,0,0,1,38.1,233.626v-17A44.621,44.621,0,0,1,82.746,171.98h0a44.606,44.606,0,0,1,44.639,44.646Z" transform="translate(-17.787 -80.28)" fill="#eab599"/>
  <path id="Trazado_10177" data-name="Trazado 10177" d="M211.245,295.8a4.289,4.289,0,1,1-4.289-4.289A4.289,4.289,0,0,1,211.245,295.8Z" transform="translate(-94.605 -136.075)" fill="#eab599"/>
  <path id="Trazado_10178" data-name="Trazado 10178" d="M139.562,217.1v17a44.644,44.644,0,0,1-37.478,44.064l-.219.036A44.646,44.646,0,0,1,64.18,234.1v-17a44.65,44.65,0,0,1,37.693-44.1A44.653,44.653,0,0,1,139.562,217.1Z" transform="translate(-29.959 -80.752)" fill="#f6caae"/>
  <path id="Trazado_10179" data-name="Trazado 10179" d="M95.133,278.284a5.064,5.064,0,1,1-5.063-5.065A5.064,5.064,0,0,1,95.133,278.284Z" transform="translate(-39.68 -127.538)" fill="#3d4159"/>
  <path id="Trazado_10180" data-name="Trazado 10180" d="M149.791,278.284a5.065,5.065,0,1,1-5.065-5.065A5.065,5.065,0,0,1,149.791,278.284Z" transform="translate(-65.193 -127.538)" fill="#3d4159"/>
  <path id="Trazado_10181" data-name="Trazado 10181" d="M98.266,279.141a2.17,2.17,0,1,1-2.17-2.168A2.17,2.17,0,0,1,98.266,279.141Z" transform="translate(-43.844 -129.29)" fill="#fff"/>
  <path id="Trazado_10182" data-name="Trazado 10182" d="M153.387,279.141a2.17,2.17,0,1,1-2.17-2.168A2.169,2.169,0,0,1,153.387,279.141Z" transform="translate(-69.575 -129.29)" fill="#fff"/>
  <path id="Trazado_10183" data-name="Trazado 10183" d="M120.55,299.081H110.421a2.185,2.185,0,0,1,0-4.37H120.55a2.185,2.185,0,1,1,0,4.37Z" transform="translate(-50.525 -137.57)" fill="#eab599"/>
  <path id="Trazado_10184" data-name="Trazado 10184" d="M111.4,323.1a22.577,22.577,0,0,1-10.885-2.809,1.987,1.987,0,0,1,1.914-3.483,18.527,18.527,0,0,0,17.941,0,1.987,1.987,0,0,1,1.914,3.483A22.582,22.582,0,0,1,111.4,323.1Z" transform="translate(-46.441 -147.773)" fill="#eab599"/>
  <path id="Trazado_10185" data-name="Trazado 10185" d="M127.39,195.308v17.415h-8.308V199.086L59.1,187.941l-12.689-2.36v27.142H38.1V195.308a35.939,35.939,0,0,1,35.939-35.941H91.453c.473,0,.946.009,1.418.031A35.931,35.931,0,0,1,127.39,195.308Z" transform="translate(-17.787 -74.392)" fill="#e8c934"/>
  <path id="Trazado_10186" data-name="Trazado 10186" d="M145.774,195.336v17.415h-8.308V199.114L77.488,187.969a35.944,35.944,0,0,1,33.767-28.543A35.931,35.931,0,0,1,145.774,195.336Z" transform="translate(-36.171 -74.42)" fill="#ffe152"/>
  <path id="Trazado_10187" data-name="Trazado 10187" d="M262.7,44.383a53.823,53.823,0,1,1-90.48-39.407,137.535,137.535,0,0,1,73.32,0A53.674,53.674,0,0,1,262.7,44.383Z" transform="translate(-72.377)" fill="#dde8ed"/>
  <path id="Trazado_10188" data-name="Trazado 10188" d="M259.99,55.148a32.041,32.041,0,1,1-25.121-31.33A32.089,32.089,0,0,1,259.99,55.148Z" transform="translate(-91.404 -10.765)" fill="#fff0aa"/>
  <path id="Trazado_10189" data-name="Trazado 10189" d="M272.186,55.81a32.089,32.089,0,0,1-25.121,31.328,32.094,32.094,0,0,1,0-62.658A32.1,32.1,0,0,1,272.186,55.81Z" transform="translate(-103.599 -11.427)" fill="#ffe152"/>
  <path id="Trazado_10190" data-name="Trazado 10190" d="M238.4,90.9a20.122,20.122,0,0,1-20.1-20.1h6.2a13.9,13.9,0,0,0,27.8,0h6.2A20.122,20.122,0,0,1,238.4,90.9Z" transform="translate(-101.902 -33.05)" fill="#fff"/>
  <path id="Trazado_10191" data-name="Trazado 10191" d="M250.184,102.684h6.2v29.245h-6.2Z" transform="translate(-116.785 -47.933)" fill="#fff"/>
  <path id="Trazado_10192" data-name="Trazado 10192" d="M258.065,135.312V146.9a8.378,8.378,0,0,1-8.373,8.379h-16.5a8.38,8.38,0,0,1-8.379-8.379V135.312Z" transform="translate(-104.94 -63.163)" fill="#2a2f4f"/>
  <path id="Trazado_10193" data-name="Trazado 10193" d="M266.28,135.312V146.9a8.378,8.378,0,0,1-8.373,8.379h-7.121a8.383,8.383,0,0,1-8.379-8.379V135.312Z" transform="translate(-113.154 -63.163)" fill="#3d4159"/>
  <path id="Trazado_10194" data-name="Trazado 10194" d="M188,383.549a7.057,7.057,0,0,1-9.283,3.662l-13.784-5.978a7.056,7.056,0,0,1-3.666-9.277,6.966,6.966,0,0,1,1.785-2.464,7.043,7.043,0,0,1,7.5-1.206l13.784,5.978a7.045,7.045,0,0,1,3.757,3.882,7.083,7.083,0,0,1-.09,5.4Z" transform="translate(-75.007 -171.642)" fill="#bf8e75"/>
  <path id="Trazado_10195" data-name="Trazado 10195" d="M190.652,380.561a7.052,7.052,0,0,1-7.5,1.2l-13.786-5.978a7.06,7.06,0,0,1-4.243-6.292,7.048,7.048,0,0,1,7.5-1.208l13.784,5.98a7.038,7.038,0,0,1,3.757,3.882A6.965,6.965,0,0,1,190.652,380.561Z" transform="translate(-77.08 -171.642)" fill="#d3a489"/>
</svg>
